<svg width="94" height="50" viewBox="0 0 94 50" fill="none" xmlns="http://www.w3.org/2000/svg">
<path d="M21.6919 24.8489L28.5459 22.0335V13.0815" stroke="#4CC326" stroke-width="1.06746" stroke-miterlimit="10"/>
<path d="M5.08691 32.0103L28.5464 43.0191V33.8485" stroke="#4CC326" stroke-width="1.06746" stroke-miterlimit="10"/>
<path d="M35.5571 49.2723H44.837L62.5291 8.82471" stroke="#4CC326" stroke-width="1.06746" stroke-miterlimit="10"/>
<path d="M69.5405 43.0192L93 32.0104V24.1929" stroke="#4CC326" stroke-width="1.06746" stroke-miterlimit="10"/>
<path d="M69.5405 22.0332L72.2329 23.1402" stroke="#4CC326" stroke-width="1.06746" stroke-miterlimit="10"/>
<path d="M1 24.193L24.4595 35.195V26.0244L10.3209 20.0109L24.4595 14.2161V5.26416L1 16.3686V24.193Z" stroke="#4CC326" stroke-width="1.06746" stroke-miterlimit="10"/>
<path d="M31.4712 41.4545H40.7511L58.4431 1H49.2179L31.4712 41.4545Z" stroke="#4CC326" stroke-width="1.06746" stroke-miterlimit="10"/>
<path d="M65.4541 5.26416V14.2161L79.5927 20.0109L65.4541 26.0244V35.195L88.9136 24.193V16.3686L65.4541 5.26416Z" stroke="#4CC326" stroke-width="1.06746" stroke-miterlimit="10"/>
<path d="M1.01416 24.1997L5.09377 32.0241" stroke="#4CC326" stroke-width="1.06746" stroke-miterlimit="10"/>
<path d="M24.4873 5.22998L28.5396 13.1022" stroke="#4CC326" stroke-width="1.06746" stroke-miterlimit="10"/>
<path d="M24.4326 26.0312L28.5464 33.842" stroke="#4CC326" stroke-width="1.06746" stroke-miterlimit="10"/>
<path d="M24.4727 14.2095L28.5249 22.0817" stroke="#4CC326" stroke-width="1.06746" stroke-miterlimit="10"/>
<path d="M24.439 35.1201L28.5459 43.006" stroke="#4CC326" stroke-width="1.06746" stroke-miterlimit="10"/>
<path d="M31.4639 41.4272L35.5572 49.2516" stroke="#4CC326" stroke-width="1.06746" stroke-miterlimit="10"/>
<path d="M40.7104 41.4272L44.7969 49.2516" stroke="#4CC326" stroke-width="1.06746" stroke-miterlimit="10"/>
<path d="M58.4771 1.04102L62.5703 8.8654" stroke="#4CC326" stroke-width="1.06746" stroke-miterlimit="10"/>
<path d="M69.5201 21.9997L65.4404 14.2231" stroke="#4CC326" stroke-width="1.06746" stroke-miterlimit="10"/>
<path d="M69.5064 43.0055L65.4541 35.1948" stroke="#4CC326" stroke-width="1.06746" stroke-miterlimit="10"/>
<path d="M92.9864 31.9904L88.9067 24.1729" stroke="#4CC326" stroke-width="1.06746" stroke-miterlimit="10"/>
<path d="M92.9864 24.193L88.9067 16.3687" stroke="#4CC326" stroke-width="1.06746" stroke-miterlimit="10"/>
</svg>
