<svg width="90" height="63" viewBox="0 0 90 63" fill="none" xmlns="http://www.w3.org/2000/svg">
<path d="M89.2393 51.4644C89.2699 51.4337 89.2699 51.4337 89.2393 51.4644V51.4644Z" fill="#4CC326"/>
<path d="M0 51.4644C0.0306479 51.4337 0.0306479 51.4337 0 51.4644V51.4644Z" fill="#4CC326"/>
<path d="M69.3777 35.6929C68.466 35.4497 67.5787 35.3464 66.7217 35.3647C67.0134 34.1187 67.1836 32.7877 67.2201 31.3898C67.5118 21.3372 60.8871 11.3454 52.439 9.07231C45.0667 7.09096 38.7397 11.6371 37.0562 19.5078C35.6462 18.4928 34.1146 17.7331 32.4979 17.3016C25.7212 15.4783 19.9656 20.0609 18.9992 27.6885C18.2517 27.2387 17.4676 26.8862 16.6471 26.6674C11.8032 25.3668 7.7493 28.983 7.5852 34.7447C7.4211 40.5064 11.2197 46.2317 16.0576 47.5323C16.5377 47.6599 17.0118 47.739 17.4737 47.7754L67.0681 61.11C67.5787 61.3349 68.1074 61.5233 68.6423 61.6692C74.6714 63.2919 79.722 58.7883 79.9226 51.6166C80.1232 44.4448 75.4068 37.3156 69.3777 35.6929Z" stroke="#4CC326" stroke-width="1.06746" stroke-miterlimit="10"/>
<path d="M42.4712 10.5793C41.7054 10.2086 40.9214 9.90469 40.1069 9.69197C36.7155 8.78031 33.5855 9.47317 31.1787 11.339" stroke="#4CC326" stroke-width="1.06746" stroke-miterlimit="10"/>
<path d="M84.809 51.5976C86.4318 49.7743 87.4468 47.1426 87.5319 44.0065C87.7324 36.8348 83.01 29.7056 76.9809 28.0828C76.0692 27.8397 75.1819 27.7364 74.3249 27.7546C74.6167 26.5087 74.7868 25.1776 74.8233 23.7798C75.109 13.7272 68.4842 3.73534 60.0361 1.46226C55.964 0.368268 52.208 1.26778 49.3818 3.61379" stroke="#4CC326" stroke-width="1.06746" stroke-miterlimit="10"/>
<path d="M23.545 18.8999C21.4056 18.5291 19.4486 19.1308 17.9717 20.4436" stroke="#4CC326" stroke-width="1.06746" stroke-miterlimit="10"/>
<path d="M76.9805 59.4505L84.8268 51.5737" stroke="#4CC326" stroke-width="1.06746" stroke-miterlimit="10"/>
<path d="M66.9766 35.109L74.4765 27.603" stroke="#4CC326" stroke-width="1.06746" stroke-miterlimit="10"/>
<path d="M42.1982 10.9377L49.4612 3.55322" stroke="#4CC326" stroke-width="1.06746" stroke-miterlimit="10"/>
<path d="M23.6182 18.8819L31.2275 11.2969" stroke="#4CC326" stroke-width="1.06746" stroke-miterlimit="10"/>
<path d="M10.8555 27.6513L18.3615 20.1514" stroke="#4CC326" stroke-width="1.06746" stroke-miterlimit="10"/>
</svg>
