<svg xmlns="http://www.w3.org/2000/svg" xmlns:xlink="http://www.w3.org/1999/xlink" preserveAspectRatio="xMidYMid meet" width="100" height="100" viewBox="0 0 100 100" style="width:100%;height:100%"><defs><animateMotion repeatCount="indefinite" dur="18.8666667s" begin="0s" xlink:href="#_R_G_L_0_G" fill="freeze" keyTimes="0;0.1248896;0.2497792;0.3746687;0.4995583;0.6244479;0.7493375;0.874227;0.9991166;1" path="M50 50 C50,50 50,56.25 50,56.25 C50,56.25 50,50 50,50 C50,50 50,45 50,45 C50,45 50,50 50,50 C50,50 50,56.25 50,56.25 C50,56.25 50,50 50,50 C50,50 50,45 50,45 C50,45 50,50 50,50 C50,50 50,50 50,50 " keyPoints="0;0.14;0.28;0.39;0.5;0.64;0.78;0.89;1;1" keySplines="0.53 0 0.47 1;0.53 0 0.833 0.85;0.167 0.188 0.47 1;0.53 0 0.47 1;0.53 0 0.47 1;0.53 0 0.833 0.85;0.167 0.188 0.47 1;0.53 0 0.47 1;0 0 0 0" calcMode="spline"/><animateTransform repeatCount="indefinite" dur="18.8666667s" begin="0s" xlink:href="#_R_G_L_0_G" fill="freeze" attributeName="transform" from="0" to="0" type="rotate" additive="sum" keyTimes="0;0.1248896;0.2497792;0.3750866;0.4995583;0.6244479;0.7493375;0.8746449;0.9991166;1" values="0;15;0;-15;0;15;0;-15;0;0" keySplines="0.53 0 0.47 1;0.53 0 0.833 0.834;0.167 0.167 0.47 1;0.53 0 0.47 1;0.53 0 0.47 1;0.53 0 0.833 0.834;0.167 0.167 0.47 1;0.53 0 0.47 1;0 0 0 0" calcMode="spline"/><animateTransform repeatCount="indefinite" dur="18.8666667s" begin="0s" xlink:href="#_R_G_L_0_G" fill="freeze" attributeName="transform" from="-737.279 -332.448" to="-737.279 -332.448" type="translate" additive="sum" keyTimes="0;1" values="-737.279 -332.448;-737.279 -332.448" keySplines="0 0 1 1" calcMode="spline"/><animate attributeType="XML" attributeName="opacity" dur="19s" from="0" to="1" xlink:href="#time_group"/></defs><g id="_R_G"><g id="_R_G_L_0_G_N_1_T_0"><g id="_R_G_L_0_G"><path id="_R_G_L_0_G_D_0_P_0" fill="#4cc326" fill-opacity="1" fill-rule="nonzero" d="  "/><path id="_R_G_L_0_G_D_1_P_0" fill="#4cc326" fill-opacity="1" fill-rule="nonzero" d="  "/><path id="_R_G_L_0_G_D_2_P_0" stroke="#4cc326" stroke-linecap="round" stroke-linejoin="round" fill="none" stroke-width="1.067" stroke-opacity="1" d=" M756.36 335.68 C755.66,335.49 754.98,335.41 754.32,335.43 C754.54,334.47 754.67,333.44 754.7,332.36 C754.93,324.61 749.82,316.91 743.31,315.16 C737.62,313.63 732.75,317.14 731.45,323.2 C730.36,322.42 729.18,321.84 727.94,321.5 C722.71,320.1 718.27,323.63 717.53,329.51 C716.95,329.16 716.35,328.89 715.72,328.72 C711.98,327.72 708.86,330.51 708.73,334.95 C708.6,339.39 711.53,343.8 715.26,344.81 C715.63,344.91 716,344.97 716.35,344.99 C716.35,344.99 754.58,355.27 754.58,355.27 C754.98,355.45 755.38,355.59 755.8,355.7 C760.44,356.96 764.34,353.48 764.49,347.96 C764.65,342.43 761.01,336.93 756.36,335.68z "/><path id="_R_G_L_0_G_D_3_P_0" stroke="#4cc326" stroke-linecap="round" stroke-linejoin="round" fill="none" stroke-width="1.067" stroke-opacity="1" d=" M735.62 316.32 C735.03,316.03 734.43,315.8 733.8,315.64 C731.19,314.93 728.77,315.47 726.92,316.91 "/><path id="_R_G_L_0_G_D_4_P_0" stroke="#4cc326" stroke-linecap="round" stroke-linejoin="round" fill="none" stroke-width="1.067" stroke-opacity="1" d=" M768.26 347.94 C769.51,346.54 770.29,344.51 770.36,342.09 C770.51,336.56 766.87,331.07 762.23,329.81 C761.52,329.63 760.84,329.55 760.18,329.56 C760.4,328.6 760.53,327.57 760.56,326.5 C760.78,318.75 755.68,311.05 749.16,309.29 C746.03,308.45 743.13,309.14 740.95,310.95 "/><path id="_R_G_L_0_G_D_5_P_0" stroke="#4cc326" stroke-linecap="round" stroke-linejoin="round" fill="none" stroke-width="1.067" stroke-opacity="1" d=" M721.03 322.74 C719.39,322.45 717.88,322.91 716.74,323.93 "/><path id="_R_G_L_0_G_D_6_P_0" stroke="#4cc326" stroke-linecap="round" stroke-linejoin="round" fill="none" stroke-width="1.067" stroke-opacity="1" d=" M762.23 353.99 C762.23,353.99 768.27,347.92 768.27,347.92 "/><path id="_R_G_L_0_G_D_7_P_0" stroke="#4cc326" stroke-linecap="round" stroke-linejoin="round" fill="none" stroke-width="1.067" stroke-opacity="1" d=" M754.51 335.23 C754.51,335.23 760.29,329.44 760.29,329.44 "/><path id="_R_G_L_0_G_D_8_P_0" stroke="#4cc326" stroke-linecap="round" stroke-linejoin="round" fill="none" stroke-width="1.067" stroke-opacity="1" d=" M735.41 316.6 C735.41,316.6 741.01,310.9 741.01,310.9 "/><path id="_R_G_L_0_G_D_9_P_0" stroke="#4cc326" stroke-linecap="round" stroke-linejoin="round" fill="none" stroke-width="1.067" stroke-opacity="1" d=" M721.09 322.72 C721.09,322.72 726.96,316.87 726.96,316.87 "/><path id="_R_G_L_0_G_D_10_P_0" stroke="#4cc326" stroke-linecap="round" stroke-linejoin="round" fill="none" stroke-width="1.067" stroke-opacity="1" d=" M711.25 329.48 C711.25,329.48 717.04,323.7 717.04,323.7 "/></g></g></g><g id="time_group"/></svg>