<svg xmlns="http://www.w3.org/2000/svg" xmlns:xlink="http://www.w3.org/1999/xlink" preserveAspectRatio="xMidYMid meet" width="130" height="130" viewBox="0 0 130 130" style="width:100%;height:100%"><defs><animateMotion repeatCount="indefinite" dur="18.8666667s" begin="0s" xlink:href="#_R_G_L_0_G" fill="freeze" keyTimes="0;0.125;0.25;0.375;0.5;0.625;0.75;0.875;1" path="M50 50 C50,50 50,36.25 50,36.25 C50,36.25 50,50 50,50 C50,50 50,45 50,45 C50,45 50,50 50,50 C50,50 50,36.25 50,36.25 C50,36.25 50,50 50,50 C50,50 50,45 50,45 C50,45 50,50 50,50 " keyPoints="0;0.18;0.37;0.43;0.5;0.68;0.87;0.93;1" keySplines="0.53 0 0.47 1;0.53 0 0.833 0.886;0.167 0.313 0.47 1;0.53 0 0.47 1;0.53 0 0.47 1;0.53 0 0.833 0.886;0.167 0.313 0.47 1;0.53 0 0.47 1" calcMode="spline"/><animateTransform repeatCount="indefinite" dur="18.8666667s" begin="0s" xlink:href="#_R_G_L_0_G" fill="freeze" attributeName="transform" from="0" to="0" type="rotate" additive="sum" keyTimes="0;0.125;0.25;0.3754178;0.5;0.625;0.75;0.8754178;1" values="0;-9;0;15;0;-9;0;15;0" keySplines="0.53 0 0.47 1;0.53 0 0.833 0.778;0.167 0.134 0.47 1;0.53 0 0.47 1;0.53 0 0.47 1;0.53 0 0.833 0.778;0.167 0.134 0.47 1;0.53 0 0.47 1" calcMode="spline"/><animateTransform repeatCount="indefinite" dur="18.8666667s" begin="0s" xlink:href="#_R_G_L_0_G" fill="freeze" attributeName="transform" from="-864.263 -802.937" to="-864.263 -802.937" type="translate" additive="sum" keyTimes="0;1" values="-864.263 -802.937;-864.263 -802.937" keySplines="0 0 1 1" calcMode="spline"/><animate attributeType="XML" attributeName="opacity" dur="19s" from="0" to="1" xlink:href="#time_group"/></defs><g id="_R_G"><g id="_R_G_L_0_G_N_1_T_0" transform=" translate(65, 65) translate(-50, -50)"><g id="_R_G_L_0_G"><path id="_R_G_L_0_G_D_0_P_0" stroke="#4cc326" stroke-linecap="round" stroke-linejoin="round" fill="none" stroke-width="1.067" stroke-opacity="1" d=" M854.35 790.68 C854.35,790.68 855.68,798.22 855.68,798.22 C855.68,798.22 861.01,797.33 861.01,797.33 C861.01,797.33 854.54,790.64 854.54,790.64 C854.54,790.64 854.35,790.68 854.35,790.68z "/><path id="_R_G_L_0_G_D_1_P_0" stroke="#4cc326" stroke-linecap="round" stroke-linejoin="round" fill="none" stroke-width="1.067" stroke-opacity="1" d=" M823.1 819.99 C823.03,820.33 823.09,820.72 823.3,821.11 C823.3,821.11 824.64,823.56 824.64,823.56 C825.21,824.6 826.67,825.27 827.92,825.07 C827.92,825.07 829.12,824.86 829.12,824.86  M817.14 808.58 C816.92,808.99 816.93,809.51 817.21,810.03 C817.21,810.03 818.55,812.47 818.55,812.47 C819.12,813.52 820.59,814.19 821.83,813.99 C821.83,813.99 822.83,813.82 822.83,813.82  M811.04 797.45 C810.82,797.86 810.83,798.38 811.11,798.89 C811.11,798.89 812.45,801.34 812.45,801.34 C813.01,802.39 814.48,803.06 815.73,802.85 C815.73,802.85 816.96,802.65 816.96,802.65  M904.76 824.28 C904.76,824.28 916.16,822.39 916.16,822.39 C916.98,822.25 917.5,821.76 917.58,821.13  M894.09 832.66 C894.09,832.66 899.1,841.79 899.1,841.79 C899.67,842.83 901.13,843.5 902.38,843.3 C902.38,843.3 905.31,842.81 905.31,842.81 C906.54,842.61 907.09,841.59 906.52,840.56  M880.97 834.84 C880.97,834.84 885.98,843.97 885.98,843.97 C886.55,845.02 888.02,845.69 889.26,845.48 C889.26,845.48 892.19,845 892.19,845 C893.43,844.8 893.98,843.78 893.4,842.74  M867.75 837.04 C867.75,837.04 872.76,846.17 872.76,846.17 C873.33,847.21 874.8,847.88 876.05,847.68 C876.05,847.68 878.97,847.2 878.97,847.2 C880.21,846.99 880.76,845.97 880.18,844.94  M829.25 830.65 C829.03,831.06 829.04,831.58 829.32,832.09 C829.32,832.09 830.66,834.55 830.66,834.55 C831.23,835.59 832.69,836.26 833.94,836.06 C833.94,836.06 844.61,834.28 844.61,834.28 C844.61,834.28 845.18,835.32 845.18,835.32 C846.7,838.09 850.62,839.9 853.92,839.34 C853.92,839.34 854.46,839.26 854.46,839.26 C854.46,839.26 859.47,848.39 859.47,848.39 C860.04,849.43 861.5,850.1 862.75,849.9 C862.75,849.9 865.68,849.42 865.68,849.42 C866.91,849.21 867.46,848.2 866.89,847.16 "/><path id="_R_G_L_0_G_D_2_P_0" stroke="#4cc326" stroke-linecap="round" stroke-linejoin="round" fill="none" stroke-width="1.067" stroke-opacity="1" d=" M897.95 775 C899.18,774.8 899.74,773.78 899.16,772.74 C899.16,772.74 897.82,770.29 897.82,770.29 C897.25,769.25 895.78,768.58 894.54,768.79 C894.54,768.79 883.14,770.68 883.14,770.68 C883.14,770.68 882.74,769.95 882.74,769.95 C881.23,767.17 877.31,765.37 874,765.92 C874,765.92 873.42,766.01 873.42,766.01 C873.42,766.01 868.74,757.48 868.74,757.48 C868.17,756.44 866.7,755.77 865.46,755.97 C865.46,755.97 862.53,756.46 862.53,756.46 C861.29,756.66 860.74,757.68 861.32,758.71 C861.32,758.71 866,767.24 866,767.24 C866,767.24 860.3,768.19 860.3,768.19 C860.3,768.19 855.62,759.66 855.62,759.66 C855.05,758.62 853.59,757.95 852.34,758.15 C852.34,758.15 849.41,758.64 849.41,758.64 C848.18,758.84 847.62,759.86 848.2,760.89 C848.2,760.89 852.88,769.42 852.88,769.42 C852.88,769.42 847.07,770.39 847.07,770.39 C847.07,770.39 842.39,761.86 842.39,761.86 C841.83,760.82 840.36,760.15 839.11,760.35 C839.11,760.35 836.19,760.83 836.19,760.83 C834.95,761.04 834.4,762.05 834.97,763.09 C834.97,763.09 839.65,771.62 839.65,771.62 C839.65,771.62 833.79,772.59 833.79,772.59 C833.79,772.59 829.12,764.08 829.12,764.08 C828.55,763.04 827.08,762.37 825.83,762.57 C825.83,762.57 822.91,763.05 822.91,763.05 C821.67,763.26 821.12,764.27 821.7,765.31 C821.7,765.31 826.38,773.84 826.38,773.84 C826.38,773.84 825.84,773.92 825.84,773.92 C822.54,774.47 821.09,777.17 822.6,779.94 C822.6,779.94 823,780.67 823,780.67 C823,780.67 812.33,782.44 812.33,782.44 C811.09,782.65 810.54,783.67 811.12,784.7 C811.12,784.7 812.46,787.15 812.46,787.15 C813.02,788.19 814.49,788.86 815.74,788.66 C815.74,788.66 826.41,786.89 826.41,786.89 C826.41,786.89 829.11,791.8 829.11,791.8 C829.11,791.8 818.43,793.59 818.43,793.59 C817.19,793.79 816.64,794.81 817.22,795.84 C817.22,795.84 818.56,798.29 818.56,798.29 C819.13,799.33 820.59,800 821.84,799.8 C821.84,799.8 832.52,798.03 832.52,798.03 C832.52,798.03 835.19,802.9 835.19,802.9 C835.19,802.9 824.51,804.67 824.51,804.67 C823.27,804.87 822.72,805.89 823.3,806.92 C823.3,806.92 824.64,809.37 824.64,809.37 C825.21,810.42 826.67,811.09 827.92,810.88 C827.92,810.88 838.6,809.11 838.6,809.11 C838.6,809.11 841.21,813.88 841.21,813.88 C841.21,813.88 830.54,815.66 830.54,815.66 C829.3,815.86 828.75,816.88 829.33,817.91 C829.33,817.91 830.67,820.36 830.67,820.36 C831.24,821.4 832.7,822.07 833.95,821.87 C833.95,821.87 844.62,820.1 844.62,820.1 C844.62,820.1 845.19,821.13 845.19,821.13 C846.71,823.91 850.63,825.71 853.93,825.16 C853.93,825.16 854.47,825.08 854.47,825.08 C854.47,825.08 859.47,834.2 859.47,834.2 C860.04,835.24 861.5,835.91 862.75,835.71 C862.75,835.71 865.68,835.22 865.68,835.22 C866.91,835.02 867.47,834 866.89,832.97 C866.89,832.97 861.88,823.84 861.88,823.84 C861.88,823.84 867.74,822.86 867.74,822.86 C867.74,822.86 872.76,831.99 872.76,831.99 C873.32,833.04 874.79,833.71 876.04,833.5 C876.04,833.5 878.96,833.02 878.96,833.02 C880.2,832.82 880.75,831.8 880.17,830.76 C880.17,830.76 875.16,821.63 875.16,821.63 C875.16,821.63 880.97,820.67 880.97,820.67 C880.97,820.67 885.98,829.8 885.98,829.8 C886.55,830.84 888.02,831.51 889.26,831.31 C889.26,831.31 892.19,830.82 892.19,830.82 C893.43,830.62 893.98,829.6 893.4,828.57 C893.4,828.57 888.39,819.44 888.39,819.44 C888.39,819.44 894.09,818.49 894.09,818.49 C894.09,818.49 899.1,827.62 899.1,827.62 C899.67,828.66 901.13,829.33 902.38,829.13 C902.38,829.13 905.31,828.65 905.31,828.65 C906.54,828.44 907.09,827.42 906.52,826.39 C906.52,826.39 901.51,817.26 901.51,817.26 C901.51,817.26 902.09,817.16 902.09,817.16 C905.4,816.61 906.85,813.92 905.33,811.14 C905.33,811.14 904.76,810.11 904.76,810.11 C904.76,810.11 916.16,808.22 916.16,808.22 C917.4,808.02 917.95,807 917.37,805.96 C917.37,805.96 916.03,803.51 916.03,803.51 C915.46,802.47 914,801.8 912.75,802 C912.75,802 901.35,803.9 901.35,803.9 C901.35,803.9 898.73,799.12 898.73,799.12 C898.73,799.12 910.13,797.23 910.13,797.23 C911.37,797.03 911.92,796.01 911.34,794.98 C911.34,794.98 910,792.53 910,792.53 C909.43,791.48 907.97,790.81 906.72,791.02 C906.72,791.02 895.33,792.91 895.33,792.91 C895.33,792.91 892.66,788.04 892.66,788.04 C892.66,788.04 904.05,786.15 904.05,786.15 C905.29,785.95 905.84,784.93 905.26,783.89 C905.26,783.89 903.92,781.44 903.92,781.44 C903.36,780.4 901.89,779.73 900.64,779.93 C900.64,779.93 889.25,781.83 889.25,781.83 C889.25,781.83 886.55,776.91 886.55,776.91 C886.55,776.91 897.95,775 897.95,775z  M868.74 805.33 C868.74,805.33 864.99,801.45 864.99,801.45 C864.99,801.45 856.51,802.86 856.51,802.86 C856.51,802.86 857.29,807.24 857.29,807.24 C857.29,807.24 849.75,808.49 849.75,808.49 C849.75,808.49 846.42,785.53 846.42,785.53 C846.42,785.53 855.97,783.95 855.97,783.95 C855.97,783.95 876.27,804.08 876.27,804.08 C876.27,804.08 868.74,805.33 868.74,805.33z  M885.71 802.51 C885.71,802.51 878.73,803.67 878.73,803.67 C878.73,803.67 866.91,782.11 866.91,782.11 C866.91,782.11 873.89,780.95 873.89,780.95 C873.89,780.95 885.71,802.51 885.71,802.51z "/><path id="_R_G_L_0_G_D_3_P_0" stroke="#4cc326" stroke-linecap="round" stroke-linejoin="round" fill="none" stroke-width="1.067" stroke-opacity="1" d=" M810.92 797.73 C810.92,797.73 810.92,783.77 810.92,783.77 "/><path id="_R_G_L_0_G_D_4_P_0" stroke="#4cc326" stroke-linecap="round" stroke-linejoin="round" fill="none" stroke-width="1.067" stroke-opacity="1" d=" M821.47 778.89 C821.47,778.89 821.47,764.29 821.47,764.29 "/><path id="_R_G_L_0_G_D_5_P_0" stroke="#4cc326" stroke-linecap="round" stroke-linejoin="round" fill="none" stroke-width="1.067" stroke-opacity="1" d=" M834.75 772.77 C834.75,772.77 834.75,762.07 834.75,762.07 "/><path id="_R_G_L_0_G_D_6_P_0" stroke="#4cc326" stroke-linecap="round" stroke-linejoin="round" fill="none" stroke-width="1.067" stroke-opacity="1" d=" M847.99 770.61 C847.99,770.61 847.99,759.91 847.99,759.91 "/><path id="_R_G_L_0_G_D_7_P_0" stroke="#4cc326" stroke-linecap="round" stroke-linejoin="round" fill="none" stroke-width="1.067" stroke-opacity="1" d=" M861.11 768.4 C861.11,768.4 861.11,757.7 861.11,757.7 "/><path id="_R_G_L_0_G_D_8_P_0" stroke="#4cc326" stroke-linecap="round" stroke-linejoin="round" fill="none" stroke-width="1.067" stroke-opacity="1" d=" M816.93 809.45 C816.93,809.45 816.93,795.48 816.93,795.48 "/><path id="_R_G_L_0_G_D_9_P_0" stroke="#4cc326" stroke-linecap="round" stroke-linejoin="round" fill="none" stroke-width="1.067" stroke-opacity="1" d=" M823.02 820.29 C823.02,820.29 823.02,806.32 823.02,806.32 "/><path id="_R_G_L_0_G_D_10_P_0" stroke="#4cc326" stroke-linecap="round" stroke-linejoin="round" fill="none" stroke-width="1.067" stroke-opacity="1" d=" M829.12 831.23 C829.12,831.23 829.12,817.27 829.12,817.27 "/><path id="_R_G_L_0_G_D_11_P_0" stroke="#4cc326" stroke-linecap="round" stroke-linejoin="round" fill="none" stroke-width="1.067" stroke-opacity="1" d=" M844.55 834.47 C844.55,834.47 844.55,820.51 844.55,820.51 "/><path id="_R_G_L_0_G_D_12_P_0" stroke="#4cc326" stroke-linecap="round" stroke-linejoin="round" fill="none" stroke-width="1.067" stroke-opacity="1" d=" M854.54 839.46 C854.54,839.46 854.54,825.5 854.54,825.5 "/><path id="_R_G_L_0_G_D_13_P_0" stroke="#4cc326" stroke-linecap="round" stroke-linejoin="round" fill="none" stroke-width="1.067" stroke-opacity="1" d=" M867.13 848.23 C867.13,848.23 867.13,833.77 867.13,833.77 "/><path id="_R_G_L_0_G_D_14_P_0" stroke="#4cc326" stroke-linecap="round" stroke-linejoin="round" fill="none" stroke-width="1.067" stroke-opacity="1" d=" M867.76 837.03 C867.76,837.03 867.74,822.87 867.74,822.87 "/><path id="_R_G_L_0_G_D_15_P_0" stroke="#4cc326" stroke-linecap="round" stroke-linejoin="round" fill="none" stroke-width="1.067" stroke-opacity="1" d=" M880.4 846.04 C880.4,846.04 880.4,831.59 880.4,831.59 "/><path id="_R_G_L_0_G_D_16_P_0" stroke="#4cc326" stroke-linecap="round" stroke-linejoin="round" fill="none" stroke-width="1.067" stroke-opacity="1" d=" M893.61 843.64 C893.61,843.64 893.61,829.18 893.61,829.18 "/><path id="_R_G_L_0_G_D_17_P_0" stroke="#4cc326" stroke-linecap="round" stroke-linejoin="round" fill="none" stroke-width="1.067" stroke-opacity="1" d=" M906.76 841.46 C906.76,841.46 906.76,827 906.76,827 "/><path id="_R_G_L_0_G_D_18_P_0" stroke="#4cc326" stroke-linecap="round" stroke-linejoin="round" fill="none" stroke-width="1.067" stroke-opacity="1" d=" M917.64 821.17 C917.64,821.17 917.64,806.72 917.64,806.72 "/><path id="_R_G_L_0_G_D_19_P_0" stroke="#4cc326" stroke-linecap="round" stroke-linejoin="round" fill="none" stroke-width="1.067" stroke-opacity="1" d=" M911.59 802.21 C911.59,802.21 911.59,795.75 911.59,795.75 "/><path id="_R_G_L_0_G_D_20_P_0" stroke="#4cc326" stroke-linecap="round" stroke-linejoin="round" fill="none" stroke-width="1.067" stroke-opacity="1" d=" M905.49 791.19 C905.49,791.19 905.49,784.65 905.49,784.65 "/><path id="_R_G_L_0_G_D_21_P_0" stroke="#4cc326" stroke-linecap="round" stroke-linejoin="round" fill="none" stroke-width="1.067" stroke-opacity="1" d=" M899.39 780.13 C899.39,780.13 899.39,773.49 899.39,773.49 "/><path id="_R_G_L_0_G_D_22_P_0" stroke="#4cc326" stroke-linecap="round" stroke-linejoin="round" fill="none" stroke-width="1.067" stroke-opacity="1" d=" M905.92 825.27 C905.92,825.27 905.92,813.45 905.92,813.45 "/><path id="_R_G_L_0_G_D_23_P_0" stroke="#4cc326" stroke-linecap="round" stroke-linejoin="round" fill="none" stroke-width="1.067" stroke-opacity="1" d=" M880.97 834.82 C880.97,834.82 880.97,820.67 880.97,820.67 "/><path id="_R_G_L_0_G_D_24_P_0" stroke="#4cc326" stroke-linecap="round" stroke-linejoin="round" fill="none" stroke-width="1.067" stroke-opacity="1" d=" M894.06 832.64 C894.06,832.64 894.06,818.49 894.06,818.49 "/></g></g></g><g id="time_group"/></svg>