<svg  xmlns="http://www.w3.org/2000/svg" xmlns:xlink="http://www.w3.org/1999/xlink" viewBox="0 0 300 300">
    <style>:root>svg{display:none}:root>svg:target{display:block}</style>
    <svg id="btn-prev" xmlns="http://www.w3.org/2000/svg" viewBox="0 0 24 24" fill="none">
       <path d="M15.0898 4.07992L8.56984 10.5999C7.79984 11.3699 7.79984 12.6299 8.56984 13.3999L15.0898 19.9199" stroke-width="1.5" stroke-miterlimit="10" stroke-linecap="round" stroke-linejoin="round"/>
    </svg>
    <svg id="btn-next" xmlns="http://www.w3.org/2000/svg" viewBox="0 0 24 24" fill="none">
       <path d="M8.91016 19.9201L15.4302 13.4001C16.2002 12.6301 16.2002 11.3701 15.4302 10.6001L8.91016 4.08008" stroke-width="1.5" stroke-miterlimit="10" stroke-linecap="round" stroke-linejoin="round"/>
    </svg>
    <svg id="edit" xmlns="http://www.w3.org/2000/svg" viewBox="0 0 21 20" fill="none">
        <path d="M18.2333 5.33336L10.2833 13.2833C9.49158 14.075 7.14156 14.4416 6.61656 13.9166C6.09156 13.3916 6.44989 11.0416 7.24156 10.25L15.1999 2.29166C15.3962 2.07755 15.6338 1.90543 15.8984 1.78568C16.163 1.66593 16.4492 1.60101 16.7396 1.5949C17.0299 1.58879 17.3186 1.64157 17.588 1.75008C17.8574 1.85859 18.1021 2.02059 18.3072 2.22626C18.5123 2.43192 18.6736 2.67701 18.7813 2.94672C18.8891 3.21645 18.9412 3.5052 18.9343 3.79557C18.9273 4.08595 18.8616 4.37194 18.7412 4.63623C18.6207 4.90052 18.4479 5.13768 18.2333 5.33336Z" stroke-width="1.8" stroke-linecap="round" stroke-linejoin="round"/>
        <path d="M9.66699 3.33325H5.50033C4.61627 3.33325 3.76848 3.68444 3.14335 4.30956C2.51823 4.93469 2.16699 5.78253 2.16699 6.66659V14.9999C2.16699 15.884 2.51823 16.7318 3.14335 17.3569C3.76848 17.9821 4.61627 18.3333 5.50033 18.3333H14.667C16.5087 18.3333 17.167 16.8333 17.167 14.9999V10.8333" stroke-width="1.8" stroke-linecap="round" stroke-linejoin="round"/>
    </svg>
    <svg id="close" xmlns="http://www.w3.org/2000/svg" viewBox="0 0 14 14" fill="none">
        <path d="M1.5 1.5L12.5 12.5" stroke-width="2" stroke-linecap="round" stroke-linejoin="round"/>
        <path d="M12.5 1.5L1.5 12.5" stroke-width="2" stroke-linecap="round" stroke-linejoin="round"/>
    </svg>
    <svg id="time" xmlns="http://www.w3.org/2000/svg" viewBox="0 0 24 24" fill="none">
        <path d="M12 21C16.9706 21 21 16.9706 21 12C21 7.02944 16.9706 3 12 3C7.02944 3 3 7.02944 3 12C3 16.9706 7.02944 21 12 21Z" stroke-width="1.5" stroke-linecap="round" stroke-linejoin="round"/>
        <path d="M12 6V12" stroke-width="1.5" stroke-linecap="round" stroke-linejoin="round"/>
        <path d="M16.24 16.24L12 12" stroke-width="1.5" stroke-linecap="round" stroke-linejoin="round"/>
    </svg>
    <svg id="location" xmlns="http://www.w3.org/2000/svg" viewBox="0 0 24 24">
        <path fill-rule="evenodd" clip-rule="evenodd" d="M12 11.25C10.7572 11.25 9.75 10.2428 9.75 9C9.75 7.75725 10.7572 6.75 12 6.75C13.2428 6.75 14.25 7.75725 14.25 9C14.25 10.2428 13.2428 11.25 12 11.25ZM12 5.25C9.92925 5.25 8.25 6.9285 8.25 9C8.25 11.0715 9.92925 12.75 12 12.75C14.0708 12.75 15.75 11.0715 15.75 9C15.75 6.9285 14.0708 5.25 12 5.25ZM12 21.75C10.7527 21.7568 4.5 12.1357 4.5 9C4.5 4.8585 7.85775 1.5 12 1.5C16.1423 1.5 19.5 4.8585 19.5 9C19.5 12.0938 13.2277 21.7568 12 21.75ZM12 0C7.02975 0 3 4.02975 3 9C3 12.7635 10.5037 24.0082 12 24C13.473 24.0082 21 12.7125 21 9C21 4.02975 16.9703 0 12 0Z"/>
    </svg>
    <svg id="circle-chevron" xmlns="http://www.w3.org/2000/svg" viewBox="0 0 24 24" fill="none">
        <rect x="23.5" y="0.5" width="23" height="23" rx="11.5" transform="rotate(90 23.5 0.5)"/>
        <path d="M7.71004 10.3262L11.2417 13.8578C11.6588 14.2749 12.3413 14.2749 12.7584 13.8578L16.29 10.3262" stroke-miterlimit="10" stroke-linecap="round" stroke-linejoin="round"/>
    </svg>
</svg>