<svg xmlns="http://www.w3.org/2000/svg" width="26" height="15" viewBox="0 0 26 15" fill="none">
<path d="M15.7438 7.21524C15.2684 7.03793 15.2684 6.36074 15.2389 5.88917C15.12 4.20941 15.7143 1.64498 15.0012 0.554691C14.4963 -0.094198 12.0593 -0.0347794 10.574 0.053877C10.1576 0.113296 9.65267 0.20101 9.29611 0.378323C8.93954 0.555635 8.58297 0.849898 8.58297 1.11492C8.58297 1.49784 9.47487 1.43937 9.80101 1.94018C10.1576 2.47118 10.1576 3.61994 10.1576 4.56309C10.1576 5.65338 9.97881 7.09829 9.53382 7.15676C8.85016 7.186 8.46412 6.50787 8.10755 6.00706C7.39442 5.03467 6.68128 3.82555 6.14596 2.64661C5.87877 2.0279 5.72949 1.34977 5.34344 1.08474C4.74917 0.671643 3.67946 0.642405 2.63924 0.671643C1.68839 0.700881 0.321078 0.582987 0.0538908 1.14322C-0.154344 1.76193 0.291602 2.3514 0.529314 2.85316C1.74735 5.47607 3.05476 7.77547 4.65979 9.95604C6.14596 11.9895 7.5418 13.6108 10.2755 14.4653C11.0485 14.701 14.4354 15.3792 15.1191 14.4653C15.3568 14.1116 15.2978 13.3156 15.4167 12.7261C15.5356 12.1366 15.6839 11.5471 16.2487 11.5179C16.7241 11.4887 16.9913 11.9008 17.2889 12.196C17.616 12.5205 17.8832 12.7855 18.1209 13.0807C18.6857 13.6409 19.28 14.4068 19.9931 14.702C20.9734 15.1151 22.4891 14.9972 23.9154 14.9378C25.0744 14.9085 25.9064 14.6728 25.9958 13.9946C26.0557 13.4636 25.4605 12.6978 25.1039 12.2555C24.212 11.1652 23.7965 10.8407 22.7857 9.83815C22.3398 9.39581 21.775 8.92423 21.775 8.39418C21.7455 8.06974 22.0127 7.77547 22.2504 7.45103C23.2906 5.9184 24.3309 4.82812 25.2817 3.23608C25.5489 2.7645 26.1736 1.67422 25.9359 1.14322C25.6687 0.553749 24.1825 0.730118 23.2612 0.730118C22.0726 0.730118 20.5275 0.641462 20.2299 0.87725C19.6651 1.26017 19.4274 1.87982 19.1602 2.46929C18.5659 3.82555 17.7634 5.2101 16.9314 6.24191C16.6338 6.59559 16.0699 7.33219 15.7428 7.2143L15.7438 7.21524Z" fill="white"/>
</svg>