<svg xmlns="http://www.w3.org/2000/svg" width="23" height="16" viewBox="0 0 23 16" fill="none">
<path fill-rule="evenodd" clip-rule="evenodd" d="M9.12964 10.9556V4.54205C11.4064 5.6134 13.1698 6.64835 15.2554 7.76415C13.5352 8.7181 11.4064 9.78847 9.12964 10.9556ZM21.8183 1.35232C21.4255 0.834884 20.7562 0.432101 20.0435 0.298753C17.9489 -0.0990184 4.88112 -0.10015 2.7876 0.298753C2.21612 0.405884 1.70724 0.664836 1.27009 1.06717C-0.571843 2.77677 0.00533277 11.9448 0.449311 13.4299C0.636008 14.0727 0.87736 14.5363 1.18131 14.8406C1.57292 15.2429 2.1091 15.5199 2.72498 15.6442C4.44966 16.0009 13.3349 16.2004 20.0071 15.6977C20.6218 15.5906 21.166 15.3047 21.5951 14.8852C23.2982 13.1825 23.1821 3.49958 21.8183 1.35232Z" fill="white"/>
</svg>