<svg width="96" height="23" viewBox="0 0 96 23" fill="none" xmlns="http://www.w3.org/2000/svg">
    <path fill-rule="evenodd" clip-rule="evenodd" d="M14.3724 8.72329L9.54599 6.00005L4.773 8.72336V14.2233L9.54591 16.9999L14.3725 14.2232L9.54591 11.4999L14.3724 8.72329ZM14.3724 8.72329L19.1455 6.00005L9.54599 0.5L3.78113e-05 6.00005V11.5001L4.773 14.2233L0 16.9999L4.77296 19.7233L9.54591 22.5L19.1455 16.9999V11.4999L14.3724 8.72329ZM42.7085 1.31658H45.3335V17.3669H42.7085V1.31658ZM31.2126 20.8641C32.1405 21.4917 33.4303 21.8055 35.037 21.8055C36.6663 21.8055 38.0014 21.3348 38.9519 20.4605C39.9702 19.5639 40.468 18.2413 40.468 16.56V5.62071H37.843V6.53979C36.9605 5.80004 35.8743 5.44138 34.5618 5.44138C32.7967 5.44138 31.3484 6.02422 30.2622 7.18988C29.2213 8.31071 28.7008 9.74534 28.7008 11.4042C28.7008 13.0855 29.2213 14.4977 30.2849 15.6186C31.3484 16.7842 32.7741 17.367 34.4713 17.367C35.829 17.367 36.9605 16.9859 37.8657 16.2462V16.448C37.8657 17.4343 37.6393 18.174 37.1642 18.6448C36.7116 19.1155 35.8969 19.3621 34.7881 19.3621C33.3398 19.3621 32.4573 18.9138 32.0726 17.9947L31.9368 17.6809H29.1081L29.3118 18.3309C29.6286 19.3621 30.2849 20.2364 31.2126 20.8641ZM32.2084 8.91594C32.842 8.24346 33.634 7.90721 34.675 7.90721C35.6706 7.90721 36.4627 8.22104 37.051 8.89355C37.6393 9.54365 37.9109 10.373 37.9109 11.4042C37.9109 12.4354 37.6393 13.2648 37.0736 13.9149C36.8021 14.2287 36.44 14.4753 36.0553 14.6546C35.6706 14.8339 35.1954 14.9236 34.675 14.9236C33.6567 14.9236 32.842 14.6098 32.231 13.9373C31.62 13.2648 31.3258 12.4354 31.3258 11.4266C31.3258 10.4179 31.62 9.58844 32.2084 8.91594ZM52.8463 17.5464C51.0812 17.5464 49.6329 16.9412 48.5241 15.7755C47.4832 14.6546 46.9627 13.2199 46.9627 11.4939C46.9627 9.79021 47.4832 8.33312 48.5241 7.21229C49.6329 6.02422 51.0812 5.44138 52.8463 5.44138C54.6114 5.44138 56.0596 6.04663 57.1685 7.21229C58.2094 8.33312 58.7298 9.76781 58.7298 11.4939C58.7298 13.1975 58.2094 14.6322 57.1685 15.7755C56.0596 16.9412 54.6114 17.5464 52.8463 17.5464ZM52.8463 7.90721C51.828 7.90721 51.0359 8.24346 50.4476 8.93841C49.8592 9.61091 49.5877 10.4627 49.5877 11.5163C49.5877 12.5699 49.8592 13.3993 50.4476 14.0718C51.0359 14.7667 51.828 15.103 52.8463 15.103C53.8646 15.103 54.6566 14.7667 55.245 14.0718C55.8334 13.3993 56.1049 12.5474 56.1049 11.5163C56.1049 10.4627 55.8334 9.6333 55.245 8.96081C54.6566 8.24346 53.8646 7.90721 52.8463 7.90721ZM62.9841 16.4478C63.844 17.1875 64.9528 17.5462 66.2427 17.5462C68.0304 17.5462 69.4787 16.941 70.5423 15.7529C71.5832 14.6096 72.1263 13.175 72.1263 11.4937C72.1263 9.81252 71.5832 8.37781 70.5423 7.23457C69.4787 6.06891 68.0757 5.46366 66.3785 5.46366C65.0207 5.46366 63.8892 5.84474 62.9841 6.58449V1.31658H60.3591V17.3669H62.9841V16.4478ZM63.7535 8.93826C64.3419 8.24332 65.1339 7.90707 66.1522 7.90707C67.1705 7.90707 67.9625 8.24332 68.5961 8.93826C69.2071 9.61075 69.5013 10.4401 69.5013 11.4937C69.5013 12.5473 69.2071 13.3768 68.5961 14.0492C67.9852 14.7441 67.1705 15.0804 66.1522 15.0804C65.1339 15.0804 64.3419 14.7441 63.7535 14.0492C63.1651 13.3768 62.8936 12.5473 62.8936 11.4937C62.8936 10.4625 63.1651 9.61075 63.7535 8.93826ZM78.5982 17.5462C77.8061 17.5462 77.1273 17.4341 76.5389 17.2099C75.9505 16.9858 75.4301 16.6496 75.0001 16.1788C74.0271 15.2149 73.5066 13.9371 73.5066 12.368V5.62055H76.1316V12.3231C76.1316 13.1974 76.3578 13.8475 76.8331 14.3406C77.3083 14.8338 77.8967 15.0803 78.6661 15.0803C79.4583 15.0803 80.0913 14.8338 80.6572 14.3182C81.2004 13.8026 81.4494 13.1301 81.4494 12.3007V5.62055H84.0741V17.3668H81.4494V16.4254C81.2457 16.6047 81.0193 16.7615 80.793 16.9184C80.1366 17.322 79.4131 17.5462 78.5982 17.5462ZM87.2648 16.3581C88.2154 17.1426 89.4829 17.5462 91.0439 17.5462C92.4925 17.5462 93.6695 17.2323 94.5967 16.6495C95.5247 15.9994 96 15.0579 96 13.8474C96 13.0404 95.7737 12.3903 95.321 11.9196C94.9362 11.4712 94.4156 11.135 93.8279 10.8884C93.262 10.6642 92.6283 10.4625 91.9719 10.3503C91.3608 10.2159 90.7723 10.0814 90.2525 9.94688C89.7772 9.83476 89.3698 9.65546 89.0529 9.47616C88.8492 9.31925 88.7586 9.16226 88.7586 8.89331C88.7586 8.60189 88.7586 7.83971 90.7497 7.83971C92.8219 7.83971 92.9436 8.74969 92.9897 9.08998L92.9904 9.09501L93.0357 9.52094H95.6831L95.6152 8.96057C95.502 7.95179 95.072 7.12238 94.3251 6.51713C93.4658 5.82222 92.3114 5.46355 90.8628 5.46355C89.3698 5.46355 88.1928 5.77738 87.378 6.38263C86.5413 7.01029 86.1112 7.88454 86.1112 9.02783C86.1112 9.81236 86.3376 10.4401 86.7676 10.9108C87.1742 11.3367 87.6948 11.6729 88.2833 11.9196C88.8492 12.1437 89.4603 12.323 90.1167 12.4576C90.727 12.5696 91.3155 12.7041 91.8361 12.861C92.3114 12.9955 92.7188 13.1749 93.0131 13.3766L93.0357 13.3991C93.262 13.556 93.3526 13.7353 93.3526 14.0043C93.3526 14.3181 93.262 14.6992 92.6283 14.9457C92.3793 15.0355 92.0851 15.1027 91.8135 15.1475C91.5192 15.1924 91.2023 15.2148 90.8402 15.2148C90.5241 15.2148 90.2072 15.1475 89.8903 15.0579C89.0529 14.7664 88.6228 14.2733 88.5323 13.4663L88.487 13.0179H85.817L85.8396 13.5335C85.8849 14.6992 86.3828 15.6407 87.2648 16.3581Z" fill="white" />
</svg>