<svg width="256" height="190" viewBox="0 0 256 190" fill="none" xmlns="http://www.w3.org/2000/svg">
<g filter="url(#filter0_d_652_10893)">
<path fill-rule="evenodd" clip-rule="evenodd" d="M98.1068 6.76324L204.629 16.4951L250.411 125.615L215.149 219.628L93.53 203.517L93.5225 203.516L93.5153 203.514L15.89 179.781L5.67988 137.411L98.1068 6.76324ZM98.1945 6.95324L5.87546 137.448L16.0421 179.638L93.5612 203.338L215.03 219.429L250.216 125.618L204.504 16.6656L98.1945 6.95324Z" fill="url(#paint0_linear_652_10893)" shape-rendering="crispEdges"/>
</g>
<g filter="url(#filter1_d_652_10893)">
<path fill-rule="evenodd" clip-rule="evenodd" d="M132.101 17.7951L240.412 70.5018L221.897 180.399L133.089 195.564L78.2534 188.088L11.8949 102.991L36.0067 43.6253L132.101 17.7951ZM36.1415 43.7766L12.1029 102.962L78.3517 187.919L133.086 195.381L221.739 180.242L240.21 70.6052L132.083 17.9877L36.1415 43.7766Z" fill="url(#paint1_linear_652_10893)" shape-rendering="crispEdges"/>
</g>
<g filter="url(#filter2_d_652_10893)">
<path fill-rule="evenodd" clip-rule="evenodd" d="M101.825 29.4788L196.829 28.1489L228.224 106.104L202.26 190.208L87.0307 223.32L22.9686 153.732L45.6594 70.1901L101.825 29.4788ZM101.886 29.6602L45.8185 70.2999L23.1709 153.683L87.0886 223.114L202.115 190.061L228.031 106.112L196.707 28.3329L101.886 29.6602Z" fill="url(#paint2_linear_652_10893)" shape-rendering="crispEdges"/>
</g>
<path d="M12.2539 103.967C11.3177 103.994 10.4536 103.269 10.4239 102.24C10.3969 101.304 11.1216 100.44 12.1514 100.411C13.0876 100.384 13.9517 101.108 13.9814 102.137C14.0084 103.073 13.1901 103.94 12.2539 103.967Z" fill="#4CC326"/>
<path d="M12.1621 100.782C13.0047 100.758 13.5853 101.397 13.6069 102.145C13.6312 102.987 12.992 103.568 12.2431 103.589C11.4005 103.614 10.8199 102.975 10.7983 102.226C10.6804 101.387 11.3195 100.806 12.1621 100.782ZM12.1432 100.127C11.0198 100.159 10.1106 101.122 10.143 102.245C10.1754 103.368 11.1385 104.277 12.262 104.245C13.3854 104.212 14.2946 103.249 14.2622 102.126C14.2298 101.003 13.2666 100.094 12.1432 100.127Z" fill="#141414"/>
<path d="M30.7556 128.249C29.8194 128.276 28.9553 127.552 28.9256 126.522C28.8986 125.587 29.6233 124.723 30.6531 124.693C31.5893 124.666 32.4534 125.39 32.4831 126.42C32.5101 127.356 31.6918 128.222 30.7556 128.249Z" fill="#4CC326"/>
<path d="M30.6607 124.976C31.5033 124.951 32.0839 125.59 32.1055 126.339C32.1271 127.088 31.4906 127.762 30.7417 127.783C29.9927 127.805 29.3185 127.169 29.2969 126.42C29.2753 125.671 29.9118 124.997 30.6607 124.976ZM30.6418 124.321C29.5184 124.353 28.6092 125.316 28.6416 126.439C28.674 127.562 29.6371 128.471 30.7606 128.438C31.884 128.406 32.7932 127.443 32.7608 126.32C32.7284 125.197 31.7652 124.288 30.6418 124.321Z" fill="#141414"/>
<path d="M21.7174 116.996C20.7812 117.023 19.9171 116.299 19.8874 115.269C19.8604 114.333 20.5851 113.469 21.6149 113.44C22.5511 113.413 23.4152 114.137 23.4449 115.167C23.3783 116.105 22.6536 116.969 21.7174 116.996Z" fill="#4CC326"/>
<path d="M21.6232 113.72C22.4658 113.696 23.0464 114.335 23.068 115.083C23.0896 115.832 22.4531 116.506 21.7042 116.528C20.8616 116.552 20.281 115.913 20.2594 115.164C20.2378 114.416 20.7807 113.744 21.6232 113.72ZM21.607 113.158C20.4836 113.191 19.5744 114.154 19.6068 115.277C19.6392 116.4 20.6023 117.309 21.7258 117.276C22.8492 117.244 23.7584 116.281 23.726 115.158C23.6936 114.035 22.7304 113.126 21.607 113.158Z" fill="#141414"/>
<path d="M5.88386 139.742C4.94768 139.769 4.08352 139.044 4.05384 138.015C4.02685 137.079 4.75151 136.215 5.78131 136.185C6.71749 136.158 7.58165 136.883 7.61133 137.912C7.64102 138.942 6.91366 139.712 5.88386 139.742Z" fill="#4CC326"/>
<path d="M5.79206 136.559C6.63462 136.535 7.21522 137.174 7.23681 137.922C7.2584 138.671 6.62196 139.345 5.87302 139.367C5.03045 139.391 4.44985 138.752 4.42826 138.003C4.40667 137.255 5.04311 136.581 5.79206 136.559ZM5.77317 135.904C4.64975 135.936 3.74055 136.899 3.77293 138.022C3.80532 139.145 4.76849 140.054 5.89191 140.022C7.01533 139.989 7.92452 139.026 7.89214 137.903C7.85975 136.78 6.9902 135.869 5.77317 135.904Z" fill="#141414"/>
<path d="M23.2074 155.636C22.2712 155.663 21.4071 154.938 21.3774 153.909C21.3504 152.973 22.0751 152.109 23.1049 152.079C24.041 152.052 24.9052 152.777 24.9349 153.806C24.9619 154.742 24.2372 155.606 23.2074 155.636Z" fill="#4CC326"/>
<path d="M23.1123 152.357C23.9549 152.333 24.5355 152.972 24.557 153.72C24.5813 154.563 23.9422 155.143 23.1933 155.165C22.3507 155.189 21.7701 154.55 21.7485 153.801C21.7269 153.053 22.3633 152.379 23.1123 152.357ZM23.0961 151.796C21.9727 151.828 21.0635 152.791 21.0959 153.914C21.1283 155.037 22.0914 155.946 23.2148 155.913C24.3383 155.881 25.2475 154.918 25.2151 153.795C25.1827 152.672 24.2195 151.763 23.0961 151.796Z" fill="#141414"/>
<path d="M78.2474 189.549C77.3113 189.576 76.4471 188.851 76.4174 187.822C76.3904 186.886 77.1151 186.022 78.1449 185.992C79.0811 185.965 79.9452 186.69 79.9749 187.719C80.0046 188.749 79.2772 189.519 78.2474 189.549Z" fill="#4CC326"/>
<path d="M78.1553 186.364C78.9979 186.339 79.5785 186.978 79.6001 187.727C79.6244 188.569 78.9852 189.15 78.2363 189.171C77.4874 189.193 76.8131 188.557 76.7915 187.808C76.77 187.059 77.4064 186.385 78.1553 186.364ZM78.1365 185.709C77.013 185.741 76.1038 186.704 76.1362 187.827C76.1686 188.95 77.1318 189.859 78.2552 189.826C79.3786 189.794 80.2878 188.831 80.2554 187.708C80.3167 186.582 79.3535 185.673 78.1365 185.709Z" fill="#141414"/>
<path d="M201.262 192.458C200.325 192.485 199.461 191.761 199.432 190.732C199.405 189.796 200.129 188.932 201.159 188.902C202.095 188.875 202.959 189.6 202.989 190.629C202.922 191.568 202.198 192.432 201.262 192.458Z" fill="#4CC326"/>
<path d="M201.167 189.185C202.009 189.161 202.59 189.8 202.611 190.548C202.636 191.391 201.997 191.971 201.248 191.993C200.405 192.017 199.824 191.378 199.803 190.629C199.688 189.883 200.324 189.209 201.167 189.185ZM201.148 188.53C200.024 188.562 199.115 189.525 199.148 190.648C199.18 191.771 200.143 192.68 201.266 192.648C202.39 192.615 203.299 191.652 203.267 190.529C203.234 189.406 202.271 188.498 201.148 188.53Z" fill="#141414"/>
<path d="M203.863 185.263C202.927 185.29 202.063 184.566 202.033 183.537C202.006 182.601 202.731 181.737 203.761 181.707C204.697 181.68 205.561 182.405 205.591 183.434C205.618 184.37 204.893 185.234 203.863 185.263Z" fill="#4CC326"/>
<path d="M203.772 182.083C204.614 182.059 205.195 182.698 205.217 183.447C205.238 184.195 204.602 184.869 203.853 184.891C203.01 184.915 202.43 184.276 202.408 183.528C202.386 182.779 203.023 182.105 203.772 182.083ZM203.753 181.428C202.629 181.461 201.72 182.424 201.753 183.547C201.785 184.67 202.748 185.578 203.872 185.546C204.995 185.514 205.904 184.551 205.872 183.428C205.839 182.305 204.876 181.396 203.753 181.428Z" fill="#141414"/>
<path d="M221.573 182.034C220.637 182.061 219.773 181.337 219.743 180.307C219.716 179.371 220.441 178.507 221.471 178.478C222.407 178.451 223.271 179.175 223.301 180.205C223.328 181.14 222.51 182.007 221.573 182.034Z" fill="#4CC326"/>
<path d="M221.479 178.76C222.322 178.736 222.902 179.375 222.924 180.124C222.945 180.872 222.309 181.546 221.56 181.568C220.717 181.592 220.137 180.953 220.115 180.205C220.094 179.456 220.637 178.785 221.479 178.76ZM221.46 178.105C220.337 178.138 219.428 179.101 219.46 180.224C219.492 181.347 220.456 182.256 221.579 182.223C222.702 182.191 223.612 181.228 223.579 180.105C223.547 178.982 222.584 178.073 221.46 178.105Z" fill="#141414"/>
<path d="M251.023 127.807C250.087 127.834 249.223 127.109 249.193 126.08C249.166 125.144 249.891 124.28 250.921 124.25C251.857 124.223 252.721 124.948 252.751 125.977C252.781 127.007 251.96 127.78 251.023 127.807Z" fill="#4CC326"/>
<path d="M250.931 124.624C251.774 124.6 252.354 125.239 252.376 125.988C252.4 126.83 251.761 127.41 251.012 127.432C250.17 127.456 249.589 126.817 249.567 126.068C249.452 125.323 250.089 124.649 250.931 124.624ZM250.912 123.969C249.789 124.002 248.88 124.964 248.912 126.087C248.945 127.21 249.908 128.119 251.031 128.087C252.155 128.054 253.064 127.092 253.031 125.969C252.999 124.846 252.036 123.937 250.912 123.969Z" fill="#141414"/>
<path d="M236.642 93.7474C235.706 93.7744 234.842 93.05 234.812 92.0206C234.785 91.0847 235.51 90.2208 236.539 90.1911C237.476 90.1641 238.34 90.8885 238.37 91.918C238.397 92.8538 237.578 93.7204 236.642 93.7474Z" fill="#4CC326"/>
<path d="M236.547 90.474C237.389 90.4497 237.97 91.0886 237.992 91.8373C238.013 92.586 237.377 93.26 236.628 93.2816C235.879 93.3032 235.205 92.667 235.183 91.9183C235.161 91.1696 235.704 90.4983 236.547 90.474ZM236.531 89.9125C235.407 89.9449 234.498 90.9078 234.53 92.0308C234.563 93.1538 235.526 94.0627 236.649 94.0303C237.773 93.9979 238.682 93.035 238.65 91.912C238.617 90.789 237.654 89.8801 236.531 89.9125Z" fill="#141414"/>
<path d="M227.242 108.913C226.306 108.94 225.442 108.216 225.412 107.186C225.385 106.251 226.11 105.387 227.139 105.357C228.076 105.33 228.94 106.054 228.969 107.084C228.999 108.113 228.178 108.886 227.242 108.913Z" fill="#4CC326"/>
<path d="M227.15 105.731C227.992 105.706 228.573 106.345 228.595 107.094C228.619 107.936 227.98 108.517 227.231 108.538C226.388 108.563 225.808 107.924 225.786 107.175C225.671 106.429 226.307 105.755 227.15 105.731ZM227.131 105.076C226.007 105.108 225.098 106.071 225.131 107.194C225.163 108.317 226.126 109.226 227.25 109.193C228.373 109.161 229.282 108.198 229.25 107.075C229.217 105.952 228.254 105.043 227.131 105.076Z" fill="#141414"/>
<path d="M240.235 72.1033C239.299 72.1303 238.435 71.4059 238.405 70.3765C238.378 69.4407 239.103 68.5768 240.133 68.5471C241.069 68.5201 241.933 69.2445 241.963 70.2739C241.99 71.2098 241.171 72.0763 240.235 72.1033Z" fill="#4CC326"/>
<path d="M240.14 68.8275C240.983 68.8032 241.563 69.4421 241.585 70.1908C241.606 70.9395 240.97 71.6135 240.221 71.635C239.379 71.6593 238.798 71.0204 238.776 70.2718C238.755 69.5231 239.298 68.8518 240.14 68.8275ZM240.124 68.266C239.001 68.2984 238.091 69.2612 238.124 70.3843C238.156 71.5073 239.119 72.4161 240.243 72.3837C241.366 72.3513 242.275 71.3885 242.243 70.2655C242.211 69.1424 241.247 68.2336 240.124 68.266Z" fill="#141414"/>
<path d="M205.142 18.4189C204.206 18.4459 203.342 17.7215 203.312 16.6921C203.285 15.7562 204.01 14.8923 205.04 14.8626C205.976 14.8357 206.84 15.56 206.87 16.5895C206.899 17.6189 206.172 18.3892 205.142 18.4189Z" fill="#4CC326"/>
<path d="M205.051 15.2339C205.894 15.2097 206.474 15.8485 206.496 16.5972C206.52 17.4395 205.881 18.0199 205.132 18.0415C204.29 18.0658 203.709 17.4269 203.687 16.6782C203.666 15.9295 204.302 15.2555 205.051 15.2339ZM205.032 14.5789C203.909 14.6112 203 15.5741 203.032 16.6971C203.064 17.8201 204.028 18.729 205.151 18.6966C206.274 18.6642 207.184 17.7014 207.151 16.5783C207.212 15.4526 206.249 14.5438 205.032 14.5789Z" fill="#141414"/>
<path d="M131.802 19.2169C130.866 19.2439 130.002 18.5195 129.972 17.49C129.945 16.5542 130.67 15.6903 131.7 15.6606C132.636 15.6336 133.5 16.358 133.53 17.3874C133.557 18.3233 132.832 19.1872 131.802 19.2169Z" fill="#4CC326"/>
<path d="M131.708 15.9434C132.55 15.9191 133.131 16.558 133.152 17.3066C133.177 18.1489 132.537 18.7293 131.789 18.7509C130.946 18.7752 130.365 18.1363 130.344 17.3876C130.322 16.639 130.959 15.965 131.708 15.9434ZM131.689 15.2883C130.565 15.3207 129.656 16.2835 129.688 17.4065C129.721 18.5296 130.684 19.4384 131.807 19.406C132.931 19.3736 133.84 18.4108 133.808 17.2877C133.775 16.1647 132.812 15.2559 131.689 15.2883Z" fill="#141414"/>
<path d="M157.36 31.504C156.424 31.531 155.56 30.8066 155.53 29.7771C155.503 28.8413 156.228 27.9774 157.257 27.9477C158.194 27.9207 159.058 28.6451 159.087 29.6746C159.114 30.6104 158.39 31.4743 157.36 31.504Z" fill="#4CC326"/>
<path d="M157.268 28.319C158.111 28.2947 158.691 28.9336 158.713 29.6823C158.737 30.5246 158.098 31.105 157.349 31.1266C156.507 31.1509 155.926 30.512 155.904 29.7633C155.88 28.921 156.519 28.3406 157.268 28.319ZM157.249 27.6639C156.126 27.6963 155.217 28.6592 155.249 29.7822C155.281 30.9052 156.245 31.8141 157.368 31.7817C158.491 31.7493 159.401 30.7864 159.368 29.6634C159.429 28.5377 158.466 27.6288 157.249 27.6639Z" fill="#141414"/>
<path d="M101.539 32.2663C100.603 32.2933 99.7388 31.5689 99.7091 30.5395C99.6821 29.6036 100.407 28.7398 101.437 28.7101C102.466 28.6804 103.237 29.4074 103.267 30.4369C103.294 31.3727 102.475 32.2393 101.539 32.2663Z" fill="#4CC326"/>
<path d="M101.444 28.9928C102.287 28.9685 102.867 29.6074 102.889 30.3561C102.911 31.1048 102.274 31.7788 101.525 31.8004C100.776 31.8219 100.011 31.282 99.9895 30.5334C99.9679 29.7847 100.602 29.0171 101.444 28.9928ZM101.425 28.3377C100.302 28.3701 99.3927 29.3329 99.4251 30.456C99.4575 31.579 100.421 32.4878 101.544 32.4554C102.667 32.4231 103.577 31.4602 103.544 30.3372C103.512 29.2142 102.549 28.3053 101.425 28.3377Z" fill="#141414"/>
<path d="M98.6901 8.19031C97.754 8.2173 96.8898 7.49292 96.8601 6.46348C96.8331 5.52763 97.5578 4.66377 98.5876 4.63407C99.5238 4.60707 100.388 5.33146 100.418 6.3609C100.354 7.39303 99.6263 8.16331 98.6901 8.19031Z" fill="#4CC326"/>
<path d="M98.5984 5.00517C99.4409 4.98088 100.022 5.61978 100.043 6.36846C100.067 7.21072 99.4283 7.79113 98.6793 7.81273C97.8368 7.83703 97.2562 7.19813 97.2346 6.44945C97.1194 5.70347 97.7558 5.02947 98.5984 5.00517ZM98.5795 4.35008C97.3625 4.38517 96.4533 5.34802 96.4856 6.47104C96.518 7.59407 97.4812 8.50292 98.6046 8.47053C99.728 8.43813 100.637 7.47528 100.605 6.35226C100.666 5.22654 99.7029 4.31768 98.5795 4.35008Z" fill="#141414"/>
<path d="M16.0979 182.056C15.1617 182.083 14.2975 181.359 14.2678 180.329C14.2408 179.393 14.9655 178.53 15.9953 178.5C16.9315 178.473 17.7956 179.197 17.8253 180.227C17.8523 181.163 17.1277 182.026 16.0979 182.056Z" fill="#4CC326"/>
<path d="M16.0033 178.783C16.8459 178.758 17.4265 179.397 17.4481 180.146C17.4696 180.895 16.8332 181.569 16.0843 181.59C15.2417 181.614 14.6611 180.976 14.6395 180.227C14.6179 179.478 15.2544 178.804 16.0033 178.783ZM15.9844 178.127C14.861 178.16 13.9518 179.123 13.9842 180.246C14.0166 181.369 14.9797 182.278 16.1031 182.245C17.2266 182.213 18.1358 181.25 18.1034 180.127C18.071 179.004 17.2014 178.092 15.9844 178.127Z" fill="#141414"/>
<g clip-path="url(#clip0_652_10893)">
<path d="M137.435 106.233L130.37 107.538L125.148 112.496L123.438 119.536L125.77 126.412L138.562 131.708L144.958 128.439L148.578 122.194L148.252 114.945L137.435 106.233Z" fill="url(#paint3_linear_652_10893)"/>
<path d="M141.597 63.4478L134.535 64.7615L129.321 69.7162L128.641 80.5665L129.94 83.6237L135.578 88.1593L142.732 88.92L149.129 85.6511L152.74 79.4087L148.261 66.2071L141.597 63.4478Z" fill="url(#paint4_linear_652_10893)"/>
<path d="M133.117 150.496L126.06 151.799L120.838 156.756L119.128 163.796L121.46 170.672L127.098 175.208L140.649 172.699L144.256 166.449L143.942 159.205L139.789 153.253L133.117 150.496Z" fill="url(#paint5_linear_652_10893)"/>
<path d="M186.605 94.0061L181.737 88.6311L167.95 88.933L163.395 94.5211L162.582 101.723L165.751 108.255L171.909 112.041L179.092 111.881L185.033 107.829L187.829 101.163L186.605 94.0061Z" fill="url(#paint6_linear_652_10893)"/>
<path d="M108.779 132.111L103.911 126.736L96.9583 124.84L90.1244 127.038L84.7564 139.829L87.9253 146.36L94.0836 150.146L101.267 149.987L107.204 145.926L110.004 139.269L108.779 132.111Z" fill="url(#paint7_linear_652_10893)"/>
<path d="M181.281 153.16L183.832 146.394L182.355 139.29L177.301 134.087L170.285 132.456L163.533 134.909L159.187 140.655L162.033 154.298L168.322 157.854L175.495 157.434L181.281 153.16Z" fill="url(#paint8_linear_652_10893)"/>
<path d="M112.182 99.8168L114.733 93.0512L113.245 85.9412L108.194 80.7472L101.178 79.1157L91.2534 84.1204L89.527 94.5466L92.9347 100.955L99.2234 104.511L106.397 104.091L112.182 99.8168Z" fill="url(#paint9_linear_652_10893)"/>
<path d="M138.574 131.92L125.612 126.556L123.233 119.536L124.975 112.392L130.273 107.353L137.479 106.022L148.443 114.846L148.77 122.245L145.1 128.591L138.574 131.92ZM125.925 126.259L138.547 131.488L144.808 128.29L148.365 122.14L148.05 115.038L137.372 106.441L130.455 107.717L125.321 112.6L123.636 119.519L125.925 126.259Z" fill="#4CC326"/>
<path d="M142.77 89.1239L135.501 88.3531L129.777 83.7514L128.44 80.6033L129.132 69.6175L134.447 64.5739L141.624 63.2421L148.428 66.0597L152.961 79.4316L149.273 85.8113L142.77 89.1239ZM135.655 87.9655L142.692 88.7076L148.987 85.4994L152.527 79.3831L148.106 66.3603L141.582 63.6595L134.631 64.9464L129.511 69.8149L128.837 80.541L130.098 83.5073L135.655 87.9655Z" fill="#4CC326"/>
<path d="M140.773 172.885L127.046 175.422L121.294 170.791L118.926 163.804L120.668 156.66L125.966 151.622L133.144 150.29L139.914 153.091L144.133 159.134L144.46 166.505L140.773 172.885ZM127.15 174.994L140.527 172.523L144.066 166.406L143.751 159.276L139.668 153.423L133.11 150.705L126.159 151.992L121.025 156.874L119.34 163.793L121.637 170.559L127.15 174.994Z" fill="#4CC326"/>
<path d="M179.155 112.077L171.852 112.238L165.599 108.389L162.38 101.76L163.211 94.4394L167.859 88.7369L181.828 88.4234L186.787 93.9098L188.031 101.183L185.186 107.959L179.155 112.077ZM171.967 111.844L179.038 111.683L184.877 107.692L187.625 101.135L186.419 94.0939L181.66 88.8249L168.05 89.1265L163.596 94.5973L162.792 101.684L165.909 108.11L171.967 111.844Z" fill="#4CC326"/>
<path d="M101.33 150.183L94.0262 150.343L87.7732 146.494L84.5325 139.826L89.9688 126.872L96.9458 124.628L104.008 126.546L108.95 132.009L110.194 139.283L107.349 146.058L101.33 150.183ZM94.1382 149.941L101.209 149.78L107.049 145.789L109.797 139.232L108.591 132.191L103.806 126.902L96.9707 125.052L90.2799 127.204L84.9691 139.826L88.0746 146.219L94.1382 149.941Z" fill="#4CC326"/>
<path d="M175.567 157.627L168.275 158.056L161.861 154.428L158.977 140.61L163.414 134.741L170.275 132.252L177.403 133.914L182.537 139.193L184.044 146.42L181.445 153.295L175.567 157.627ZM168.368 157.651L175.421 157.232L181.108 153.027L183.619 146.368L182.158 139.372L177.19 134.264L170.294 132.659L163.649 135.069L159.399 140.709L162.207 154.176L168.368 157.651Z" fill="#4CC326"/>
<path d="M106.469 104.284L99.1772 104.714L92.7854 101.097L89.3225 94.5749L91.0697 83.9823L101.157 78.9064L108.293 80.5651L113.428 85.8449L114.935 93.071L112.335 99.946L106.469 104.284ZM99.2696 104.308L106.323 103.89L112.01 99.6845L114.521 93.0257L113.06 86.029L108.092 80.9209L101.207 79.3223L91.426 84.2528L89.7288 94.5099L93.0729 100.807L99.2696 104.308Z" fill="#4CC326"/>
<path d="M138.783 132.135L122.979 119.411L137.704 116.684L137.242 106.239L135.555 88.3171L135.952 88.2832L137.629 106.227L138.091 116.616L148.197 114.746L165.682 108.071L165.822 108.448L148.306 115.143L148.29 115.149L138.111 117.023L138.783 132.135ZM123.901 119.649L138.349 131.279L137.718 117.103L123.901 119.649Z" fill="#4CC326"/>
<path d="M112.316 99.6698L112.04 99.9576L125.014 112.638L125.29 112.35L112.316 99.6698Z" fill="#4CC326"/>
<path d="M127.271 175.312L126.928 175.112L130.323 169.24L121.075 170.946L132.941 150.412L138.445 131.548L138.825 131.661L133.301 150.578L133.29 150.6L121.845 170.398L130.584 168.78L139.832 152.779L144.521 166.608L130.839 169.139L127.271 175.312ZM131.1 168.68L144.003 166.295L139.738 153.729L131.1 168.68Z" fill="#4CC326"/>
<path d="M172.675 146.038L163.406 135.063L147.083 125.746L147.278 125.401L163.66 134.756L172.971 145.774L172.675 146.038Z" fill="#4CC326"/>
<path d="M99.0224 104.49L96.759 124.817L97.1548 124.865L99.4181 104.537L99.0224 104.49Z" fill="#4CC326"/>
<path d="M177.494 134.11L177.102 134.076L178.891 111.918L167.801 89.0749L152.635 79.5739L152.842 79.235L168.102 88.7995L179.294 111.845L177.494 134.11Z" fill="#4CC326"/>
<path d="M107.324 145.768L107.079 146.083L120.721 156.913L120.966 156.598L107.324 145.768Z" fill="#4CC326"/>
<path d="M103.761 126.604L87.7697 146.23L88.0779 146.487L104.069 126.861L103.761 126.604Z" fill="#4CC326"/>
<path d="M94.1915 150.309L93.9728 149.975L109.634 139.275L90.0223 127.212L90.2263 126.865L110.362 139.257L94.1915 150.309Z" fill="#4CC326"/>
<path d="M106.68 104.479L89.0572 94.5005L103.13 89.4011L100.987 79.1582L101.371 79.0816L103.498 89.2735L113.179 85.7651L128.652 80.2249L128.784 80.6052L113.311 86.1454L103.579 89.6701L106.68 104.479ZM90.0026 94.5815L106.112 103.695L103.209 89.7892L90.0026 94.5815Z" fill="#4CC326"/>
<path d="M150.493 83.1366L143.499 71.0071L130.079 83.7669L129.81 83.4779L143.303 70.6569L139.524 64.1053L139.87 63.9096L143.605 70.3815L148.142 66.067L148.477 66.1847L150.872 83.0148L150.493 83.1366ZM143.792 70.7344L150.322 82.0553L148.124 66.6175L143.792 70.7344Z" fill="#4CC326"/>
<path d="M179.186 112.171L162.11 101.669L186.957 93.6862L179.186 112.171ZM163.055 101.778L178.999 111.592L186.244 94.3287L163.055 101.778Z" fill="#4CC326"/>
<path d="M175.443 158.137L173 146.441L162.118 154.477L162.085 154.487L143.983 159.389L143.876 159.001L161.945 154.11L172.908 146.01L170.083 132.492L170.467 132.416L173.251 145.749L182.765 138.716L175.443 158.137ZM173.354 146.186L175.556 156.729L181.931 139.849L173.354 146.186Z" fill="#4CC326"/>
<path d="M108.839 132.299L108.707 131.918L125.676 126.235L138.242 116.681L130.218 107.672L130.514 107.408L138.818 116.739L125.864 126.588L108.839 132.299Z" fill="#4CC326"/>
<path d="M138.704 116.607L138.356 116.799L144.789 128.53L145.137 128.337L138.704 116.607Z" fill="#4CC326"/>
<path d="M168.272 90.1068C168.816 89.9319 169.113 89.3442 168.936 88.7942C168.759 88.2442 168.175 87.9402 167.631 88.1151C167.088 88.29 166.79 88.8777 166.967 89.4277C167.144 89.9776 167.728 90.2817 168.272 90.1068Z" fill="#4CC326"/>
<path d="M167.634 88.1237C168.173 87.9504 168.761 88.2495 168.939 88.8028C169.117 89.356 168.822 89.9394 168.275 90.1153C167.736 90.2886 167.148 89.9894 166.97 89.4362C166.792 88.883 167.095 88.2969 167.634 88.1237ZM167.525 87.7832C166.801 88.016 166.395 88.804 166.633 89.5445C166.871 90.285 167.652 90.6913 168.384 90.4558C169.116 90.2203 169.514 89.435 169.276 88.6945C169.038 87.954 168.257 87.5477 167.525 87.7832Z" fill="#141414"/>
<path d="M181.842 89.6211C182.385 89.4462 182.683 88.8586 182.506 88.3086C182.329 87.7586 181.745 87.4545 181.201 87.6295C180.657 87.8044 180.36 88.392 180.537 88.942C180.714 89.492 181.298 89.796 181.842 89.6211Z" fill="#4CC326"/>
<path d="M181.204 87.6379C181.742 87.4647 182.331 87.7638 182.509 88.3171C182.687 88.8703 182.391 89.4537 181.844 89.6296C181.297 89.8056 180.717 89.5037 180.539 88.9505C180.361 88.3972 180.665 87.8112 181.204 87.6379ZM181.094 87.2975C180.37 87.5303 179.965 88.3183 180.203 89.0588C180.441 89.7993 181.222 90.2056 181.954 89.9701C182.686 89.7346 183.084 88.9493 182.845 88.2088C182.607 87.4683 181.826 87.062 181.094 87.2975Z" fill="#141414"/>
<path d="M187.314 95.0554C187.857 94.8805 188.155 94.2928 187.978 93.7428C187.801 93.1929 187.217 92.8888 186.673 93.0637C186.129 93.2386 185.832 93.8263 186.009 94.3763C186.185 94.9263 186.77 95.2303 187.314 95.0554Z" fill="#4CC326"/>
<path d="M186.676 93.0722C187.214 92.899 187.803 93.1981 187.981 93.7513C188.156 94.2961 187.863 94.8879 187.316 95.0639C186.769 95.2398 186.189 94.938 186.011 94.3848C185.833 93.8315 186.137 93.2454 186.676 93.0722ZM186.566 92.7317C185.842 92.9645 185.437 93.7525 185.675 94.493C185.91 95.225 186.694 95.6398 187.426 95.4043C188.158 95.1688 188.556 94.3835 188.317 93.643C188.079 92.9026 187.29 92.4989 186.566 92.7317Z" fill="#141414"/>
<path d="M179.228 112.852C179.772 112.677 180.07 112.09 179.893 111.54C179.716 110.99 179.131 110.685 178.588 110.86C178.044 111.035 177.746 111.623 177.923 112.173C178.1 112.723 178.684 113.027 179.228 112.852Z" fill="#4CC326"/>
<path d="M178.588 110.86C179.126 110.687 179.715 110.986 179.893 111.54C180.071 112.093 179.775 112.676 179.228 112.852C178.681 113.028 178.101 112.726 177.923 112.173C177.745 111.62 178.041 111.036 178.588 110.86ZM178.478 110.52C177.754 110.753 177.348 111.541 177.587 112.281C177.825 113.022 178.606 113.428 179.338 113.193C180.07 112.957 180.467 112.172 180.229 111.431C179.991 110.691 179.202 110.287 178.478 110.52Z" fill="#141414"/>
<path d="M184.982 109.396C185.526 109.221 185.823 108.633 185.646 108.083C185.47 107.533 184.885 107.229 184.341 107.404C183.798 107.579 183.5 108.167 183.677 108.717C183.854 109.267 184.438 109.571 184.982 109.396Z" fill="#4CC326"/>
<path d="M184.341 107.404C184.88 107.231 185.468 107.53 185.646 108.083C185.824 108.636 185.529 109.22 184.982 109.396C184.435 109.572 183.855 109.27 183.677 108.717C183.499 108.163 183.794 107.58 184.341 107.404ZM184.232 107.064C183.508 107.296 183.102 108.084 183.34 108.825C183.579 109.565 184.359 109.972 185.092 109.736C185.824 109.501 186.221 108.715 185.983 107.975C185.745 107.234 184.956 106.831 184.232 107.064Z" fill="#141414"/>
<path d="M188.246 103.037C188.79 102.862 189.087 102.274 188.91 101.724C188.733 101.174 188.149 100.87 187.605 101.045C187.062 101.22 186.764 101.808 186.941 102.358C187.118 102.908 187.702 103.212 188.246 103.037Z" fill="#4CC326"/>
<path d="M187.605 101.045C188.144 100.872 188.732 101.171 188.91 101.724C189.088 102.277 188.793 102.861 188.246 103.037C187.699 103.213 187.119 102.911 186.941 102.358C186.763 101.804 187.058 101.221 187.605 101.045ZM187.496 100.705C186.772 100.937 186.366 101.725 186.604 102.466C186.842 103.206 187.623 103.613 188.355 103.377C189.088 103.142 189.485 102.356 189.247 101.616C189.009 100.875 188.22 100.472 187.496 100.705Z" fill="#141414"/>
<path d="M165.721 109.373C166.264 109.198 166.562 108.611 166.385 108.061C166.208 107.511 165.624 107.207 165.08 107.381C164.536 107.556 164.239 108.144 164.416 108.694C164.593 109.244 165.177 109.548 165.721 109.373Z" fill="#4CC326"/>
<path d="M165.08 107.381C165.619 107.208 166.207 107.507 166.385 108.061C166.56 108.605 166.268 109.197 165.721 109.373C165.182 109.546 164.594 109.247 164.416 108.694C164.24 108.149 164.533 107.557 165.08 107.381ZM164.97 107.041C164.247 107.274 163.841 108.062 164.079 108.802C164.317 109.543 165.098 109.949 165.83 109.714C166.562 109.478 166.96 108.693 166.722 107.952C166.483 107.212 165.694 106.808 164.97 107.041Z" fill="#141414"/>
<path d="M173.055 99.4348C173.599 99.2599 173.897 98.6722 173.72 98.1222C173.543 97.5723 172.959 97.2682 172.415 97.4431C171.871 97.618 171.573 98.2057 171.75 98.7557C171.927 99.3056 172.512 99.6097 173.055 99.4348Z" fill="#4CC326"/>
<path d="M172.415 97.4431C172.953 97.2699 173.542 97.569 173.72 98.1222C173.898 98.6755 173.602 99.2588 173.055 99.4348C172.517 99.608 171.928 99.3089 171.75 98.7557C171.572 98.2024 171.868 97.6191 172.415 97.4431ZM172.305 97.1027C171.581 97.3355 171.176 98.1234 171.414 98.8639C171.652 99.6044 172.433 100.011 173.165 99.7752C173.897 99.5397 174.295 98.7545 174.056 98.014C173.818 97.2735 173.029 96.8699 172.305 97.1027Z" fill="#141414"/>
<path d="M177.394 135.184C177.938 135.01 178.235 134.422 178.058 133.872C177.881 133.322 177.297 133.018 176.753 133.193C176.209 133.368 175.912 133.955 176.089 134.505C176.266 135.055 176.85 135.359 177.394 135.184Z" fill="#4CC326"/>
<path d="M176.753 133.193C177.292 133.02 177.88 133.319 178.058 133.872C178.236 134.425 177.941 135.009 177.394 135.184C176.855 135.358 176.267 135.059 176.089 134.505C175.911 133.952 176.206 133.369 176.753 133.193ZM176.644 132.852C175.92 133.085 175.514 133.873 175.752 134.614C175.99 135.354 176.771 135.76 177.503 135.525C178.235 135.289 178.633 134.504 178.395 133.764C178.157 133.023 177.367 132.62 176.644 132.852Z" fill="#141414"/>
<path d="M173.53 147.078C174.073 146.903 174.371 146.315 174.194 145.765C174.017 145.215 173.433 144.911 172.889 145.086C172.345 145.261 172.048 145.849 172.225 146.399C172.401 146.949 172.986 147.253 173.53 147.078Z" fill="#4CC326"/>
<path d="M172.889 145.086C173.428 144.913 174.016 145.212 174.194 145.765C174.372 146.318 174.077 146.902 173.53 147.078C172.983 147.254 172.403 146.952 172.225 146.399C172.047 145.845 172.35 145.259 172.889 145.086ZM172.779 144.746C172.056 144.978 171.65 145.766 171.888 146.507C172.126 147.247 172.907 147.654 173.639 147.418C174.371 147.183 174.769 146.397 174.531 145.657C174.292 144.916 173.512 144.51 172.779 144.746Z" fill="#141414"/>
<path d="M163.957 136.228C164.501 136.054 164.798 135.466 164.622 134.916C164.445 134.366 163.86 134.062 163.317 134.237C162.773 134.412 162.475 134.999 162.652 135.549C162.829 136.099 163.413 136.403 163.957 136.228Z" fill="#4CC326"/>
<path d="M163.319 134.245C163.858 134.072 164.446 134.371 164.624 134.924C164.802 135.478 164.507 136.061 163.96 136.237C163.413 136.413 162.833 136.111 162.655 135.558C162.477 135.005 162.781 134.418 163.319 134.245ZM163.21 133.905C162.486 134.138 162.08 134.926 162.318 135.666C162.556 136.407 163.337 136.813 164.069 136.577C164.802 136.342 165.199 135.557 164.961 134.816C164.723 134.076 163.942 133.669 163.21 133.905Z" fill="#141414"/>
<path d="M159.215 141.755C159.759 141.58 160.056 140.992 159.88 140.442C159.703 139.892 159.118 139.588 158.575 139.763C158.031 139.938 157.733 140.525 157.91 141.075C158.087 141.625 158.671 141.929 159.215 141.755Z" fill="#4CC326"/>
<path d="M158.577 139.771C159.116 139.598 159.704 139.897 159.882 140.45C160.06 141.004 159.765 141.587 159.218 141.763C158.679 141.936 158.091 141.637 157.913 141.084C157.735 140.531 158.039 139.945 158.577 139.771ZM158.468 139.431C157.744 139.664 157.338 140.452 157.576 141.192C157.814 141.933 158.595 142.339 159.327 142.103C160.06 141.868 160.457 141.083 160.219 140.342C159.981 139.602 159.192 139.198 158.468 139.431Z" fill="#141414"/>
<path d="M170.46 133.32C171.004 133.145 171.302 132.557 171.125 132.007C170.948 131.457 170.364 131.153 169.82 131.328C169.276 131.503 168.978 132.09 169.155 132.64C169.332 133.19 169.916 133.495 170.46 133.32Z" fill="#4CC326"/>
<path d="M169.82 131.328C170.358 131.155 170.947 131.454 171.125 132.007C171.303 132.56 171.007 133.144 170.46 133.32C169.913 133.496 169.333 133.194 169.155 132.64C168.977 132.087 169.281 131.501 169.82 131.328ZM169.71 130.987C168.986 131.22 168.58 132.008 168.819 132.749C169.057 133.489 169.838 133.896 170.57 133.66C171.302 133.425 171.699 132.639 171.461 131.899C171.223 131.158 170.442 130.752 169.71 130.987Z" fill="#141414"/>
<path d="M181.934 154.499C182.478 154.324 182.776 153.736 182.599 153.186C182.422 152.636 181.838 152.332 181.294 152.507C180.75 152.682 180.452 153.27 180.629 153.82C180.806 154.37 181.391 154.674 181.934 154.499Z" fill="#4CC326"/>
<path d="M181.294 152.507C181.832 152.334 182.421 152.633 182.599 153.186C182.774 153.731 182.481 154.323 181.934 154.499C181.396 154.672 180.807 154.373 180.629 153.82C180.463 153.272 180.755 152.681 181.294 152.507ZM181.184 152.167C180.46 152.4 180.055 153.188 180.293 153.928C180.528 154.66 181.312 155.075 182.044 154.839C182.776 154.604 183.174 153.819 182.935 153.078C182.7 152.346 181.916 151.931 181.184 152.167Z" fill="#141414"/>
<path d="M162.327 154.982C162.871 154.807 163.169 154.22 162.992 153.67C162.815 153.12 162.231 152.816 161.687 152.991C161.143 153.166 160.846 153.753 161.023 154.303C161.199 154.853 161.784 155.157 162.327 154.982Z" fill="#4CC326"/>
<path d="M161.69 152.999C162.228 152.826 162.817 153.125 162.995 153.678C163.173 154.231 162.877 154.815 162.33 154.991C161.792 155.164 161.203 154.865 161.025 154.312C160.847 153.758 161.143 153.175 161.69 152.999ZM161.58 152.659C160.856 152.891 160.45 153.679 160.689 154.42C160.927 155.16 161.708 155.567 162.44 155.331C163.172 155.096 163.569 154.31 163.331 153.57C163.093 152.829 162.304 152.426 161.58 152.659Z" fill="#141414"/>
<path d="M139.939 154.266C140.483 154.091 140.78 153.503 140.603 152.953C140.426 152.403 139.842 152.099 139.298 152.274C138.754 152.449 138.457 153.037 138.634 153.587C138.811 154.137 139.395 154.441 139.939 154.266Z" fill="#4CC326"/>
<path d="M139.298 152.274C139.837 152.101 140.425 152.4 140.603 152.953C140.781 153.507 140.486 154.09 139.939 154.266C139.4 154.439 138.812 154.14 138.634 153.587C138.456 153.034 138.76 152.448 139.298 152.274ZM139.189 151.934C138.465 152.167 138.059 152.955 138.297 153.695C138.535 154.436 139.316 154.842 140.048 154.606C140.78 154.371 141.178 153.586 140.94 152.845C140.702 152.105 139.912 151.701 139.189 151.934Z" fill="#141414"/>
<path d="M131.083 169.84C131.627 169.666 131.924 169.078 131.747 168.528C131.57 167.978 130.986 167.674 130.442 167.849C129.899 168.024 129.601 168.611 129.778 169.161C129.955 169.711 130.539 170.015 131.083 169.84Z" fill="#4CC326"/>
<path d="M130.442 167.849C130.981 167.676 131.569 167.975 131.747 168.528C131.925 169.081 131.63 169.664 131.083 169.84C130.544 170.014 129.956 169.715 129.778 169.161C129.6 168.608 129.904 168.022 130.442 167.849ZM130.333 167.508C129.609 167.741 129.203 168.529 129.441 169.27C129.679 170.01 130.46 170.416 131.192 170.181C131.925 169.945 132.322 169.16 132.084 168.42C131.846 167.679 131.057 167.275 130.333 167.508Z" fill="#141414"/>
<path d="M144.257 167.604C144.8 167.429 145.098 166.841 144.921 166.291C144.744 165.741 144.16 165.437 143.616 165.612C143.072 165.787 142.775 166.375 142.952 166.925C143.128 167.475 143.713 167.779 144.257 167.604Z" fill="#4CC326"/>
<path d="M143.619 165.621C144.157 165.447 144.746 165.746 144.924 166.3C145.099 166.844 144.806 167.436 144.259 167.612C143.721 167.785 143.132 167.486 142.954 166.933C142.776 166.38 143.072 165.797 143.619 165.621ZM143.509 165.28C142.785 165.513 142.379 166.301 142.618 167.041C142.856 167.782 143.637 168.188 144.369 167.953C145.101 167.717 145.499 166.932 145.26 166.191C145.022 165.451 144.233 165.047 143.509 165.28Z" fill="#141414"/>
<path d="M144.488 160.326C145.032 160.151 145.329 159.563 145.153 159.013C144.976 158.463 144.391 158.159 143.848 158.334C143.304 158.509 143.006 159.097 143.183 159.647C143.36 160.197 143.944 160.501 144.488 160.326Z" fill="#4CC326"/>
<path d="M143.85 158.342C144.389 158.169 144.977 158.468 145.155 159.022C145.333 159.575 145.038 160.158 144.491 160.334C143.952 160.507 143.364 160.208 143.186 159.655C143.008 159.102 143.303 158.518 143.85 158.342ZM143.741 158.002C143.017 158.235 142.611 159.023 142.849 159.763C143.087 160.504 143.868 160.91 144.6 160.675C145.333 160.439 145.73 159.654 145.492 158.913C145.254 158.173 144.465 157.769 143.741 158.002Z" fill="#141414"/>
<path d="M140.674 173.79C141.218 173.615 141.516 173.027 141.339 172.477C141.162 171.927 140.578 171.623 140.034 171.798C139.49 171.973 139.192 172.561 139.369 173.111C139.546 173.661 140.13 173.965 140.674 173.79Z" fill="#4CC326"/>
<path d="M140.034 171.798C140.572 171.625 141.161 171.924 141.339 172.477C141.514 173.022 141.221 173.614 140.674 173.79C140.136 173.963 139.547 173.664 139.369 173.111C139.194 172.566 139.495 171.972 140.034 171.798ZM139.924 171.458C139.2 171.691 138.794 172.479 139.033 173.219C139.271 173.96 140.052 174.366 140.784 174.13C141.516 173.895 141.913 173.11 141.675 172.369C141.437 171.629 140.648 171.225 139.924 171.458Z" fill="#141414"/>
<path d="M127.511 176.089C128.055 175.914 128.353 175.326 128.176 174.776C127.999 174.226 127.415 173.922 126.871 174.097C126.327 174.272 126.03 174.86 126.206 175.41C126.383 175.96 126.968 176.264 127.511 176.089Z" fill="#4CC326"/>
<path d="M126.871 174.097C127.409 173.924 127.998 174.223 128.176 174.776C128.354 175.33 128.058 175.913 127.511 176.089C126.973 176.262 126.384 175.963 126.206 175.41C126.028 174.857 126.332 174.271 126.871 174.097ZM126.761 173.757C126.037 173.99 125.632 174.778 125.87 175.518C126.108 176.259 126.889 176.665 127.621 176.429C128.353 176.194 128.751 175.409 128.512 174.668C128.274 173.928 127.485 173.524 126.761 173.757Z" fill="#141414"/>
<path d="M121.973 171.719C122.517 171.544 122.814 170.956 122.637 170.406C122.461 169.856 121.876 169.552 121.332 169.727C120.789 169.902 120.491 170.489 120.668 171.039C120.845 171.589 121.429 171.894 121.973 171.719Z" fill="#4CC326"/>
<path d="M121.332 169.727C121.871 169.554 122.459 169.853 122.637 170.406C122.813 170.951 122.52 171.543 121.973 171.719C121.434 171.892 120.846 171.593 120.668 171.039C120.49 170.486 120.794 169.9 121.332 169.727ZM121.223 169.386C120.499 169.619 120.093 170.407 120.331 171.148C120.57 171.888 121.35 172.295 122.083 172.059C122.815 171.824 123.212 171.038 122.974 170.298C122.736 169.557 121.947 169.154 121.223 169.386Z" fill="#141414"/>
<path d="M119.572 165.034C120.116 164.859 120.413 164.271 120.237 163.721C120.06 163.171 119.475 162.867 118.932 163.042C118.388 163.217 118.09 163.805 118.267 164.355C118.444 164.905 119.028 165.209 119.572 165.034Z" fill="#4CC326"/>
<path d="M118.934 163.051C119.473 162.877 120.061 163.176 120.239 163.73C120.414 164.274 120.122 164.866 119.575 165.042C119.036 165.215 118.448 164.916 118.27 164.363C118.092 163.81 118.387 163.226 118.934 163.051ZM118.825 162.71C118.101 162.943 117.695 163.731 117.933 164.471C118.169 165.203 118.952 165.618 119.684 165.383C120.417 165.147 120.814 164.362 120.576 163.621C120.329 162.884 119.549 162.477 118.825 162.71Z" fill="#141414"/>
<path d="M121.098 157.94C121.642 157.765 121.94 157.178 121.763 156.628C121.586 156.078 121.001 155.774 120.458 155.949C119.914 156.124 119.616 156.711 119.793 157.261C119.97 157.811 120.554 158.115 121.098 157.94Z" fill="#4CC326"/>
<path d="M120.458 155.949C120.996 155.775 121.585 156.074 121.763 156.628C121.938 157.172 121.645 157.764 121.098 157.94C120.56 158.114 119.971 157.814 119.793 157.261C119.615 156.708 119.919 156.122 120.458 155.949ZM120.348 155.608C119.624 155.841 119.218 156.629 119.457 157.369C119.695 158.11 120.476 158.516 121.208 158.281C121.94 158.045 122.337 157.26 122.099 156.519C121.861 155.779 121.072 155.375 120.348 155.608Z" fill="#141414"/>
<path d="M107.413 146.921C107.956 146.746 108.254 146.158 108.077 145.608C107.9 145.058 107.316 144.754 106.772 144.929C106.228 145.104 105.931 145.691 106.108 146.241C106.285 146.791 106.869 147.095 107.413 146.921Z" fill="#4CC326"/>
<path d="M106.772 144.929C107.311 144.756 107.899 145.055 108.077 145.608C108.255 146.161 107.96 146.745 107.413 146.921C106.874 147.094 106.286 146.795 106.108 146.241C105.93 145.688 106.233 145.102 106.772 144.929ZM106.663 144.588C105.939 144.821 105.533 145.609 105.771 146.35C106.009 147.09 106.79 147.496 107.522 147.261C108.254 147.025 108.652 146.24 108.414 145.5C108.175 144.759 107.395 144.353 106.663 144.588Z" fill="#141414"/>
<path d="M110.322 140.462C110.866 140.287 111.164 139.7 110.987 139.15C110.81 138.6 110.226 138.296 109.682 138.471C109.138 138.645 108.841 139.233 109.017 139.783C109.194 140.333 109.779 140.637 110.322 140.462Z" fill="#4CC326"/>
<path d="M109.682 138.471C110.22 138.297 110.809 138.596 110.987 139.15C111.162 139.694 110.869 140.286 110.322 140.462C109.775 140.638 109.195 140.336 109.017 139.783C108.842 139.238 109.135 138.646 109.682 138.471ZM109.572 138.13C108.849 138.363 108.443 139.151 108.681 139.891C108.916 140.623 109.7 141.038 110.432 140.803C111.164 140.567 111.562 139.782 111.323 139.041C111.08 138.312 110.296 137.897 109.572 138.13Z" fill="#141414"/>
<path d="M109.057 133.525C109.601 133.35 109.898 132.762 109.721 132.212C109.544 131.662 108.96 131.358 108.416 131.533C107.872 131.708 107.575 132.296 107.752 132.846C107.929 133.396 108.513 133.7 109.057 133.525Z" fill="#4CC326"/>
<path d="M108.419 131.542C108.958 131.368 109.546 131.667 109.724 132.221C109.902 132.774 109.607 133.357 109.06 133.533C108.521 133.707 107.933 133.407 107.755 132.854C107.577 132.301 107.872 131.718 108.419 131.542ZM108.309 131.201C107.586 131.434 107.18 132.222 107.418 132.962C107.656 133.703 108.437 134.109 109.169 133.874C109.901 133.638 110.299 132.853 110.061 132.112C109.822 131.372 109.033 130.968 108.309 131.201Z" fill="#141414"/>
<path d="M104.346 127.742C104.89 127.567 105.187 126.98 105.01 126.43C104.834 125.88 104.249 125.576 103.705 125.751C103.162 125.926 102.864 126.513 103.041 127.063C103.218 127.613 103.802 127.917 104.346 127.742Z" fill="#4CC326"/>
<path d="M103.705 125.751C104.244 125.577 104.832 125.877 105.01 126.43C105.188 126.983 104.893 127.566 104.346 127.742C103.807 127.916 103.219 127.617 103.041 127.063C102.863 126.51 103.167 125.924 103.705 125.751ZM103.596 125.41C102.872 125.643 102.466 126.431 102.704 127.172C102.943 127.912 103.723 128.318 104.456 128.083C105.188 127.847 105.585 127.062 105.347 126.322C105.109 125.581 104.328 125.175 103.596 125.41Z" fill="#141414"/>
<path d="M125.431 113.607C125.975 113.432 126.272 112.844 126.095 112.294C125.919 111.744 125.334 111.44 124.79 111.615C124.247 111.79 123.949 112.378 124.126 112.928C124.303 113.478 124.887 113.782 125.431 113.607Z" fill="#4CC326"/>
<path d="M124.79 111.615C125.329 111.442 125.917 111.741 126.095 112.294C126.273 112.847 125.978 113.431 125.431 113.607C124.892 113.78 124.304 113.481 124.126 112.928C123.948 112.374 124.243 111.791 124.79 111.615ZM124.681 111.275C123.957 111.507 123.551 112.295 123.789 113.036C124.028 113.776 124.808 114.183 125.54 113.947C126.273 113.712 126.67 112.926 126.432 112.186C126.194 111.445 125.405 111.042 124.681 111.275Z" fill="#141414"/>
<path d="M112.67 100.928C113.214 100.753 113.511 100.165 113.334 99.6153C113.157 99.0653 112.573 98.7613 112.029 98.9362C111.485 99.1111 111.188 99.6988 111.365 100.249C111.542 100.799 112.126 101.103 112.67 100.928Z" fill="#4CC326"/>
<path d="M112.029 98.9362C112.568 98.763 113.156 99.0621 113.334 99.6153C113.512 100.169 113.217 100.752 112.67 100.928C112.131 101.101 111.543 100.802 111.365 100.249C111.187 99.6955 111.491 99.1095 112.029 98.9362ZM111.92 98.5958C111.196 98.8286 110.79 99.6165 111.028 100.357C111.266 101.098 112.047 101.504 112.779 101.268C113.512 101.033 113.909 100.248 113.671 99.5071C113.433 98.7666 112.652 98.3603 111.92 98.5958Z" fill="#141414"/>
<path d="M106.37 105.161C106.914 104.986 107.211 104.399 107.034 103.849C106.857 103.299 106.273 102.995 105.729 103.17C105.185 103.345 104.888 103.932 105.065 104.482C105.242 105.032 105.826 105.336 106.37 105.161Z" fill="#4CC326"/>
<path d="M105.732 103.178C106.271 103.005 106.859 103.304 107.037 103.857C107.215 104.411 106.92 104.994 106.373 105.17C105.834 105.343 105.246 105.044 105.068 104.491C104.89 103.937 105.193 103.351 105.732 103.178ZM105.622 102.838C104.899 103.071 104.493 103.858 104.731 104.599C104.969 105.339 105.75 105.746 106.482 105.51C107.214 105.275 107.612 104.489 107.374 103.749C107.135 103.009 106.346 102.605 105.622 102.838Z" fill="#141414"/>
<path d="M99.5635 105.482C100.107 105.307 100.405 104.719 100.228 104.169C100.051 103.619 99.4667 103.315 98.9229 103.49C98.379 103.665 98.0816 104.252 98.2585 104.802C98.4354 105.352 99.0196 105.656 99.5635 105.482Z" fill="#4CC326"/>
<path d="M98.9228 103.49C99.4615 103.317 100.05 103.616 100.228 104.169C100.406 104.722 100.11 105.306 99.5634 105.482C99.0248 105.655 98.4364 105.356 98.2585 104.802C98.0805 104.249 98.3842 103.663 98.9228 103.49ZM98.8133 103.149C98.0896 103.382 97.6836 104.17 97.9218 104.911C98.16 105.651 98.9407 106.057 99.6729 105.822C100.405 105.586 100.803 104.801 100.564 104.061C100.326 103.32 99.5371 102.917 98.8133 103.149Z" fill="#141414"/>
<path d="M93.3717 101.678C93.9156 101.503 94.213 100.916 94.0361 100.366C93.8592 99.8157 93.275 99.5116 92.7311 99.6865C92.1873 99.8614 91.8899 100.449 92.0668 100.999C92.2437 101.549 92.8279 101.853 93.3717 101.678Z" fill="#4CC326"/>
<path d="M92.7311 99.6865C93.2698 99.5133 93.8582 99.8124 94.0361 100.366C94.2141 100.919 93.9188 101.502 93.3717 101.678C92.8247 101.854 92.2447 101.552 92.0667 100.999C91.8888 100.446 92.1841 99.8625 92.7311 99.6865ZM92.6216 99.3461C91.8978 99.5789 91.4919 100.367 91.7301 101.107C91.9683 101.848 92.749 102.254 93.4812 102.019C94.2134 101.783 94.6109 100.998 94.3728 100.257C94.1346 99.5169 93.3454 99.1133 92.6216 99.3461Z" fill="#141414"/>
<path d="M89.8153 95.3274C90.3591 95.1524 90.6566 94.5648 90.4797 94.0148C90.3028 93.4648 89.7185 93.1608 89.1747 93.3357C88.6309 93.5106 88.3334 94.0983 88.5103 94.6482C88.6872 95.1982 89.2715 95.5023 89.8153 95.3274Z" fill="#4CC326"/>
<path d="M89.1747 93.3357C89.7133 93.1624 90.3017 93.4616 90.4797 94.0148C90.6576 94.5681 90.3623 95.1514 89.8153 95.3274C89.2766 95.5006 88.6882 95.2015 88.5103 94.6482C88.3323 94.095 88.6276 93.5116 89.1747 93.3357ZM89.0652 92.9952C88.3414 93.228 87.9355 94.016 88.1736 94.7565C88.4118 95.497 89.1926 95.9033 89.9248 95.6678C90.657 95.4323 91.0545 94.647 90.8163 93.9065C90.5781 93.166 89.789 92.7624 89.0652 92.9952Z" fill="#141414"/>
<path d="M91.4097 85.3568C91.9535 85.1819 92.2509 84.5943 92.074 84.0443C91.8971 83.4943 91.3129 83.1903 90.7691 83.3652C90.2252 83.5401 89.9278 84.1277 90.1047 84.6777C90.2816 85.2277 90.8658 85.5318 91.4097 85.3568Z" fill="#4CC326"/>
<path d="M90.769 83.3652C91.3077 83.1919 91.8961 83.491 92.074 84.0443C92.252 84.5975 91.9567 85.1809 91.4096 85.3568C90.871 85.5301 90.2826 85.231 90.1046 84.6777C89.9267 84.1245 90.222 83.5411 90.769 83.3652ZM90.6595 83.0247C89.9357 83.2575 89.5298 84.0455 89.768 84.786C90.0062 85.5265 90.7869 85.9328 91.5191 85.6973C92.2513 85.4618 92.6488 84.6765 92.4107 83.936C92.1725 83.1955 91.3833 82.7919 90.6595 83.0247Z" fill="#141414"/>
<path d="M101.702 80.1681C102.246 79.9931 102.543 79.4055 102.367 78.8555C102.19 78.3055 101.605 78.0015 101.062 78.1764C100.518 78.3513 100.22 78.939 100.397 79.4889C100.574 80.0389 101.158 80.343 101.702 80.1681Z" fill="#4CC326"/>
<path d="M101.064 78.1849C101.603 78.0116 102.191 78.3108 102.369 78.864C102.547 79.4172 102.252 80.0006 101.705 80.1765C101.166 80.3498 100.578 80.0507 100.4 79.4974C100.222 78.9442 100.517 78.3608 101.064 78.1849ZM100.955 77.8444C100.231 78.0772 99.8251 78.8652 100.063 79.6057C100.301 80.3462 101.082 80.7525 101.814 80.517C102.547 80.2815 102.944 79.4962 102.706 78.7557C102.468 78.0152 101.679 77.6116 100.955 77.8444Z" fill="#141414"/>
<path d="M113.963 86.8748C114.507 86.6999 114.805 86.1122 114.628 85.5622C114.451 85.0123 113.867 84.7082 113.323 84.8831C112.779 85.058 112.481 85.6457 112.658 86.1957C112.835 86.7456 113.42 87.0497 113.963 86.8748Z" fill="#4CC326"/>
<path d="M113.325 84.8916C113.864 84.7184 114.453 85.0175 114.63 85.5707C114.808 86.124 114.513 86.7073 113.966 86.8833C113.427 87.0565 112.839 86.7574 112.661 86.2041C112.483 85.6509 112.787 85.0648 113.325 84.8916ZM113.216 84.5511C112.492 84.7839 112.086 85.5719 112.324 86.3124C112.563 87.0529 113.343 87.4592 114.076 87.2237C114.808 86.9882 115.205 86.2029 114.967 85.4624C114.729 84.7219 113.948 84.3156 113.216 84.5511Z" fill="#141414"/>
<path d="M103.399 90.9583C103.943 90.7834 104.24 90.1958 104.063 89.6458C103.886 89.0958 103.302 88.7918 102.758 88.9667C102.215 89.1416 101.917 89.7292 102.094 90.2792C102.271 90.8292 102.855 91.1333 103.399 90.9583Z" fill="#4CC326"/>
<path d="M102.758 88.9667C103.297 88.7934 103.885 89.0926 104.063 89.6458C104.241 90.199 103.946 90.7824 103.399 90.9583C102.852 91.1343 102.272 90.8325 102.094 90.2792C101.916 89.726 102.22 89.1399 102.758 88.9667ZM102.649 88.6262C101.925 88.859 101.519 89.647 101.757 90.3875C101.995 91.128 102.776 91.5343 103.508 91.2988C104.241 91.0633 104.638 90.278 104.4 89.5375C104.162 88.797 103.381 88.3907 102.649 88.6262Z" fill="#141414"/>
<path d="M115.256 94.3012C115.8 94.1263 116.097 93.5387 115.921 92.9887C115.744 92.4387 115.159 92.1347 114.616 92.3096C114.072 92.4845 113.774 93.0721 113.951 93.6221C114.128 94.1721 114.712 94.4762 115.256 94.3012Z" fill="#4CC326"/>
<path d="M114.616 92.3096C115.154 92.1363 115.743 92.4354 115.921 92.9887C116.096 93.5334 115.803 94.1253 115.256 94.3012C114.717 94.4745 114.129 94.1754 113.951 93.6221C113.782 93.0662 114.077 92.4828 114.616 92.3096ZM114.506 91.9691C113.782 92.2019 113.376 92.9899 113.614 93.7304C113.85 94.4624 114.633 94.8772 115.366 94.6417C116.098 94.4062 116.495 93.6209 116.257 92.8804C116.019 92.1399 115.238 91.7336 114.506 91.9691Z" fill="#141414"/>
<path d="M129.042 81.3488C129.585 81.1739 129.883 80.5863 129.706 80.0363C129.529 79.4863 128.945 79.1823 128.401 79.3572C127.857 79.5321 127.56 80.1197 127.737 80.6697C127.913 81.2197 128.498 81.5238 129.042 81.3488Z" fill="#4CC326"/>
<path d="M128.401 79.3572C128.94 79.1839 129.528 79.4831 129.706 80.0363C129.881 80.581 129.589 81.1729 129.042 81.3488C128.503 81.5221 127.914 81.223 127.737 80.6697C127.559 80.1165 127.854 79.5331 128.401 79.3572ZM128.291 79.0167C127.568 79.2495 127.162 80.0375 127.4 80.778C127.635 81.51 128.419 81.9248 129.151 81.6893C129.883 81.4538 130.281 80.6685 130.043 79.928C129.796 79.1902 129.015 78.7839 128.291 79.0167Z" fill="#141414"/>
<path d="M129.623 70.596C130.167 70.4211 130.464 69.8334 130.287 69.2834C130.11 68.7334 129.526 68.4294 128.982 68.6043C128.438 68.7792 128.141 69.3669 128.318 69.9169C128.495 70.4668 129.079 70.7709 129.623 70.596Z" fill="#4CC326"/>
<path d="M128.982 68.6043C129.521 68.4311 130.109 68.7302 130.287 69.2834C130.465 69.8367 130.17 70.42 129.623 70.596C129.084 70.7692 128.496 70.4701 128.318 69.9169C128.14 69.3636 128.443 68.7776 128.982 68.6043ZM128.873 68.2638C128.149 68.4966 127.743 69.2846 127.981 70.0251C128.219 70.7656 129 71.1719 129.732 70.9364C130.464 70.7009 130.862 69.9156 130.624 69.1751C130.386 68.4347 129.605 68.0283 128.873 68.2638Z" fill="#141414"/>
<path d="M140.105 64.6698C140.649 64.4949 140.947 63.9072 140.77 63.3572C140.593 62.8072 140.008 62.5032 139.465 62.6781C138.921 62.853 138.623 63.4407 138.8 63.9906C138.977 64.5406 139.561 64.8447 140.105 64.6698Z" fill="#4CC326"/>
<path d="M139.465 62.6781C140.003 62.5049 140.592 62.804 140.77 63.3572C140.948 63.9105 140.652 64.4938 140.105 64.6698C139.567 64.843 138.978 64.5439 138.8 63.9906C138.622 63.4374 138.918 62.8541 139.465 62.6781ZM139.355 62.3376C138.631 62.5704 138.225 63.3584 138.464 64.0989C138.702 64.8394 139.483 65.2457 140.215 65.0102C140.947 64.7747 141.344 63.9894 141.106 63.2489C140.868 62.5084 140.079 62.1048 139.355 62.3376Z" fill="#141414"/>
<path d="M148.839 67.2235C149.383 67.0486 149.68 66.4609 149.503 65.9109C149.326 65.3609 148.742 65.0569 148.198 65.2318C147.655 65.4067 147.357 65.9944 147.534 66.5444C147.711 67.0943 148.295 67.3984 148.839 67.2235Z" fill="#4CC326"/>
<path d="M148.201 65.2403C148.74 65.067 149.328 65.3662 149.506 65.9194C149.684 66.4727 149.389 67.056 148.842 67.232C148.303 67.4052 147.715 67.1061 147.537 66.5528C147.359 65.9996 147.662 65.4135 148.201 65.2403ZM148.092 64.8998C147.368 65.1326 146.962 65.9206 147.2 66.6611C147.438 67.4016 148.219 67.8079 148.951 67.5724C149.683 67.3369 150.081 66.5516 149.843 65.8111C149.605 65.0706 148.824 64.6643 148.092 64.8998Z" fill="#141414"/>
<path d="M143.835 71.8195C144.379 71.6446 144.676 71.057 144.499 70.507C144.323 69.957 143.738 69.653 143.194 69.8279C142.651 70.0028 142.353 70.5904 142.53 71.1404C142.707 71.6904 143.291 71.9945 143.835 71.8195Z" fill="#4CC326"/>
<path d="M143.194 69.8279C143.733 69.6546 144.321 69.9538 144.499 70.507C144.677 71.0602 144.382 71.6436 143.835 71.8195C143.296 71.9928 142.708 71.6937 142.53 71.1404C142.352 70.5872 142.647 70.0038 143.194 69.8279ZM143.085 69.4874C142.361 69.7202 141.955 70.5082 142.193 71.2487C142.432 71.9892 143.212 72.3955 143.945 72.16C144.677 71.9245 145.074 71.1392 144.836 70.3987C144.598 69.6582 143.809 69.2546 143.085 69.4874Z" fill="#141414"/>
<path d="M136.144 89.2829C136.688 89.1079 136.985 88.5203 136.808 87.9703C136.631 87.4203 136.047 87.1163 135.503 87.2912C134.96 87.4661 134.662 88.0538 134.839 88.6037C135.016 89.1537 135.6 89.4578 136.144 89.2829Z" fill="#4CC326"/>
<path d="M135.506 87.2997C136.045 87.1264 136.633 87.4256 136.811 87.9788C136.986 88.5235 136.694 89.1154 136.147 89.2913C135.608 89.4646 135.02 89.1655 134.842 88.6122C134.664 88.059 134.959 87.4756 135.506 87.2997ZM135.397 86.9592C134.673 87.192 134.267 87.98 134.505 88.7205C134.74 89.4525 135.524 89.8673 136.256 89.6318C136.988 89.3963 137.386 88.611 137.148 87.8705C136.901 87.1327 136.12 86.7264 135.397 86.9592Z" fill="#141414"/>
<path d="M153.27 80.4499C153.813 80.2749 154.111 79.6873 153.934 79.1373C153.757 78.5873 153.173 78.2833 152.629 78.4582C152.085 78.6331 151.788 79.2208 151.965 79.7707C152.141 80.3207 152.726 80.6248 153.27 80.4499Z" fill="#4CC326"/>
<path d="M152.632 78.4667C153.17 78.2934 153.759 78.5925 153.937 79.1458C154.115 79.699 153.819 80.2824 153.272 80.4583C152.725 80.6343 152.145 80.3325 151.967 79.7792C151.789 79.226 152.085 78.6426 152.632 78.4667ZM152.522 78.1262C151.798 78.359 151.392 79.147 151.631 79.8875C151.869 80.628 152.65 81.0343 153.382 80.7988C154.114 80.5633 154.511 79.778 154.273 79.0375C154.035 78.297 153.246 77.8934 152.522 78.1262Z" fill="#141414"/>
<path d="M150.911 83.857C151.455 83.6821 151.752 83.0945 151.575 82.5445C151.398 81.9945 150.814 81.6904 150.27 81.8654C149.726 82.0403 149.429 82.6279 149.606 83.1779C149.783 83.7279 150.367 84.0319 150.911 83.857Z" fill="#4CC326"/>
<path d="M150.27 81.8654C150.809 81.6921 151.397 81.9912 151.575 82.5445C151.753 83.0977 151.458 83.6811 150.911 83.857C150.372 84.0303 149.784 83.7311 149.606 83.1779C149.428 82.6247 149.723 82.0413 150.27 81.8654ZM150.161 81.5249C149.437 81.7577 149.031 82.5457 149.269 83.2862C149.507 84.0267 150.288 84.433 151.02 84.1975C151.752 83.962 152.15 83.1767 151.912 82.4362C151.674 81.6957 150.884 81.2921 150.161 81.5249Z" fill="#141414"/>
<path d="M123.797 120.857C124.341 120.682 124.639 120.094 124.462 119.544C124.285 118.994 123.701 118.69 123.157 118.865C122.613 119.04 122.316 119.628 122.492 120.178C122.669 120.728 123.254 121.032 123.797 120.857Z" fill="#4CC326"/>
<path d="M123.16 118.874C123.698 118.7 124.287 119 124.465 119.553C124.643 120.106 124.347 120.689 123.8 120.865C123.262 121.039 122.673 120.739 122.495 120.186C122.317 119.633 122.621 119.047 123.16 118.874ZM123.05 118.533C122.326 118.766 121.92 119.554 122.159 120.294C122.397 121.035 123.177 121.441 123.91 121.206C124.642 120.97 125.039 120.185 124.801 119.444C124.563 118.704 123.782 118.298 123.05 118.533Z" fill="#141414"/>
<path d="M130.85 108.454C131.394 108.28 131.692 107.692 131.515 107.142C131.338 106.592 130.754 106.288 130.21 106.463C129.666 106.638 129.369 107.225 129.545 107.775C129.722 108.325 130.307 108.629 130.85 108.454Z" fill="#4CC326"/>
<path d="M130.21 106.463C130.748 106.29 131.337 106.589 131.515 107.142C131.693 107.695 131.397 108.278 130.85 108.454C130.303 108.63 129.723 108.329 129.545 107.775C129.367 107.222 129.663 106.639 130.21 106.463ZM130.1 106.122C129.376 106.355 128.971 107.143 129.209 107.884C129.447 108.624 130.228 109.03 130.96 108.795C131.692 108.559 132.09 107.774 131.851 107.034C131.613 106.293 130.824 105.89 130.1 106.122Z" fill="#141414"/>
<path d="M137.969 107.072C138.512 106.897 138.81 106.31 138.633 105.76C138.456 105.21 137.872 104.906 137.328 105.081C136.784 105.256 136.487 105.843 136.664 106.393C136.841 106.943 137.425 107.247 137.969 107.072Z" fill="#4CC326"/>
<path d="M137.328 105.081C137.867 104.908 138.455 105.207 138.633 105.76C138.811 106.313 138.516 106.896 137.969 107.072C137.422 107.248 136.842 106.947 136.664 106.393C136.486 105.84 136.781 105.257 137.328 105.081ZM137.218 104.74C136.495 104.973 136.089 105.761 136.327 106.502C136.565 107.242 137.346 107.648 138.078 107.413C138.81 107.177 139.208 106.392 138.97 105.652C138.731 104.911 137.942 104.507 137.218 104.74Z" fill="#141414"/>
<path d="M148.379 115.859C148.923 115.684 149.221 115.097 149.044 114.547C148.867 113.997 148.283 113.693 147.739 113.868C147.195 114.043 146.898 114.63 147.074 115.18C147.251 115.73 147.836 116.034 148.379 115.859Z" fill="#4CC326"/>
<path d="M147.739 113.868C148.277 113.694 148.866 113.993 149.044 114.547C149.222 115.1 148.926 115.683 148.379 115.859C147.832 116.035 147.252 115.733 147.074 115.18C146.896 114.627 147.192 114.044 147.739 113.868ZM147.629 113.527C146.906 113.76 146.5 114.548 146.738 115.288C146.976 116.029 147.757 116.435 148.489 116.2C149.221 115.964 149.619 115.179 149.38 114.438C149.142 113.698 148.353 113.294 147.629 113.527Z" fill="#141414"/>
<path d="M138.314 117.58C138.858 117.405 139.156 116.817 138.979 116.267C138.802 115.717 138.218 115.413 137.674 115.588C137.13 115.763 136.832 116.351 137.009 116.901C137.186 117.451 137.77 117.755 138.314 117.58Z" fill="#4CC326"/>
<path d="M137.674 115.588C138.212 115.415 138.801 115.714 138.979 116.267C139.157 116.82 138.861 117.404 138.314 117.58C137.767 117.756 137.187 117.454 137.009 116.901C136.831 116.347 137.127 115.764 137.674 115.588ZM137.564 115.248C136.84 115.48 136.434 116.268 136.673 117.009C136.911 117.749 137.692 118.156 138.424 117.92C139.156 117.685 139.554 116.899 139.315 116.159C139.077 115.418 138.288 115.015 137.564 115.248Z" fill="#141414"/>
<path d="M145.043 129.068C145.587 128.893 145.884 128.305 145.708 127.755C145.531 127.205 144.946 126.901 144.403 127.076C143.859 127.251 143.561 127.839 143.738 128.389C143.915 128.939 144.499 129.243 145.043 129.068Z" fill="#4CC326"/>
<path d="M144.403 127.076C144.941 126.903 145.53 127.202 145.708 127.755C145.886 128.308 145.59 128.892 145.043 129.068C144.496 129.244 143.916 128.942 143.738 128.389C143.56 127.835 143.856 127.252 144.403 127.076ZM144.293 126.736C143.569 126.968 143.163 127.756 143.402 128.497C143.64 129.237 144.42 129.644 145.153 129.408C145.885 129.173 146.282 128.387 146.044 127.647C145.806 126.906 145.017 126.503 144.293 126.736Z" fill="#141414"/>
<path d="M147.817 125.9C148.361 125.725 148.658 125.138 148.481 124.588C148.304 124.038 147.72 123.734 147.176 123.909C146.632 124.083 146.335 124.671 146.512 125.221C146.689 125.771 147.273 126.075 147.817 125.9Z" fill="#4CC326"/>
<path d="M147.176 123.909C147.715 123.735 148.303 124.034 148.481 124.588C148.659 125.141 148.364 125.724 147.817 125.9C147.27 126.076 146.69 125.774 146.512 125.221C146.334 124.668 146.629 124.085 147.176 123.909ZM147.067 123.568C146.343 123.801 145.937 124.589 146.175 125.329C146.413 126.07 147.194 126.476 147.926 126.241C148.658 126.005 149.056 125.22 148.818 124.479C148.58 123.739 147.79 123.335 147.067 123.568Z" fill="#141414"/>
<path d="M97.0821 125.918C97.6259 125.743 97.9234 125.156 97.7465 124.606C97.5696 124.056 96.9853 123.752 96.4415 123.927C95.8976 124.101 95.6002 124.689 95.7771 125.239C95.954 125.789 96.5382 126.093 97.0821 125.918Z" fill="#4CC326"/>
<path d="M96.4442 123.935C96.9828 123.762 97.5712 124.061 97.7492 124.614C97.9271 125.167 97.6319 125.751 97.0848 125.927C96.5378 126.103 95.9578 125.801 95.7798 125.248C95.6019 124.694 95.9056 124.108 96.4442 123.935ZM96.3347 123.595C95.6109 123.827 95.205 124.615 95.4432 125.356C95.6813 126.096 96.4621 126.503 97.1943 126.267C97.9265 126.032 98.324 125.246 98.0858 124.506C97.8477 123.765 97.0585 123.362 96.3347 123.595Z" fill="#141414"/>
<path d="M90.3963 128.144C90.9401 127.969 91.2376 127.381 91.0607 126.831C90.8838 126.281 90.2995 125.977 89.7557 126.152C89.2119 126.327 88.9144 126.915 89.0913 127.465C89.2682 128.015 89.8525 128.319 90.3963 128.144Z" fill="#4CC326"/>
<path d="M89.7557 126.152C90.2943 125.979 90.8827 126.278 91.0607 126.831C91.2386 127.384 90.9433 127.968 90.3963 128.144C89.8576 128.317 89.2692 128.018 89.0913 127.465C88.9133 126.911 89.2086 126.328 89.7557 126.152ZM89.6462 125.812C88.9224 126.044 88.5165 126.832 88.7546 127.573C88.9928 128.313 89.7736 128.72 90.5058 128.484C91.238 128.249 91.6355 127.463 91.3973 126.723C91.1591 125.982 90.37 125.579 89.6462 125.812Z" fill="#141414"/>
<path d="M85.1049 140.797C85.6487 140.622 85.9462 140.034 85.7693 139.484C85.5924 138.934 85.0081 138.63 84.4643 138.805C83.9205 138.98 83.623 139.568 83.7999 140.118C83.9768 140.668 84.5611 140.972 85.1049 140.797Z" fill="#4CC326"/>
<path d="M84.4643 138.805C85.0029 138.632 85.5913 138.931 85.7693 139.484C85.9445 140.029 85.6519 140.621 85.1049 140.797C84.5663 140.97 83.9778 140.671 83.7999 140.118C83.6247 139.573 83.9172 138.981 84.4643 138.805ZM84.3548 138.465C83.631 138.697 83.2251 139.485 83.4633 140.226C83.7014 140.966 84.4822 141.373 85.2144 141.137C85.9466 140.902 86.3441 140.116 86.1059 139.376C85.8677 138.635 85.0786 138.232 84.3548 138.465Z" fill="#141414"/>
<path d="M88.3993 146.997C88.9432 146.822 89.2406 146.234 89.0637 145.684C88.8868 145.134 88.3026 144.83 87.7587 145.005C87.2149 145.18 86.9175 145.768 87.0943 146.318C87.2712 146.868 87.8555 147.172 88.3993 146.997Z" fill="#4CC326"/>
<path d="M87.7587 145.005C88.2974 144.832 88.8858 145.131 89.0637 145.684C89.2389 146.229 88.9464 146.821 88.3993 146.997C87.8607 147.17 87.2723 146.871 87.0943 146.318C86.9191 145.773 87.2117 145.181 87.7587 145.005ZM87.6492 144.665C86.9254 144.898 86.5195 145.686 86.7577 146.426C86.9959 147.167 87.7766 147.573 88.5088 147.337C89.241 147.102 89.6385 146.317 89.4004 145.576C89.1622 144.836 88.373 144.432 87.6492 144.665Z" fill="#141414"/>
<path d="M94.7975 150.894C95.3413 150.719 95.6388 150.131 95.4619 149.581C95.285 149.031 94.7007 148.727 94.1569 148.902C93.613 149.077 93.3156 149.664 93.4925 150.214C93.6694 150.764 94.2536 151.068 94.7975 150.894Z" fill="#4CC326"/>
<path d="M94.1569 148.902C94.6955 148.729 95.2839 149.028 95.4618 149.581C95.637 150.126 95.3445 150.718 94.7974 150.894C94.2504 151.07 93.6704 150.768 93.4925 150.214C93.3229 149.658 93.6182 149.075 94.1569 148.902ZM94.0473 148.561C93.3236 148.794 92.9176 149.582 93.1558 150.323C93.3912 151.055 94.1747 151.47 94.907 151.234C95.6392 150.999 96.0367 150.213 95.7985 149.473C95.5603 148.732 94.7711 148.329 94.0473 148.561Z" fill="#141414"/>
<path d="M101.888 151.111C102.432 150.936 102.73 150.349 102.553 149.799C102.376 149.249 101.792 148.945 101.248 149.119C100.704 149.294 100.406 149.882 100.583 150.432C100.76 150.982 101.344 151.286 101.888 151.111Z" fill="#4CC326"/>
<path d="M101.25 149.128C101.789 148.955 102.377 149.254 102.555 149.807C102.733 150.36 102.438 150.944 101.891 151.12C101.352 151.293 100.764 150.994 100.586 150.441C100.408 149.887 100.712 149.301 101.25 149.128ZM101.141 148.788C100.417 149.02 100.011 149.808 100.249 150.549C100.488 151.289 101.268 151.696 102.001 151.46C102.733 151.225 103.13 150.439 102.892 149.699C102.654 148.958 101.865 148.555 101.141 148.788Z" fill="#141414"/>
<path d="M99.3467 134.028C99.8906 133.853 100.188 133.265 100.011 132.715C99.8342 132.165 99.25 131.861 98.7061 132.036C98.1623 132.211 97.8648 132.799 98.0417 133.348C98.2186 133.898 98.8029 134.203 99.3467 134.028Z" fill="#4CC326"/>
<path d="M98.7089 132.044C99.2475 131.871 99.8359 132.17 100.014 132.724C100.192 133.277 99.8965 133.86 99.3495 134.036C98.8024 134.212 98.2224 133.91 98.0445 133.357C97.8665 132.804 98.1702 132.218 98.7089 132.044ZM98.5993 131.704C97.8756 131.937 97.4696 132.725 97.7078 133.465C97.946 134.206 98.7268 134.612 99.459 134.377C100.191 134.141 100.589 133.356 100.35 132.615C100.112 131.875 99.3231 131.471 98.5993 131.704Z" fill="#141414"/>
<path d="M125.893 127.518C126.437 127.343 126.735 126.755 126.558 126.205C126.381 125.655 125.797 125.351 125.253 125.526C124.709 125.701 124.412 126.289 124.588 126.839C124.765 127.389 125.35 127.693 125.893 127.518Z" fill="#4CC326"/>
<path d="M125.253 125.526C125.791 125.353 126.38 125.652 126.558 126.205C126.736 126.758 126.441 127.342 125.893 127.518C125.355 127.691 124.766 127.392 124.588 126.839C124.411 126.285 124.714 125.699 125.253 125.526ZM125.143 125.186C124.42 125.418 124.014 126.206 124.252 126.947C124.49 127.687 125.271 128.094 126.003 127.858C126.735 127.623 127.133 126.837 126.894 126.097C126.656 125.356 125.867 124.953 125.143 125.186Z" fill="#141414"/>
<path d="M138.829 132.655C139.373 132.48 139.671 131.893 139.494 131.343C139.317 130.793 138.732 130.489 138.189 130.663C137.645 130.838 137.347 131.426 137.524 131.976C137.701 132.526 138.285 132.83 138.829 132.655Z" fill="#4CC326"/>
<path d="M138.189 130.663C138.727 130.49 139.316 130.789 139.494 131.343C139.672 131.896 139.376 132.479 138.829 132.655C138.291 132.828 137.702 132.529 137.524 131.976C137.346 131.423 137.642 130.839 138.189 130.663ZM138.079 130.323C137.355 130.556 136.949 131.344 137.188 132.084C137.426 132.825 138.207 133.231 138.939 132.996C139.671 132.76 140.068 131.975 139.83 131.234C139.592 130.494 138.803 130.09 138.079 130.323Z" fill="#141414"/>
<path d="M133.036 151.63C133.58 151.456 133.877 150.868 133.701 150.318C133.524 149.768 132.939 149.464 132.396 149.639C131.852 149.814 131.554 150.401 131.731 150.951C131.908 151.501 132.492 151.805 133.036 151.63Z" fill="#4CC326"/>
<path d="M132.395 149.639C132.934 149.466 133.523 149.765 133.7 150.318C133.878 150.871 133.583 151.455 133.036 151.63C132.489 151.806 131.909 151.505 131.731 150.951C131.553 150.398 131.857 149.812 132.395 149.639ZM132.286 149.298C131.562 149.531 131.156 150.319 131.394 151.06C131.633 151.8 132.413 152.206 133.146 151.971C133.878 151.735 134.275 150.95 134.037 150.21C133.799 149.469 133.018 149.063 132.286 149.298Z" fill="#141414"/>
<path d="M182.809 140.703C183.353 140.528 183.65 139.94 183.473 139.39C183.296 138.84 182.712 138.536 182.168 138.711C181.625 138.886 181.327 139.474 181.504 140.024C181.681 140.574 182.265 140.878 182.809 140.703Z" fill="#4CC326"/>
<path d="M182.168 138.711C182.707 138.538 183.295 138.837 183.473 139.39C183.651 139.943 183.356 140.527 182.809 140.703C182.27 140.876 181.682 140.577 181.504 140.024C181.326 139.47 181.63 138.884 182.168 138.711ZM182.059 138.371C181.335 138.603 180.929 139.391 181.167 140.132C181.403 140.864 182.186 141.279 182.918 141.043C183.651 140.808 184.048 140.022 183.81 139.282C183.575 138.55 182.783 138.138 182.059 138.371Z" fill="#141414"/>
<path d="M175.852 158.371C176.396 158.196 176.694 157.608 176.517 157.058C176.34 156.509 175.756 156.204 175.212 156.379C174.668 156.554 174.371 157.142 174.547 157.692C174.724 158.242 175.309 158.546 175.852 158.371Z" fill="#4CC326"/>
<path d="M175.212 156.379C175.751 156.206 176.339 156.505 176.517 157.059C176.692 157.603 176.4 158.195 175.853 158.371C175.314 158.544 174.725 158.245 174.548 157.692C174.37 157.139 174.665 156.555 175.212 156.379ZM175.102 156.039C174.379 156.272 173.973 157.06 174.211 157.8C174.449 158.541 175.23 158.947 175.962 158.712C176.694 158.476 177.092 157.691 176.854 156.95C176.615 156.21 175.826 155.806 175.102 156.039Z" fill="#141414"/>
<path d="M162.915 102.903C163.459 102.728 163.756 102.14 163.58 101.59C163.403 101.04 162.818 100.736 162.275 100.911C161.731 101.086 161.433 101.674 161.61 102.224C161.787 102.774 162.371 103.078 162.915 102.903Z" fill="#4CC326"/>
<path d="M162.275 100.911C162.813 100.738 163.402 101.037 163.58 101.59C163.755 102.135 163.462 102.727 162.915 102.903C162.377 103.076 161.788 102.777 161.61 102.224C161.432 101.67 161.728 101.087 162.275 100.911ZM162.165 100.571C161.441 100.804 161.035 101.592 161.274 102.332C161.512 103.073 162.292 103.479 163.025 103.243C163.757 103.008 164.154 102.223 163.916 101.482C163.678 100.742 162.889 100.338 162.165 100.571Z" fill="#141414"/>
</g>
<defs>
<filter id="filter0_d_652_10893" x="2.37853" y="3.4619" width="251.334" height="219.467" filterUnits="userSpaceOnUse" color-interpolation-filters="sRGB">
<feFlood flood-opacity="0" result="BackgroundImageFix"/>
<feColorMatrix in="SourceAlpha" type="matrix" values="0 0 0 0 0 0 0 0 0 0 0 0 0 0 0 0 0 0 127 0" result="hardAlpha"/>
<feOffset/>
<feGaussianBlur stdDeviation="1.65067"/>
<feComposite in2="hardAlpha" operator="out"/>
<feColorMatrix type="matrix" values="0 0 0 0 0.298039 0 0 0 0 0.764706 0 0 0 0 0.14902 0 0 0 1 0"/>
<feBlend mode="normal" in2="BackgroundImageFix" result="effect1_dropShadow_652_10893"/>
<feBlend mode="normal" in="SourceGraphic" in2="effect1_dropShadow_652_10893" result="shape"/>
</filter>
<filter id="filter1_d_652_10893" x="8.59362" y="14.4938" width="235.12" height="184.371" filterUnits="userSpaceOnUse" color-interpolation-filters="sRGB">
<feFlood flood-opacity="0" result="BackgroundImageFix"/>
<feColorMatrix in="SourceAlpha" type="matrix" values="0 0 0 0 0 0 0 0 0 0 0 0 0 0 0 0 0 0 127 0" result="hardAlpha"/>
<feOffset/>
<feGaussianBlur stdDeviation="1.65067"/>
<feComposite in2="hardAlpha" operator="out"/>
<feColorMatrix type="matrix" values="0 0 0 0 0.298039 0 0 0 0 0.764706 0 0 0 0 0.14902 0 0 0 1 0"/>
<feBlend mode="normal" in2="BackgroundImageFix" result="effect1_dropShadow_652_10893"/>
<feBlend mode="normal" in="SourceGraphic" in2="effect1_dropShadow_652_10893" result="shape"/>
</filter>
<filter id="filter2_d_652_10893" x="19.6672" y="24.8476" width="211.858" height="201.774" filterUnits="userSpaceOnUse" color-interpolation-filters="sRGB">
<feFlood flood-opacity="0" result="BackgroundImageFix"/>
<feColorMatrix in="SourceAlpha" type="matrix" values="0 0 0 0 0 0 0 0 0 0 0 0 0 0 0 0 0 0 127 0" result="hardAlpha"/>
<feOffset/>
<feGaussianBlur stdDeviation="1.65067"/>
<feComposite in2="hardAlpha" operator="out"/>
<feColorMatrix type="matrix" values="0 0 0 0 0.298039 0 0 0 0 0.764706 0 0 0 0 0.14902 0 0 0 1 0"/>
<feBlend mode="normal" in2="BackgroundImageFix" result="effect1_dropShadow_652_10893"/>
<feBlend mode="normal" in="SourceGraphic" in2="effect1_dropShadow_652_10893" result="shape"/>
</filter>
<linearGradient id="paint0_linear_652_10893" x1="5.04215" y1="117.59" x2="249.982" y2="110.527" gradientUnits="userSpaceOnUse">
<stop stop-color="#4CC326" stop-opacity="0.66"/>
<stop offset="1" stop-color="#4CC326"/>
</linearGradient>
<linearGradient id="paint1_linear_652_10893" x1="12.0402" y1="110.175" x2="241.371" y2="103.562" gradientUnits="userSpaceOnUse">
<stop stop-color="#4CC326" stop-opacity="0.66"/>
<stop offset="1" stop-color="#4CC326"/>
</linearGradient>
<linearGradient id="paint2_linear_652_10893" x1="22.1853" y1="128.503" x2="228.703" y2="122.548" gradientUnits="userSpaceOnUse">
<stop stop-color="#4CC326" stop-opacity="0.66"/>
<stop offset="1" stop-color="#4CC326"/>
</linearGradient>
<linearGradient id="paint3_linear_652_10893" x1="125.951" y1="113.667" x2="142.036" y2="133.607" gradientUnits="userSpaceOnUse">
<stop stop-color="#4CC326" stop-opacity="0.52"/>
<stop offset="1" stop-color="#4CC326" stop-opacity="0"/>
</linearGradient>
<linearGradient id="paint4_linear_652_10893" x1="129.67" y1="71.0318" x2="146.074" y2="90.3725" gradientUnits="userSpaceOnUse">
<stop stop-color="#4CC326" stop-opacity="0.52"/>
<stop offset="1" stop-color="#4CC326" stop-opacity="0"/>
</linearGradient>
<linearGradient id="paint5_linear_652_10893" x1="121.579" y1="157.735" x2="136.732" y2="177.116" gradientUnits="userSpaceOnUse">
<stop stop-color="#4CC326" stop-opacity="0.52"/>
<stop offset="1" stop-color="#4CC326" stop-opacity="0"/>
</linearGradient>
<linearGradient id="paint6_linear_652_10893" x1="164.736" y1="94.6264" x2="180.574" y2="114.506" gradientUnits="userSpaceOnUse">
<stop stop-color="#4CC326" stop-opacity="0.52"/>
<stop offset="1" stop-color="#4CC326" stop-opacity="0"/>
</linearGradient>
<linearGradient id="paint7_linear_652_10893" x1="86.9101" y1="132.732" x2="102.748" y2="152.612" gradientUnits="userSpaceOnUse">
<stop stop-color="#4CC326" stop-opacity="0.52"/>
<stop offset="1" stop-color="#4CC326" stop-opacity="0"/>
</linearGradient>
<linearGradient id="paint8_linear_652_10893" x1="161.619" y1="139.924" x2="177.791" y2="159.438" gradientUnits="userSpaceOnUse">
<stop stop-color="#4CC326" stop-opacity="0.52"/>
<stop offset="1" stop-color="#4CC326" stop-opacity="0"/>
</linearGradient>
<linearGradient id="paint9_linear_652_10893" x1="91.5035" y1="86.9084" x2="107.439" y2="106.839" gradientUnits="userSpaceOnUse">
<stop stop-color="#4CC326" stop-opacity="0.52"/>
<stop offset="1" stop-color="#4CC326" stop-opacity="0"/>
</linearGradient>
<clipPath id="clip0_652_10893">
<rect width="114.081" height="106.861" fill="white" transform="translate(66.0001 85.9315) rotate(-17.8298)"/>
</clipPath>
</defs>
</svg>
