<svg xmlns="http://www.w3.org/2000/svg" width="250" height="281" viewBox="0 0 250 281" fill="none">
<g filter="url(#filter0_b_119_1030)">
<path d="M124.394 132.737L122.617 125.846L117.615 120.653L101.605 134.445L103.365 140.521L108.367 145.713L128.823 149.354L127.038 142.055L122.452 137.262L119.982 136.092L124.394 132.737Z" fill="white" fill-opacity="0.05"/>
<path d="M124.394 132.737L122.617 125.846L117.615 120.653L101.605 134.445L103.365 140.521L108.367 145.713L128.823 149.354L127.038 142.055L122.452 137.262L119.982 136.092L124.394 132.737Z" stroke="#00F70A" stroke-opacity="0.2"/>
</g>
<g filter="url(#filter1_b_119_1030)">
<path d="M152.227 119.1L150.042 112.218L170.499 115.858L175.501 121.05L177.26 127.127L161.251 140.918L156.648 135.31L154.463 128.427L158.459 124.674L156.821 124.301L152.227 119.1Z" fill="white" fill-opacity="0.05"/>
<path d="M152.227 119.1L150.042 112.218L170.499 115.858L175.501 121.05L177.26 127.127L161.251 140.918L156.648 135.31L154.463 128.427L158.459 124.674L156.821 124.301L152.227 119.1Z" stroke="#00F70A" stroke-opacity="0.2"/>
</g>
<path d="M119.754 136.552L124.538 132.903L122.657 125.882" stroke="#00F70A" stroke-opacity="0.2" stroke-width="1.06746" stroke-miterlimit="10"/>
<path d="M108.234 145.658L128.949 149.363L127.021 142.17" stroke="#00F70A" stroke-opacity="0.2" stroke-width="1.06746" stroke-miterlimit="10"/>
<path d="M135.763 152.796L143.041 150.846L148.418 115.402" stroke="#00F70A" stroke-opacity="0.2" stroke-width="1.06746" stroke-miterlimit="10"/>
<path d="M161.103 140.747L177.19 127.182L175.547 121.05" stroke="#00F70A" stroke-opacity="0.2" stroke-width="1.06746" stroke-miterlimit="10"/>
<path d="M156.693 124.287L159.037 124.59" stroke="#00F70A" stroke-opacity="0.2" stroke-width="1.06746" stroke-miterlimit="10"/>
<g filter="url(#filter2_b_119_1030)">
<path d="M130.838 147.318L136.203 112.152L143.501 110.366L148.494 115.151L143.138 150.725L137.469 152.476L135.432 152.519L130.838 147.318Z" fill="white" fill-opacity="0.05"/>
<path d="M130.838 147.318L136.203 112.152L143.501 110.366L148.494 115.151L143.138 150.725L137.469 152.476L135.432 152.519L130.838 147.318Z" stroke="#00F70A" stroke-opacity="0.2"/>
</g>
<path d="M103.399 140.388L108.243 145.667" stroke="#00F70A" stroke-opacity="0.2" stroke-width="1.06746" stroke-miterlimit="10"/>
<path d="M117.823 120.576L122.656 125.899" stroke="#00F70A" stroke-opacity="0.2" stroke-width="1.06746" stroke-miterlimit="10"/>
<path d="M122.152 136.903L127.02 142.165" stroke="#00F70A" stroke-opacity="0.2" stroke-width="1.06746" stroke-miterlimit="10"/>
<path d="M119.699 127.621L124.532 132.944" stroke="#00F70A" stroke-opacity="0.2" stroke-width="1.06746" stroke-miterlimit="10"/>
<path d="M124.067 144.029L128.946 149.352" stroke="#00F70A" stroke-opacity="0.2" stroke-width="1.06746" stroke-miterlimit="10"/>
<path d="M130.903 147.503L135.758 152.78" stroke="#00F70A" stroke-opacity="0.2" stroke-width="1.06746" stroke-miterlimit="10"/>
<path d="M138.155 145.558L143.004 150.836" stroke="#00F70A" stroke-opacity="0.2" stroke-width="1.06746" stroke-miterlimit="10"/>
<path d="M143.603 110.146L148.458 115.423" stroke="#00F70A" stroke-opacity="0.2" stroke-width="1.06746" stroke-miterlimit="10"/>
<path d="M156.669 124.265L151.835 119.022" stroke="#00F70A" stroke-opacity="0.2" stroke-width="1.06746" stroke-miterlimit="10"/>
<path d="M161.074 140.744L156.254 135.469" stroke="#00F70A" stroke-opacity="0.2" stroke-width="1.06746" stroke-miterlimit="10"/>
<path d="M177.176 127.167L172.333 121.893" stroke="#00F70A" stroke-opacity="0.2" stroke-width="1.06746" stroke-miterlimit="10"/>
<path d="M175.537 121.054L170.693 115.774" stroke="#00F70A" stroke-opacity="0.2" stroke-width="1.06746" stroke-miterlimit="10"/>
<path d="M103.386 140.388L124.099 144.087L122.172 136.894L109.818 135.149L119.69 127.632L117.808 120.611L101.742 134.251L103.386 140.388Z" stroke="#00F70A" stroke-opacity="0.2" stroke-width="1.06746" stroke-miterlimit="10"/>
<path d="M130.914 147.523L138.193 145.573L143.568 110.123L136.332 112.062L130.914 147.523Z" stroke="#00F70A" stroke-opacity="0.2" stroke-width="1.06746" stroke-miterlimit="10"/>
<path d="M149.963 111.995L151.844 119.017L164.152 120.59L154.326 128.279L156.253 135.472L172.342 121.912L170.697 115.775L149.963 111.995Z" stroke="#00F70A" stroke-opacity="0.2" stroke-width="1.06746" stroke-miterlimit="10"/>
<path d="M138.55 0.702148L12.0793 56.8547L0.797852 180.696L143.894 273.152L213.618 236.339L233.381 181.968L249.243 39.5509L138.55 0.702148Z" stroke="#00F70A" stroke-opacity="0.2" stroke-width="0.5" stroke-miterlimit="10"/>
<path d="M222.779 136.503L215.399 200.544L117.429 279.938L43.7181 254.321L14.8784 142.101L73.9149 14.7822L202.93 33.528L222.779 136.503Z" stroke="#00F70A" stroke-opacity="0.2" stroke-width="0.5" stroke-miterlimit="10"/>
<path d="M215.314 56.8546L117.005 28.7783L27.0928 67.203L30.9946 177.472L77.7319 250.335L177.398 266.027L248.819 187.481L215.314 56.8546Z" stroke="#00F70A" stroke-opacity="0.2" stroke-width="0.5" stroke-miterlimit="10"/>
<defs>
<filter id="filter0_b_119_1030" x="97.0356" y="115.966" width="36.4561" height="38.0146" filterUnits="userSpaceOnUse" color-interpolation-filters="sRGB">
<feFlood flood-opacity="0" result="BackgroundImageFix"/>
<feGaussianBlur in="BackgroundImageFix" stdDeviation="2"/>
<feComposite in2="SourceAlpha" operator="in" result="effect1_backgroundBlur_119_1030"/>
<feBlend mode="normal" in="SourceGraphic" in2="effect1_backgroundBlur_119_1030" result="shape"/>
</filter>
<filter id="filter1_b_119_1030" x="145.315" y="107.581" width="36.5146" height="38.0498" filterUnits="userSpaceOnUse" color-interpolation-filters="sRGB">
<feFlood flood-opacity="0" result="BackgroundImageFix"/>
<feGaussianBlur in="BackgroundImageFix" stdDeviation="2"/>
<feComposite in2="SourceAlpha" operator="in" result="effect1_backgroundBlur_119_1030"/>
<feBlend mode="normal" in="SourceGraphic" in2="effect1_backgroundBlur_119_1030" result="shape"/>
</filter>
<filter id="filter2_b_119_1030" x="126.308" y="105.815" width="26.7192" height="51.209" filterUnits="userSpaceOnUse" color-interpolation-filters="sRGB">
<feFlood flood-opacity="0" result="BackgroundImageFix"/>
<feGaussianBlur in="BackgroundImageFix" stdDeviation="2"/>
<feComposite in2="SourceAlpha" operator="in" result="effect1_backgroundBlur_119_1030"/>
<feBlend mode="normal" in="SourceGraphic" in2="effect1_backgroundBlur_119_1030" result="shape"/>
</filter>
</defs>
</svg>