<svg xmlns="http://www.w3.org/2000/svg" width="141" height="126" viewBox="0 0 141 126" fill="none">
<g opacity="0.4">
<g clip-path="url(#clip0_257_1600)">
<g filter="url(#filter0_b_257_1600)">
<path d="M57.6112 48.2545L55.4326 70.097L74.6154 77.1402L94.0584 68.4302L90.6364 47.0405L73.6418 35.1509L57.6112 48.2545Z" fill="url(#paint0_linear_257_1600)"/>
</g>
<g filter="url(#filter1_b_257_1600)">
<path d="M46.9306 27.144L31.3916 38.5519V54.3244L43.5278 64.5182L57.6113 48.2543L61.496 30.5356L46.9306 27.144Z" fill="url(#paint1_linear_257_1600)"/>
</g>
<g filter="url(#filter2_b_257_1600)">
<path d="M84.5635 29.5722L90.6364 47.0405L104.238 62.0903L113.704 53.1105L112.846 36.3938L97.4323 25.9302L84.5635 29.5722Z" fill="url(#paint2_linear_257_1600)"/>
</g>
<g filter="url(#filter3_b_257_1600)">
<path d="M55.6738 82.4779L58.344 98.9827L74.6156 107.481L91.3692 98.7418L94.5213 81.2639L74.6156 77.1401L55.6738 82.4779Z" fill="url(#paint3_linear_257_1600)"/>
</g>
<g filter="url(#filter4_b_257_1600)">
<path d="M31.3915 54.3244L37.2138 73.2572L31.3915 85.3876L27.2562 83.9328L22.6484 70.5883V61.8493L25.8006 47.5317L31.3915 54.3244Z" fill="url(#paint4_linear_257_1600)"/>
</g>
<g filter="url(#filter5_b_257_1600)">
<path d="M118.061 47.6665L113.704 53.1103L110.793 70.829L114.196 82.2369L117.117 81.2541L120.018 70.829V58.2072L118.061 47.6665Z" fill="url(#paint5_linear_257_1600)"/>
</g>
<g filter="url(#filter6_b_257_1600)">
<path d="M32.3556 91.6984L31.3916 85.3875L43.7688 84.9058L58.3439 98.9825L63.26 108.483L53.4855 107.721L42.8049 102.384L32.3556 91.6984Z" fill="url(#paint6_linear_257_1600)"/>
</g>
<g filter="url(#filter7_b_257_1600)">
<path d="M84.9775 107.76L91.3686 98.7416L104.237 82.7186L114.195 82.2368V87.3337L107.631 96.0727L99.1381 102.865L93.0651 106.748L84.9775 107.76Z" fill="url(#paint7_linear_257_1600)"/>
</g>
<g filter="url(#filter8_b_257_1600)">
<path d="M70.0463 14.0693L65.6217 22.5289L46.9306 27.144L34.3027 32.0001L43.5278 21.8062L57.8522 15.2544L70.0463 14.0693Z" fill="url(#paint8_linear_257_1600)"/>
</g>
<g filter="url(#filter9_b_257_1600)">
<path d="M70.5664 14.0693L78.0082 21.074L97.4319 25.93L103.862 26.1709L96.2173 20.3514L83.1075 15.4953L70.5664 14.0693Z" fill="url(#paint9_linear_257_1600)"/>
</g>
<path d="M74.6343 77.6414L74.5379 77.6029L55.1816 70.5019L55.2009 70.3188L57.3987 48.3799L73.6414 35.0933L90.877 47.1466L94.3376 68.8158L74.6343 77.6414ZM55.7022 70.1839L74.615 77.1211L93.7978 68.5267L90.4239 47.4261L73.6704 35.6906L57.8614 48.6208L55.7022 70.1839Z" fill="white" fill-opacity="0.4"/>
<path d="M43.5759 65.0965L31.1602 54.6811V38.6677L46.8919 27.125L61.8044 30.6032L61.7562 30.8345L57.8618 48.611L57.8232 48.6592L43.5759 65.0965ZM31.6421 54.4499L43.5181 64.4221L57.4087 48.3894L61.226 30.9597L46.998 27.6453L31.6421 38.9182V54.4499Z" fill="white" fill-opacity="0.4"/>
<path d="M104.238 62.6783L90.4437 47.4068L90.4245 47.3586L84.2744 29.6399L97.4903 25.9111L97.5867 25.9786L113.087 36.5096L113.097 36.6252L113.964 53.448L104.238 62.6783ZM90.8679 47.1563L104.267 61.9846L113.473 53.2553L112.624 36.7698L97.4132 26.4314L84.901 29.9675L90.8679 47.1563Z" fill="white" fill-opacity="0.4"/>
<path d="M74.6248 107.991L74.5091 107.933L58.1314 99.3872L55.4131 82.5452L74.6151 77.1304L94.81 81.312L91.5904 99.1367L74.6248 107.991ZM58.5749 99.0693L74.6248 107.452L91.1663 98.8284L94.2606 81.6974L74.6344 77.6314L55.9529 82.8921L58.5749 99.0693Z" fill="white" fill-opacity="0.4"/>
<path d="M31.5264 85.9271L27.0825 84.3565L27.044 84.2506L22.417 70.8676V62.0612L25.6848 47.2329L31.6131 54.4495L31.6228 54.4977L37.474 73.5172L37.4355 73.6039L31.5264 85.9271ZM27.4681 83.9904L31.2854 85.3393L36.9824 73.4883L31.1986 54.6904L25.9547 48.312L22.899 62.119V70.7905L27.4681 83.9904Z" fill="white" fill-opacity="0.4"/>
<path d="M114.051 82.7862L110.562 71.0893L110.571 71.0315L113.492 53.2549L118.215 47.3486L120.278 58.4578V71.0989L120.269 71.1278L117.338 81.6781L114.051 82.7862ZM111.053 71.0507L114.369 82.1695L116.943 81.312L119.796 71.0411V58.4674L117.936 48.4663L113.945 53.4476L111.053 71.0507Z" fill="white" fill-opacity="0.4"/>
<path d="M63.6932 109.003L53.4367 108.194L53.3982 108.174L42.6789 102.817L42.65 102.788L32.1525 92.0549L31.1211 85.4068L43.8743 84.9058L43.9514 84.9732L58.5457 99.0788L63.6932 109.003ZM53.562 107.721L62.8642 108.454L58.1601 99.3679L43.6911 85.3875L31.6802 85.8596L32.5959 91.8237L42.9585 102.422L53.562 107.721Z" fill="white" fill-opacity="0.4"/>
<path d="M84.4766 108.31L91.1953 98.8384L104.132 82.7383L114.446 82.2373V87.6714L107.824 96.4971L107.804 96.5164L99.2926 103.319L99.2829 103.328L93.1618 107.24L84.4766 108.31ZM91.5713 99.1275L85.4984 107.693L92.998 106.758L99.013 102.914L107.477 96.1406L113.964 87.4884V82.7287L104.373 83.2008L91.5713 99.1275Z" fill="white" fill-opacity="0.4"/>
<path d="M33.4639 32.8286L43.4023 21.8447L57.8134 15.2544H57.852L70.4895 14.0308L65.8143 22.9817L47.0268 27.6161L33.4639 32.8286ZM43.6915 22.2398L35.1701 31.6532L46.8629 27.1536L65.4673 22.5674L69.6316 14.5992L57.9388 15.7265L43.6915 22.2398Z" fill="white" fill-opacity="0.4"/>
<path d="M104.633 26.6815L97.4222 26.4021L77.9021 21.5364L69.8916 13.9922L83.1846 15.4952L83.2135 15.5049L96.3619 20.3706L96.3908 20.3898L104.633 26.6815ZM97.4897 25.9299L103.129 26.1419L96.1209 20.8041L83.0689 15.9674L71.2797 14.6377L78.1431 21.0932L97.4897 25.9299Z" fill="white" fill-opacity="0.4"/>
<path d="M27.482 84.0364L27.0791 84.3008L32.1779 92.0657L32.5809 91.8013L27.482 84.0364Z" fill="white" fill-opacity="0.4"/>
<path d="M72.2538 112.202H72.2345L63.4433 111.469L63.4143 111.46L53.4277 108.194L53.5723 107.731L63.5396 110.997L72.2538 111.72L82.7417 110.997L92.9886 106.768L93.1717 107.211L82.8574 111.469H82.8092L72.2538 112.202Z" fill="white" fill-opacity="0.4"/>
<path d="M26.0411 47.8595L25.5977 47.6861L29.2511 37.974L34.8035 31.2681L35.1794 31.5764L29.6752 38.2245L26.0411 47.8595Z" fill="white" fill-opacity="0.4"/>
<path d="M117.858 48.0038L112.865 36.7694L103.804 26.6816L104.16 26.354L113.27 36.5093L118.292 47.8111L117.858 48.0038Z" fill="white" fill-opacity="0.4"/>
<path d="M116.909 81.3976L113.732 87.8457L114.165 88.0585L117.341 81.6104L116.909 81.3976Z" fill="white" fill-opacity="0.4"/>
<path d="M44.1063 86.467C44.7292 86.467 45.2342 85.9623 45.2342 85.3397C45.2342 84.7171 44.7292 84.2124 44.1063 84.2124C43.4835 84.2124 42.9785 84.7171 42.9785 85.3397C42.9785 85.9623 43.4835 86.467 44.1063 86.467Z" fill="white" fill-opacity="0.4"/>
<path d="M44.1062 84.2218C44.7231 84.2218 45.234 84.7228 45.234 85.3491C45.234 85.9754 44.7328 86.4764 44.1062 86.4764C43.4893 86.4764 42.9784 85.9754 42.9784 85.3491C42.9784 84.7228 43.4796 84.2218 44.1062 84.2218ZM44.1062 83.8364C43.2772 83.8364 42.5928 84.5109 42.5928 85.3491C42.5928 86.1874 43.2675 86.8618 44.1062 86.8618C44.9448 86.8618 45.6196 86.1874 45.6196 85.3491C45.6196 84.5109 44.9352 83.8364 44.1062 83.8364Z" fill="#141414"/>
<path d="M74.538 108.926C75.1609 108.926 75.6658 108.421 75.6658 107.799C75.6658 107.176 75.1609 106.671 74.538 106.671C73.9151 106.671 73.4102 107.176 73.4102 107.799C73.4102 108.421 73.9151 108.926 74.538 108.926Z" fill="white" fill-opacity="0.4"/>
<path d="M74.5378 106.672C75.1548 106.672 75.6657 107.173 75.6657 107.799C75.6657 108.425 75.1644 108.926 74.5378 108.926C73.9209 108.926 73.41 108.425 73.41 107.799C73.41 107.173 73.9209 106.672 74.5378 106.672ZM74.5378 106.286C73.7088 106.286 73.0244 106.961 73.0244 107.799C73.0244 108.637 73.6992 109.312 74.5378 109.312C75.3765 109.312 76.0512 108.637 76.0512 107.799C76.0512 106.961 75.3668 106.286 74.5378 106.286Z" fill="#141414"/>
<path d="M37.1464 74.5964C37.7693 74.5964 38.2742 74.0917 38.2742 73.4691C38.2742 72.8465 37.7693 72.3418 37.1464 72.3418C36.5235 72.3418 36.0186 72.8465 36.0186 73.4691C36.0186 74.0917 36.5235 74.5964 37.1464 74.5964Z" fill="white" fill-opacity="0.4"/>
<path d="M37.1462 72.3419C37.7632 72.3419 38.2741 72.843 38.2741 73.4692C38.2741 74.0859 37.7728 74.5965 37.1462 74.5965C36.5293 74.5965 36.0184 74.0955 36.0184 73.4692C36.0184 72.843 36.5293 72.3419 37.1462 72.3419ZM37.1462 71.9565C36.3172 71.9565 35.6328 72.631 35.6328 73.4692C35.6328 74.3075 36.3076 74.9819 37.1462 74.9819C37.9849 74.9819 38.6596 74.3075 38.6596 73.4692C38.6596 72.631 37.9752 71.9565 37.1462 71.9565Z" fill="#141414"/>
<path d="M104.537 84.299C105.16 84.299 105.665 83.7943 105.665 83.1717C105.665 82.5491 105.16 82.0444 104.537 82.0444C103.914 82.0444 103.409 82.5491 103.409 83.1717C103.409 83.7943 103.914 84.299 104.537 84.299Z" fill="white" fill-opacity="0.4"/>
<path d="M104.537 82.0446C105.154 82.0446 105.665 82.5456 105.665 83.1719C105.665 83.7982 105.163 84.2992 104.537 84.2992C103.92 84.2992 103.409 83.7982 103.409 83.1719C103.409 82.5456 103.92 82.0446 104.537 82.0446ZM104.537 81.6592C103.708 81.6592 103.023 82.3336 103.023 83.1719C103.023 84.0101 103.698 84.6846 104.537 84.6846C105.375 84.6846 106.05 84.0101 106.05 83.1719C106.05 82.3336 105.366 81.6592 104.537 81.6592Z" fill="#141414"/>
<path d="M43.5282 66.1945C44.1511 66.1945 44.6561 65.6898 44.6561 65.0672C44.6561 64.4446 44.1511 63.9399 43.5282 63.9399C42.9053 63.9399 42.4004 64.4446 42.4004 65.0672C42.4004 65.6898 42.9053 66.1945 43.5282 66.1945Z" fill="white" fill-opacity="0.4"/>
<path d="M43.5281 63.9401C44.145 63.9401 44.6559 64.4411 44.6559 65.0674C44.6559 65.684 44.1546 66.1947 43.5281 66.1947C42.9111 66.1947 42.4002 65.6937 42.4002 65.0674C42.4002 64.4411 42.9015 63.9401 43.5281 63.9401ZM43.5281 63.5547C42.6991 63.5547 42.0146 64.2291 42.0146 65.0674C42.0146 65.9056 42.6894 66.5801 43.5281 66.5801C44.3667 66.5801 45.0415 65.9056 45.0415 65.0674C45.0415 64.2291 44.3571 63.5547 43.5281 63.5547Z" fill="#141414"/>
<path d="M90.9159 100.091C91.5388 100.091 92.0437 99.5858 92.0437 98.9632C92.0437 98.3406 91.5388 97.8359 90.9159 97.8359C90.293 97.8359 89.7881 98.3406 89.7881 98.9632C89.7881 99.5858 90.293 100.091 90.9159 100.091Z" fill="white" fill-opacity="0.4"/>
<path d="M90.9158 97.8361C91.5327 97.8361 92.0436 98.3371 92.0436 98.9634C92.0436 99.5897 91.5423 100.091 90.9158 100.091C90.2892 100.091 89.7879 99.5897 89.7879 98.9634C89.7879 98.3371 90.2892 97.8361 90.9158 97.8361ZM90.9158 97.4507C90.0868 97.4507 89.4023 98.1251 89.4023 98.9634C89.4023 99.8016 90.0771 100.476 90.9158 100.476C91.7544 100.476 92.4292 99.8016 92.4292 98.9634C92.4292 98.1251 91.7448 97.4507 90.9158 97.4507Z" fill="#141414"/>
<path d="M58.4501 100.524C59.073 100.524 59.5779 100.019 59.5779 99.3968C59.5779 98.7742 59.073 98.2695 58.4501 98.2695C57.8272 98.2695 57.3223 98.7742 57.3223 99.3968C57.3223 100.019 57.8272 100.524 58.4501 100.524Z" fill="white" fill-opacity="0.4"/>
<path d="M58.4499 98.2697C59.0669 98.2697 59.5778 98.7707 59.5778 99.397C59.5778 100.023 59.0765 100.524 58.4499 100.524C57.833 100.524 57.3221 100.023 57.3221 99.397C57.3221 98.7707 57.833 98.2697 58.4499 98.2697ZM58.4499 97.8843C57.6209 97.8843 56.9365 98.5587 56.9365 99.397C56.9365 100.235 57.6113 100.91 58.4499 100.91C59.2886 100.91 59.9634 100.235 59.9634 99.397C59.9634 98.5587 59.2886 97.8843 58.4499 97.8843Z" fill="#141414"/>
<path d="M55.9921 83.8654C56.615 83.8654 57.1199 83.3607 57.1199 82.7381C57.1199 82.1155 56.615 81.6108 55.9921 81.6108C55.3692 81.6108 54.8643 82.1155 54.8643 82.7381C54.8643 83.3607 55.3692 83.8654 55.9921 83.8654Z" fill="white" fill-opacity="0.4"/>
<path d="M55.9919 81.611C56.6089 81.611 57.1198 82.112 57.1198 82.7383C57.1198 83.3549 56.6185 83.8656 55.9919 83.8656C55.375 83.8656 54.8641 83.3646 54.8641 82.7383C54.8641 82.112 55.3654 81.611 55.9919 81.611ZM55.9919 81.2256C55.1629 81.2256 54.4785 81.9 54.4785 82.7383C54.4785 83.5765 55.1533 84.251 55.9919 84.251C56.8306 84.251 57.5053 83.5765 57.5053 82.7383C57.5053 81.9 56.8209 81.2256 55.9919 81.2256Z" fill="#141414"/>
<path d="M113.52 55.4709C114.143 55.4709 114.648 54.9662 114.648 54.3436C114.648 53.721 114.143 53.2163 113.52 53.2163C112.898 53.2163 112.393 53.721 112.393 54.3436C112.393 54.9662 112.898 55.4709 113.52 55.4709Z" fill="white" fill-opacity="0.4"/>
<path d="M113.52 53.2165C114.137 53.2165 114.648 53.7175 114.648 54.3438C114.648 54.9604 114.147 55.471 113.52 55.471C112.903 55.471 112.392 54.97 112.392 54.3438C112.402 53.7271 112.903 53.2165 113.52 53.2165ZM113.52 52.8311C112.691 52.8311 112.007 53.5055 112.007 54.3438C112.007 55.1724 112.682 55.8564 113.52 55.8564C114.359 55.8564 115.034 55.182 115.034 54.3438C115.034 53.5151 114.359 52.8311 113.52 52.8311Z" fill="#141414"/>
<path d="M55.703 71.4074C56.3259 71.4074 56.8309 70.9027 56.8309 70.2801C56.8309 69.6575 56.3259 69.1528 55.703 69.1528C55.0801 69.1528 54.5752 69.6575 54.5752 70.2801C54.5752 70.9027 55.0801 71.4074 55.703 71.4074Z" fill="white" fill-opacity="0.4"/>
<path d="M55.7029 69.153C56.3198 69.153 56.8307 69.654 56.8307 70.2803C56.8307 70.8969 56.3294 71.4076 55.7029 71.4076C55.0859 71.4076 54.575 70.9065 54.575 70.2803C54.575 69.654 55.0763 69.153 55.7029 69.153ZM55.7029 68.7676C54.8739 68.7676 54.1895 69.442 54.1895 70.2803C54.1895 71.1185 54.8642 71.793 55.7029 71.793C56.5415 71.793 57.2163 71.1185 57.2163 70.2803C57.2163 69.442 56.5319 68.7676 55.7029 68.7676Z" fill="#141414"/>
<path d="M22.5136 71.9855C23.1365 71.9855 23.6414 71.4808 23.6414 70.8583C23.6414 70.2357 23.1365 69.731 22.5136 69.731C21.8907 69.731 21.3857 70.2357 21.3857 70.8583C21.3857 71.4808 21.8907 71.9855 22.5136 71.9855Z" fill="white" fill-opacity="0.4"/>
<path d="M22.5134 69.7311C23.1303 69.7311 23.6412 70.2321 23.6412 70.8584C23.6412 71.4847 23.14 71.9857 22.5134 71.9857C21.8965 71.9857 21.3856 71.4847 21.3856 70.8584C21.3856 70.2321 21.8868 69.7311 22.5134 69.7311ZM22.5134 69.3457C21.6844 69.3457 21 70.0202 21 70.8584C21 71.6966 21.6748 72.3711 22.5134 72.3711C23.3521 72.3711 24.0268 71.6966 24.0268 70.8584C24.0268 70.0202 23.3424 69.3457 22.5134 69.3457Z" fill="#141414"/>
<path d="M31.6425 86.6208C32.2654 86.6208 32.7703 86.1161 32.7703 85.4935C32.7703 84.8709 32.2654 84.3662 31.6425 84.3662C31.0196 84.3662 30.5146 84.8709 30.5146 85.4935C30.5146 86.1161 31.0196 86.6208 31.6425 86.6208Z" fill="white" fill-opacity="0.4"/>
<path d="M31.6423 84.3664C32.2593 84.3664 32.7702 84.8674 32.7702 85.4937C32.7702 86.1199 32.2689 86.6209 31.6423 86.6209C31.0254 86.6209 30.5145 86.1199 30.5145 85.4937C30.5145 84.8674 31.0157 84.3664 31.6423 84.3664ZM31.6423 83.981C30.8133 83.981 30.1289 84.6554 30.1289 85.4937C30.1289 86.3319 30.8037 87.0063 31.6423 87.0063C32.481 87.0063 33.1557 86.3319 33.1557 85.4937C33.1557 84.6554 32.4713 83.981 31.6423 83.981Z" fill="#141414"/>
<path d="M63.2313 109.649C63.8542 109.649 64.3592 109.144 64.3592 108.521C64.3592 107.899 63.8542 107.394 63.2313 107.394C62.6085 107.394 62.1035 107.899 62.1035 108.521C62.1035 109.144 62.6085 109.649 63.2313 109.649Z" fill="white" fill-opacity="0.4"/>
<path d="M63.2312 107.394C63.8481 107.394 64.359 107.895 64.359 108.521C64.359 109.148 63.8578 109.649 63.2312 109.649C62.6143 109.649 62.1034 109.148 62.1034 108.521C62.1034 107.895 62.6143 107.394 63.2312 107.394ZM63.2312 107.009C62.4022 107.009 61.7178 107.683 61.7178 108.521C61.7178 109.36 62.3925 110.034 63.2312 110.034C64.0698 110.034 64.7446 109.36 64.7446 108.521C64.7446 107.683 64.0698 107.009 63.2312 107.009Z" fill="#141414"/>
<path d="M31.787 40.113C32.4099 40.113 32.9148 39.6083 32.9148 38.9857C32.9148 38.3631 32.4099 37.8584 31.787 37.8584C31.1641 37.8584 30.6592 38.3631 30.6592 38.9857C30.6592 39.6083 31.1641 40.113 31.787 40.113Z" fill="white" fill-opacity="0.4"/>
<path d="M31.7869 37.8678C32.4038 37.8678 32.9147 38.3688 32.9147 38.9951C32.9147 39.6214 32.4134 40.1224 31.7869 40.1224C31.1603 40.1224 30.659 39.6214 30.659 38.9951C30.659 38.3688 31.1603 37.8678 31.7869 37.8678ZM31.7869 37.4824C30.9578 37.4824 30.2734 38.1569 30.2734 38.9951C30.2734 39.8334 30.9482 40.5078 31.7869 40.5078C32.6255 40.5078 33.3003 39.8334 33.3003 38.9951C33.3003 38.1569 32.6159 37.4824 31.7869 37.4824Z" fill="#141414"/>
<path d="M118.592 49.2468C119.215 49.2468 119.72 48.7421 119.72 48.1195C119.72 47.4969 119.215 46.9922 118.592 46.9922C117.969 46.9922 117.464 47.4969 117.464 48.1195C117.464 48.7421 117.969 49.2468 118.592 49.2468Z" fill="white" fill-opacity="0.4"/>
<path d="M118.592 46.9923C119.208 46.9923 119.719 47.4934 119.719 48.1196C119.719 48.7363 119.218 49.2469 118.592 49.2469C117.975 49.2469 117.464 48.7459 117.464 48.1196C117.473 47.4934 117.975 46.9923 118.592 46.9923ZM118.592 46.6069C117.763 46.6069 117.078 47.2814 117.078 48.1196C117.078 48.9482 117.753 49.6323 118.592 49.6323C119.43 49.6323 120.105 48.9579 120.105 48.1196C120.105 47.2814 119.43 46.6069 118.592 46.6069Z" fill="#141414"/>
<path d="M22.9472 61.9938C23.57 61.9938 24.075 61.4891 24.075 60.8666C24.075 60.244 23.57 59.7393 22.9472 59.7393C22.3243 59.7393 21.8193 60.244 21.8193 60.8666C21.8193 61.4891 22.3243 61.9938 22.9472 61.9938Z" fill="white" fill-opacity="0.4"/>
<path d="M22.947 59.7394C23.5639 59.7394 24.0748 60.2404 24.0748 60.8667C24.0748 61.4833 23.5736 61.994 22.947 61.994C22.3301 61.994 21.8192 61.493 21.8192 60.8667C21.8192 60.2404 22.3204 59.7394 22.947 59.7394ZM22.947 59.354C22.118 59.354 21.4336 60.0285 21.4336 60.8667C21.4336 61.7049 22.1084 62.3794 22.947 62.3794C23.7857 62.3794 24.4604 61.7049 24.4604 60.8667C24.4604 60.0285 23.776 59.354 22.947 59.354Z" fill="#141414"/>
<path d="M31.4979 55.7604C32.1208 55.7604 32.6258 55.2557 32.6258 54.6332C32.6258 54.0106 32.1208 53.5059 31.4979 53.5059C30.8751 53.5059 30.3701 54.0106 30.3701 54.6332C30.3701 55.2557 30.8751 55.7604 31.4979 55.7604Z" fill="white" fill-opacity="0.4"/>
<path d="M31.4978 53.5153C32.1147 53.5153 32.6256 54.0163 32.6256 54.6426C32.6256 55.2689 32.1244 55.7699 31.4978 55.7699C30.8809 55.7699 30.37 55.2689 30.37 54.6426C30.37 54.0163 30.8712 53.5153 31.4978 53.5153ZM31.4978 53.1299C30.6688 53.1299 29.9844 53.8043 29.9844 54.6426C29.9844 55.4808 30.6591 56.1553 31.4978 56.1553C32.3364 56.1553 33.0112 55.4808 33.0112 54.6426C33.0112 53.8043 32.3268 53.1299 31.4978 53.1299Z" fill="#141414"/>
<path d="M57.0038 16.7961C57.6267 16.7961 58.1316 16.2914 58.1316 15.6688C58.1316 15.0462 57.6267 14.5415 57.0038 14.5415C56.3809 14.5415 55.876 15.0462 55.876 15.6688C55.876 16.2914 56.3809 16.7961 57.0038 16.7961Z" fill="white" fill-opacity="0.4"/>
<path d="M57.0036 14.5416C57.6206 14.5416 58.1315 15.0427 58.1315 15.6689C58.1315 16.2952 57.6302 16.7962 57.0036 16.7962C56.3867 16.7962 55.8758 16.2952 55.8758 15.6689C55.8758 15.0427 56.3771 14.5416 57.0036 14.5416ZM57.0036 14.1562C56.1746 14.1562 55.4902 14.8307 55.4902 15.6689C55.4902 16.5072 56.165 17.1816 57.0036 17.1816C57.8423 17.1816 58.5171 16.5072 58.5171 15.6689C58.5171 14.8307 57.8327 14.1562 57.0036 14.1562Z" fill="#141414"/>
<path d="M43.6728 23.7526C44.2956 23.7526 44.8006 23.2479 44.8006 22.6253C44.8006 22.0028 44.2956 21.498 43.6728 21.498C43.0499 21.498 42.5449 22.0028 42.5449 22.6253C42.5449 23.2479 43.0499 23.7526 43.6728 23.7526Z" fill="white" fill-opacity="0.4"/>
<path d="M43.6726 21.4982C44.2895 21.4982 44.8004 21.9992 44.8004 22.6255C44.8004 23.2518 44.2992 23.7528 43.6726 23.7528C43.0557 23.7528 42.5448 23.2518 42.5448 22.6255C42.5448 21.9992 43.046 21.4982 43.6726 21.4982ZM43.6726 21.1128C42.8436 21.1128 42.1592 21.7872 42.1592 22.6255C42.1592 23.4637 42.8339 24.1382 43.6726 24.1382C44.5112 24.1382 45.186 23.4637 45.186 22.6255C45.186 21.7872 44.5016 21.1128 43.6726 21.1128Z" fill="#141414"/>
<path d="M74.828 78.3635C75.4509 78.3635 75.9559 77.8588 75.9559 77.2362C75.9559 76.6136 75.4509 76.1089 74.828 76.1089C74.2051 76.1089 73.7002 76.6136 73.7002 77.2362C73.7002 77.8588 74.2051 78.3635 74.828 78.3635Z" fill="white" fill-opacity="0.4"/>
<path d="M74.8279 76.109C75.4448 76.109 75.9557 76.6101 75.9557 77.2363C75.9557 77.8626 75.4544 78.3636 74.8279 78.3636C74.2109 78.3636 73.7 77.8626 73.7 77.2363C73.7 76.6101 74.2109 76.109 74.8279 76.109ZM74.8279 75.7236C73.9989 75.7236 73.3145 76.3981 73.3145 77.2363C73.3145 78.0746 73.9892 78.749 74.8279 78.749C75.6665 78.749 76.3413 78.0746 76.3413 77.2363C76.3413 76.3981 75.6569 75.7236 74.8279 75.7236Z" fill="#141414"/>
<path d="M94.6854 82.7092C95.3083 82.7092 95.8133 82.2045 95.8133 81.5819C95.8133 80.9593 95.3083 80.4546 94.6854 80.4546C94.0626 80.4546 93.5576 80.9593 93.5576 81.5819C93.5576 82.2045 94.0626 82.7092 94.6854 82.7092Z" fill="white" fill-opacity="0.4"/>
<path d="M94.6853 80.4547C95.3022 80.4547 95.8131 80.9558 95.8131 81.582C95.8131 82.2083 95.3119 82.7093 94.6853 82.7093C94.0684 82.7093 93.5575 82.2083 93.5575 81.582C93.5575 80.9558 94.0587 80.4547 94.6853 80.4547ZM94.6853 80.0693C93.8563 80.0693 93.1719 80.7438 93.1719 81.582C93.1719 82.4203 93.8466 83.0947 94.6853 83.0947C95.5239 83.0947 96.1987 82.4203 96.1987 81.582C96.1987 80.7438 95.5143 80.0693 94.6853 80.0693Z" fill="#141414"/>
<path d="M61.496 32.2985C62.1189 32.2985 62.6238 31.7938 62.6238 31.1712C62.6238 30.5487 62.1189 30.0439 61.496 30.0439C60.8731 30.0439 60.3682 30.5487 60.3682 31.1712C60.3682 31.7938 60.8731 32.2985 61.496 32.2985Z" fill="white" fill-opacity="0.4"/>
<path d="M61.4958 30.0441C62.1128 30.0441 62.6237 30.5451 62.6237 31.1714C62.6237 31.788 62.1224 32.2987 61.4958 32.2987C60.8693 32.2987 60.368 31.7977 60.368 31.1714C60.368 30.5451 60.8693 30.0441 61.4958 30.0441ZM61.4958 29.6587C60.6668 29.6587 59.9824 30.3331 59.9824 31.1714C59.9824 32.0096 60.6572 32.6841 61.4958 32.6841C62.3345 32.6841 63.0092 32.0096 63.0092 31.1714C63.0092 30.3331 62.3248 29.6587 61.4958 29.6587Z" fill="#141414"/>
<path d="M93.8173 69.9621C94.4402 69.9621 94.9451 69.4574 94.9451 68.8348C94.9451 68.2122 94.4402 67.7075 93.8173 67.7075C93.1944 67.7075 92.6895 68.2122 92.6895 68.8348C92.6895 69.4574 93.1944 69.9621 93.8173 69.9621Z" fill="white" fill-opacity="0.4"/>
<path d="M93.8171 67.7077C94.4341 67.7077 94.945 68.2087 94.945 68.835C94.945 69.4612 94.4437 69.9623 93.8171 69.9623C93.2002 69.9623 92.6893 69.4612 92.6893 68.835C92.6893 68.2087 93.1906 67.7077 93.8171 67.7077ZM93.8171 67.3223C92.9881 67.3223 92.3037 67.9967 92.3037 68.835C92.3037 69.6732 92.9785 70.3477 93.8171 70.3477C94.6558 70.3477 95.3305 69.6732 95.3305 68.835C95.3305 67.9967 94.6461 67.3223 93.8171 67.3223Z" fill="#141414"/>
<path d="M57.5819 49.6804C58.2048 49.6804 58.7098 49.1757 58.7098 48.5531C58.7098 47.9305 58.2048 47.4258 57.5819 47.4258C56.959 47.4258 56.4541 47.9305 56.4541 48.5531C56.4541 49.1757 56.959 49.6804 57.5819 49.6804Z" fill="white" fill-opacity="0.4"/>
<path d="M57.5818 47.4259C58.1987 47.4259 58.7096 47.9269 58.7096 48.5532C58.7096 49.1795 58.2083 49.6805 57.5818 49.6805C56.9648 49.6805 56.4539 49.1795 56.4539 48.5532C56.4539 47.9269 56.9648 47.4259 57.5818 47.4259ZM57.5818 47.0405C56.7528 47.0405 56.0684 47.715 56.0684 48.5532C56.0684 49.3915 56.7431 50.0659 57.5818 50.0659C58.4204 50.0659 59.0952 49.3915 59.0952 48.5532C59.0952 47.715 58.4108 47.0405 57.5818 47.0405Z" fill="#141414"/>
<path d="M104.248 63.2946C104.871 63.2946 105.376 62.7899 105.376 62.1673C105.376 61.5447 104.871 61.04 104.248 61.04C103.625 61.04 103.12 61.5447 103.12 62.1673C103.12 62.7899 103.625 63.2946 104.248 63.2946Z" fill="white" fill-opacity="0.4"/>
<path d="M104.248 61.0402C104.865 61.0402 105.376 61.5412 105.376 62.1675C105.376 62.7938 104.865 63.2948 104.248 63.2948C103.631 63.2948 103.12 62.7938 103.12 62.1675C103.12 61.5412 103.631 61.0402 104.248 61.0402ZM104.248 60.6548C103.419 60.6548 102.734 61.3292 102.734 62.1675C102.734 63.0057 103.409 63.6802 104.248 63.6802C105.086 63.6802 105.761 63.0057 105.761 62.1675C105.761 61.3292 105.077 60.6548 104.248 60.6548Z" fill="#141414"/>
<path d="M78.3075 22.7316C78.9304 22.7316 79.4354 22.2269 79.4354 21.6043C79.4354 20.9818 78.9304 20.4771 78.3075 20.4771C77.6846 20.4771 77.1797 20.9818 77.1797 21.6043C77.1797 22.2269 77.6846 22.7316 78.3075 22.7316Z" fill="white" fill-opacity="0.4"/>
<path d="M78.3074 20.4865C78.9243 20.4865 79.4352 20.9875 79.4352 21.6138C79.4352 22.2304 78.9339 22.7411 78.3074 22.7411C77.6808 22.7411 77.1795 22.24 77.1795 21.6138C77.1795 20.9875 77.6808 20.4865 78.3074 20.4865ZM78.3074 20.1011C77.4784 20.1011 76.7939 20.7755 76.7939 21.6138C76.7939 22.452 77.4687 23.1265 78.3074 23.1265C79.146 23.1265 79.8208 22.452 79.8208 21.6138C79.8208 20.7755 79.1364 20.1011 78.3074 20.1011Z" fill="#141414"/>
<path d="M90.6269 48.2258C91.2497 48.2258 91.7547 47.7211 91.7547 47.0985C91.7547 46.4759 91.2497 45.9712 90.6269 45.9712C90.004 45.9712 89.499 46.4759 89.499 47.0985C89.499 47.7211 90.004 48.2258 90.6269 48.2258Z" fill="white" fill-opacity="0.4"/>
<path d="M90.6267 45.9806C91.2436 45.9806 91.7545 46.4816 91.7545 47.1079C91.7545 47.7246 91.2533 48.2352 90.6267 48.2352C90.0098 48.2352 89.4989 47.7342 89.4989 47.1079C89.4989 46.4816 90.0001 45.9806 90.6267 45.9806ZM90.6267 45.5952C89.7977 45.5952 89.1133 46.2697 89.1133 47.1079C89.1133 47.9462 89.7881 48.6206 90.6267 48.6206C91.4653 48.6206 92.1401 47.9462 92.1401 47.1079C92.1401 46.2697 91.4557 45.5952 90.6267 45.5952Z" fill="#141414"/>
<path d="M70.3358 15.6398C70.9587 15.6398 71.4637 15.1351 71.4637 14.5125C71.4637 13.89 70.9587 13.3853 70.3358 13.3853C69.713 13.3853 69.208 13.89 69.208 14.5125C69.208 15.1351 69.713 15.6398 70.3358 15.6398Z" fill="white" fill-opacity="0.4"/>
<path d="M70.3357 13.3854C70.9526 13.3854 71.4635 13.8864 71.4635 14.5127C71.4635 15.1293 70.9622 15.64 70.3357 15.64C69.7187 15.64 69.2078 15.139 69.2078 14.5127C69.2078 13.8864 69.7187 13.3854 70.3357 13.3854ZM70.3357 13C69.5067 13 68.8223 13.6744 68.8223 14.5127C68.8223 15.3509 69.497 16.0254 70.3357 16.0254C71.1743 16.0254 71.8491 15.3509 71.8491 14.5127C71.8491 13.6744 71.1647 13 70.3357 13Z" fill="#141414"/>
<path d="M47.2968 28.5314C47.9197 28.5314 48.4246 28.0267 48.4246 27.4041C48.4246 26.7816 47.9197 26.2769 47.2968 26.2769C46.6739 26.2769 46.1689 26.7816 46.1689 27.4041C46.1689 28.0267 46.6739 28.5314 47.2968 28.5314Z" fill="white" fill-opacity="0.4"/>
<path d="M47.2966 26.277C47.9135 26.277 48.4244 26.778 48.4244 27.4043C48.4244 28.0306 47.9232 28.5316 47.2966 28.5316C46.6797 28.5316 46.1688 28.0306 46.1688 27.4043C46.1688 26.778 46.67 26.277 47.2966 26.277ZM47.2966 25.8916C46.4676 25.8916 45.7832 26.5661 45.7832 27.4043C45.7832 28.2425 46.458 28.917 47.2966 28.917C48.1353 28.917 48.81 28.2425 48.81 27.4043C48.81 26.5661 48.1256 25.8916 47.2966 25.8916Z" fill="#141414"/>
<path d="M97.7313 27.655C98.3542 27.655 98.8592 27.1503 98.8592 26.5277C98.8592 25.9051 98.3542 25.4004 97.7313 25.4004C97.1085 25.4004 96.6035 25.9051 96.6035 26.5277C96.6035 27.1503 97.1085 27.655 97.7313 27.655Z" fill="white" fill-opacity="0.4"/>
<path d="M97.7312 25.4098C98.3481 25.4098 98.859 25.9108 98.859 26.5371C98.859 27.1634 98.3578 27.6644 97.7312 27.6644C97.1143 27.6644 96.6034 27.1634 96.6034 26.5371C96.6034 25.9108 97.1046 25.4098 97.7312 25.4098ZM97.7312 25.0244C96.9022 25.0244 96.2178 25.6989 96.2178 26.5371C96.2178 27.3754 96.8925 28.0498 97.7312 28.0498C98.5698 28.0498 99.2446 27.3754 99.2446 26.5371C99.2446 25.6989 98.5602 25.0244 97.7312 25.0244Z" fill="#141414"/>
<path d="M83.6669 16.7961C84.2898 16.7961 84.7947 16.2914 84.7947 15.6688C84.7947 15.0462 84.2898 14.5415 83.6669 14.5415C83.044 14.5415 82.5391 15.0462 82.5391 15.6688C82.5391 16.2914 83.044 16.7961 83.6669 16.7961Z" fill="white" fill-opacity="0.4"/>
<path d="M83.6667 14.5416C84.2837 14.5416 84.7946 15.0427 84.7946 15.6689C84.7946 16.2952 84.2933 16.7962 83.6667 16.7962C83.0498 16.7962 82.5389 16.2952 82.5389 15.6689C82.5389 15.0427 83.0498 14.5416 83.6667 14.5416ZM83.6667 14.1562C82.8377 14.1562 82.1533 14.8307 82.1533 15.6689C82.1533 16.5072 82.8281 17.1816 83.6667 17.1816C84.5054 17.1816 85.1801 16.5072 85.1801 15.6689C85.1801 14.8307 84.5054 14.1562 83.6667 14.1562Z" fill="#141414"/>
<path d="M85.1229 31.1335C85.7458 31.1335 86.2508 30.6288 86.2508 30.0062C86.2508 29.3836 85.7458 28.8789 85.1229 28.8789C84.5001 28.8789 83.9951 29.3836 83.9951 30.0062C83.9951 30.6288 84.5001 31.1335 85.1229 31.1335Z" fill="white" fill-opacity="0.4"/>
<path d="M85.1228 28.8883C85.7397 28.8883 86.2506 29.3894 86.2506 30.0156C86.2506 30.6419 85.7494 31.1429 85.1228 31.1429C84.5059 31.1429 83.995 30.6419 83.995 30.0156C83.995 29.3894 84.4962 28.8883 85.1228 28.8883ZM85.1228 28.5029C84.2938 28.5029 83.6094 29.1774 83.6094 30.0156C83.6094 30.8539 84.2841 31.5283 85.1228 31.5283C85.9614 31.5283 86.6362 30.8539 86.6362 30.0156C86.6362 29.1774 85.9518 28.5029 85.1228 28.5029Z" fill="#141414"/>
<path d="M104.537 27.7995C105.16 27.7995 105.665 27.2948 105.665 26.6722C105.665 26.0496 105.16 25.5449 104.537 25.5449C103.914 25.5449 103.409 26.0496 103.409 26.6722C103.409 27.2948 103.914 27.7995 104.537 27.7995Z" fill="white" fill-opacity="0.4"/>
<path d="M104.537 25.5543C105.154 25.5543 105.665 26.0554 105.665 26.6816C105.665 27.3079 105.163 27.8089 104.537 27.8089C103.92 27.8089 103.409 27.3079 103.409 26.6816C103.409 26.0554 103.92 25.5543 104.537 25.5543ZM104.537 25.1689C103.708 25.1689 103.023 25.8434 103.023 26.6816C103.023 27.5199 103.698 28.1943 104.537 28.1943C105.375 28.1943 106.05 27.5199 106.05 26.6816C106.05 25.8434 105.366 25.1689 104.537 25.1689Z" fill="#141414"/>
<path d="M113.231 37.8005C113.854 37.8005 114.359 37.2958 114.359 36.6732C114.359 36.0506 113.854 35.5459 113.231 35.5459C112.608 35.5459 112.104 36.0506 112.104 36.6732C112.104 37.2958 112.608 37.8005 113.231 37.8005Z" fill="white" fill-opacity="0.4"/>
<path d="M113.231 35.546C113.848 35.546 114.359 36.0471 114.359 36.6733C114.359 37.2996 113.858 37.8006 113.231 37.8006C112.614 37.8006 112.103 37.2996 112.103 36.6733C112.103 36.0471 112.614 35.546 113.231 35.546ZM113.231 35.1606C112.402 35.1606 111.718 35.8351 111.718 36.6733C111.718 37.5116 112.393 38.186 113.231 38.186C114.07 38.186 114.745 37.5116 114.745 36.6733C114.745 35.8351 114.07 35.1606 113.231 35.1606Z" fill="#141414"/>
<path d="M113.955 89.0778C114.578 89.0778 115.083 88.5731 115.083 87.9505C115.083 87.328 114.578 86.8232 113.955 86.8232C113.332 86.8232 112.827 87.328 112.827 87.9505C112.827 88.5731 113.332 89.0778 113.955 89.0778Z" fill="white" fill-opacity="0.4"/>
<path d="M113.955 86.8234C114.572 86.8234 115.083 87.3244 115.083 87.9507C115.083 88.5673 114.581 89.078 113.955 89.078C113.328 89.078 112.827 88.577 112.827 87.9507C112.837 87.334 113.338 86.8234 113.955 86.8234ZM113.955 86.438C113.126 86.438 112.441 87.1124 112.441 87.9507C112.441 88.7889 113.116 89.4634 113.955 89.4634C114.793 89.4634 115.468 88.7889 115.468 87.9507C115.468 87.1124 114.793 86.438 113.955 86.438Z" fill="#141414"/>
<path d="M43.2382 104.436C43.8611 104.436 44.366 103.931 44.366 103.308C44.366 102.686 43.8611 102.181 43.2382 102.181C42.6153 102.181 42.1104 102.686 42.1104 103.308C42.1104 103.931 42.6153 104.436 43.2382 104.436Z" fill="white" fill-opacity="0.4"/>
<path d="M43.238 102.181C43.855 102.181 44.3659 102.682 44.3659 103.309C44.3659 103.935 43.8646 104.436 43.238 104.436C42.6211 104.436 42.1102 103.935 42.1102 103.309C42.1102 102.682 42.6115 102.181 43.238 102.181ZM43.238 101.796C42.409 101.796 41.7246 102.47 41.7246 103.309C41.7246 104.147 42.3994 104.821 43.238 104.821C44.0767 104.821 44.7514 104.147 44.7514 103.309C44.7514 102.47 44.067 101.796 43.238 101.796Z" fill="#141414"/>
<path d="M65.9882 23.5988C66.6111 23.5988 67.116 23.0941 67.116 22.4715C67.116 21.8489 66.6111 21.3442 65.9882 21.3442C65.3653 21.3442 64.8604 21.8489 64.8604 22.4715C64.8604 23.0941 65.3653 23.5988 65.9882 23.5988Z" fill="white" fill-opacity="0.4"/>
<path d="M65.988 21.3537C66.605 21.3537 67.1159 21.8547 67.1159 22.481C67.1159 23.1072 66.6146 23.6083 65.988 23.6083C65.3711 23.6083 64.8602 23.1072 64.8602 22.481C64.8602 21.8547 65.3711 21.3537 65.988 21.3537ZM65.988 20.9683C65.159 20.9683 64.4746 21.6427 64.4746 22.481C64.4746 23.3192 65.1494 23.9937 65.988 23.9937C66.8267 23.9937 67.5014 23.3192 67.5014 22.481C67.5014 21.6427 66.817 20.9683 65.988 20.9683Z" fill="#141414"/>
<path d="M114.244 83.4318C114.867 83.4318 115.372 82.9271 115.372 82.3045C115.372 81.682 114.867 81.1772 114.244 81.1772C113.621 81.1772 113.116 81.682 113.116 82.3045C113.116 82.9271 113.621 83.4318 114.244 83.4318Z" fill="white" fill-opacity="0.4"/>
<path d="M114.244 81.1774C114.861 81.1774 115.372 81.6784 115.372 82.3047C115.372 82.931 114.87 83.432 114.244 83.432C113.617 83.432 113.116 82.931 113.116 82.3047C113.116 81.6784 113.627 81.1774 114.244 81.1774ZM114.244 80.792C113.415 80.792 112.73 81.4664 112.73 82.3047C112.73 83.1429 113.405 83.8174 114.244 83.8174C115.083 83.8174 115.757 83.1429 115.757 82.3047C115.757 81.4664 115.083 80.792 114.244 80.792Z" fill="#141414"/>
<path d="M110.185 71.841C110.808 71.841 111.313 71.3363 111.313 70.7137C111.313 70.0911 110.808 69.5864 110.185 69.5864C109.563 69.5864 109.058 70.0911 109.058 70.7137C109.058 71.3363 109.563 71.841 110.185 71.841Z" fill="white" fill-opacity="0.4"/>
<path d="M110.185 69.5866C110.802 69.5866 111.313 70.0876 111.313 70.7139C111.313 71.3401 110.812 71.8412 110.185 71.8412C109.568 71.8412 109.057 71.3401 109.057 70.7139C109.057 70.0876 109.568 69.5866 110.185 69.5866ZM110.185 69.2012C109.356 69.2012 108.672 69.8756 108.672 70.7139C108.672 71.5521 109.347 72.2266 110.185 72.2266C111.024 72.2266 111.699 71.5521 111.699 70.7139C111.699 69.8756 111.024 69.2012 110.185 69.2012Z" fill="#141414"/>
<path d="M119.902 72.5637C120.525 72.5637 121.03 72.059 121.03 71.4364C121.03 70.8138 120.525 70.3091 119.902 70.3091C119.279 70.3091 118.774 70.8138 118.774 71.4364C118.774 72.059 119.279 72.5637 119.902 72.5637Z" fill="white" fill-opacity="0.4"/>
<path d="M119.902 70.3185C120.519 70.3185 121.03 70.8195 121.03 71.4458C121.03 72.0721 120.529 72.5731 119.902 72.5731C119.285 72.5731 118.774 72.0721 118.774 71.4458C118.774 70.8195 119.276 70.3185 119.902 70.3185ZM119.902 69.9331C119.073 69.9331 118.389 70.6076 118.389 71.4458C118.389 72.284 119.063 72.9585 119.902 72.9585C120.741 72.9585 121.415 72.284 121.415 71.4458C121.415 70.6076 120.731 69.9331 119.902 69.9331Z" fill="#141414"/>
<path d="M92.7958 108.059C93.4187 108.059 93.9236 107.554 93.9236 106.931C93.9236 106.309 93.4187 105.804 92.7958 105.804C92.1729 105.804 91.668 106.309 91.668 106.931C91.668 107.554 92.1729 108.059 92.7958 108.059Z" fill="white" fill-opacity="0.4"/>
<path d="M92.7956 105.804C93.4126 105.804 93.9235 106.305 93.9235 106.932C93.9235 107.548 93.4222 108.059 92.7956 108.059C92.1787 108.059 91.6678 107.558 91.6678 106.932C91.6774 106.305 92.1787 105.804 92.7956 105.804ZM92.7956 105.419C91.9666 105.419 91.2822 106.093 91.2822 106.932C91.2822 107.77 91.957 108.444 92.7956 108.444C93.6343 108.444 94.3091 107.77 94.3091 106.932C94.3091 106.093 93.6343 105.419 92.7956 105.419Z" fill="#141414"/>
</g>
</g>
<defs>
<filter id="filter0_b_257_1600" x="51.4326" y="31.1509" width="46.626" height="49.9893" filterUnits="userSpaceOnUse" color-interpolation-filters="sRGB">
<feFlood flood-opacity="0" result="BackgroundImageFix"/>
<feGaussianBlur in="BackgroundImageFix" stdDeviation="2"/>
<feComposite in2="SourceAlpha" operator="in" result="effect1_backgroundBlur_257_1600"/>
<feBlend mode="normal" in="SourceGraphic" in2="effect1_backgroundBlur_257_1600" result="shape"/>
</filter>
<filter id="filter1_b_257_1600" x="27.3916" y="23.144" width="38.1045" height="45.374" filterUnits="userSpaceOnUse" color-interpolation-filters="sRGB">
<feFlood flood-opacity="0" result="BackgroundImageFix"/>
<feGaussianBlur in="BackgroundImageFix" stdDeviation="2"/>
<feComposite in2="SourceAlpha" operator="in" result="effect1_backgroundBlur_257_1600"/>
<feBlend mode="normal" in="SourceGraphic" in2="effect1_backgroundBlur_257_1600" result="shape"/>
</filter>
<filter id="filter2_b_257_1600" x="80.5635" y="21.9302" width="37.1406" height="44.1602" filterUnits="userSpaceOnUse" color-interpolation-filters="sRGB">
<feFlood flood-opacity="0" result="BackgroundImageFix"/>
<feGaussianBlur in="BackgroundImageFix" stdDeviation="2"/>
<feComposite in2="SourceAlpha" operator="in" result="effect1_backgroundBlur_257_1600"/>
<feBlend mode="normal" in="SourceGraphic" in2="effect1_backgroundBlur_257_1600" result="shape"/>
</filter>
<filter id="filter3_b_257_1600" x="51.6738" y="73.1401" width="46.8477" height="38.3408" filterUnits="userSpaceOnUse" color-interpolation-filters="sRGB">
<feFlood flood-opacity="0" result="BackgroundImageFix"/>
<feGaussianBlur in="BackgroundImageFix" stdDeviation="2"/>
<feComposite in2="SourceAlpha" operator="in" result="effect1_backgroundBlur_257_1600"/>
<feBlend mode="normal" in="SourceGraphic" in2="effect1_backgroundBlur_257_1600" result="shape"/>
</filter>
<filter id="filter4_b_257_1600" x="18.6484" y="43.5317" width="22.5654" height="45.856" filterUnits="userSpaceOnUse" color-interpolation-filters="sRGB">
<feFlood flood-opacity="0" result="BackgroundImageFix"/>
<feGaussianBlur in="BackgroundImageFix" stdDeviation="2"/>
<feComposite in2="SourceAlpha" operator="in" result="effect1_backgroundBlur_257_1600"/>
<feBlend mode="normal" in="SourceGraphic" in2="effect1_backgroundBlur_257_1600" result="shape"/>
</filter>
<filter id="filter5_b_257_1600" x="106.793" y="43.6665" width="17.2246" height="42.5703" filterUnits="userSpaceOnUse" color-interpolation-filters="sRGB">
<feFlood flood-opacity="0" result="BackgroundImageFix"/>
<feGaussianBlur in="BackgroundImageFix" stdDeviation="2"/>
<feComposite in2="SourceAlpha" operator="in" result="effect1_backgroundBlur_257_1600"/>
<feBlend mode="normal" in="SourceGraphic" in2="effect1_backgroundBlur_257_1600" result="shape"/>
</filter>
<filter id="filter6_b_257_1600" x="27.3916" y="80.9058" width="39.8682" height="31.5767" filterUnits="userSpaceOnUse" color-interpolation-filters="sRGB">
<feFlood flood-opacity="0" result="BackgroundImageFix"/>
<feGaussianBlur in="BackgroundImageFix" stdDeviation="2"/>
<feComposite in2="SourceAlpha" operator="in" result="effect1_backgroundBlur_257_1600"/>
<feBlend mode="normal" in="SourceGraphic" in2="effect1_backgroundBlur_257_1600" result="shape"/>
</filter>
<filter id="filter7_b_257_1600" x="80.9775" y="78.2368" width="37.2178" height="33.5229" filterUnits="userSpaceOnUse" color-interpolation-filters="sRGB">
<feFlood flood-opacity="0" result="BackgroundImageFix"/>
<feGaussianBlur in="BackgroundImageFix" stdDeviation="2"/>
<feComposite in2="SourceAlpha" operator="in" result="effect1_backgroundBlur_257_1600"/>
<feBlend mode="normal" in="SourceGraphic" in2="effect1_backgroundBlur_257_1600" result="shape"/>
</filter>
<filter id="filter8_b_257_1600" x="30.3027" y="10.0693" width="43.7432" height="25.9307" filterUnits="userSpaceOnUse" color-interpolation-filters="sRGB">
<feFlood flood-opacity="0" result="BackgroundImageFix"/>
<feGaussianBlur in="BackgroundImageFix" stdDeviation="2"/>
<feComposite in2="SourceAlpha" operator="in" result="effect1_backgroundBlur_257_1600"/>
<feBlend mode="normal" in="SourceGraphic" in2="effect1_backgroundBlur_257_1600" result="shape"/>
</filter>
<filter id="filter9_b_257_1600" x="66.5664" y="10.0693" width="41.2949" height="20.1016" filterUnits="userSpaceOnUse" color-interpolation-filters="sRGB">
<feFlood flood-opacity="0" result="BackgroundImageFix"/>
<feGaussianBlur in="BackgroundImageFix" stdDeviation="2"/>
<feComposite in2="SourceAlpha" operator="in" result="effect1_backgroundBlur_257_1600"/>
<feBlend mode="normal" in="SourceGraphic" in2="effect1_backgroundBlur_257_1600" result="shape"/>
</filter>
<linearGradient id="paint0_linear_257_1600" x1="61.8978" y1="42.525" x2="77.7722" y2="81.1817" gradientUnits="userSpaceOnUse">
<stop stop-color="white" stop-opacity="0.52"/>
<stop offset="1" stop-color="white" stop-opacity="0"/>
</linearGradient>
<linearGradient id="paint1_linear_257_1600" x1="36.4304" y1="33.7077" x2="51.8884" y2="66.6684" gradientUnits="userSpaceOnUse">
<stop stop-color="white" stop-opacity="0.52"/>
<stop offset="1" stop-color="white" stop-opacity="0"/>
</linearGradient>
<linearGradient id="paint2_linear_257_1600" x1="89.441" y1="32.2806" x2="104.392" y2="64.1762" gradientUnits="userSpaceOnUse">
<stop stop-color="white" stop-opacity="0.52"/>
<stop offset="1" stop-color="white" stop-opacity="0"/>
</linearGradient>
<linearGradient id="paint3_linear_257_1600" x1="62.1761" y1="82.4685" x2="71.0357" y2="112.498" gradientUnits="userSpaceOnUse">
<stop stop-color="white" stop-opacity="0.52"/>
<stop offset="1" stop-color="white" stop-opacity="0"/>
</linearGradient>
<linearGradient id="paint4_linear_257_1600" x1="25.0864" y1="54.18" x2="45.4472" y2="74.9182" gradientUnits="userSpaceOnUse">
<stop stop-color="white" stop-opacity="0.52"/>
<stop offset="1" stop-color="white" stop-opacity="0"/>
</linearGradient>
<linearGradient id="paint5_linear_257_1600" x1="112.337" y1="53.7377" x2="129.865" y2="66.1192" gradientUnits="userSpaceOnUse">
<stop stop-color="white" stop-opacity="0.52"/>
<stop offset="1" stop-color="white" stop-opacity="0"/>
</linearGradient>
<linearGradient id="paint6_linear_257_1600" x1="36.7257" y1="89.0463" x2="43.3012" y2="112.575" gradientUnits="userSpaceOnUse">
<stop stop-color="white" stop-opacity="0.52"/>
<stop offset="1" stop-color="white" stop-opacity="0"/>
</linearGradient>
<linearGradient id="paint7_linear_257_1600" x1="89.8679" y1="86.7192" x2="98.0396" y2="111.482" gradientUnits="userSpaceOnUse">
<stop stop-color="white" stop-opacity="0.52"/>
<stop offset="1" stop-color="white" stop-opacity="0"/>
</linearGradient>
<linearGradient id="paint8_linear_257_1600" x1="40.2855" y1="17.2183" x2="43.8145" y2="35.8409" gradientUnits="userSpaceOnUse">
<stop stop-color="white" stop-opacity="0.52"/>
<stop offset="1" stop-color="white" stop-opacity="0"/>
</linearGradient>
<linearGradient id="paint9_linear_257_1600" x1="76.1393" y1="16.1946" x2="77.8939" y2="28.9736" gradientUnits="userSpaceOnUse">
<stop stop-color="white" stop-opacity="0.52"/>
<stop offset="1" stop-color="white" stop-opacity="0"/>
</linearGradient>
<clipPath id="clip0_257_1600">
<rect width="100.406" height="99.2019" fill="white" transform="translate(21 13)"/>
</clipPath>
</defs>
</svg>