<svg xmlns="http://www.w3.org/2000/svg" width="920" height="290" viewBox="0 0 920 290" fill="none">
<path d="M525.276 289.09V256.387H443.428V234.163L526.722 159L548.945 159V232.537H567.194V256.387H548.945V289.09H525.276ZM480.287 232.537H525.276V194.955L480.287 232.537Z" fill="white"/>
<path d="M302.664 289.09V239.222C302.664 234.524 303.808 230.309 306.097 226.575C308.386 222.84 311.397 219.889 315.131 217.721C318.865 215.433 323.021 214.288 327.598 214.288H405.652C406.254 214.288 406.736 214.108 407.097 213.746C407.579 213.264 407.82 212.722 407.82 212.12V184.837C407.82 184.235 407.579 183.753 407.097 183.392C406.736 182.91 406.254 182.669 405.652 182.669L328.501 182.669C327.899 182.669 327.357 182.91 326.875 183.392C326.514 183.753 326.333 184.235 326.333 184.837V193.691H302.664V183.934C302.664 179.236 303.808 175.02 306.097 171.286C308.386 167.552 311.397 164.601 315.131 162.433C318.865 160.144 323.021 159 327.598 159L406.555 159C411.133 159 415.288 160.144 419.022 162.433C422.877 164.601 425.888 167.552 428.056 171.286C430.345 175.02 431.489 179.236 431.489 183.934V213.204C431.489 217.661 430.345 221.817 428.056 225.671C425.888 229.405 422.877 232.417 419.022 234.705C415.288 236.994 411.133 238.138 406.555 238.138H328.501C327.899 238.138 327.357 238.379 326.875 238.861C326.514 239.222 326.333 239.704 326.333 240.306V263.253C326.333 263.855 326.514 264.397 326.875 264.879C327.357 265.24 327.899 265.421 328.501 265.421H431.489V289.09H302.664Z" fill="white"/>
<path d="M176.912 289.09C172.335 289.09 168.179 287.885 164.445 285.476C160.711 282.947 157.7 279.695 155.411 275.72C153.123 271.745 151.979 267.529 151.979 263.072L151.979 184.476C151.979 179.778 153.123 175.562 155.411 171.828C157.7 167.974 160.711 164.902 164.445 162.614C168.179 160.205 172.335 159 176.912 159L255.87 159C260.447 159 264.603 160.205 268.337 162.614C272.071 164.902 275.082 167.974 277.371 171.828C279.659 175.562 280.804 179.778 280.804 184.476V263.072C280.804 267.529 279.659 271.745 277.371 275.72C275.082 279.695 272.071 282.947 268.337 285.476C264.603 287.885 260.447 289.09 255.87 289.09H176.912ZM186.488 264.156H254.966C255.569 264.156 256.051 263.975 256.412 263.614C256.894 263.132 257.135 262.59 257.135 261.988V205.254L186.488 264.156ZM175.648 242.113L246.294 183.211H177.816C177.214 183.211 176.671 183.452 176.19 183.934C175.828 184.295 175.648 184.777 175.648 185.379V242.113Z" fill="white"/>
<path d="M2 289.09L2 239.222C2 234.524 3.14432 230.309 5.43294 226.575C7.72156 222.84 10.7329 219.889 14.4669 217.721C18.201 215.433 22.3567 214.288 26.9339 214.288H104.988C105.59 214.288 106.072 214.108 106.433 213.746C106.915 213.264 107.156 212.722 107.156 212.12L107.156 184.837C107.156 184.235 106.915 183.753 106.433 183.392C106.072 182.91 105.59 182.669 104.988 182.669L27.8373 182.669C27.235 182.669 26.693 182.91 26.2112 183.392C25.8498 183.753 25.6692 184.235 25.6692 184.837L25.6692 193.691H2L2 183.934C2 179.236 3.14432 175.02 5.43294 171.286C7.72156 167.552 10.7329 164.601 14.4669 162.433C18.201 160.144 22.3567 159 26.9339 159L105.891 159C110.469 159 114.624 160.144 118.358 162.433C122.213 164.601 125.224 167.552 127.392 171.286C129.681 175.02 130.825 179.236 130.825 183.934V213.204C130.825 217.661 129.681 221.817 127.392 225.671C125.224 229.405 122.213 232.417 118.358 234.705C114.624 236.994 110.469 238.138 105.891 238.138H27.8373C27.235 238.138 26.693 238.379 26.2112 238.861C25.8498 239.222 25.6692 239.704 25.6692 240.306L25.6692 263.253C25.6692 263.855 25.8498 264.397 26.2112 264.879C26.693 265.24 27.235 265.421 27.8373 265.421H130.825V289.09H2Z" fill="white"/>
<path d="M814.698 130.09C810.12 130.09 805.905 128.946 802.05 126.657C798.316 124.368 795.305 121.357 793.016 117.623C790.727 113.769 789.583 109.553 789.583 104.975V95.038H813.433V103.891C813.433 104.494 813.614 105.036 813.975 105.517C814.457 105.879 814.999 106.059 815.601 106.059L893.474 106.059C894.077 106.059 894.558 105.879 894.92 105.517C895.402 105.036 895.642 104.494 895.642 103.891V79.1381C895.642 78.5358 895.402 78.054 894.92 77.6926C894.558 77.3313 894.077 77.1506 893.474 77.1506L814.698 77.1506C810.12 77.1506 805.905 76.0063 802.05 73.7177C798.316 71.429 795.305 68.4177 793.016 64.6836C790.727 60.8291 789.583 56.553 789.583 51.8553V25.1146C789.583 20.5374 790.727 16.3817 793.016 12.6476C795.305 8.79312 798.316 5.72155 802.05 3.43293C805.905 1.14431 810.12 0 814.698 0L894.558 0C899.136 0 903.291 1.14431 907.025 3.43293C910.88 5.72155 913.952 8.79312 916.24 12.6476C918.529 16.3817 919.673 20.5374 919.673 25.1146V35.052L895.642 35.052V26.1987C895.642 25.5964 895.402 25.1146 894.92 24.7532C894.558 24.2714 894.077 24.0305 893.474 24.0305L815.601 24.0305C814.999 24.0305 814.457 24.2714 813.975 24.7532C813.614 25.1146 813.433 25.5964 813.433 26.1987V50.9519C813.433 51.5542 813.614 52.036 813.975 52.3974C814.457 52.7587 814.999 52.9394 815.601 52.9394L894.558 52.9394C899.136 52.9394 903.291 54.0837 907.025 56.3723C910.88 58.661 913.952 61.7325 916.24 65.587C918.529 69.3211 919.673 73.537 919.673 78.2347V104.975C919.673 109.553 918.529 113.769 916.24 117.623C913.952 121.357 910.88 124.368 907.025 126.657C903.291 128.946 899.136 130.09 894.558 130.09L814.698 130.09Z" fill="white"/>
<path d="M697.088 130.09V81.3063L637.103 0L665.289 0L709.194 55.1076L752.557 0L781.286 0L721.119 81.4869V130.09H697.088Z" fill="white"/>
<path d="M499.174 130.09V25.1146C499.174 20.5374 500.318 16.3817 502.607 12.6476C504.895 8.79312 507.907 5.72155 511.641 3.43293C515.495 1.14431 519.711 0 524.288 0L603.969 0C608.546 0 612.762 1.14431 616.616 3.43293C620.471 5.72155 623.542 8.79312 625.831 12.6476C628.12 16.3817 629.264 20.5374 629.264 25.1146V130.09H605.233V86.3653L523.024 86.3653V130.09H499.174ZM523.024 62.5155L605.233 62.5155V26.1987C605.233 25.5964 604.992 25.1146 604.511 24.7532C604.029 24.2714 603.487 24.0305 602.884 24.0305L525.192 24.0305C524.59 24.0305 524.048 24.2714 523.566 24.7532C523.204 25.1146 523.024 25.5964 523.024 26.1987V62.5155Z" fill="white"/>
<path d="M348.489 130.09V0L453.284 0C457.861 0 462.077 1.14431 465.932 3.43293C469.786 5.72155 472.858 8.79312 475.146 12.6476C477.435 16.3817 478.579 20.5374 478.579 25.1146V104.975C478.579 109.553 477.435 113.769 475.146 117.623C472.858 121.357 469.786 124.368 465.932 126.657C462.077 128.946 457.861 130.09 453.284 130.09L348.489 130.09ZM374.327 106.059L452.2 106.059C452.802 106.059 453.344 105.879 453.826 105.517C454.308 105.036 454.549 104.494 454.549 103.891V26.1987C454.549 25.5964 454.308 25.1146 453.826 24.7532C453.344 24.2714 452.802 24.0305 452.2 24.0305L374.327 24.0305C373.724 24.0305 373.182 24.2714 372.7 24.7532C372.339 25.1146 372.158 25.5964 372.158 26.1987V103.891C372.158 104.494 372.339 105.036 372.7 105.517C373.182 105.879 373.724 106.059 374.327 106.059Z" fill="white"/>
<path d="M149.979 130.091L149.979 0.181641L254.774 0.181641C259.351 0.181641 263.567 1.32595 267.422 3.61457C271.276 5.90319 274.348 8.97476 276.637 12.8293C278.925 16.5633 280.07 20.719 280.07 25.2962V60.3483C280.07 64.9255 278.925 69.1414 276.637 72.9959C274.348 76.8504 271.276 79.922 267.422 82.2106C263.567 84.3788 259.351 85.4629 254.774 85.4629L173.829 85.6436L173.829 130.091H149.979ZM175.998 61.4324L253.69 61.4324C254.292 61.4324 254.834 61.2517 255.316 60.8903C255.798 60.529 256.039 60.0471 256.039 59.4449V26.1996C256.039 25.5974 255.798 25.1156 255.316 24.7542C254.834 24.2724 254.292 24.0315 253.69 24.0315L175.998 24.0315C175.395 24.0315 174.853 24.2724 174.371 24.7542C174.01 25.1156 173.829 25.5974 173.829 26.1996V59.4449C173.829 60.0471 174.01 60.529 174.371 60.8903C174.853 61.2517 175.395 61.4324 175.998 61.4324Z" fill="white"/>
<path d="M25.1146 130.09C20.5374 130.09 16.3215 128.946 12.467 126.657C8.73289 124.368 5.72155 121.357 3.43293 117.623C1.14431 113.769 0 109.553 0 104.975L0 25.1146C0 20.5374 1.14431 16.3817 3.43293 12.6476C5.72155 8.79312 8.73289 5.72155 12.467 3.43293C16.3215 1.14431 20.5374 0 25.1146 0L104.795 0C109.372 0 113.588 1.14431 117.442 3.43293C121.297 5.72155 124.368 8.79312 126.657 12.6476C128.946 16.3817 130.09 20.5374 130.09 25.1146V35.2327L106.059 35.2327V26.1987C106.059 25.5964 105.819 25.1146 105.337 24.7532C104.855 24.2714 104.313 24.0305 103.711 24.0305L26.018 24.0305C25.4157 24.0305 24.8737 24.2714 24.3919 24.7532C24.0305 25.1146 23.8498 25.5964 23.8498 26.1987L23.8498 103.891C23.8498 104.494 24.0305 105.036 24.3919 105.517C24.8737 105.879 25.4157 106.059 26.018 106.059L103.711 106.059C104.313 106.059 104.855 105.879 105.337 105.517C105.819 105.036 106.059 104.494 106.059 103.891V80.4029H76.6086V56.3723L130.09 56.3723L130.09 104.975C130.09 109.553 128.946 113.769 126.657 117.623C124.368 121.357 121.297 124.368 117.442 126.657C113.588 128.946 109.372 130.09 104.795 130.09L25.1146 130.09Z" fill="white"/>
</svg>