<svg xmlns="http://www.w3.org/2000/svg" width="144" height="48" viewBox="0 0 144 48" fill="none">
<path fill-rule="evenodd" clip-rule="evenodd" d="M124.381 19.4314L130.17 35.4435H118.677L124.381 19.4314ZM134.767 47.3691H143.195L124.381 0L105.651 47.3691H114.165L116.123 42.0318H132.724L134.767 47.3691ZM82.75 39.8635V8.83999C82.75 8.83999 102.246 5.92114 102.246 24.3518C102.246 42.5322 82.75 39.8635 82.75 39.8635ZM74.8325 1.33434V47.3691H82.75C94.4134 47.3691 110.163 44.0332 110.163 24.3518C110.163 3.91962 94.1579 1.33434 82.75 1.33434H74.8325ZM48.4411 9.00679H54.741C54.741 9.00679 62.5733 9.00679 62.5733 14.7611C62.5733 19.2646 57.8059 20.2654 55.7626 20.5155L48.4411 9.00679ZM72.8744 47.3691L60.1044 27.354C64.6165 26.1031 70.4055 22.934 70.4055 14.7611C70.4055 1.33434 54.741 1.33434 54.741 1.33434H39.0764V9.00679L46.483 20.5155H39.0764V47.3691H46.9087V28.1879H51.4208L63.68 47.3691H72.8744ZM18.7294 19.4314L24.4333 35.4435H13.0254L18.7294 19.4314ZM29.0306 47.3691H37.544L18.7294 0L0 47.3691H8.42819L10.4714 42.0318H26.9874L29.0306 47.3691Z" fill="white"/>
</svg>