<svg xmlns="http://www.w3.org/2000/svg" width="118" height="85" viewBox="0 0 118 85" fill="none">
<mask id="mask0_2_737" style="mask-type:luminance" maskUnits="userSpaceOnUse" x="0" y="0" width="118" height="85">
<path d="M118 0H0V85H118V0Z" fill="white"/>
</mask>
<g mask="url(#mask0_2_737)">
<path d="M84.115 12.3483C84.1047 12.3525 84.0947 12.3568 84.0845 12.3611M84.0845 12.3611C83.4328 12.6401 82.5684 13.1863 84.115 13.2387C85.6854 13.2918 85.5222 12.4989 85.2445 12.0957L84.0845 12.3611ZM28.2834 17.7572C28.1668 17.9521 28.0252 18.411 28.3909 18.6875C28.7567 18.9639 28.373 19.033 28.1354 19.033L27.6917 19.1526C27.62 19.1881 27.4685 19.1765 27.4362 18.847C27.3958 18.435 27.3958 18.0761 27.5438 18.0097C27.6917 17.9432 27.6513 17.6509 27.5438 17.5047C27.4362 17.3585 27.2345 17.3053 27.2614 17.0794C27.2883 16.8535 27.6917 16.6541 27.6917 16.6276C27.6917 16.601 28.122 16.6143 28.0144 16.282C27.9284 16.0162 28.4896 16.0561 28.7809 16.1093C28.9378 16.096 29.2623 15.987 29.3054 15.6574C29.3484 15.3278 29.4487 14.8556 29.4936 14.6607C29.5071 14.5278 29.4587 14.2779 29.1574 14.3417C28.7809 14.4214 28.4312 13.3051 28.1354 12.6805C27.8988 12.1808 27.6424 12.7204 27.5438 13.0526C27.4452 13.1235 27.178 13.244 26.8984 13.1589C26.6187 13.0739 25.9033 13.5931 25.5806 13.8633C25.4775 13.8766 25.3331 14.0281 25.5806 14.5278C25.828 15.0275 25.1368 14.8246 24.7603 14.6607C24.6393 14.6031 24.3569 14.6048 24.1955 15.0726C24.0342 15.5405 23.9401 16.0738 23.9131 16.282C23.5456 16.4769 22.5443 16.7684 21.4793 16.375C20.148 15.8833 20.0405 15.6707 19.4353 15.8302C18.8302 15.9896 19.3546 17.4914 19.395 17.5313C19.4353 17.5711 19.4891 17.8369 19.3143 17.9432C19.1395 18.0495 19.0588 17.2123 19.005 17.1459C18.9512 17.0794 18.5075 16.5079 18.3327 16.5345C18.1579 16.5611 18.1444 16.4016 17.6603 16.7605C17.2731 17.0475 16.7997 16.9598 16.6115 16.8801C16.3291 16.9598 15.7724 17.2017 15.8047 17.5313C15.837 17.8608 15.352 17.7483 15.1054 17.6509C14.9441 17.6509 14.6509 17.7279 14.7693 18.0363C14.8876 18.3446 14.3883 18.5723 14.1238 18.6476C13.8145 18.9089 13.1852 19.4875 13.1422 19.7108C13.0992 19.9341 13.2856 20.1582 13.3843 20.2424C13.4335 20.2822 13.5025 20.3832 13.3843 20.4683C13.2363 20.5746 13.0212 20.7474 13.3843 21.0929C13.7473 21.4384 13.7742 21.3321 13.7339 21.7707C13.7787 21.9169 13.7635 22.1986 13.3439 22.1561C12.9244 22.1136 12.5057 22.4219 12.3488 22.5814C12.2995 22.608 12.2601 22.6824 12.4968 22.7674C12.7334 22.8525 12.4071 22.9889 12.2144 23.0465C12.0709 23.1307 11.8405 23.3894 12.0664 23.7509C12.1964 23.8395 12.3704 24.0087 12.0261 23.9768C11.5958 23.9369 11.5958 24.1628 11.69 24.4021C11.7841 24.6413 11.9051 25.0134 11.4748 25.2526C11.1306 25.444 10.919 24.8805 10.8562 24.5748C10.7935 24.4331 10.6034 24.2346 10.3453 24.5748C10.0871 24.9151 9.84329 25.0887 9.7536 25.133L9.36364 25.5317C9.2157 25.607 9.01939 25.7895 9.41742 25.9171C9.81549 26.0447 10.0136 26.2626 10.0629 26.3557C10.1122 26.4443 10.2834 26.6108 10.5739 26.5683C10.7711 26.7233 11.0472 27.1265 10.5739 27.4986V27.9637L9.98219 28.0169C9.80739 27.9814 9.48734 28.0089 9.60569 28.4023C9.72401 28.7957 9.93289 28.9915 10.0225 29.0403C10.0898 29.0623 10.1839 29.1491 10.0225 29.3194C9.86119 29.4894 9.54293 29.771 9.40397 29.8909L8.97369 29.9306C8.90195 29.9573 8.80963 30.0423 9.01402 30.1699C9.2184 30.2973 9.41293 30.4357 9.48467 30.4888C9.40397 30.7635 9.44968 31.3579 10.278 31.5386C10.4618 31.6007 10.7191 31.7913 10.278 32.0571C10.1301 32.1235 9.86119 32.3414 9.96869 32.6816C10.0763 33.0219 9.78049 32.8232 9.61913 32.6816C9.50257 32.6106 9.18882 32.5114 8.86611 32.6816C8.67334 32.4734 8.22333 32.2033 7.96517 32.7878C7.70698 33.3727 7.06869 33.1734 6.78182 33.0005C6.71011 32.9474 6.60969 32.7666 6.78182 32.469C6.95395 32.1714 6.46806 31.7246 6.20359 31.5386C6.06912 31.4943 5.80556 31.4748 5.82708 31.7513C5.6971 31.8134 5.50707 31.9906 5.78678 32.2033C6.06645 32.4159 5.67024 32.4069 5.43715 32.3759C5.40577 32.1499 5.22469 31.6822 4.75137 31.6184C4.78275 31.5032 4.77018 31.2013 4.46899 30.9141C4.4645 30.7368 4.35064 30.4702 3.93109 30.8209C3.74731 30.8743 3.38248 31.0072 3.39322 31.1134C3.2722 31.1621 2.96291 31.1505 2.69396 30.7148C2.42503 30.2787 2.31297 30.5685 2.29056 30.7678C2.29504 30.852 2.25022 30.9593 2.03507 30.7148C1.81991 30.4702 1.71234 30.8787 1.68545 31.1134C1.68097 31.2996 1.83067 31.7513 2.46537 32.0704L2.54595 32.7347H2.29056C2.11572 32.5842 1.61543 32.2857 1.01301 32.2961C0.923358 32.3051 0.797854 32.3733 1.01301 32.5752C1.28194 32.8279 1.49711 33.8377 0.865108 33.8644C0.359504 33.8856 0.65444 34.4136 0.865108 34.6749C1.21922 34.6619 1.97583 34.7335 2.16947 35.1269L2.84182 35.2464C3.06145 35.6807 3.39584 36.5809 2.97629 36.7083C2.87767 36.8368 2.78803 37.1736 3.21834 37.4924V38.157C3.35727 38.3209 3.54375 38.6725 3.17798 38.7683L3.28556 40.0175C3.03007 40.177 2.70735 40.5066 3.46038 40.5492C3.55898 40.7442 3.79117 41.1552 3.93101 41.2402C3.86825 41.4395 3.8342 41.8941 4.19994 42.1172C4.22686 42.2901 4.34788 42.6516 4.61681 42.7154L4.96641 43.4198L5.02022 43.8982C5.26226 44.0444 5.64685 44.3951 5.24882 44.6292L5.16813 45.0011L6.32456 45.7586C6.26629 45.8917 6.2869 46.2053 6.83554 46.3965C6.93863 46.4366 7.08296 46.5427 6.83554 46.6492C6.52627 46.7821 5.84046 47.0478 6.47247 47.5262L6.66074 48.8021C6.60693 49.0414 6.52357 49.5543 6.62038 49.6924C6.71721 49.8308 7.30619 49.8122 7.58856 49.7855C7.6289 49.7501 7.7338 49.6898 7.83061 49.7324C7.92742 49.7748 8.20263 49.9804 8.32815 50.0779C8.44468 50.1133 8.64282 50.0858 8.50295 49.6924C8.36311 49.299 8.56121 48.9349 8.67778 48.8021C8.61951 48.6204 8.53791 48.2279 8.67778 48.111L8.78535 47.5262C8.9512 47.5175 9.27749 47.4067 9.25598 47.0345C9.63249 46.7377 10.2806 45.9872 9.86109 45.36C9.78489 45.2315 9.72663 45.0278 10.1031 45.2405C10.5738 45.5062 11.663 45.0676 11.8109 44.6823C11.9812 44.8596 12.416 45.1978 12.7925 45.134C12.9763 45.2448 13.4487 45.4 13.8683 45.134C14.2878 44.8683 13.9355 44.5715 13.7069 44.4563C13.9669 44.5271 14.4734 44.5068 14.4196 43.8584C14.4106 43.6855 14.4465 43.3241 14.6616 43.2602C14.9306 43.1805 14.4868 42.0775 14.0162 41.9844C13.6397 41.9101 14.0924 41.723 14.3658 41.6388C14.3748 41.3865 14.3551 40.8176 14.2044 40.5623C14.0539 40.3073 14.7154 40.3232 15.065 40.363C15.213 40.394 15.498 40.3685 15.455 40.0175C15.4012 39.5791 16.2753 39.5257 16.3559 39.5524C16.4366 39.5791 17.1224 39.4993 17.0686 40.1106C17.0149 40.7218 17.2166 40.6954 17.2704 40.7218C17.3241 40.7485 17.7813 40.815 17.5796 40.2568L18.9915 40.177C19.0095 40.0265 19.1529 39.8393 19.5832 40.2965C20.018 40.2037 20.8795 40.177 20.8472 40.815C20.8831 40.8991 21.1404 41.0328 21.8826 40.8947C21.9543 41.1207 22.1408 41.6203 22.3129 41.8117C22.286 42.0775 22.3102 42.6542 22.6222 42.8349V43.2602C22.2815 43.557 21.8988 44.1027 23.0929 43.9115C23.1735 44.3278 23.507 45.0252 24.1955 44.483C24.4689 44.4874 25.04 44.5814 25.1368 44.9214C25.0516 45.0766 25.0158 45.3681 25.5536 45.2936C25.7419 45.2448 26.1211 45.2962 26.1319 45.8917C26.1426 46.487 26.3425 46.6536 26.4411 46.6625C26.4949 46.8529 26.7208 47.1702 27.1942 46.9149C27.4452 47.3446 28.1301 48.0339 28.8616 47.3536C28.9467 46.8752 28.9772 45.897 28.4178 45.812C28.2609 45.4752 28.1301 44.9559 28.8616 45.5726C29.1215 45.5239 29.6818 45.2379 29.8432 44.483C30.0719 44.5051 30.5371 44.6025 30.5694 44.8152C30.6096 45.0809 31.1609 45.0943 30.9727 44.7621C30.8221 44.4961 30.5603 44.2527 30.4482 44.1639C30.4036 44.0444 30.4106 43.8265 30.7981 43.9115C31.1852 43.9965 31.0757 43.6545 30.9727 43.4729L32.0485 43.9646C32.2144 43.9823 32.5783 44.0072 32.7075 43.9646C32.8363 43.922 33.7742 44.3809 34.2268 44.6159L35.4908 44.5625C35.5806 44.5805 35.7787 44.6556 35.8539 44.8152C35.9293 44.9747 36.4858 44.8816 36.755 44.8152C36.8894 44.9968 37.2417 45.3281 37.5751 45.2004C37.9086 45.0731 37.8038 44.9524 37.7096 44.9083C38.0234 44.8639 38.7073 44.9507 38.9333 45.6524C39.2829 45.5459 39.9122 45.5248 39.6325 46.2903C39.2829 47.2471 39.9284 46.6889 39.108 47.1673C39.1485 47.3402 39.3287 47.6698 39.7267 47.606C39.7895 47.5085 39.931 47.4943 39.9956 48.2172C40.0602 48.9404 40.4259 48.4122 40.6006 48.0579C40.8562 48.1287 41.2138 48.3901 40.6006 48.8685C39.9877 49.3469 41.5554 49.2804 42.4161 49.1876C42.8687 48.9616 43.7581 48.6451 43.6935 49.1876C43.6128 49.8653 44.4197 51.3271 44.5136 51.3004C44.6079 51.274 44.8365 52.3503 44.8365 52.5099C44.8365 52.6694 45.1324 53.8124 45.0784 54.1048C45.0247 54.397 45.0784 55.1811 45.5759 55.2078C46.0735 55.2342 45.7509 54.6496 46.1677 54.7027C46.5845 54.7558 46.2754 55.4205 46.6115 55.6198C46.9476 55.8191 46.8402 56.1512 47.2435 55.9519C47.6468 55.7526 47.6201 56.2443 47.9025 56.0981C48.1849 55.9519 48.1849 55.5266 48.5075 56.0981C48.8303 56.6696 49.1931 55.9519 49.1664 56.683C49.1394 57.4137 49.5295 57.3873 49.7177 57.7593C49.9058 58.1315 49.9866 58.3972 50.3767 58.5834C50.7665 58.7694 50.4169 59.0087 50.9951 58.7961C51.5734 58.5834 50.5513 59.2611 51.6541 59.1549C51.9051 59.6644 52.5174 60.4279 52.9583 59.4073C53.4291 59.4207 54.4591 59.3383 54.814 58.9023C55.0292 59.0087 55.4621 59.067 55.473 58.4506C55.9033 58.4947 56.8312 58.4346 57.1 57.839C57.3689 57.2437 57.9023 57.839 58.1356 58.2112C58.5075 58.1758 59.3241 58.2643 59.6147 58.9023C59.905 59.5402 60.6591 59.4517 60.9996 59.3275C61.56 59.5846 62.8339 59.9336 63.4471 59.2745C63.5278 59.0131 63.5759 58.3946 63.1242 58.0119C62.6402 57.5121 63.9267 56.9621 64.6303 56.7494C64.9441 56.6783 65.6712 56.6299 66.0692 57.0018C66.3111 56.8202 66.8383 56.7015 67.0106 57.6798C67.2122 58.1228 67.7338 59.0006 68.2073 58.9687C68.6805 58.9368 68.9693 59.0972 69.0544 59.1813C69.1619 59.2257 69.4146 59.2559 69.5655 59.0218C69.7536 58.7296 70.1302 59.1947 70.2242 58.6232C70.3184 58.0517 72.2815 58.7296 73.465 59.8326C74.4117 60.7151 77.517 59.3319 78.9512 58.5301C78.9379 57.9809 79.336 57.0471 81.0355 57.7062C81.2014 57.4671 81.7832 57.1428 82.7835 57.7593C83.7842 58.376 84.3839 56.891 84.5585 56.0714L84.4913 55.1678C84.6618 55.1147 84.9513 54.8249 84.747 54.0915C84.4913 53.1745 85.6076 54.1446 84.5585 51.9784C84.6527 51.4867 85.0346 50.5511 85.8093 50.7423C86.0825 50.4899 86.745 50.0089 87.2076 50.1046C87.6245 50.3837 87.8933 50.4234 88.0548 50.2639C88.2162 50.1046 89.5474 50.1444 89.7895 50.5696C89.983 50.9099 90.7576 51.8365 91.1207 52.2575C91.421 52.377 92.0271 52.7915 92.0486 53.4933C92.5758 53.7805 92.8062 54.1446 92.8555 54.2908C93.1602 54.3262 93.759 54.3305 93.7158 54.0648C93.9741 53.9798 94.3883 54.1269 94.563 54.211L94.6437 53.9319C95.2713 54.0381 96.4753 54.3546 96.2707 54.7692C96.7281 55.354 97.0239 55.6197 97.2256 55.4869C97.387 55.3804 97.3465 55.6551 97.3063 55.8057C97.4901 55.8367 97.8576 55.8164 97.8576 55.4869C98.7047 55.4869 99.2157 54.7294 99.2022 54.211C99.1914 53.7965 99.5562 53.7724 99.7403 53.8124C99.7535 53.7637 99.8019 53.5943 99.8877 53.3073C100.265 52.9351 100.009 52.6828 100.44 53.3073C100.722 53.4005 101.179 53.7193 100.668 54.3839C100.964 55.1147 101.206 55.4468 101.058 55.8591C101.287 56.1115 101.368 58.0917 101.058 58.5567C101.26 58.9553 101.489 59.6597 100.816 58.9289C100.144 58.1979 99.7403 58.2112 99.8207 59.168C99.6596 59.3409 99.4579 60.0052 100.063 60.2048C100.063 60.776 100.426 61.2547 100.682 61.6266C100.937 61.9988 100.83 62.5303 100.251 62.5436C100.171 62.6234 100.144 63.2082 100.601 63.1682C100.816 63.4873 101.246 63.7928 101.273 63.1682C101.295 62.6687 101.623 61.9678 101.784 61.68C101.937 61.9591 102.4 62.3391 103.035 61.6266C103.828 60.7363 104.716 61.4009 104.85 57.9455C104.85 57.6264 104.904 57.5336 105.052 57.4935C105.17 57.4616 105.066 57.0729 104.998 56.8823C105.056 56.6563 105.203 56.2522 105.321 56.4436C105.439 56.146 105.406 54.902 105.375 54.3172C105.702 54.211 106.149 53.9557 105.321 53.7857C105.375 53.4005 105.698 52.7092 105.052 52.5099C104.536 52.3506 105.052 52.1069 105.375 52.0048C105.585 51.8766 105.832 51.5345 105.133 51.1942C105.321 50.8354 105.778 49.5995 105.133 48.7754C104.944 47.9915 104.218 46.9416 103.546 46.2106C103.309 45.6045 103.241 45.1874 103.237 45.0542C103.389 44.917 103.479 44.427 102.618 43.566C102.255 43.1938 102.121 43.0209 102.241 42.8616C102.338 42.734 101.663 42.6844 101.314 42.6754C101.009 42.414 100.254 42.011 99.6728 42.4894C99.2428 42.4894 98.8124 42.3432 99.162 43.2071C99.5116 44.0708 98.6912 44.483 98.5568 43.3798C98.1805 43.0876 98.0325 42.8216 97.8576 44.1242C97.481 43.6989 97.5887 42.3432 96.5936 43.6588C96.0691 43.7786 95.2625 43.9379 96.3112 43.0078C96.3112 41.9446 96.9162 40.8283 97.0239 40.815C97.1314 40.8016 96.6743 40.363 96.849 40.0839C97.0239 39.8048 96.876 38.7285 97.3198 37.3462C96.849 36.8678 96.8895 35.7248 97.4408 35.8313C97.4408 34.8478 97.6289 32.9871 99.4846 33.0802C99.8347 32.6816 99.8077 32.5752 99.6461 32.429C99.5169 32.3121 100.641 31.8221 101.22 31.5917C101.435 31.4722 101.715 31.1186 101.112 30.6617C100.51 30.2045 102 29.8598 102.82 29.7446C102.981 29.7844 103.191 29.9518 102.739 30.3028C102.287 30.6535 102.82 30.6881 103.143 30.6617C103.237 30.2895 103.592 29.5851 104.259 29.7446C104.334 29.5001 104.093 29.3945 103.963 29.3724C103.873 29.1331 103.914 28.591 104.796 28.3358C104.796 27.6713 104.958 27.0866 104.407 27.9637C103.965 28.6654 103.443 26.2804 103.237 25.0001V24.4286C102.923 24.278 102.519 23.9582 103.412 23.8838C103.627 22.9934 103.923 21.5979 104.918 23.1661C105.714 24.4207 105.832 22.608 105.791 21.5448C106.11 21.1062 106.499 20.2743 105.509 20.455C105.119 19.6443 104.393 18.7672 105.092 18.8602C105.652 18.9347 105.487 19.0684 105.334 19.126C105.307 19.3741 105.375 19.865 105.859 19.8437C106.343 19.8224 106.831 20.9157 107.015 21.465L107.163 23.8838L107.795 26.4886C107.795 26.9448 107.795 27.9531 107.795 28.3358C107.795 28.8143 108.037 30.1432 108.709 30.7945C109.382 31.4455 109.933 32.9741 112.3 33.7846C112.717 34.3294 115.406 35.8313 115.716 35.8313C116.025 35.8313 116.159 33.2662 114.666 32.429C114.505 31.5917 114.518 31.326 114.841 30.9938C115.099 30.7281 114.572 30.5552 114.277 30.5021C113.999 30.0725 113.65 29.08 114.478 28.5485C115.307 28.0169 114.017 27.5119 113.268 27.3258C112.829 26.9936 112.214 26.2865 113.268 26.1165C112.743 25.4254 112.461 24.8273 111.601 25.04C110.912 25.2101 110.973 24.4021 111.09 23.9768C110.668 24.4198 109.748 25.0054 109.436 23.804C109.046 22.3023 108.589 22.1827 108.387 21.9701C108.185 21.7574 108.709 21.465 108.992 21.558C109.274 21.6511 109.1 20.2955 108.871 20.3088C108.642 20.3221 110.108 20.6809 109.893 20.2025C109.678 19.7241 108.898 17.4781 111.359 17.6376C111.278 17.2389 110.458 16.8269 110.767 15.777C110.471 14.8068 110.807 14.9796 109.973 14.2885C110.027 13.8314 110.211 13.1146 110.296 12.8134C110.189 12.8267 109.973 12.8293 109.973 12.7337C109.973 12.638 109.902 12.5432 109.866 12.5077C109.812 12.0293 109.879 10.9581 110.579 10.501C111.453 9.9295 110.081 8.69357 109.207 9.2783C108.508 9.74612 108.53 9.3935 108.629 9.15869C108.324 9.10555 107.723 9.05504 107.755 9.2783C107.795 9.55741 107.499 9.74345 107.284 9.5707C106.988 9.53081 106.222 9.65042 107.338 9.22516C107.419 8.53408 107.526 8.40118 106.787 7.43105C106.195 6.65491 106.881 6.17737 107.298 6.0356C107.011 5.72995 106.69 5.14519 107.701 5.25151C108.712 5.35783 108.947 4.7908 108.938 4.49399C109.243 4.48515 109.823 4.29997 109.705 3.63016C109.92 2.87265 109.489 2.73975 109.126 3.29793C108.836 3.74446 108.799 3.12071 108.817 2.75304C108.66 2.75304 108.336 2.73975 108.293 2.68659C108.239 2.62014 108.575 2.20816 108.051 1.51709C107.755 1.41077 107.136 1.38419 107.822 0.91905C107.822 0.693124 107.983 0.227983 107.096 1.03866C106.208 1.84933 106.356 1.51709 105.939 1.55696C105.523 1.59683 105.442 2.4075 105.442 2.48724C105.442 2.56698 104.299 3.2049 105.698 3.29793C106.182 3.53712 106.45 3.8428 105.563 3.63016C104.853 3.46004 104.29 3.40866 104.097 3.40422C103.918 3.42639 103.562 3.57965 103.573 4.01556C103.358 4.10859 102.578 4.28135 102.497 4.70664C102.107 4.70664 101.139 4.89268 101.098 5.31797C100.695 5.41098 99.6863 5.8097 99.6326 6.38114C99.162 6.64693 98.3014 7.04562 98.4493 8.20185C98.4088 8.34803 98.5433 8.41447 98.0727 8.48093C97.6961 8.53408 97.5303 8.8486 97.4945 8.99923C97.154 9.10999 96.677 9.36603 97.4945 9.50424C97.5805 9.59991 97.7995 9.88964 97.8978 10.0225C98.8482 10.0624 100.214 10.2405 98.0727 10.6339C97.9518 10.8066 97.5215 11.4977 97.4273 10.4345C97.3521 9.58398 96.9834 10.0801 96.8088 10.4345L96.365 12.1356C95.8809 12.1932 94.9854 12.6592 95.2757 14.0626C94.8051 14.0626 94.7649 14.036 94.3883 14.2487C94.0872 14.4188 93.5189 13.7437 93.2723 13.3848C92.9852 13.4424 92.3257 13.5922 91.9814 13.7304C91.551 13.9031 90.9191 15.1923 90.8921 15.2587C90.8653 15.3252 90.556 15.8966 90.3273 15.9631C90.0986 16.0295 89.897 16.2953 89.7625 16.0295C89.6281 15.7637 89.5339 15.9896 89.4264 16.0295C89.3187 16.0694 88.0953 16.189 88.0683 15.8036C88.0413 15.4182 86.6294 15.8036 86.885 16.096C86.3068 16.096 85.863 16.096 85.742 16.4415C85.6452 16.7179 84.7244 17.106 84.2761 17.2655L83.4425 17.3851L83.8191 18.2888C83.6354 18.3242 83.2705 18.4483 83.2811 18.6609C83.2946 18.9267 84.5183 19.2988 84.5453 19.5114C83.7786 19.6178 83.2273 19.631 83.9938 20.4018C83.2811 20.3354 82.4474 19.9766 81.9769 21.1461C81.3449 20.8271 80.4573 20.2025 81.4253 22.1029C80.6994 22.6611 80.6724 23.113 79.8925 22.1029C79.2685 21.2949 79.014 20.455 78.9647 20.1361C78.4985 19.7064 77.4935 19.0675 77.2032 19.95C77.015 20.1759 76.5442 19.9367 76.6519 19.6443C76.7594 19.352 74.6348 20.0563 76.0737 20.774C76.1946 20.9334 76.1409 21.3321 75.4684 21.1992C74.8904 21.4916 73.8954 21.7175 73.6397 20.8803C73.1557 20.9547 72.1562 21.0176 71.7168 21.0398C71.7215 21.1372 71.6871 21.3188 71.5151 21.2657C71.2999 21.1992 71.2729 20.5347 70.8429 21.2657C70.4986 21.8504 70.0269 22.165 69.8343 22.2491C69.3098 22.3732 68.4788 22.4192 69.3503 21.6112C69.5115 21.0796 70.4126 19.9721 70.8429 19.4849C71.0669 19.321 71.3807 18.8496 70.8429 18.2755C70.7754 17.704 70.7487 16.8668 69.3368 16.7472C68.92 16.6674 67.6963 17.8768 68.4492 16.1624C68.0729 15.7371 66.6475 15.1258 66.1094 16.1093C65.5717 17.0927 65.9078 16.375 65.6656 17.292C65.2623 17.3452 64.711 16.8933 64.6033 18.2223C64.3749 18.2223 63.9176 18.5147 63.9581 17.3585C63.6784 17.1352 63.5278 17.1414 63.4873 17.1724C63.5859 17.2832 63.7535 17.5233 63.6352 17.5977C63.4873 17.6907 62.8553 17.4249 62.6672 17.9565C62.4787 18.4881 62.4385 18.2223 62.3443 18.5413C61.8602 18.5413 60.5693 18.5944 60.2332 19.352C59.6279 19.126 59.534 19.2456 59.2783 19.445C59.023 19.6443 57.9472 19.3254 58.9827 20.5347C59.1304 20.7872 59.1844 20.9201 58.7943 20.9069C58.4823 20.8962 57.5706 20.9024 57.1537 20.9069C56.8626 20.7164 56.2315 20.5374 56.0377 21.3454C55.6209 21.3454 54.1955 21.2923 55.6746 21.9701L56.1857 23.5914C56.3738 23.5692 56.7155 23.5781 56.5755 23.7907C56.4008 24.0565 56.1587 23.9236 56.0377 23.9502C55.9409 23.9715 55.6658 23.0377 55.5402 22.5681C55.352 22.5902 54.9675 22.5947 54.9352 22.4352C54.8947 22.2358 55.2443 21.9701 54.7468 21.9701C54.2492 21.9701 54.1955 21.9036 53.9804 22.1295C53.7652 22.3555 54.2897 22.3023 53.9804 22.5016C53.671 22.701 53.1869 22.289 53.1869 22.7541C53.1869 23.2193 53.7652 23.1528 53.2947 23.4718C52.8238 23.7907 52.7836 23.9901 52.7566 23.5914C52.7299 23.1927 53.2947 22.2093 53.2947 22.1295C53.2947 22.0498 53.6173 20.7474 53.4021 20.6411C53.1869 20.5347 53.1062 19.8703 52.9316 21.2657C52.7566 22.6611 51.7348 22.3023 52.2861 21.1726C52.1919 20.7607 51.264 20.3753 52.0979 19.857C52.9316 19.3387 51.318 18.94 51.3852 19.7374C50.9414 19.857 50.4169 19.7241 50.5246 20.5347C50.2331 20.4816 49.6693 20.5347 49.7447 21.1726C48.7449 21.4783 47.031 22.3103 48.1714 23.1927C47.508 23.5338 46.5094 24.2612 47.8218 24.4419C47.6694 24.721 47.4452 25.3988 47.768 25.8772H47.1358L46.3829 24.1761H46.0198C46.1991 24.5571 46.4178 25.3377 45.8583 25.4121C45.2991 25.4865 45.3385 24.4862 45.428 23.9768L46.0198 23.8306C46.1768 23.5161 46.3371 22.8737 45.7239 22.8206C45.3655 22.4308 44.6267 21.6963 44.5407 21.877L44.3657 20.774C44.209 20.5613 43.8817 20.3806 43.828 21.3587C43.9938 21.6245 44.2556 22.2226 43.9759 22.4883C44.1326 22.7586 44.2583 23.2777 43.5054 23.1927C42.9377 23.5117 42.0729 23.9024 43.1555 22.9136C43.2902 22.7719 43.3654 22.4883 42.5907 22.4883C42.4654 22.2669 42.0988 21.9434 41.6362 22.4219C41.6003 22.1428 41.2866 21.675 40.3182 22.0365C39.9865 21.9833 39.4981 21.7999 40.1973 21.4916C40.5154 21.279 40.8615 20.8059 39.6997 20.6145L38.5567 20.2291L37.0239 20.3088C36.831 20.2158 36.2898 20.1467 35.6657 20.6145C35.2263 20.4639 34.4663 20.043 34.9395 19.5646C35.5313 18.9666 34.953 18.7672 36.1497 19.2058C37.1072 19.5566 36.5487 18.0053 36.1497 17.1857C36.0737 16.9066 35.87 16.593 35.6657 17.5711C35.482 17.9034 34.9827 18.5705 34.4555 18.5812L34.2538 19.3653C33.94 19.7462 33.2317 20.1759 32.9091 18.847C32.1471 18.5678 30.5315 18.2489 30.1658 19.2058C30.027 19.5114 29.6603 19.9048 29.3054 19.033C28.9503 18.1612 29.0857 17.6952 29.1978 17.5711C28.9826 17.323 28.4985 17.013 28.2834 17.7572ZM3.80998 33.4524L3.28556 34.1168C2.96285 34.1789 2.52447 34.4597 3.35281 35.0872C3.56347 35.158 3.94985 35.4457 3.80998 36.0306C3.94445 36.2476 4.42317 36.5887 5.26226 36.2165C5.36535 36.1858 5.56886 36.0013 5.55808 35.5122L7.49443 36.3628L6.58005 35.2464L6.91623 35.0074L5.10091 34.0106L3.80998 33.4524ZM7.52135 14.1955C7.69614 14.7759 8.09147 15.9896 8.27437 16.2023C8.50295 16.4681 9.39044 16.2687 9.4308 16.1093C9.47113 15.9498 9.51147 15.6574 9.4308 14.9929C9.35011 14.3284 9.08118 14.4214 8.82569 14.6075L8.27437 13.531C8.02335 13.6285 7.52135 13.85 7.52135 13.9563C7.52135 14.0626 7.52135 14.1601 7.52135 14.1955ZM29.4129 13.2121C29.3009 12.9862 29.0176 12.5184 28.7809 12.4546C28.4851 12.3748 28.1355 11.4578 29.1574 11.5376C30.1793 11.6173 30.5961 10.2086 30.5829 10.1156C30.5694 10.0225 31.2551 9.66371 32.1829 10.1156C32.9253 10.477 33.353 10.4611 33.4739 10.4079C33.6712 10.594 34.0199 11.0538 33.837 11.4047C33.6541 11.7555 33.6979 11.5951 33.7428 11.4711C33.4155 11.511 32.9036 11.7157 33.4739 12.2154C34.1866 12.84 33.9309 15.0726 33.837 15.0726C33.7616 15.0726 33.8863 15.6574 33.9579 15.9498C33.9444 16.5522 33.7158 17.7572 32.9091 17.7572C31.9006 17.7572 31.6584 18.2223 31.1207 17.7572C30.5829 17.292 30.3945 16.6674 30.4887 16.2156C30.5638 15.8541 30.2242 15.6928 30.0449 15.6574C30.0046 15.5024 29.948 15.0859 30.0449 14.6607C30.1658 14.1291 29.3859 14.5809 29.8702 13.6905C30.2574 12.9782 29.7267 13.0748 29.4129 13.2121ZM37.9784 18.847L38.7046 18.2888C38.9421 18.2755 39.4173 18.3446 39.4173 18.7273C39.4173 19.2058 39.3636 19.3653 39.1887 19.3653C39.014 19.3653 38.0862 19.2058 38.1264 19.2058C38.1587 19.2058 38.0413 18.9666 37.9784 18.847ZM42.2951 16.8535C42.815 17.1193 43.6019 17.7439 42.5907 18.116C42.4296 18.5235 42.3166 19.3121 43.1555 19.2058C43.3618 19.7507 43.8145 20.5135 43.9759 19.2058C44.1373 17.8981 45.2983 16.8446 45.8583 16.4814L48.4804 15.2587H50.8472L53.1869 14.86C53.7338 14.3284 54.3191 13.4088 52.2861 13.9829C51.8065 14.1379 50.8472 14.2992 50.8472 13.7038C49.8565 13.4336 47.8109 13.1483 47.5529 14.1689C46.7997 14.231 45.2883 14.5677 45.2669 15.4182L43.9759 15.684C43.9357 15.8257 43.7848 16.1837 43.5054 16.4814C43.1555 16.8535 42.9538 15.1258 42.2951 16.8535ZM49.7849 4.73321C49.6549 4.83953 49.5401 5.08673 50.121 5.22494C50.8472 5.39769 51.264 5.31797 50.8472 5.02558C50.5137 4.7917 50.0001 4.73321 49.7849 4.73321ZM50.2554 5.96916C50.3588 5.82298 50.6696 5.5625 51.0894 5.69009C51.6136 5.84956 51.7616 5.6768 51.4255 5.96916C51.1566 6.20307 50.6499 6.16408 50.4304 6.11535L50.2554 5.96916ZM54.1283 7.36459C53.8054 7.37787 53.2113 7.56128 53.4156 8.18856C53.671 8.97265 53.7787 8.45436 53.8729 8.32146C53.9669 8.18856 54.5451 7.57723 54.2762 7.36459C54.0611 7.19447 54.0881 7.29371 54.1283 7.36459ZM54.9352 7.72341C54.7782 7.83415 54.4644 8.08224 54.4644 8.18856C54.4644 8.29486 54.9217 8.23286 55.1504 8.18856C55.2763 8.08224 55.4102 7.84035 54.9352 7.72341ZM52.555 6.46089C52.4563 6.5805 52.3586 6.91008 52.7566 7.27155C53.1547 7.63305 53.066 7.09436 52.9718 6.77983C52.9718 6.63808 52.8884 6.37583 52.555 6.46089ZM53.2677 6.11535C53.2454 6.37229 53.2624 6.86488 53.5098 6.77983C53.7573 6.69477 53.7743 6.46089 53.7517 6.35457L53.2677 6.11535ZM51.3045 6.89944C51.2238 6.93045 51.0867 7.02969 51.1833 7.17854C51.3045 7.36459 51.8021 7.2184 51.7616 7.05893C51.7293 6.93135 51.4434 6.89944 51.3045 6.89944ZM52.6357 7.80316C52.4922 7.75443 52.2054 7.68619 52.2054 7.80316C52.2054 7.94935 52.4607 8.17525 52.7566 8.13539C53.0525 8.09553 53.1332 7.68355 52.6357 7.80316ZM65.0204 15.2853C65.2667 15.2853 65.7947 15.2135 65.9348 14.9265C66.3604 14.9043 67.2122 14.7936 67.2122 14.5278C67.2122 14.1955 67.5753 13.5045 66.2439 13.4114C66.3472 12.9064 66.3756 12.1994 65.6656 13.4114C65.5447 13.912 65.2461 14.9876 65.0204 15.2853ZM63.4873 13.4114C63.7967 13.5576 64.4876 13.8713 64.7782 13.9563C65.1413 14.0626 65.7061 13.7304 65.0204 13.3184C65.5538 12.5919 66.2521 11.4206 64.7782 12.5476C64.5361 12.5963 64.1624 12.5343 64.6033 11.8964C65.0445 11.2585 64.2493 11.8167 63.7967 12.1755C63.7697 11.9806 63.8046 11.5535 64.1598 11.4047C64.6033 11.2186 65.0336 9.65042 63.7967 10.3946C63.6264 10.3016 63.2533 10.2937 63.1242 11.006C62.6358 11.5199 61.9195 12.521 62.963 12.4147L63.4873 13.4114ZM82.7568 13.0526C83.0166 13.2963 83.4507 13.8101 83.1064 13.9164C82.6761 14.0493 81.5733 13.6905 82.0843 13.1191C82.4932 12.6619 82.7031 12.8843 82.7568 13.0526ZM83.2811 15.8036C83.1601 16.1403 82.945 16.8933 83.0527 17.2123C83.1601 17.5313 83.5097 17.0883 83.6712 16.8269C83.7877 16.7516 84.061 16.609 84.2224 16.6408C84.4241 16.6807 84.7267 16.1225 84.0845 16.0029C83.4425 15.8833 83.6039 15.5112 83.2811 15.8036ZM81.0355 14.0493C80.4617 13.5576 79.4543 13.0287 80.0135 14.8467C80.5729 16.6648 81.6273 15.6042 82.0843 14.8467C82.6268 14.6518 83.3994 14.2567 82.1515 14.2354C81.8962 14.0981 81.4148 13.7065 81.5331 13.2387C81.681 12.6539 80.3631 13.0925 81.3179 14.0493H81.0355ZM97.8711 3.11186C97.9069 2.75304 98.0997 2.27461 98.5838 3.23147C99.0678 4.18834 98.5166 4.37439 98.1805 4.34781C98.3642 4.68448 98.4896 5.24353 97.5215 4.78636L97.4543 3.3245L97.8711 3.11186ZM102.363 41.1738C101.901 41.085 101.19 40.8257 102.04 40.4958C102.241 40.4604 102.661 40.5251 102.726 41.0673L104.339 42.7685L106.504 44.7751C107.23 45.3246 108.782 46.402 109.18 46.317C109.678 46.2106 108.535 46.9416 107.903 46.317C107.397 45.8172 107.369 46.6756 107.419 47.1673C107.553 47.8053 108.056 49.1371 108.992 49.3602C109.09 49.5906 109.425 49.9822 109.973 49.7057C110.404 49.9715 111.135 50.5485 110.619 50.7292C110.103 50.9099 109.973 50.6361 109.973 50.4765L109.113 50.4101L109.53 51.5397C109.297 51.6195 108.79 51.6619 108.629 51.1942C108.427 50.6094 107.782 50.7025 108.131 50.2906C108.411 49.961 108.185 50.1531 108.037 50.2906C107.732 49.5595 107.042 48.2094 106.719 48.6558L104.796 45.174C104.227 44.8419 103.016 43.877 102.726 42.6754C102.309 42.6089 101.682 42.3699 102.511 41.9446L102.363 41.1738ZM115.312 36.4692C115.42 36.7039 115.613 37.256 115.527 37.5855H115.877C115.769 37.435 115.619 37.0486 115.877 36.7083C115.814 36.2876 115.613 35.6506 115.312 36.4692ZM115.716 38.6354C115.809 38.8304 116.06 39.1802 116.307 39.0207C116.554 38.8614 116.204 38.4849 115.998 38.3166L115.716 38.6354ZM115.877 39.6189C115.926 39.7961 116.081 40.0972 116.307 39.8846C116.533 39.672 116.195 39.5214 115.998 39.4727L115.877 39.6189ZM116.563 42.609C116.648 42.7775 116.874 43.0397 117.1 42.7418C117.326 42.4442 116.836 42.5292 116.563 42.609ZM116.643 43.3534C116.567 43.4508 116.514 43.6963 116.912 43.8982C117.31 44.1001 117.203 43.5126 117.1 43.1938C116.975 43.092 116.708 42.9811 116.643 43.3534ZM116.2 47.1409C116.078 47.0258 115.909 46.657 116.2 46.1044C116.177 45.7896 116.218 45.2457 116.563 45.586C116.621 45.9004 116.684 46.5906 116.468 46.8352C116.43 47.1276 116.322 47.5981 116.2 47.1409ZM115.406 50.2906C115.191 50.1223 114.89 49.6022 115.406 48.8685C115.339 48.6161 115.304 48.002 115.702 47.5662C116.001 47.0559 115.826 48.1421 115.702 48.749C115.733 48.8508 115.718 49.0971 115.406 49.2671L115.5 50.2906H115.406ZM114.747 51.4733C114.837 51.7391 114.941 52.2415 114.64 52.1246C114.339 52.0077 114.371 51.4379 114.425 51.1675C114.429 50.8087 114.535 50.1551 114.922 50.4101C115.406 50.7292 115.016 51.1145 114.949 51.1145C114.882 51.1145 114.572 51.1942 114.747 51.4733Z" stroke="white"/>
<path fill-rule="evenodd" clip-rule="evenodd" d="M102.532 14.5058C103.52 14.5058 104.32 13.7144 104.32 12.7382C104.32 11.7621 103.52 10.9707 102.532 10.9707C101.544 10.9707 100.743 11.7621 100.743 12.7382C100.743 13.0831 100.844 13.4049 101.016 13.6768C99.4504 15.5032 97.4456 18.7241 96.6252 22.9585C95.6142 22.9782 94.7692 23.6659 94.5232 24.5934C89.8516 24.5071 83.8239 25.2176 77.6574 27.3598C77.3345 26.9614 76.8382 26.7061 76.2813 26.7061C75.9077 26.7061 75.561 26.8213 75.2757 27.0176C75.207 26.9599 75.1383 26.9028 75.0696 26.846C70.1368 22.7823 64.658 21.0136 60.6322 20.5802C60.5398 19.8085 59.8755 19.2101 59.0701 19.2101C58.2012 19.2101 57.4967 19.9062 57.4967 20.765C57.4967 21.2241 57.6981 21.6368 58.0183 21.9214C57.2117 24.4993 56.2254 28.2744 55.5274 32.4298C52.0083 33.0071 48.8167 33.9076 45.9935 34.9853C38.8278 28.676 32.4135 25.8829 26.9967 25.1892C26.4942 25.1249 26.0005 25.0786 25.5158 25.0493C25.2997 24.4189 24.7943 23.9203 24.1558 23.708C25.5463 22.1944 27.1823 20.869 29.097 19.8752L28.8018 19.3197C26.7327 20.3937 24.9837 21.8365 23.5138 23.4757C22.8997 21.4354 21.6597 19.8603 20.5094 18.8116C20.8512 18.4333 21.059 17.9342 21.059 17.3871C21.059 16.2054 20.0897 15.2475 18.894 15.2475C17.6983 15.2475 16.7291 16.2054 16.7291 17.3871C16.7291 18.5688 17.6983 19.5268 18.894 19.5268C19.3054 19.5268 19.69 19.4133 20.0176 19.2164C21.1158 20.2019 22.3221 21.7094 22.9089 23.668C22.1499 23.8668 21.5545 24.4627 21.3642 25.217C17.5234 25.7791 14.4585 27.4208 12.3179 29.3031C12.0463 29.0927 11.7042 28.9675 11.3325 28.9675C10.4487 28.9675 9.73226 29.6756 9.73226 30.549C9.73226 31.4225 10.4487 32.1304 11.3325 32.1304C12.2162 32.1304 12.9326 31.4225 12.9326 30.549C12.9326 30.2697 12.8594 30.0071 12.7308 29.7794C14.7547 27.9969 17.6563 26.4261 21.3036 25.861C21.3119 26.0038 21.3344 26.1429 21.3697 26.2769C20.7049 27.2911 20.1217 28.3382 19.6125 29.3872C18.0284 32.6508 17.1514 35.9534 16.7699 38.396C16.1757 38.4947 15.6926 38.9171 15.5125 39.4735C13.1783 38.9365 11.0066 39.3397 9.19882 40.1068C7.89037 40.662 6.76656 41.4099 5.89914 42.1386C5.70969 42.0606 5.50181 42.0177 5.28378 42.0177C4.40001 42.0177 3.68359 42.7255 3.68359 43.599C3.68359 44.4725 4.40001 45.1807 5.28378 45.1807C6.16752 45.1807 6.88394 44.4725 6.88394 43.599C6.88394 43.1758 6.71578 42.7917 6.44191 42.5077C7.24525 41.8517 8.26815 41.1845 9.44927 40.6832C11.1796 39.9489 13.2377 39.5753 15.4435 40.1021C15.5182 40.9069 16.203 41.5373 17.0369 41.5373C17.9206 41.5373 18.6371 40.8291 18.6371 39.9556C18.6371 39.2089 18.1133 38.5831 17.4091 38.4172C17.7877 36.0395 18.6454 32.8301 20.1848 29.6587C20.6278 28.746 21.1264 27.8382 21.6853 26.9551C22.0762 27.5116 22.7275 27.876 23.4649 27.876C24.1696 27.876 24.7957 27.5433 25.191 27.0281C26.9188 27.9346 28.9342 29.3495 30.6282 31.2781C32.6759 33.6088 34.249 36.6821 34.2906 40.5181C33.6795 40.7406 33.2436 41.3214 33.2436 42.0026C33.2436 42.8758 33.9601 43.5839 34.8439 43.5839C35.5966 43.5839 36.2277 43.0705 36.3985 42.3786C37.3713 42.5062 38.4855 42.841 39.529 43.5062C40.7918 44.3112 41.9665 45.6094 42.6622 47.6445C41.9102 47.9952 41.39 48.7518 41.39 49.6282C41.39 50.8394 42.3833 51.8211 43.6085 51.8211C44.834 51.8211 45.8273 50.8394 45.8273 49.6282C45.8273 49.2728 45.7419 48.9372 45.5899 48.6404C47.5507 47.5493 50.0974 46.4803 53.1243 45.6962C53.2581 46.2256 53.5866 46.679 54.0304 46.9776C52.1853 50.3488 50.6639 54.1921 49.5772 58.5648L50.1939 58.7142C51.2694 54.385 52.7758 50.5838 54.6019 47.2526C54.8147 47.3196 55.0416 47.3558 55.277 47.3558C56.5022 47.3558 57.4955 46.3741 57.4955 45.163C57.4955 45.0524 57.4873 44.9436 57.4715 44.8372C61.3329 44.3016 65.7406 44.2738 70.5436 45.127L70.5431 45.1342L70.5428 45.1415C70.5425 45.154 70.5422 45.1664 70.5422 45.1789C70.5422 45.7237 70.9784 46.1676 71.5243 46.1882C71.9397 49.9032 72.0034 54.0285 71.5766 58.575H71.5643C70.9998 58.575 70.5422 59.027 70.5422 59.5848C70.5422 60.1427 70.9998 60.595 71.5643 60.595C72.1284 60.595 72.586 60.1427 72.586 59.5848C72.586 59.2619 72.4325 58.9742 72.1939 58.7894C72.645 54.0961 72.579 49.8403 72.1428 46.0118C72.3166 45.8934 72.4513 45.7237 72.5247 45.5247C76.4718 46.4092 80.6614 47.896 85.0145 50.1791C84.9581 50.3497 84.9276 50.5316 84.9276 50.7207C84.9276 51.6821 85.7163 52.4616 86.6891 52.4616C87.6622 52.4616 88.4509 51.6821 88.4509 50.7207C88.4509 49.7591 87.6622 48.9798 86.6891 48.9798C86.6506 48.9798 86.6125 48.981 86.5743 48.9833C85.7718 43.4363 84.1512 38.8921 82.046 35.1933C86.0172 36.4297 90.161 38.1178 94.4527 40.3455C94.4522 40.3563 94.4516 40.3667 94.4513 40.3774C94.4513 40.3835 94.451 40.3896 94.451 40.3957V40.4091C94.451 41.0183 94.9506 41.512 95.567 41.512C96.1834 41.512 96.683 41.0183 96.683 40.4091C96.683 39.7998 96.1834 39.3061 95.567 39.3061C95.2004 39.3061 94.8748 39.4807 94.6714 39.7505C90.1343 37.401 85.7589 35.6488 81.5746 34.392C80.4198 32.4933 79.1353 30.8296 77.7707 29.3773C77.943 29.1084 78.0431 28.7892 78.0431 28.4471C78.0431 28.2632 78.0141 28.086 77.9606 27.9196C83.9915 25.8382 89.8816 25.1421 94.4519 25.2196C94.4886 26.3989 95.4675 27.3437 96.6695 27.3437C97.895 27.3437 98.8883 26.362 98.8883 25.1509C98.8883 24.1407 98.197 23.2901 97.2566 23.0357C98.0509 18.982 99.9617 15.8972 101.448 14.144C101.748 14.371 102.124 14.5058 102.532 14.5058ZM55.4206 33.0837C52.1518 33.634 49.1745 34.466 46.523 35.4567C48.9605 37.651 51.4837 40.2521 54.0826 43.3147C54.2576 43.2039 54.4496 43.1169 54.6536 43.058C54.5761 39.7839 54.9045 36.3322 55.4206 33.0837ZM55.2864 42.9704C55.2148 39.6916 55.5544 36.229 56.0804 32.9769C59.4939 32.4484 63.2156 32.2282 67.2085 32.4507C67.2106 32.4762 67.2135 32.5014 67.2176 32.5264C63.2109 35.2139 59.4584 38.7195 56.3367 43.2361C56.0244 43.0681 55.6668 42.9718 55.2864 42.9704ZM56.1887 32.3256C56.8659 28.3607 57.8029 24.755 58.5819 22.2436C58.7357 22.2931 58.8998 22.3199 59.0701 22.3199C59.525 22.3199 59.9348 22.129 60.2222 21.8238C62.4786 23.7002 65.2325 26.9551 67.4959 31.6645C67.4457 31.715 67.4011 31.771 67.3629 31.8307C63.36 31.5992 59.6234 31.8078 56.1887 32.3256ZM39.8733 42.9791C38.723 42.2457 37.4954 41.8822 36.4237 41.7493C36.387 41.5245 36.3025 41.3153 36.1807 41.1329C38.5084 39.2745 41.7786 37.3084 45.8605 35.7103C48.3482 37.9275 50.9325 40.5782 53.6021 43.7249C53.2837 44.0867 53.0832 44.5529 53.0603 45.0646C49.9107 45.8717 47.2604 46.9845 45.2235 48.1246C44.8191 47.7002 44.2452 47.4353 43.6085 47.4353C43.4935 47.4353 43.3802 47.444 43.2695 47.4609C42.5307 45.2874 41.2661 43.8671 39.8733 42.9791ZM34.9241 40.423C35.2214 40.4375 35.4976 40.5323 35.7304 40.6858C38.0558 38.8204 41.2984 36.8556 45.3316 35.2438C38.3355 29.1467 32.1161 26.4774 26.9151 25.8114C26.4795 25.7556 26.0508 25.7139 25.6293 25.6853C25.6297 25.7023 25.6299 25.7193 25.6299 25.7364C25.6299 25.9971 25.5827 26.2469 25.4963 26.478C27.2854 27.4176 29.3602 28.8776 31.1076 30.8667C33.2192 33.2702 34.8577 36.4541 34.9241 40.423ZM74.5198 28.4471C74.5198 28.4891 74.5213 28.5307 74.5242 28.5719C73.4082 29.0495 72.294 29.5775 71.1894 30.1594C70.3819 30.5847 69.5797 31.039 68.7851 31.5235C68.6248 31.4199 68.4332 31.3599 68.2274 31.3599C68.1699 31.3599 68.1135 31.3645 68.0589 31.3735C65.7371 26.5491 62.8989 23.2081 60.5547 21.2808C60.5635 21.256 60.5718 21.2309 60.5794 21.2055C64.4857 21.6292 69.838 23.3531 74.6631 27.328C74.718 27.3731 74.7726 27.4186 74.8272 27.4643C74.6334 27.744 74.5198 28.0825 74.5198 28.4471ZM56.8454 43.6121C59.9072 39.1761 63.584 35.7323 67.5094 33.0886C67.694 33.2688 67.9477 33.3799 68.2274 33.3799C68.2321 33.3799 68.2368 33.3799 68.2415 33.3796C68.2468 33.3796 68.252 33.3796 68.257 33.3793L68.2691 33.379C69.565 36.4454 70.6373 40.0511 71.2651 44.2129C71.0735 44.2709 70.9056 44.3829 70.7799 44.5314C65.8207 43.6364 61.2686 43.6669 57.2854 44.2297C57.1753 43.9991 57.0259 43.7905 56.8454 43.6121ZM71.4879 30.7132C70.74 31.1072 69.9962 31.5264 69.2589 31.972C72.8658 32.3007 76.6752 32.9885 80.6626 34.1251C79.6373 32.5217 78.5177 31.0988 77.3386 29.8397C77.0442 30.0585 76.6782 30.1882 76.2813 30.1882C75.576 30.1882 74.9675 29.7782 74.6863 29.1864C73.6158 29.6474 72.5476 30.1551 71.4879 30.7132ZM85.3177 49.6279C85.4883 49.4193 85.7061 49.2505 85.9556 49.1374C85.1249 43.3414 83.3933 38.667 81.1554 34.9226C76.9723 33.6827 72.985 32.9436 69.2228 32.5992C69.1699 32.824 69.0411 33.0201 68.8644 33.1597C70.1876 36.2966 71.2772 39.9809 71.9089 44.228C72.2115 44.335 72.4484 44.5796 72.5423 44.8853C76.5801 45.7786 80.8663 47.2923 85.3177 49.6279Z" fill="white"/>
<path d="M11.0637 80.4712H12.0366V84.3043H10.5637L10.3339 82.1007H4.49609V72.8453H6.65825V80.4312H8.90148V72.8453H11.0637V80.4712ZM19.5105 82.1007H17.4429V78.5748C17.4429 77.3729 17.5331 76.1664 17.7132 74.9555L15.47 82.1007H12.9024V72.8453H14.9565V76.4246C14.9565 77.1458 14.9339 77.7735 14.8889 78.3076C14.8439 78.842 14.7808 79.4028 14.6997 79.9905L16.97 72.8453H19.5105V82.1007ZM30.4243 77.4129C30.4243 78.7573 30.0729 79.768 29.3705 80.4445C28.6767 81.1123 27.7217 81.4729 26.5055 81.5263V82.6214H24.3974V81.5263C23.1812 81.4642 22.2218 81.1036 21.519 80.4445C20.8254 79.7767 20.4785 78.7886 20.4785 77.4797C20.4785 76.1353 20.8254 75.129 21.519 74.4614C22.2218 73.7846 23.1812 73.4197 24.3974 73.3663V72.3379H26.5055V73.3663C27.7217 73.4284 28.6767 73.7936 29.3705 74.4614C30.0729 75.1203 30.4243 76.104 30.4243 77.4129ZM26.3974 80.2043C27.0551 80.1419 27.528 79.8971 27.8163 79.4698C28.1046 79.0335 28.2487 78.3477 28.2487 77.4129C28.2487 76.4959 28.1001 75.8281 27.8028 75.4095C27.5055 74.9822 27.037 74.7417 26.3974 74.6883V80.2043ZM22.6677 77.4797C22.6677 78.3967 22.8119 79.0691 23.1001 79.4965C23.3974 79.9148 23.8659 80.1509 24.5055 80.2043V74.6883C23.8479 74.7507 23.3749 74.9955 23.0866 75.4228C22.8073 75.8504 22.6677 76.536 22.6677 77.4797ZM34.0667 72.8453C35.2649 72.8453 36.1837 73.0991 36.8236 73.6065C37.472 74.1142 37.7963 74.8621 37.7963 75.8504C37.7963 76.8919 37.4811 77.6801 36.8506 78.2142C36.2289 78.7396 35.3685 79.0021 34.2696 79.0021H33.5533V82.1007H31.3912V72.8453H34.0667ZM34.0937 77.453C34.5983 77.453 34.972 77.3329 35.2153 77.0924C35.4587 76.8432 35.5802 76.4336 35.5802 75.8638C35.5802 75.3561 35.4587 74.9822 35.2153 74.7417C34.9811 74.4925 34.6071 74.3677 34.0937 74.3677H33.5533V77.453H34.0937ZM42.2551 72.6181C43.4894 72.6181 44.4399 73.0324 45.1065 73.8603C45.7731 74.6796 46.1065 75.8815 46.1065 77.4663C46.1065 79.0335 45.7687 80.2353 45.093 81.0723C44.4264 81.9092 43.4803 82.3279 42.2551 82.3279C41.0299 82.3279 40.0794 81.9136 39.4037 81.0856C38.7371 80.2577 38.4037 79.0511 38.4037 77.4663C38.4037 75.9082 38.7371 74.7106 39.4037 73.8737C40.0794 73.0367 41.0299 72.6181 42.2551 72.6181ZM42.2551 74.1809C41.7056 74.1809 41.3002 74.4348 41.039 74.9421C40.7866 75.4495 40.6606 76.2911 40.6606 77.4663C40.6606 78.6595 40.7913 79.5098 41.0525 80.0172C41.3137 80.5159 41.7147 80.7651 42.2551 80.7651C42.8046 80.7651 43.2056 80.5159 43.4577 80.0172C43.719 79.5098 43.8499 78.6595 43.8499 77.4663C43.8499 76.2911 43.719 75.4495 43.4577 74.9421C43.2056 74.4348 42.8046 74.1809 42.2551 74.1809ZM51.8075 77.1991C52.4022 77.3239 52.8795 77.5554 53.24 77.8936C53.6092 78.2322 53.7942 78.7352 53.7942 79.4028C53.7942 81.2014 52.5373 82.1007 50.0237 82.1007H47.2537V72.8453H49.6994C50.8976 72.8453 51.821 73.0411 52.4697 73.433C53.1184 73.8157 53.4428 74.4078 53.4428 75.2093C53.4428 75.7434 53.2896 76.1797 52.9831 76.518C52.677 76.8475 52.2851 77.0747 51.8075 77.1991ZM49.4158 74.3544V76.558H50.0102C50.8392 76.558 51.2536 76.1797 51.2536 75.4228C51.2536 75.0579 51.1453 74.7907 50.9293 74.6216C50.7129 74.4435 50.3707 74.3544 49.9022 74.3544H49.4158ZM50.0372 80.5516C50.5418 80.5516 50.9246 80.4579 51.1858 80.271C51.4471 80.0839 51.5777 79.759 51.5777 79.296C51.5777 78.4234 51.1004 77.9871 50.1456 77.9871H49.4158V80.5516H50.0372ZM59.2495 82.1007L58.8306 80.0839H56.4524L56.0335 82.1007H53.8441L56.3711 72.8453H58.9659L61.4794 82.1007H59.2495ZM56.7767 78.5481H58.5062L57.6415 74.4078L56.7767 78.5481ZM68.1003 72.8453V82.1007H65.9382V78.7486H65.0329L63.668 82.1007H61.3573L63.1681 78.3613C62.6814 78.1298 62.3122 77.8092 62.06 77.3996C61.8167 76.981 61.6952 76.4513 61.6952 75.8101C61.6952 73.8337 62.8887 72.8453 65.2763 72.8453H68.1003ZM65.9382 77.2525V74.3544H65.3438C64.8662 74.3544 64.5104 74.4791 64.2762 74.7283C64.042 74.9688 63.9248 75.3471 63.9248 75.8638C63.9248 76.3268 64.0376 76.6738 64.2627 76.9053C64.4878 77.1368 64.7943 77.2525 65.1815 77.2525H65.9382ZM75.0559 72.8453C76.2541 72.8453 77.1728 73.0991 77.8124 73.6065C78.4611 74.1142 78.7855 74.8621 78.7855 75.8504C78.7855 76.8919 78.4703 77.6801 77.8395 78.2142C77.218 78.7396 76.3577 79.0021 75.2584 79.0021H74.5422V82.1007H72.38V72.8453H75.0559ZM75.0829 77.453C75.5872 77.453 75.9611 77.3329 76.2045 77.0924C76.4478 76.8432 76.5693 76.4336 76.5693 75.8638C76.5693 75.3561 76.4478 74.9822 76.2045 74.7417C75.9702 74.4925 75.5963 74.3677 75.0829 74.3677H74.5422V77.453H75.0829ZM83.2443 72.6181C84.4786 72.6181 85.429 73.0324 86.0956 73.8603C86.7622 74.6796 87.0954 75.8815 87.0954 77.4663C87.0954 79.0335 86.7578 80.2353 86.0821 81.0723C85.4152 81.9092 84.4695 82.3279 83.2443 82.3279C82.0191 82.3279 81.0686 81.9136 80.3929 81.0856C79.7263 80.2577 79.3928 79.0511 79.3928 77.4663C79.3928 75.9082 79.7263 74.7106 80.3929 73.8737C81.0686 73.0367 82.0191 72.6181 83.2443 72.6181ZM83.2443 74.1809C82.6948 74.1809 82.2894 74.4348 82.0279 74.9421C81.7757 75.4495 81.6495 76.2911 81.6495 77.4663C81.6495 78.6595 81.7801 79.5098 82.0417 80.0172C82.3029 80.5159 82.7036 80.7651 83.2443 80.7651C83.7938 80.7651 84.1947 80.5159 84.4469 80.0172C84.7081 79.5098 84.8387 78.6595 84.8387 77.4663C84.8387 76.2911 84.7081 75.4495 84.4469 74.9421C84.1947 74.4348 83.7938 74.1809 83.2443 74.1809ZM91.7831 72.6181C92.3238 72.6181 92.8058 72.7028 93.2291 72.872C93.6526 73.0411 94.0533 73.2949 94.4317 73.6332L93.4049 74.822C93.1615 74.6172 92.9182 74.4658 92.6752 74.3677C92.4409 74.261 92.1885 74.2076 91.9181 74.2076C90.7472 74.2076 90.1616 75.2894 90.1616 77.453C90.1616 79.5989 90.7517 80.6717 91.9317 80.6717C92.2381 80.6717 92.5084 80.6139 92.7427 80.4982C92.9857 80.3734 93.2561 80.1953 93.5534 79.9638L94.5265 81.139C94.193 81.4863 93.7921 81.7711 93.3236 81.9939C92.8642 82.2165 92.3552 82.3279 91.7966 82.3279C91.0129 82.3279 90.3281 82.1451 89.7425 81.7801C89.166 81.4152 88.7157 80.8675 88.3914 80.1376C88.067 79.4074 87.9047 78.5124 87.9047 77.453C87.9047 76.4202 88.0714 75.5432 88.4049 74.822C88.738 74.0919 89.193 73.5441 89.7695 73.1792C90.3551 72.8052 91.0264 72.6181 91.7831 72.6181ZM98.606 72.6181C99.1464 72.6181 99.6284 72.7028 100.052 72.872C100.475 73.0411 100.876 73.2949 101.255 73.6332L100.228 74.822C99.9837 74.6172 99.7411 74.4658 99.4977 74.3677C99.2635 74.261 99.0114 74.2076 98.741 74.2076C97.5698 74.2076 96.9842 75.2894 96.9842 77.453C96.9842 79.5989 97.5742 80.6717 98.7545 80.6717C99.0607 80.6717 99.331 80.6139 99.5652 80.4982C99.8087 80.3734 100.079 80.1953 100.376 79.9638L101.349 81.139C101.016 81.4863 100.615 81.7711 100.147 81.9939C99.6868 82.2165 99.1778 82.3279 98.6195 82.3279C97.8355 82.3279 97.1509 82.1451 96.5653 81.7801C95.9889 81.4152 95.5383 80.8675 95.2139 80.1376C94.8896 79.4074 94.7275 78.5124 94.7275 77.453C94.7275 76.4202 94.8943 75.5432 95.2274 74.822C95.5609 74.0919 96.0159 73.5441 96.5924 73.1792C97.178 72.8052 97.849 72.6181 98.606 72.6181ZM108.76 82.1007H106.693V78.5748C106.693 77.3729 106.783 76.1664 106.963 74.9555L104.72 82.1007H102.152V72.8453H104.206V76.4246C104.206 77.1458 104.184 77.7735 104.139 78.3076C104.094 78.842 104.031 79.4028 103.949 79.9905L106.22 72.8453H108.76V82.1007ZM116.269 72.8453V82.1007H114.107V78.7486H113.201L111.836 82.1007H109.526L111.336 78.3613C110.85 78.1298 110.481 77.8092 110.228 77.3996C109.985 76.981 109.864 76.4513 109.864 75.8101C109.864 73.8337 111.057 72.8453 113.445 72.8453H116.269ZM114.107 77.2525V74.3544H113.512C113.035 74.3544 112.679 74.4791 112.445 74.7283C112.21 74.9688 112.093 75.3471 112.093 75.8638C112.093 76.3268 112.206 76.6738 112.431 76.9053C112.656 77.1368 112.963 77.2525 113.35 77.2525H114.107Z" fill="white"/>
</g>
</svg>