<svg xmlns="http://www.w3.org/2000/svg" width="164" height="127" viewBox="0 0 164 127" fill="none">
<path d="M2.048 16.112C1.83467 16.112 1.66933 16.0533 1.552 15.936C1.44533 15.808 1.392 15.6373 1.392 15.424V5.44C1.392 5.20533 1.45067 5.02933 1.568 4.912C1.696 4.784 1.87733 4.72 2.112 4.72H9.984C10.208 4.72 10.384 4.784 10.512 4.912C10.64 5.02933 10.704 5.20533 10.704 5.44V15.424C10.704 15.6373 10.6453 15.808 10.528 15.936C10.4107 16.0533 10.2507 16.112 10.048 16.112C9.83467 16.112 9.66933 16.0533 9.552 15.936C9.43467 15.808 9.376 15.6373 9.376 15.424V5.856H2.704V15.424C2.704 15.6373 2.65067 15.808 2.544 15.936C2.43733 16.0533 2.272 16.112 2.048 16.112ZM14.0141 18.992C13.8008 18.992 13.6408 18.9333 13.5341 18.816C13.4275 18.7093 13.3741 18.5493 13.3741 18.336V8.768C13.3741 8.55467 13.4275 8.39467 13.5341 8.288C13.6408 8.17067 13.7955 8.112 13.9981 8.112C14.2115 8.112 14.3715 8.17067 14.4781 8.288C14.5955 8.39467 14.6541 8.55467 14.6541 8.768V10.288L14.4781 10.064C14.6488 9.456 14.9848 8.976 15.4861 8.624C15.9981 8.26133 16.6061 8.08 17.3101 8.08C18.0035 8.08 18.6061 8.24533 19.1181 8.576C19.6408 8.896 20.0408 9.36 20.3181 9.968C20.6061 10.5653 20.7501 11.28 20.7501 12.112C20.7501 12.9333 20.6061 13.648 20.3181 14.256C20.0408 14.8533 19.6461 15.3173 19.1341 15.648C18.6221 15.9787 18.0141 16.144 17.3101 16.144C16.6061 16.144 16.0035 15.968 15.5021 15.616C15.0008 15.2533 14.6595 14.7733 14.4781 14.176H14.6701V18.336C14.6701 18.5493 14.6115 18.7093 14.4941 18.816C14.3768 18.9333 14.2168 18.992 14.0141 18.992ZM17.0381 15.104C17.5288 15.104 17.9501 14.9867 18.3021 14.752C18.6648 14.5173 18.9421 14.176 19.1341 13.728C19.3368 13.28 19.4381 12.7413 19.4381 12.112C19.4381 11.1413 19.2195 10.4 18.7821 9.888C18.3555 9.376 17.7741 9.12 17.0381 9.12C16.5581 9.12 16.1368 9.23733 15.7741 9.472C15.4115 9.696 15.1288 10.032 14.9261 10.48C14.7341 10.9173 14.6381 11.4613 14.6381 12.112C14.6381 13.072 14.8568 13.8133 15.2941 14.336C15.7315 14.848 16.3128 15.104 17.0381 15.104ZM23.4345 16.112C23.3172 16.112 23.2105 16.0853 23.1145 16.032C23.0292 15.9893 22.9598 15.9147 22.9065 15.808C22.8638 15.7013 22.8425 15.568 22.8425 15.408V8.752C22.8425 8.53867 22.8958 8.37867 23.0025 8.272C23.1092 8.16533 23.2532 8.112 23.4345 8.112C23.6265 8.112 23.7705 8.16533 23.8665 8.272C23.9732 8.37867 24.0265 8.53867 24.0265 8.752V14.768H23.6265L28.2825 8.528C28.3678 8.41067 28.4692 8.31467 28.5865 8.24C28.7038 8.15467 28.8532 8.112 29.0345 8.112C29.1625 8.112 29.2692 8.13333 29.3545 8.176C29.4398 8.21867 29.5038 8.29333 29.5465 8.4C29.5998 8.496 29.6265 8.62933 29.6265 8.8V15.472C29.6265 15.6747 29.5732 15.8347 29.4665 15.952C29.3705 16.0587 29.2265 16.112 29.0345 16.112C28.8425 16.112 28.6932 16.0587 28.5865 15.952C28.4905 15.8347 28.4425 15.6747 28.4425 15.472V9.44H28.8425L24.1705 15.696C24.0958 15.8027 23.9998 15.8987 23.8825 15.984C23.7758 16.0693 23.6265 16.112 23.4345 16.112ZM36.9673 16.112C36.7539 16.112 36.5886 16.0533 36.4713 15.936C36.3646 15.8187 36.3113 15.6533 36.3113 15.44V8.96C36.3113 8.71467 36.3753 8.53333 36.5033 8.416C36.6313 8.288 36.8126 8.224 37.0473 8.224H42.3593C42.5939 8.224 42.7753 8.288 42.9033 8.416C43.0313 8.53333 43.0953 8.71467 43.0953 8.96V15.44C43.0953 15.6533 43.0366 15.8187 42.9193 15.936C42.8019 16.0533 42.6419 16.112 42.4393 16.112C42.2366 16.112 42.0766 16.0533 41.9593 15.936C41.8526 15.8187 41.7993 15.6533 41.7993 15.44V9.264H37.6073V15.44C37.6073 15.6533 37.5539 15.8187 37.4473 15.936C37.3406 16.0533 37.1806 16.112 36.9673 16.112ZM48.903 16.144C48.1457 16.144 47.4897 15.9787 46.935 15.648C46.3803 15.3173 45.9483 14.8533 45.639 14.256C45.3403 13.648 45.191 12.9333 45.191 12.112C45.191 11.4933 45.2763 10.9387 45.447 10.448C45.6177 9.94667 45.8683 9.52 46.199 9.168C46.5297 8.816 46.919 8.54933 47.367 8.368C47.8257 8.176 48.3377 8.08 48.903 8.08C49.6603 8.08 50.3163 8.24533 50.871 8.576C51.4257 8.90667 51.8523 9.376 52.151 9.984C52.4603 10.5813 52.615 11.2907 52.615 12.112C52.615 12.7307 52.5297 13.2853 52.359 13.776C52.1883 14.2667 51.9377 14.6933 51.607 15.056C51.2763 15.408 50.8817 15.68 50.423 15.872C49.975 16.0533 49.4683 16.144 48.903 16.144ZM48.903 15.104C49.383 15.104 49.8043 14.9867 50.167 14.752C50.5297 14.5173 50.807 14.176 50.999 13.728C51.2017 13.28 51.303 12.7413 51.303 12.112C51.303 11.1413 51.0843 10.4 50.647 9.888C50.2203 9.376 49.639 9.12 48.903 9.12C48.4123 9.12 47.9857 9.23733 47.623 9.472C47.271 9.696 46.9937 10.032 46.791 10.48C46.599 10.9173 46.503 11.4613 46.503 12.112C46.503 13.072 46.7217 13.8133 47.159 14.336C47.5963 14.848 48.1777 15.104 48.903 15.104ZM54.4295 18.192C54.2482 18.192 54.1095 18.1387 54.0135 18.032C53.9175 17.9253 53.8695 17.776 53.8695 17.584V15.6C53.8695 15.1733 54.0828 14.96 54.5095 14.96H55.2775L54.5095 15.232C54.7975 14.848 55.0268 14.432 55.1975 13.984C55.3788 13.5253 55.5122 13.0133 55.5975 12.448C55.6828 11.8827 55.7255 11.2373 55.7255 10.512V8.96C55.7255 8.71467 55.7895 8.53333 55.9175 8.416C56.0455 8.288 56.2268 8.224 56.4615 8.224H60.4935C60.7388 8.224 60.9202 8.288 61.0375 8.416C61.1655 8.53333 61.2295 8.71467 61.2295 8.96V15.552L60.6375 14.96H61.8215C62.0242 14.96 62.1788 15.0133 62.2855 15.12C62.4028 15.2267 62.4615 15.3867 62.4615 15.6V17.584C62.4615 17.9893 62.2748 18.192 61.9015 18.192C61.7202 18.192 61.5815 18.1387 61.4855 18.032C61.3895 17.9253 61.3415 17.776 61.3415 17.584V16H54.9735V17.584C54.9735 17.9893 54.7922 18.192 54.4295 18.192ZM55.9335 14.96H59.9975V9.248H56.8775V10.736C56.8775 11.536 56.7975 12.3093 56.6375 13.056C56.4775 13.792 56.2428 14.4267 55.9335 14.96ZM63.8983 18.192C63.7169 18.192 63.5783 18.1387 63.4823 18.032C63.3863 17.9253 63.3383 17.776 63.3383 17.584V15.6C63.3383 15.1733 63.5516 14.96 63.9783 14.96H64.7463L63.9783 15.232C64.2663 14.848 64.4956 14.432 64.6663 13.984C64.8476 13.5253 64.9809 13.0133 65.0663 12.448C65.1516 11.8827 65.1943 11.2373 65.1943 10.512V8.96C65.1943 8.71467 65.2583 8.53333 65.3863 8.416C65.5143 8.288 65.6956 8.224 65.9303 8.224H69.9623C70.2076 8.224 70.3889 8.288 70.5063 8.416C70.6343 8.53333 70.6983 8.71467 70.6983 8.96V15.552L70.1063 14.96H71.2903C71.4929 14.96 71.6476 15.0133 71.7543 15.12C71.8716 15.2267 71.9303 15.3867 71.9303 15.6V17.584C71.9303 17.9893 71.7436 18.192 71.3703 18.192C71.1889 18.192 71.0503 18.1387 70.9543 18.032C70.8583 17.9253 70.8103 17.776 70.8103 17.584V16H64.4423V17.584C64.4423 17.9893 64.2609 18.192 63.8983 18.192ZM65.4023 14.96H69.4663V9.248H66.3463V10.736C66.3463 11.536 66.2663 12.3093 66.1063 13.056C65.9463 13.792 65.7116 14.4267 65.4023 14.96ZM77.175 16.144C76.3537 16.144 75.6443 15.984 75.047 15.664C74.4603 15.3333 74.0017 14.8693 73.671 14.272C73.351 13.6747 73.191 12.96 73.191 12.128C73.191 11.3173 73.351 10.6133 73.671 10.016C73.991 9.408 74.4283 8.93333 74.983 8.592C75.5483 8.25067 76.199 8.08 76.935 8.08C77.4577 8.08 77.927 8.17067 78.343 8.352C78.759 8.52267 79.111 8.77333 79.399 9.104C79.6977 9.43467 79.9217 9.83467 80.071 10.304C80.231 10.7733 80.311 11.3013 80.311 11.888C80.311 12.0587 80.263 12.1867 80.167 12.272C80.071 12.3467 79.9323 12.384 79.751 12.384H74.183V11.536H79.447L79.191 11.744C79.191 11.168 79.1057 10.6827 78.935 10.288C78.7643 9.88267 78.5137 9.57333 78.183 9.36C77.863 9.14667 77.4577 9.04 76.967 9.04C76.423 9.04 75.959 9.168 75.575 9.424C75.2017 9.66933 74.919 10.016 74.727 10.464C74.535 10.9013 74.439 11.4133 74.439 12V12.096C74.439 13.0773 74.6737 13.824 75.143 14.336C75.623 14.848 76.3003 15.104 77.175 15.104C77.5377 15.104 77.895 15.056 78.247 14.96C78.6097 14.864 78.9617 14.704 79.303 14.48C79.4523 14.384 79.5857 14.3413 79.703 14.352C79.831 14.352 79.9323 14.3893 80.007 14.464C80.0817 14.528 80.1297 14.6133 80.151 14.72C80.183 14.816 80.1723 14.9227 80.119 15.04C80.0763 15.1573 79.9857 15.2587 79.847 15.344C79.495 15.6 79.079 15.7973 78.599 15.936C78.119 16.0747 77.6443 16.144 77.175 16.144ZM82.9829 18.992C82.7695 18.992 82.6095 18.9333 82.5029 18.816C82.3962 18.7093 82.3429 18.5493 82.3429 18.336V8.768C82.3429 8.55467 82.3962 8.39467 82.5029 8.288C82.6095 8.17067 82.7642 8.112 82.9669 8.112C83.1802 8.112 83.3402 8.17067 83.4469 8.288C83.5642 8.39467 83.6229 8.55467 83.6229 8.768V10.288L83.4469 10.064C83.6175 9.456 83.9535 8.976 84.4549 8.624C84.9669 8.26133 85.5749 8.08 86.2789 8.08C86.9722 8.08 87.5749 8.24533 88.0869 8.576C88.6095 8.896 89.0095 9.36 89.2869 9.968C89.5749 10.5653 89.7189 11.28 89.7189 12.112C89.7189 12.9333 89.5749 13.648 89.2869 14.256C89.0095 14.8533 88.6149 15.3173 88.1029 15.648C87.5909 15.9787 86.9829 16.144 86.2789 16.144C85.5749 16.144 84.9722 15.968 84.4709 15.616C83.9695 15.2533 83.6282 14.7733 83.4469 14.176H83.6389V18.336C83.6389 18.5493 83.5802 18.7093 83.4629 18.816C83.3455 18.9333 83.1855 18.992 82.9829 18.992ZM86.0069 15.104C86.4975 15.104 86.9189 14.9867 87.2709 14.752C87.6335 14.5173 87.9109 14.176 88.1029 13.728C88.3055 13.28 88.4069 12.7413 88.4069 12.112C88.4069 11.1413 88.1882 10.4 87.7509 9.888C87.3242 9.376 86.7429 9.12 86.0069 9.12C85.5269 9.12 85.1055 9.23733 84.7429 9.472C84.3802 9.696 84.0975 10.032 83.8949 10.48C83.7029 10.9173 83.6069 11.4613 83.6069 12.112C83.6069 13.072 83.8255 13.8133 84.2629 14.336C84.7002 14.848 85.2815 15.104 86.0069 15.104ZM96.8033 16.112C96.6006 16.112 96.4406 16.0533 96.3233 15.936C96.2166 15.8187 96.1633 15.6533 96.1633 15.44V12.512H95.1553C94.8673 12.512 94.6219 12.544 94.4193 12.608C94.2166 12.672 94.0299 12.7893 93.8593 12.96C93.6993 13.12 93.5286 13.3493 93.3473 13.648L92.0833 15.76C91.9979 15.8987 91.8913 15.9947 91.7633 16.048C91.6353 16.1013 91.5126 16.112 91.3953 16.08C91.2779 16.0587 91.1713 16.0053 91.0753 15.92C90.9793 15.8347 90.9206 15.7333 90.8993 15.616C90.8779 15.4987 90.9099 15.3653 90.9953 15.216L92.1473 13.312C92.3819 12.9067 92.6006 12.5867 92.8033 12.352C93.0166 12.1067 93.2299 11.9253 93.4433 11.808C93.6673 11.6907 93.9286 11.616 94.2273 11.584L93.8913 12L91.6193 9.104C91.5233 8.96533 91.4699 8.83733 91.4593 8.72C91.4593 8.592 91.4966 8.48 91.5713 8.384C91.6459 8.288 91.7366 8.224 91.8433 8.192C91.9606 8.14933 92.0779 8.14933 92.1953 8.192C92.3233 8.224 92.4353 8.304 92.5312 8.432L94.9313 11.472H96.1633V8.816C96.1633 8.592 96.2166 8.42667 96.3233 8.32C96.4406 8.20267 96.6006 8.144 96.8033 8.144C97.0166 8.144 97.1766 8.20267 97.2833 8.32C97.4006 8.42667 97.4593 8.592 97.4593 8.816V11.472H98.7073L101.075 8.432C101.182 8.304 101.299 8.224 101.427 8.192C101.555 8.14933 101.673 8.14933 101.779 8.192C101.886 8.224 101.977 8.288 102.051 8.384C102.126 8.46933 102.158 8.576 102.147 8.704C102.147 8.832 102.099 8.96533 102.003 9.104L99.7313 12L99.3953 11.584C99.6939 11.616 99.9499 11.6907 100.163 11.808C100.387 11.9253 100.601 12.1013 100.803 12.336C101.017 12.5707 101.241 12.896 101.475 13.312L102.627 15.216C102.702 15.3653 102.729 15.4987 102.707 15.616C102.697 15.7333 102.643 15.8347 102.547 15.92C102.451 16.0053 102.339 16.0587 102.211 16.08C102.094 16.112 101.977 16.1013 101.859 16.048C101.742 15.9947 101.635 15.8987 101.539 15.76L100.275 13.648C100.094 13.3493 99.9233 13.12 99.7633 12.96C99.6033 12.7893 99.4219 12.672 99.2193 12.608C99.0166 12.544 98.7659 12.512 98.4673 12.512H97.4593V15.44C97.4593 15.6533 97.4006 15.8187 97.2833 15.936C97.1766 16.0533 97.0166 16.112 96.8033 16.112ZM105.03 16.112C104.816 16.112 104.651 16.0533 104.534 15.936C104.427 15.8187 104.374 15.6533 104.374 15.44V8.816C104.374 8.592 104.427 8.42667 104.534 8.32C104.651 8.20267 104.816 8.144 105.03 8.144C105.232 8.144 105.387 8.20267 105.494 8.32C105.611 8.42667 105.67 8.592 105.67 8.816V11.472H107.126L109.494 8.432C109.6 8.304 109.718 8.224 109.846 8.192C109.974 8.14933 110.091 8.14933 110.198 8.192C110.315 8.224 110.406 8.288 110.47 8.384C110.544 8.46933 110.582 8.576 110.582 8.704C110.582 8.832 110.534 8.96533 110.438 9.104L108.182 12L107.814 11.584C108.112 11.616 108.374 11.6907 108.598 11.808C108.822 11.9253 109.035 12.1013 109.238 12.336C109.44 12.5707 109.659 12.896 109.894 13.312L111.046 15.216C111.12 15.3653 111.147 15.4987 111.126 15.616C111.115 15.7333 111.062 15.84 110.966 15.936C110.87 16.0213 110.758 16.0747 110.63 16.096C110.512 16.1173 110.395 16.1013 110.278 16.048C110.16 15.9947 110.054 15.8987 109.958 15.76L108.694 13.648C108.512 13.3493 108.342 13.12 108.182 12.96C108.022 12.7893 107.84 12.672 107.638 12.608C107.435 12.544 107.184 12.512 106.886 12.512H105.67V15.44C105.67 15.6533 105.611 15.8187 105.494 15.936C105.387 16.0533 105.232 16.112 105.03 16.112ZM116.316 16.144C115.494 16.144 114.785 15.984 114.188 15.664C113.601 15.3333 113.142 14.8693 112.812 14.272C112.492 13.6747 112.332 12.96 112.332 12.128C112.332 11.3173 112.492 10.6133 112.812 10.016C113.132 9.408 113.569 8.93333 114.124 8.592C114.689 8.25067 115.34 8.08 116.076 8.08C116.598 8.08 117.068 8.17067 117.484 8.352C117.9 8.52267 118.252 8.77333 118.54 9.104C118.838 9.43467 119.062 9.83467 119.212 10.304C119.372 10.7733 119.452 11.3013 119.452 11.888C119.452 12.0587 119.404 12.1867 119.308 12.272C119.212 12.3467 119.073 12.384 118.892 12.384H113.324V11.536H118.588L118.332 11.744C118.332 11.168 118.246 10.6827 118.076 10.288C117.905 9.88267 117.654 9.57333 117.324 9.36C117.004 9.14667 116.598 9.04 116.108 9.04C115.564 9.04 115.1 9.168 114.716 9.424C114.342 9.66933 114.06 10.016 113.868 10.464C113.676 10.9013 113.58 11.4133 113.58 12V12.096C113.58 13.0773 113.814 13.824 114.284 14.336C114.764 14.848 115.441 15.104 116.316 15.104C116.678 15.104 117.036 15.056 117.388 14.96C117.75 14.864 118.102 14.704 118.444 14.48C118.593 14.384 118.726 14.3413 118.844 14.352C118.972 14.352 119.073 14.3893 119.148 14.464C119.222 14.528 119.27 14.6133 119.292 14.72C119.324 14.816 119.313 14.9227 119.26 15.04C119.217 15.1573 119.126 15.2587 118.988 15.344C118.636 15.6 118.22 15.7973 117.74 15.936C117.26 16.0747 116.785 16.144 116.316 16.144Z" fill="white"/>
<path opacity="0.5" d="M164 125.69H0V23.4902H164V125.69Z" fill="white"/>
<path d="M75.5018 89.9377L73.447 84.0426H63.0187L61.0046 89.9377H57.3512L66.4825 63.7211H70.023L79.1948 89.9377H75.5018ZM68.2343 68.5135L64.1633 80.8426H72.3419L68.2343 68.5135ZM43.7317 63.7211H34.2227V89.9377H37.7262V79.3989H43.7317C48.0602 79.3989 51.572 75.8864 51.572 71.5589C51.572 67.2288 48.0602 63.7211 43.7317 63.7211ZM43.7497 76.1626H37.7262V66.9157H43.7497C46.3043 66.9157 48.3729 68.9856 48.3729 71.5402C48.3729 74.0933 46.3043 76.1626 43.7497 76.1626ZM102.849 71.9874C102.849 70.5162 102.632 69.2416 102.196 68.1642C101.759 67.0855 101.143 66.1991 100.351 65.4998C99.5564 64.803 98.6024 64.2832 97.4859 63.9398C96.3686 63.5965 95.1132 63.4258 93.7188 63.4258C92.2961 63.4258 90.9703 63.6157 89.7407 63.9951C88.5103 64.3788 87.3995 64.9727 86.409 65.7847L88.1637 68.5264C88.8456 67.9413 89.6696 67.4866 90.6359 67.1565C91.5997 66.8245 92.5756 66.6598 93.5653 66.6598C95.3168 66.6598 96.7039 67.1259 97.7323 68.0575C98.7591 68.9856 99.2762 70.5496 99.2762 72.7407V75.2909H91.0228V78.3716H99.2762V80.9246C99.2762 83.1148 98.7591 84.6785 97.7323 85.6079C96.7039 86.5366 95.3168 87.0053 93.5653 87.0053C92.5756 87.0053 91.5997 86.8339 90.6359 86.5098C89.6696 86.1784 88.8456 85.7224 88.1637 85.1402L86.409 87.8769C87.3995 88.6879 88.5103 89.2844 89.7407 89.6672C90.9703 90.0465 92.2961 90.2375 93.7188 90.2375C95.1132 90.2375 96.3686 90.0648 97.4859 89.7215C98.6024 89.3806 99.5564 88.8624 100.351 88.1625C101.143 87.466 101.759 86.5798 102.196 85.5006C102.632 84.4212 102.849 83.1463 102.849 81.6742V71.9874ZM117.849 77.2718L128.964 63.7344H133.191L124.741 74.0844L134.066 89.9503H129.954L122.381 76.9752L117.584 82.6809V89.9503H114.081V63.7344H117.584V77.2718H117.849Z" fill="white"/>
<path d="M106.757 60.1476V56.8271H104.946V60.1476H101.641V61.9571H104.946V65.3144H106.757V61.9571H110.043V60.1476H106.757Z" fill="white"/>
</svg>