<svg xmlns="http://www.w3.org/2000/svg" width="302" height="50" viewBox="0 0 302 50" fill="none">
<g filter="url(#filter0_b_2_671)">
<path d="M17.1018 21.717C18.0879 21.717 18.9474 21.5973 19.6803 21.3578C20.4133 21.1051 21.0196 20.7526 21.4993 20.3004C21.9924 19.8349 22.3588 19.2762 22.5987 18.6244C22.8386 17.9594 22.9585 17.2212 22.9585 16.4098C22.9585 15.6383 22.8386 14.94 22.5987 14.3148C22.3588 13.6897 21.999 13.1576 21.5193 12.7187C21.0396 12.2797 20.4333 11.9472 19.7003 11.7211C18.9674 11.4816 18.1012 11.3619 17.1018 11.3619H13.084V21.717H17.1018ZM17.1018 7.21191C19.0341 7.21191 20.7064 7.43801 22.119 7.89027C23.5315 8.34253 24.6975 8.97431 25.617 9.7857C26.5365 10.5971 27.2161 11.5681 27.6559 12.6987C28.109 13.8293 28.3355 15.0663 28.3355 16.4098C28.3355 17.8064 28.1023 19.09 27.6359 20.2605C27.1695 21.4177 26.4699 22.4153 25.5371 23.2533C24.6042 24.0913 23.4316 24.743 22.019 25.2086C20.6198 25.6741 18.9807 25.9069 17.1018 25.9069H13.084V36.0624H7.70703V7.21191H17.1018Z" fill="white"/>
<path d="M43.9531 23.4727C43.9531 22.8343 43.8598 22.2357 43.6732 21.677C43.5 21.1051 43.2335 20.6063 42.8737 20.1806C42.5139 19.755 42.0542 19.4225 41.4945 19.1831C40.9481 18.9303 40.3084 18.804 39.5755 18.804C38.1496 18.804 37.0236 19.2096 36.1974 20.021C35.3845 20.8324 34.8648 21.983 34.6383 23.4727H43.9531ZM34.5383 26.4456C34.6183 27.4964 34.8049 28.4075 35.098 29.179C35.3912 29.9371 35.7777 30.569 36.2574 31.0744C36.7371 31.5666 37.3035 31.939 37.9564 32.1917C38.6227 32.4311 39.3557 32.5508 40.1552 32.5508C40.9548 32.5508 41.641 32.4577 42.2141 32.2715C42.8004 32.0853 43.3067 31.8791 43.7332 31.653C44.173 31.4269 44.5528 31.2207 44.8726 31.0345C45.2057 30.8483 45.5255 30.7552 45.832 30.7552C46.2451 30.7552 46.5516 30.9081 46.7515 31.2141L48.1708 33.0097C47.6243 33.6482 47.0114 34.1869 46.3318 34.6258C45.6521 35.0515 44.9392 35.3973 44.193 35.6633C43.46 35.9161 42.7071 36.0956 41.9342 36.202C41.1746 36.3084 40.4351 36.3617 39.7155 36.3617C38.2896 36.3617 36.9636 36.1289 35.7377 35.6633C34.5117 35.1845 33.4456 34.4862 32.5395 33.5684C31.6333 32.6373 30.9204 31.4934 30.4007 30.1367C29.8809 28.7666 29.6211 27.1838 29.6211 25.3881C29.6211 23.9915 29.8476 22.6813 30.3007 21.4576C30.7538 20.2205 31.4001 19.1498 32.2396 18.2453C33.0925 17.3275 34.1252 16.6026 35.3379 16.0705C36.5639 15.5385 37.9431 15.2725 39.4756 15.2725C40.7682 15.2725 41.9609 15.4786 43.0536 15.891C44.1463 16.3033 45.0858 16.9085 45.872 17.7066C46.6582 18.4914 47.2712 19.4624 47.711 20.6196C48.164 21.7635 48.3904 23.0737 48.3904 24.5501C48.3904 25.295 48.3105 25.8005 48.1507 26.0665C47.9908 26.3192 47.6843 26.4456 47.2313 26.4456H34.5383Z" fill="white"/>
<path d="M70.5274 15.5917V36.0624H65.5899V24.1112C65.5899 23.8053 65.6034 23.4727 65.6299 23.1136C65.6698 22.7412 65.7166 22.3688 65.77 21.9963C65.5032 22.6082 65.2103 23.1469 64.8905 23.6124C64.8635 23.639 64.7306 23.8252 64.4907 24.1711C64.2509 24.5036 63.9378 24.9359 63.551 25.4679C63.1782 26 62.7515 26.6052 62.2717 27.2836C61.792 27.9486 61.3055 28.627 60.8128 29.3187C59.6534 30.9547 58.3409 32.8036 56.8747 34.8653C56.6883 35.1446 56.4417 35.4173 56.1354 35.6833C55.8421 35.9493 55.5025 36.0824 55.1157 36.0824H52.0977V15.6117H57.0347V27.5629C57.0347 27.8688 57.0149 28.208 56.9749 28.5804C56.948 28.9396 56.908 29.3053 56.855 29.6778C57.1478 29.026 57.4412 28.4873 57.7345 28.0617C57.7475 28.0351 57.8742 27.8555 58.1141 27.523C58.3539 27.1904 58.6607 26.7582 59.0335 26.2261C59.4203 25.694 59.8533 25.0955 60.3331 24.4304C60.8128 23.7521 61.2993 23.0604 61.792 22.3554C62.9514 20.7194 64.2706 18.8705 65.7498 16.8088C65.9367 16.5162 66.1828 16.2435 66.4896 15.9908C66.796 15.7248 67.1423 15.5917 67.529 15.5917H70.5274ZM61.5921 10.4042C62.0853 10.4042 62.4986 10.351 62.8314 10.2446C63.1647 10.1382 63.4311 9.96527 63.631 9.72585C63.8309 9.47311 63.971 9.14061 64.051 8.72825C64.1309 8.3159 64.1709 7.81046 64.1709 7.21191H67.0893C67.4356 7.21191 67.6889 7.3582 67.8489 7.65085C68.0218 7.93018 68.1085 8.24277 68.1085 8.58859C68.1085 9.26695 67.9553 9.88546 67.649 10.4441C67.3422 10.9895 66.9024 11.4551 66.3297 11.8408C65.7565 12.2132 65.0702 12.5058 64.2706 12.7187C63.4711 12.9182 62.5785 13.0179 61.5921 13.0179C60.6062 13.0179 59.7132 12.9182 58.9136 12.7187C58.1141 12.5058 57.4277 12.2132 56.855 11.8408C56.2818 11.4551 55.8421 10.9895 55.5357 10.4441C55.2289 9.88546 55.0758 9.26695 55.0758 8.58859C55.0758 8.24277 55.1557 7.93018 55.3156 7.65085C55.489 7.3582 55.7486 7.21191 56.0954 7.21191H59.0138C59.0138 7.81046 59.0538 8.3159 59.1337 8.72825C59.2137 9.14061 59.3534 9.47311 59.5532 9.72585C59.7531 9.96527 60.0132 10.1382 60.3331 10.2446C60.6659 10.351 61.0859 10.4042 61.5921 10.4042Z" fill="white"/>
<path d="M92.9944 19.242H85.6785V36.0615H80.7415V19.242H73.4453V15.5908H92.9944V19.242Z" fill="white"/>
<path d="M114.332 15.5908V36.0615H109.395V24.1103C109.395 23.8044 109.408 23.4718 109.435 23.1127C109.475 22.7402 109.521 22.3678 109.575 21.9954C109.308 22.6072 109.015 23.146 108.695 23.6115C108.669 23.6381 108.535 23.8243 108.295 24.1701C108.056 24.5027 107.742 24.9349 107.356 25.467C106.983 25.9991 106.557 26.6043 106.077 27.2826C105.597 27.9477 105.111 28.626 104.617 29.3177C103.458 30.9538 102.146 32.8027 100.68 34.8644C100.493 35.1437 100.246 35.4164 99.9401 35.6824C99.6468 35.9484 99.3072 36.0814 98.9209 36.0814H95.9023V15.6108H100.84V27.562C100.84 27.8679 100.82 28.2071 100.78 28.5795C100.753 28.9386 100.713 29.3044 100.66 29.6769C100.953 29.0251 101.246 28.4864 101.539 28.0608C101.553 28.0342 101.679 27.8546 101.919 27.5221C102.159 27.1895 102.465 26.7573 102.839 26.2252C103.225 25.6931 103.658 25.0946 104.138 24.4295C104.617 23.7511 105.104 23.0595 105.597 22.3545C106.757 20.7185 108.076 18.8696 109.555 16.8079C109.741 16.5152 109.988 16.2426 110.294 15.9898C110.601 15.7238 110.947 15.5908 111.334 15.5908H114.332Z" fill="white"/>
<path d="M137.077 15.5908V36.0615H132.14V27.0033H124.144V36.0615H119.207V15.5908H124.144V23.3521H132.14V15.5908H137.077Z" fill="white"/>
<path d="M155.861 19.243H146.906V36.0625H141.969V15.5918H155.861V19.243Z" fill="white"/>
<path d="M178.692 21.717C179.678 21.717 180.537 21.5973 181.27 21.3578C182.004 21.1051 182.609 20.7526 183.089 20.3004C183.582 19.8349 183.949 19.2762 184.189 18.6244C184.429 17.9594 184.549 17.2212 184.549 16.4098C184.549 15.6383 184.429 14.94 184.189 14.3148C183.949 13.6897 183.589 13.1576 183.109 12.7187C182.63 12.2797 182.023 11.9472 181.29 11.7211C180.558 11.4816 179.691 11.3619 178.692 11.3619H174.674V21.717H178.692ZM178.692 7.21191C180.624 7.21191 182.296 7.43801 183.709 7.89027C185.122 8.34253 186.287 8.97431 187.207 9.7857C188.126 10.5971 188.806 11.5681 189.246 12.6987C189.699 13.8293 189.925 15.0663 189.925 16.4098C189.925 17.8064 189.692 19.09 189.226 20.2605C188.76 21.4177 188.06 22.4153 187.127 23.2533C186.194 24.0913 185.022 24.743 183.609 25.2086C182.21 25.6741 180.571 25.9069 178.692 25.9069H174.674V36.0624H169.297V7.21191H178.692Z" fill="white"/>
<path d="M211.898 15.5908L200.724 41.6879C200.577 42.0337 200.384 42.2931 200.144 42.466C199.917 42.6522 199.564 42.7454 199.084 42.7454H195.407L199.244 34.5252L190.949 15.5908H195.287C195.673 15.5908 195.973 15.6839 196.186 15.8701C196.413 16.0563 196.579 16.2692 196.686 16.5086L201.043 27.123C201.19 27.4822 201.31 27.8413 201.403 28.2004C201.51 28.5596 201.61 28.9253 201.703 29.2978C201.823 28.9253 201.943 28.5596 202.063 28.2004C202.183 27.828 202.316 27.4622 202.463 27.1031L206.58 16.5086C206.687 16.2426 206.86 16.0231 207.1 15.8502C207.353 15.6773 207.633 15.5908 207.94 15.5908H211.898Z" fill="white"/>
<path d="M232.222 15.5908V36.0615H227.285V27.0033H219.289V36.0615H214.352V15.5908H219.289V23.3521H227.285V15.5908H232.222Z" fill="white"/>
<path d="M250.324 23.4727C250.324 22.8343 250.231 22.2357 250.044 21.677C249.871 21.1051 249.604 20.6063 249.245 20.1806C248.885 19.755 248.425 19.4225 247.866 19.1831C247.319 18.9303 246.68 18.804 245.947 18.804C244.521 18.804 243.395 19.2096 242.568 20.021C241.756 20.8324 241.236 21.983 241.009 23.4727H250.324ZM240.909 26.4456C240.989 27.4964 241.176 28.4075 241.469 29.179C241.762 29.9371 242.149 30.569 242.628 31.0744C243.108 31.5666 243.675 31.939 244.327 32.1917C244.994 32.4311 245.727 32.5508 246.526 32.5508C247.326 32.5508 248.012 32.4577 248.585 32.2715C249.171 32.0853 249.678 31.8791 250.104 31.653C250.544 31.4269 250.924 31.2207 251.243 31.0345C251.577 30.8483 251.897 30.7552 252.203 30.7552C252.616 30.7552 252.922 30.9081 253.122 31.2141L254.542 33.0097C253.996 33.6482 253.382 34.1869 252.703 34.6258C252.023 35.0515 251.31 35.3973 250.564 35.6633C249.831 35.9161 249.078 36.0956 248.305 36.202C247.546 36.3084 246.806 36.3617 246.086 36.3617C244.661 36.3617 243.335 36.1289 242.109 35.6633C240.883 35.1845 239.817 34.4862 238.911 33.5684C238.005 32.6373 237.291 31.4934 236.772 30.1367C236.252 28.7666 235.992 27.1838 235.992 25.3881C235.992 23.9915 236.219 22.6813 236.672 21.4576C237.125 20.2205 237.771 19.1498 238.61 18.2453C239.464 17.3275 240.496 16.6026 241.709 16.0705C242.935 15.5385 244.314 15.2725 245.846 15.2725C247.139 15.2725 248.332 15.4786 249.425 15.891C250.518 16.3033 251.457 16.9085 252.243 17.7066C253.029 18.4914 253.642 19.4624 254.082 20.6196C254.535 21.7635 254.761 23.0737 254.761 24.5501C254.761 25.295 254.682 25.8005 254.522 26.0665C254.362 26.3192 254.055 26.4456 253.602 26.4456H240.909Z" fill="white"/>
<path d="M275.901 19.242H268.585V36.0615H263.647V19.242H256.352V15.5908H275.901V19.242Z" fill="white"/>
<path d="M289.523 27.3227C288.098 27.3892 286.898 27.5156 285.925 27.7018C284.952 27.8747 284.173 28.1008 283.587 28.3802C283 28.6595 282.581 28.9854 282.327 29.3578C282.075 29.7303 281.948 30.1359 281.948 30.5749C281.948 31.4394 282.201 32.058 282.707 32.4304C283.227 32.8029 283.9 32.9891 284.726 32.9891C285.739 32.9891 286.612 32.8095 287.345 32.4504C288.091 32.0779 288.817 31.5193 289.523 30.7744V27.3227ZM278.21 18.4441C280.568 16.2893 283.407 15.2119 286.725 15.2119C287.924 15.2119 288.997 15.4114 289.943 15.8105C290.889 16.1962 291.689 16.7416 292.342 17.4465C292.995 18.1382 293.488 18.9695 293.821 19.9405C294.168 20.9115 294.341 21.9756 294.341 23.1328V36.0617H292.102C291.635 36.0617 291.276 35.9952 291.023 35.8621C290.769 35.7158 290.57 35.4298 290.423 35.0042L289.983 33.5278C289.464 33.9933 288.957 34.4057 288.464 34.7648C287.971 35.1106 287.458 35.4032 286.925 35.6427C286.392 35.8821 285.819 36.0617 285.206 36.1814C284.606 36.3144 283.94 36.3809 283.207 36.3809C282.341 36.3809 281.541 36.2678 280.808 36.0417C280.075 35.8023 279.442 35.4498 278.91 34.9843C278.376 34.5187 277.963 33.9401 277.67 33.2484C277.377 32.5568 277.23 31.752 277.23 30.8343C277.23 30.3155 277.317 29.8034 277.49 29.298C277.663 28.7792 277.943 28.287 278.33 27.8215C278.729 27.356 279.242 26.917 279.869 26.5047C280.495 26.0923 281.261 25.7332 282.167 25.4273C283.087 25.1214 284.153 24.8753 285.366 24.6891C286.579 24.4895 287.964 24.3698 289.523 24.3299V23.1328C289.523 21.7628 289.23 20.7519 288.644 20.1001C288.058 19.4351 287.211 19.1025 286.106 19.1025C285.306 19.1025 284.639 19.1957 284.107 19.3819C283.587 19.5681 283.127 19.7809 282.727 20.0203C282.327 20.2464 281.961 20.4526 281.628 20.6388C281.308 20.825 280.948 20.9182 280.549 20.9182C280.202 20.9182 279.909 20.8317 279.669 20.6588C279.429 20.4726 279.236 20.2597 279.089 20.0203L278.21 18.4441Z" fill="white"/>
</g>
<defs>
<filter id="filter0_b_2_671" x="-10" y="-10" width="322" height="70" filterUnits="userSpaceOnUse" color-interpolation-filters="sRGB">
<feFlood flood-opacity="0" result="BackgroundImageFix"/>
<feGaussianBlur in="BackgroundImageFix" stdDeviation="5"/>
<feComposite in2="SourceAlpha" operator="in" result="effect1_backgroundBlur_2_671"/>
<feBlend mode="normal" in="SourceGraphic" in2="effect1_backgroundBlur_2_671" result="shape"/>
</filter>
</defs>
</svg>