<svg xmlns="http://www.w3.org/2000/svg" width="342" height="32" viewBox="0 0 342 32" fill="none">
<g clip-path="url(#clip0_2_660)" filter="url(#filter0_b_2_660)">
<path d="M124.547 18.3056H139.7V12.5687H124.547V6.79271H140.096V0.855469H118.059V30.5808H140.255V24.8842H124.547V18.3056Z" fill="white"/>
<path d="M105.994 19.5888L92.5028 0.855469H85.5V30.5813H91.7114V10.5232L106.232 30.5813H112.166V0.855469H105.994V19.5888Z" fill="white"/>
<path d="M37.0322 15.0583H29.3962V6.4734H36.9535C40.6325 6.4734 42.1359 7.35595 42.1359 10.8055C42.1359 14.1758 40.5532 15.0583 37.0322 15.0583ZM48.6642 10.5649C48.6642 4.86892 46.4488 0.857422 37.2301 0.857422H23.0664V30.5827H29.3962V20.7146H35.9642L41.3842 30.5827H48.3082L42.4919 19.9921C47.3587 18.4279 48.6642 14.657 48.6642 10.5649Z" fill="white"/>
<path d="M0 19.477H18.2285L18.2732 15.0586H0V19.477Z" fill="white"/>
<path d="M73.5534 18.3872C73.5534 22.9606 72.406 25.3273 66.5115 25.3273C60.5768 25.3273 59.5081 22.7993 59.5081 18.3872V0.856445H53.0195V19.2294C53.0195 24.9254 54.0485 31.1442 66.4321 31.1442C78.7761 31.1442 79.8441 24.9254 79.8441 19.2294V0.856445H73.5534V18.3872Z" fill="white"/>
<path d="M301.691 25.3796H297.458V7.28757H301.572C309.961 7.28757 311.304 9.53333 311.304 16.2328C311.304 22.9316 309.682 25.3796 301.691 25.3796ZM301.493 1.39062H290.969V31.1165H301.335C312.887 31.1165 317.833 27.8263 317.833 16.2328C317.833 4.43894 313.046 1.39062 301.493 1.39062Z" fill="white"/>
<path d="M321.723 15.0586L321.767 19.477H341.102V15.0586H321.723Z" fill="white"/>
<path d="M165.012 19.4878H274.099V15.0576H165.012V19.4878Z" fill="white"/>
<path d="M169.696 0.856445H142.871V6.79369H153.039V30.5823H159.566V6.79369H169.696V0.856445Z" fill="white"/>
<path d="M278.234 31.1185H284.684V1.39258H278.234V31.1185Z" fill="white"/>
</g>
<defs>
<filter id="filter0_b_2_660" x="-10" y="-10" width="362" height="52" filterUnits="userSpaceOnUse" color-interpolation-filters="sRGB">
<feFlood flood-opacity="0" result="BackgroundImageFix"/>
<feGaussianBlur in="BackgroundImageFix" stdDeviation="5"/>
<feComposite in2="SourceAlpha" operator="in" result="effect1_backgroundBlur_2_660"/>
<feBlend mode="normal" in="SourceGraphic" in2="effect1_backgroundBlur_2_660" result="shape"/>
</filter>
<clipPath id="clip0_2_660">
<rect width="342" height="32" fill="white"/>
</clipPath>
</defs>
</svg>