<svg xmlns="http://www.w3.org/2000/svg" width="155" height="100" viewBox="0 0 155 100" fill="none">
<g clip-path="url(#clip0_2_694)">
<g opacity="0.5">
<path d="M77.7969 11.4111H83.6137C83.6137 11.4111 84.5226 11.4111 84.5226 15.9295C84.5226 20.4479 83.6137 20.4479 83.6137 20.4479H77.7969V11.4111Z" fill="white"/>
<path d="M65.3635 34.8652H59.5466C59.5466 34.8652 58.6377 34.8652 58.6377 39.3821C58.6377 43.899 59.5466 43.899 59.5466 43.899H65.3635V34.8652Z" fill="white"/>
<path d="M27.6562 24.4098C29.7931 24.4098 31.2621 24.179 32.0634 23.7174C32.9181 23.2174 33.3456 22.2174 33.3456 20.7174V7.50546C33.3456 4.92846 34.0133 3.12072 35.3488 2.08223C36.6843 1.00527 38.9279 0.466797 42.0798 0.466797H47.2882V6.64005H43.2015C41.9194 6.64005 41.8019 6.64005 41.3078 6.64005C39.3628 6.64005 39.5956 8.19519 39.5956 9.04136V20.7174C39.5956 22.6405 38.9279 24.2175 37.5924 25.4483C36.3103 26.6791 34.7077 27.4099 32.7846 27.6406C34.7077 27.7945 36.3103 28.4868 37.5924 29.7176C38.9279 30.9484 39.5956 32.5254 39.5956 34.4485C39.5956 34.4485 39.5956 45.9746 39.5956 46.8208C39.5956 47.6669 39.5956 48.865 41.035 48.865C42.4744 48.865 41.9194 48.865 43.2015 48.865H47.2882V54.6991H42.0798C38.9279 54.6991 36.6843 54.1606 35.3488 53.0837C34.0133 52.0452 33.3456 50.2374 33.3456 47.6604V34.4485C33.3456 32.9485 32.9181 31.9677 32.0634 31.5061C31.2621 31.0061 29.7931 30.7561 27.6562 30.7561V24.4098Z" fill="white"/>
<path d="M84.4517 42.4231C84.4517 46.875 83.4872 50.2461 81.0449 52.4982C78.6546 54.698 75.199 54.5887 70.6781 54.5887H59.937V48.911H71.4576C73.3802 48.911 75.4848 48.9253 76.6799 47.773C77.8751 46.6207 77.9271 45.5585 77.9271 43.9348V35.7642C77.9271 34.1929 77.5114 32.9359 76.6799 31.9932C75.9005 30.998 74.7053 30.8804 73.0944 30.8804H70.6781C66.8328 30.8804 63.855 28.8819 61.6206 26.6297C59.3861 24.3252 58.6758 21.3763 58.6758 17.0291V14.171C58.6758 9.71902 59.4799 6.38144 61.8702 4.18166C64.3125 1.9295 67.7941 0.473633 72.315 0.473633H83.3158V6.5544H71.5355C69.6129 6.5544 68.0539 7.35039 66.8588 8.50265C65.6636 9.65492 65.066 11.0429 65.066 12.6665V18.6374C65.066 20.261 65.5857 21.6228 66.6249 22.7227C67.6642 23.7702 69.0153 24.2939 70.6781 24.2939H73.2906C76.9801 24.2939 79.6258 25.6916 81.6523 27.839C83.7309 29.9864 84.4517 32.8359 84.4517 37.183V42.4231Z" fill="white"/>
<path d="M118.22 27.5822L97.4688 17.322V9.51367L127.088 24.2936V30.8801L97.4688 45.5744V37.1827L118.22 27.5822Z" fill="white"/>
</g>
<path d="M11.3778 93.9132C11.3778 95.7864 10.8599 97.1967 9.82419 98.1443C8.81048 99.0699 7.345 99.5327 5.42776 99.5327H0.733825V97.0204H5.75832C6.5737 97.0204 7.23482 96.778 7.74167 96.2932C8.24853 95.8084 8.50196 95.2244 8.50196 94.5413V91.1034C8.50196 90.4423 8.32566 89.9134 7.97306 89.5168C7.6425 89.098 7.13565 88.8887 6.45249 88.8887H5.46082C3.83006 88.8887 2.54088 88.4149 1.59328 87.4673C0.645676 86.4976 0.171875 85.0983 0.171875 83.2692V82.0131C0.171875 80.1399 0.678732 78.7405 1.69245 77.815C2.7282 76.8674 4.20469 76.3936 6.12193 76.3936H10.8489V78.9058H5.79138C4.976 78.9058 4.31488 79.1482 3.80802 79.633C3.30117 80.1179 3.04774 80.7019 3.04774 81.385V83.8973C3.04774 84.5804 3.26811 85.1534 3.70885 85.6162C4.1496 86.0569 4.72257 86.2773 5.42776 86.2773H6.41944C7.98408 86.2773 9.19613 86.729 10.0556 87.6326C10.9371 88.5361 11.3778 89.9024 11.3778 91.7315V93.9132Z" fill="white"/>
<path d="M24.8661 99.5318C23.7422 99.5318 22.8828 99.1682 22.2878 98.4409C21.6927 97.7137 21.3952 96.7551 21.3952 95.5651V85.483H18.2549V83.0038H21.3952V79.0371H24.205V83.0038H29.0312V85.483H24.205V95.7304C24.205 96.2152 24.3262 96.5568 24.5686 96.7551C24.811 96.9534 25.1856 97.0526 25.6925 97.0526H29.0312V99.5318H24.8661Z" fill="white"/>
<path d="M46.3537 99.5319C46.0672 99.5319 45.7477 99.4437 45.3951 99.2674C45.0645 99.0911 44.7781 98.8487 44.5356 98.5402C44.0288 99.2013 43.3567 99.5319 42.5192 99.5319H39.5773C37.9024 99.5319 36.6794 99.2013 35.9081 98.5402C35.1588 97.8571 34.7842 96.7001 34.7842 95.0693V94.4082C34.7842 90.9925 36.3929 89.2846 39.6103 89.2846H43.7093V87.6318C43.7093 86.9486 43.4999 86.4197 43.0812 86.0451C42.6625 85.6705 42.0454 85.4831 41.2301 85.4831H36.1064V83.0039H40.8995C42.8167 83.0039 44.2271 83.4227 45.1307 84.2601C46.0562 85.0975 46.519 86.4418 46.519 88.2929V96.2263C46.519 96.5569 46.6402 96.8103 46.8826 96.9866C47.1471 97.1408 47.5768 97.218 48.1718 97.218V99.5319H46.3537ZM42.1887 97.0527C42.8498 97.0527 43.2685 96.8984 43.4448 96.5899C43.6211 96.2814 43.7093 95.8847 43.7093 95.3999V91.7638H39.5773C39.0043 91.7638 38.5305 91.9511 38.1559 92.3257C37.7812 92.7003 37.5939 93.1741 37.5939 93.7471V95.3999C37.5939 95.9729 37.7261 96.3916 37.9906 96.656C38.255 96.9205 38.6737 97.0527 39.2467 97.0527H42.1887Z" fill="white"/>
<path d="M60.4699 78.8728C60.1173 78.8728 59.8308 78.9719 59.6104 79.1703C59.4121 79.3466 59.3129 79.578 59.3129 79.8644V83.0047H64.6349V85.4839H59.3129V97.0535H63.3127V99.5327H53.6934V97.0535H56.5032V85.4839H53.6934V83.0047H56.5032V80.0297C56.5032 78.9058 56.8227 78.0243 57.4618 77.3852C58.1009 76.7241 58.9273 76.3936 59.941 76.3936H64.9655V78.8728H60.4699Z" fill="white"/>
<path d="M78.3213 78.8728C77.9687 78.8728 77.6823 78.9719 77.4619 79.1703C77.2636 79.3466 77.1644 79.578 77.1644 79.8644V83.0047H82.4864V85.4839H77.1644V97.0535H81.1641V99.5327H71.5449V97.0535H74.3546V85.4839H71.5449V83.0047H74.3546V80.0297C74.3546 78.9058 74.6742 78.0243 75.3133 77.3852C75.9523 76.7241 76.7787 76.3936 77.7925 76.3936H82.8169V78.8728H78.3213Z" fill="white"/>
<path d="M100.404 87.9629V90.4421H89.6602V87.9629H100.404Z" fill="white"/>
<path d="M109.495 88.8887V99.5327H106.62V76.3936H109.495V86.4426H116.305V76.3936H119.181V99.5327H116.305V88.8887H109.495Z" fill="white"/>
<path d="M133.958 98.7716C133.231 99.2785 132.349 99.5319 131.314 99.5319H130.19C128.405 99.5319 127.071 99.1132 126.19 98.2758C125.33 97.4383 124.901 96.0941 124.901 94.2429V83.0039H127.711V94.9041C127.711 95.5652 127.898 96.0941 128.272 96.4907C128.669 96.8654 129.198 97.0527 129.859 97.0527H131.644C132.349 97.0527 132.867 96.8764 133.198 96.5238C133.55 96.1712 133.749 95.7745 133.793 95.3338V83.0039H136.603V99.5319H133.958V98.7716Z" fill="white"/>
<path d="M154.652 94.2437C154.652 96.0949 154.19 97.4391 153.264 98.2766C152.36 99.114 150.95 99.5327 149.033 99.5327H142.554V76.3936H145.364V83.6659C146.025 83.2251 146.851 83.0047 147.843 83.0047H149.033C150.972 83.0047 152.394 83.4235 153.297 84.2609C154.201 85.0762 154.652 86.4205 154.652 88.2937V94.2437ZM147.512 85.4839C146.785 85.4839 146.245 85.6823 145.893 86.0789C145.54 86.4536 145.364 86.8613 145.364 87.302V97.0535H149.363C150.179 97.0535 150.796 96.8662 151.215 96.4915C151.633 96.1169 151.843 95.588 151.843 94.9049V87.6326C151.843 86.9494 151.633 86.4205 151.215 86.0459C150.796 85.6713 150.179 85.4839 149.363 85.4839H147.512Z" fill="white"/>
</g>
<defs>
<clipPath id="clip0_2_694">
<rect width="155" height="100" fill="white"/>
</clipPath>
</defs>
</svg>