<svg xmlns="http://www.w3.org/2000/svg" width="117" height="53" viewBox="0 0 117 53" fill="none">
<mask id="mask0_2_725" style="mask-type:luminance" maskUnits="userSpaceOnUse" x="0" y="0" width="117" height="53">
<path d="M117 0H0V53H117V0Z" fill="white"/>
</mask>
<g mask="url(#mask0_2_725)">
<path d="M116.999 0H93.3359V53H116.999V0Z" fill="white"/>
<path fill-rule="evenodd" clip-rule="evenodd" d="M18.5887 26.0518V30.2167L2.4348 40.4785L0.121094 37.0436L14.5082 28.1557L0.121094 19.3537L2.3086 15.7899L18.5887 26.0518ZM33.917 7.80371C35.768 7.80371 36.9879 9.13475 36.9879 10.8093C36.9879 12.5697 35.768 13.9007 33.917 13.9007C32.0661 13.9007 30.804 12.5697 30.804 10.8093C30.804 9.13475 32.0661 7.80371 33.917 7.80371ZM37.1983 38.0741H43.2139V41.5949H25.798V38.0741H32.4447V22.4451H26.0083V18.9243H37.1983V38.0741ZM66.8611 40.3927C65.2625 41.4661 62.8647 42.1531 60.3827 42.1531C55.2084 42.1531 52.474 39.1904 52.474 34.725V22.4451H47.5521V18.9243H52.474V13.8578L57.2276 13.2996V18.9243H64.7156L64.1688 22.4451H57.2276V34.6821C57.2276 37.0865 58.3214 38.2458 61.0558 38.2458C62.6543 38.2458 64.0426 37.8165 65.1784 37.2154L66.8611 40.3927ZM89.467 15.5753H78.3192V23.8191C79.9598 22.9604 81.5163 22.6598 83.0728 22.6598C87.7002 22.6598 91.1077 26.1377 91.1077 32.063C91.1077 38.0312 86.9851 42.1531 80.675 42.1531C76.8889 42.1531 73.9862 40.6932 71.7567 38.2888L74.5752 35.5838C76.2158 37.43 78.1509 38.3317 80.4646 38.3317C84.0403 38.3317 86.1858 36.0561 86.1858 32.063C86.1858 27.7263 84.1665 26.2236 81.4322 26.2236C80.0019 26.2236 78.824 26.5241 77.3096 27.2111H73.818V11.9686H90.0981L89.467 15.5753Z" fill="white"/>
<path fill-rule="evenodd" clip-rule="evenodd" d="M105.173 11.3672C111.105 11.3672 114.428 15.1027 114.428 19.7398C114.428 24.9352 111.189 29.143 101.892 37.6874H115.101L114.554 41.5946H96.5069V37.945C106.898 27.7261 109.506 24.377 109.506 20.0404C109.506 17.0778 107.781 15.2315 104.837 15.2315C102.228 15.2315 100.672 16.1761 98.9468 18.3229L95.918 15.9185C98.1476 12.9988 100.966 11.3672 105.173 11.3672Z" fill="#141414"/>
</g>
</svg>
