<svg xmlns="http://www.w3.org/2000/svg" width="104" height="104" viewBox="0 0 104 104" fill="none">
<g clip-path="url(#clip0_2_723)">
<path fill-rule="evenodd" clip-rule="evenodd" d="M7.28425 8.09446C0 15.2768 0 26.8366 0 49.9563V54.0433C0 77.1631 0 88.7228 7.28425 95.9052C14.5685 103.088 26.2923 103.088 49.7399 103.088H53.885C77.3326 103.088 89.0565 103.088 96.3407 95.9052C103.625 88.7228 103.625 77.1631 103.625 54.0433V49.9563C103.625 26.8366 103.625 15.2768 96.3407 8.09446C89.0565 0.912109 77.3326 0.912109 53.885 0.912109H49.7399C26.2923 0.912109 14.5685 0.912109 7.28425 8.09446ZM17.4869 31.9906C18.0482 58.5562 31.5193 74.5211 55.1372 74.5211H56.4758V59.3225C65.1545 60.174 71.7169 66.4323 74.3507 74.5211H86.6134C83.2456 62.4305 74.3938 55.7464 68.8672 53.192C74.3938 50.0415 82.1657 42.3785 84.0223 31.9906H72.8823C70.4644 40.4201 63.2979 48.0832 56.4758 48.807V31.9906H45.3358V61.4512C38.4275 59.7482 29.7059 51.4891 29.3174 31.9906H17.4869Z" fill="white"/>
</g>
<defs>
<clipPath id="clip0_2_723">
<rect width="104" height="104" fill="white"/>
</clipPath>
</defs>
</svg>