<svg xmlns="http://www.w3.org/2000/svg" width="99" height="102" viewBox="0 0 99 102" fill="none">
<path d="M99 0H0V102H99V0Z" fill="white"/>
<path d="M65.9609 7.77637V12.535H75.911V31.1522L75.9129 31.4587H81.4834V12.535H91.4332V7.77637H65.9609Z" fill="#141414"/>
<path d="M30.1287 8.21777L22.8516 23.7849L15.5743 8.21777H7.62891V31.7563H13.1992V14.9103L20.3124 29.1423H25.3908L32.506 14.9103V31.7563H38.0762V8.21777H30.1287Z" fill="#141414"/>
<path d="M85.8446 86.3018C85.7406 87.1711 85.3563 87.9792 84.7531 88.5965C84.1268 89.1841 83.3567 89.5844 82.5259 89.7542C81.3119 90.002 80.076 90.1174 78.8386 90.0985C77.5211 90.1229 76.2085 89.9249 74.9531 89.5122C73.9239 89.1679 73.0363 88.4782 72.432 87.5533C71.8247 86.6272 71.525 85.2899 71.525 83.5896V81.1781C71.525 79.4652 71.8309 78.128 72.432 77.2018C73.035 76.2788 73.9202 75.59 74.9469 75.2449C76.2024 74.8324 77.515 74.6344 78.8327 74.6587C80.0701 74.6396 81.306 74.755 82.5199 75.0029C83.3505 75.1735 84.1205 75.5737 84.7472 76.1607C85.3501 76.7782 85.7344 77.5863 85.8384 78.4557H91.4129C91.3121 76.645 90.6419 74.9174 89.5034 73.5341C88.3807 72.2622 86.9275 71.3485 85.3162 70.9015C83.2027 70.3271 81.022 70.0581 78.8366 70.1024C76.1658 70.1024 73.8495 70.4989 71.9521 71.2792C70.0753 72.0236 68.503 73.4086 67.4976 75.2031C66.5155 76.941 65.9992 79.261 65.9648 82.1042V82.3651L66.2626 82.3776H65.9648V82.6385C65.9992 85.482 66.5155 87.8017 67.4976 89.5395C68.503 91.3341 70.0753 92.7191 71.9521 93.4635C73.8515 94.2438 76.17 94.6403 78.8366 94.6403C81.022 94.6858 83.2029 94.4168 85.3162 93.8411C86.9283 93.396 88.3819 92.482 89.5034 91.2085C90.6422 89.8255 91.3125 88.0977 91.4129 86.287L85.8446 86.3018Z" fill="#141414"/>
</svg>