        <svg xmlns="http://www.w3.org/2000/svg" width="66" height="61" viewBox="0 0 66 61" fill="none">
            <path d="M65.855 46.795C65.8793 46.7708 65.8793 46.7708 65.855 46.795V46.795Z" fill="#4CC326"/>
            <path d="M65.3716 45.1324L60.6574 41.0983C60.4398 40.9027 60.4398 40.8294 60.3431 40.6338C60.4156 40.3159 60.4881 39.9981 60.5365 39.6803L60.8991 39.6558C61.2134 39.6314 61.4793 39.5091 61.6244 39.2646L65.7101 33.3236C65.7343 33.2991 65.7343 33.2991 65.7585 33.2747C65.9035 33.0057 65.9035 32.639 65.7585 32.3212L63.3409 27.1869C63.0991 26.649 62.5189 26.1845 61.9145 26.0622L56.6442 24.9376C56.3541 24.8642 55.9914 24.6198 55.798 24.3264C54.1057 21.9059 52.0749 19.5833 49.7541 17.4562C49.6332 17.3584 49.5365 17.2362 49.4881 17.1384C49.4639 17.065 49.464 17.0161 49.464 17.0161L50.6486 13.4222C50.7453 13.1777 50.7211 12.9087 50.576 12.6153C50.431 12.322 50.1892 12.0286 49.8991 11.8085L44.242 7.89671C43.5892 7.45663 42.8881 7.40773 42.5013 7.77446L39.6969 10.1705C39.6486 10.1949 39.4793 10.1949 39.2134 10.0482C36.3848 8.55683 33.5321 7.43218 30.7035 6.67426C30.4134 6.60092 30.0991 6.35643 29.9541 6.13639L26.9563 1.41775C26.6178 0.879874 25.9892 0.464243 25.3848 0.415345L19.8727 -0.000286401C19.4859 -0.0247353 19.1716 0.0730603 18.9541 0.341998C18.6881 0.806527 17.1892 2.93358 14.8683 6.30753C14.6749 6.55202 14.6508 6.86985 14.7475 7.16324L14.8683 7.52997V7.55442C14.6024 7.70112 14.3606 7.84781 14.0947 8.01895C14.0464 8.0434 13.8288 8.0434 13.5387 7.87226L8.14746 4.76725C7.47054 4.37607 6.74526 4.44941 6.43098 4.91394L3.02219 9.82817L0.16944 14.1801C-0.24155 14.718 0.16944 15.3781 0.652956 15.8671L5.34307 19.8033C5.609 20.0478 5.56065 20.0723 5.68153 20.3167C5.609 20.6101 5.53647 20.9524 5.5123 21.2703L5.14966 21.2947C4.88373 21.3192 4.64197 21.4414 4.49691 21.637C4.30351 21.8081 1.13647 26.5268 0.387022 27.6025C0.16944 27.8959 0.145264 28.2626 0.33867 28.6783L2.73208 33.7636C2.97384 34.3015 3.55406 34.7905 4.15845 34.9127C5.12548 35.1328 6.74526 35.4751 8.05076 35.744L9.4046 36.0374C9.4046 36.0374 9.4046 36.0374 9.42878 36.0374C9.74307 36.1107 10.0815 36.3552 10.2749 36.6486C10.3475 36.7709 10.4442 36.8931 10.5167 37.0153L10.4683 37.0398C10.565 37.162 12.2815 39.6314 14.7475 42.0274C15.2552 42.5408 15.7628 43.0298 16.2947 43.5188C16.5123 43.7388 16.5606 43.861 16.5606 44.0811C16.4398 44.4234 15.4727 47.3572 15.4002 47.5528C15.3035 47.7973 15.3277 48.0662 15.4969 48.4085C15.5936 48.6286 15.8354 48.922 16.1738 49.1665L21.7826 53.1027C22.4112 53.5428 23.1123 53.5917 23.5233 53.2494L26.3277 50.829C26.376 50.8045 26.5453 50.8045 26.8112 50.9512C29.6398 52.4426 32.5167 53.5673 35.3453 54.3252C35.6354 54.3985 35.9255 54.6186 36.0705 54.863L39.0442 59.5817C39.4068 60.0951 40.0354 60.5107 40.5914 60.5596L46.1519 60.9997C46.7079 61.0486 46.9497 60.7797 47.0705 60.633L51.1079 54.7164C51.3255 54.3985 51.3255 54.1296 51.2288 53.8362L51.1321 53.4939C51.3738 53.3228 51.6156 53.1761 51.8815 53.0049C51.9299 52.9805 52.1233 52.956 52.4134 53.1027L52.4376 53.1272L57.853 56.2566C58.5299 56.6234 59.2068 56.5745 59.5453 56.1099C59.6661 55.9388 65.4925 47.3572 65.8552 46.8194C66.1453 46.4037 66.0486 45.6703 65.3716 45.1324ZM60.8266 38.7757L60.6332 38.8001C60.7541 37.3332 60.6332 35.7196 60.2705 34.057L64.2596 33.7636L60.8266 38.7757ZM19.0266 1.83338C19.0749 2.00452 20.1145 5.57406 20.187 5.7941C18.6156 6.06304 17.1167 6.40532 15.6903 7.08989L15.6178 6.84541L19.0266 1.83338ZM1.25735 15.2069C0.798011 14.6935 1.01559 14.8646 0.894714 14.6935C1.01559 14.5224 4.13427 9.80372 4.32768 9.51034C4.44856 9.65703 4.64197 9.85262 4.71449 9.90152L9.42878 13.9111C9.59801 14.0578 9.71889 14.2045 9.71889 14.4001C9.2112 16.5027 9.33208 18.8743 9.79142 20.9769L6.38263 21.2214C6.4068 21.0013 6.45515 20.7813 6.50351 20.5857C6.62438 20.0478 6.28592 19.5588 5.89911 19.1677L1.25735 15.2069ZM9.3079 35.1083L8.21999 34.8883C6.91449 34.6194 5.29471 34.2771 4.32768 34.0326C4.0134 33.9592 3.65076 33.6903 3.52988 33.4214L1.13647 28.3115C1.06395 28.2137 1.08812 28.1648 1.08812 28.1893L4.54526 23.1039C4.64197 23.2995 6.84197 28.0426 6.76944 27.847C7.0112 28.3849 7.68812 28.8983 8.21999 29.0206C8.38922 29.0695 12.62 29.9252 12.7892 29.9741C9.96065 34.1548 10.831 32.8346 9.3079 35.1083ZM11.2661 36.4775C11.1694 36.3797 11.0969 36.2574 11.0002 36.1596C10.8068 35.8662 10.5167 35.5973 10.2024 35.4017L13.7321 30.1941C13.998 30.2919 14.2156 30.5119 14.3365 30.7075C15.9079 32.9324 18.3738 35.7685 20.3804 37.5777C20.5497 37.7244 20.6222 37.7977 20.6705 37.9689C20.5738 38.1155 17.8661 42.0274 17.2617 42.932C13.9255 40.2671 11.2903 36.5019 11.2661 36.4775ZM25.6991 50.1689L25.6508 50.2178L22.9431 52.5404C22.8947 52.5648 22.6046 52.5404 22.2661 52.3448L16.6574 48.4085C16.5123 48.2863 16.3672 48.1396 16.2705 47.9929C16.2222 47.8707 16.2222 47.8462 16.2464 47.8462L17.4068 44.3256L19.6552 41.0494L19.4617 41.5873C19.2442 42.1496 19.7277 42.8586 20.2112 43.2009L25.82 47.1372C26.4486 47.5773 27.1497 47.6262 27.5606 47.2839L27.7057 47.1616L25.6991 50.1689ZM35.5629 53.445C32.8068 52.7115 29.9782 51.5869 27.2222 50.12C27.1255 50.0711 27.0046 50.0222 26.9079 49.9977L30.3892 44.8634C30.3892 44.8634 30.4134 44.8634 30.4134 44.839C30.4618 44.8145 30.6552 44.839 30.8969 44.9612C33.7255 46.4526 36.5782 47.6017 39.4068 48.3596C39.6244 48.4085 39.8178 48.5308 39.9628 48.6775L36.3848 53.8606C36.1672 53.6895 35.8771 53.5184 35.5629 53.445ZM49.8266 55.0097L46.3694 60.0951C46.3694 60.0951 46.3211 60.1196 46.2244 60.0951L40.6639 59.655C40.3497 59.6306 39.987 59.3861 39.7936 59.0683L36.9892 54.6186L40.5189 49.4843L43.1299 53.5917C43.4683 54.1296 44.1211 54.5208 44.6771 54.5697C44.8705 54.5941 50.02 55.0097 49.8266 55.0097ZM51.3738 52.2226C51.2046 52.3448 51.0354 52.4426 50.8661 52.5404L49.8991 49.2398C52.2683 48.922 54.2991 48.164 55.9672 47.0149L56.0156 46.9905L52.4859 52.1248C52.0749 52.027 51.6881 52.027 51.3738 52.2226ZM58.82 55.5476C58.7716 55.5721 58.5782 55.5721 58.2881 55.4254L53.3079 52.5648L56.8859 47.3817L61.9387 50.2667C62.0837 50.34 62.2046 50.3889 62.3255 50.4378L58.82 55.5476ZM65.1057 46.2815L62.9057 49.6065C62.8574 49.6554 62.6156 49.631 62.3738 49.4598C62.2046 49.362 56.62 46.1592 56.9585 46.3548H56.9343C56.3299 46.0125 55.653 46.1592 55.4596 46.2815C53.9365 47.3572 52.0266 48.0418 49.7782 48.3352C49.198 48.4574 48.8354 48.922 49.053 49.5332C49.1013 49.7288 50.431 54.0318 50.3826 53.8362L50.4552 54.0807C50.4552 54.1051 50.4068 54.1051 50.3343 54.1051C50.165 54.0807 50.2859 54.1051 50.3343 54.1051C50.2376 54.1051 49.3672 54.0318 44.798 53.665C44.4837 53.6406 44.0969 53.3961 43.9277 53.1027C43.8552 53.0049 40.9782 48.433 40.9057 48.3596C40.6639 47.944 40.2046 47.6262 39.6969 47.4795C36.9409 46.7216 34.1365 45.6214 31.3563 44.1544C30.9211 43.9099 30.4376 43.8855 30.0991 44.0322C29.9057 44.0566 29.9541 44.1055 27.1013 46.5504C26.9321 46.6238 26.6178 46.4526 26.4244 46.3548L20.8156 42.4186C20.3563 42.0763 20.5255 42.0763 20.4046 41.8807L21.5892 38.2867C21.6618 37.7733 21.565 37.3087 21.0574 36.8931C18.7606 34.7905 16.5606 32.1989 15.1343 30.1941V30.1697C14.6749 29.5095 14.2156 29.3873 13.6595 29.1917C12.8859 29.0206 11.4112 28.7027 8.46175 28.0915C8.14746 27.9937 7.76065 27.7492 7.66395 27.4558C7.51889 27.138 8.34087 28.8983 5.27054 22.3216C5.22219 22.2727 5.22219 22.1993 5.24636 22.1993C5.27054 22.1993 5.27054 22.1993 5.27054 22.1993C5.46395 22.1749 7.30131 22.0282 9.93647 21.857C10.5409 21.8326 10.9277 21.3192 10.7826 20.7324C10.3475 18.8254 10.2024 16.4538 10.6859 14.5713C10.7585 14.3268 10.6859 13.74 10.0815 13.2021L5.29471 9.1925C4.83537 8.77687 5.02878 8.70352 4.95625 8.70352L7.15625 5.42737C7.15625 5.42737 7.15625 5.42737 7.18043 5.42737C7.22878 5.40292 7.44636 5.40292 7.7123 5.54961L13.1277 8.65462C13.6837 8.94801 14.2398 8.99691 14.6266 8.72797C16.3914 7.57887 18.4705 6.86985 20.3079 6.64981C20.3563 6.62537 20.4046 6.64981 20.4771 6.62537C20.9848 6.42977 21.2266 6.03859 21.0815 5.45182C20.598 3.91154 19.7035 1.07547 19.6552 0.879874H19.7035C19.7277 0.855425 19.7519 0.855425 19.8002 0.879874L25.3365 1.29551C25.6508 1.31995 26.0376 1.56444 26.231 1.85783L29.2046 6.57647C29.4705 6.9921 29.9541 7.35883 30.4618 7.50553C33.242 8.23899 36.0464 9.36364 38.8024 10.8061C39.4068 11.124 39.9629 11.0995 40.2771 10.8061L43.0815 8.38569C43.1541 8.36124 43.42 8.36124 43.7585 8.58128L49.3672 12.5176C49.5606 12.6398 49.6815 12.8109 49.7541 12.9576C49.7782 13.0065 49.7782 13.0554 49.8024 13.0799V13.1043L48.5936 16.6983C48.5211 16.9184 48.5453 17.2117 48.6661 17.4807C48.7629 17.7007 48.9079 17.8963 49.1255 18.0919C51.398 20.1701 53.3804 22.4438 55.0486 24.7909C55.3629 25.2554 55.9189 25.6466 56.4508 25.7444L61.7211 26.8691C62.0354 26.9424 62.398 27.2113 62.5189 27.5047L64.9365 32.639C64.9607 32.6879 64.9607 32.7123 64.9607 32.7368C64.9607 32.7612 64.9365 32.7612 64.9365 32.7612C62.8574 32.9079 60.0771 33.128 60.2464 33.128H60.2222C59.6903 33.1524 59.2793 33.5436 59.4002 34.2526C59.787 35.9151 59.9321 38.1155 59.5936 39.7292C59.5453 40.3404 59.0859 40.9027 60.0771 41.7829L64.7914 45.8169C64.9365 45.9147 65.0332 46.037 65.0815 46.1592C65.1299 46.2326 65.1057 46.2815 65.1057 46.2815Z" fill="#4CC326"/>
            <path d="M48.3033 28.336C45.1121 21.5148 36.5539 15.6226 29.4462 15.0602C22.0242 14.4735 18.4945 19.6811 21.6857 26.5757C24.8528 33.2991 33.3143 39.2647 40.5429 39.827C42.9363 40.0226 44.9671 39.6069 46.4901 38.6779C50.0682 36.4775 50.1165 32.2478 48.3033 28.336ZM45.8374 38.0178C44.4835 38.7757 42.6945 39.0935 40.6154 38.9224C33.6528 38.36 25.5297 32.6635 22.4835 26.1845C21.6374 24.3508 21.2748 22.6639 21.3956 21.1725C21.4198 21.0013 21.4682 20.8791 21.4923 20.7324C22.822 19.9745 24.6352 19.6566 26.7143 19.8278C33.677 20.3657 41.8 26.0867 44.8462 32.5901C45.7649 34.5216 46.1033 36.4041 45.8374 38.0178ZM46.8286 37.3087C46.9011 35.744 46.4901 33.9837 45.6682 32.1745C42.5253 25.4266 34.0638 19.4611 26.811 18.8987C24.9011 18.752 23.2088 18.9721 21.8066 19.5588C22.9671 16.5516 26.2066 15.7204 29.3737 15.9649C36.0945 16.4783 44.3868 22.0526 47.4813 28.7272C48.8594 31.6855 49.2704 35.1328 46.8286 37.3087Z" fill="#4CC326"/>
        </svg>