<svg xmlns="http://www.w3.org/2000/svg" xmlns:xlink="http://www.w3.org/1999/xlink" preserveAspectRatio="xMidYMid meet" width="150" height="150" viewBox="0 0 150 150" style="width:100%;height:100%"><defs><animateMotion repeatCount="indefinite" dur="18.8666667s" begin="0s" xlink:href="#_R_G_L_0_G" fill="freeze" keyTimes="0;0.1248896;0.2497792;0.3746687;0.4995583;0.6244479;0.7493375;0.874227;0.9991166;1" path="M50 50 C50,50 50,56 50,56 C50,56 50,50 50,50 C50,50 50,45 50,45 C50,45 50,50 50,50 C50,50 50,56 50,56 C50,56 50,50 50,50 C50,50 50,45 50,45 C50,45 50,50 50,50 C50,50 50,50 50,50 " keyPoints="0;0.14;0.27;0.39;0.5;0.64;0.77;0.89;1;1" keySplines="0.53 0 0.47 1;0.53 0 0.833 0.847;0.167 0.183 0.47 1;0.53 0 0.47 1;0.53 0 0.47 1;0.53 0 0.833 0.847;0.167 0.183 0.47 1;0.53 0 0.47 1;0 0 0 0" calcMode="spline"/><animateTransform repeatCount="indefinite" dur="18.8666667s" begin="0s" xlink:href="#_R_G_L_0_G" fill="freeze" attributeName="transform" from="0" to="0" type="rotate" additive="sum" keyTimes="0;0.1248896;0.2497792;0.3750866;0.4995583;0.6244479;0.7493375;0.8746449;0.9991166;1" values="0;9;0;-10;0;9;0;-10;0;0" keySplines="0.53 0 0.47 1;0.53 0 0.833 0.824;0.167 0.159 0.47 1;0.53 0 0.47 1;0.53 0 0.47 1;0.53 0 0.833 0.824;0.167 0.159 0.47 1;0.53 0 0.47 1;0 0 0 0" calcMode="spline"/><animateTransform repeatCount="indefinite" dur="18.8666667s" begin="0s" xlink:href="#_R_G_L_0_G" fill="freeze" attributeName="transform" from="-1480.904 -429.936" to="-1480.904 -429.936" type="translate" additive="sum" keyTimes="0;1" values="-1480.904 -429.936;-1480.904 -429.936" keySplines="0 0 1 1" calcMode="spline"/><animate attributeType="XML" attributeName="opacity" dur="19s" from="0" to="1" xlink:href="#time_group"/></defs><g id="_R_G"><g id="_R_G_L_0_G_N_1_T_0" transform=" translate(75, 75) translate(-50, -50)"><g id="_R_G_L_0_G"><path id="_R_G_L_0_G_D_0_P_0" stroke="#4cc326" stroke-linecap="round" stroke-linejoin="round" fill="none" stroke-width="1.067" stroke-opacity="1" d=" M1531.68 456.98 C1531.68,456.98 1435.76,487.57 1435.76,487.57 C1431.76,488.85 1428.52,486.64 1428.52,482.64 C1428.52,482.64 1428.52,418.08 1428.52,418.08 C1428.52,414.07 1431.77,409.81 1435.76,408.53 C1435.76,408.53 1531.68,377.94 1531.68,377.94 C1535.68,376.67 1538.92,378.87 1538.92,382.88 C1538.92,382.88 1538.92,447.44 1538.92,447.44 C1538.92,451.43 1535.68,455.71 1531.68,456.98z "/><path id="_R_G_L_0_G_D_1_P_0" stroke="#4cc326" stroke-linecap="round" stroke-linejoin="round" fill="none" stroke-width="1.067" stroke-opacity="1" d=" M1428.24 422.83 C1428.24,422.83 1538.3,387.74 1538.3,387.74 "/><path id="_R_G_L_0_G_D_2_P_0" stroke="#4cc326" stroke-linecap="round" stroke-linejoin="round" fill="none" stroke-width="1.067" stroke-opacity="1" d=" M1424.39 480.94 C1423.45,480.02 1422.88,478.66 1422.88,477 C1422.88,477 1422.88,412.43 1422.88,412.43 C1422.88,408.43 1426.12,404.17 1430.11,402.89 C1430.11,402.89 1526.04,372.3 1526.04,372.3 C1528.42,371.54 1530.54,372.02 1531.85,373.37 "/><path id="_R_G_L_0_G_D_3_P_0" fill="#4cc326" fill-opacity="1" fill-rule="nonzero" d=" M1437.7 415.47 C1438.4,414.65 1438.49,413.56 1437.89,413.05 C1437.29,412.54 1436.23,412.79 1435.53,413.62 C1434.82,414.44 1434.74,415.53 1435.34,416.04 C1435.94,416.55 1437,416.3 1437.7,415.47z "/><path id="_R_G_L_0_G_D_4_P_0" fill="#4cc326" fill-opacity="1" fill-rule="nonzero" d=" M1443.34 413.67 C1444.05,412.85 1444.13,411.76 1443.53,411.25 C1442.93,410.74 1441.87,410.99 1441.17,411.82 C1440.46,412.64 1440.38,413.73 1440.98,414.24 C1441.58,414.75 1442.64,414.5 1443.34,413.67z "/><path id="_R_G_L_0_G_D_5_P_0" fill="#4cc326" fill-opacity="1" fill-rule="nonzero" d=" M1449 411.87 C1449.7,411.04 1449.79,409.96 1449.19,409.45 C1448.59,408.93 1447.53,409.19 1446.82,410.01 C1446.12,410.84 1446.03,411.92 1446.63,412.44 C1447.23,412.95 1448.29,412.69 1449,411.87z "/><path id="_R_G_L_0_G_D_6_P_0" fill="#4cc326" fill-opacity="1" fill-rule="nonzero" d=" M1453.73 443.79 C1452.58,444.16 1451.59,444.18 1450.76,443.86 C1449.94,443.54 1449.3,442.89 1448.87,441.93 C1448.42,440.96 1448.21,439.69 1448.21,438.13 C1448.21,436.56 1448.43,435.16 1448.88,433.92 C1449.33,432.69 1449.95,431.64 1450.77,430.8 C1451.59,429.96 1452.59,429.35 1453.73,428.99 C1454.88,428.62 1455.87,428.59 1456.69,428.91 C1457.52,429.22 1458.15,429.86 1458.6,430.82 C1459.04,431.79 1459.25,433.04 1459.25,434.6 C1459.25,436.17 1459.03,437.58 1458.6,438.83 C1458.15,440.07 1457.52,441.13 1456.7,441.97 C1455.87,442.82 1454.88,443.43 1453.73,443.79z  M1453.73 441.59 C1454.63,441.31 1455.33,440.64 1455.86,439.59 C1456.38,438.53 1456.64,437.15 1456.64,435.42 C1456.64,434.29 1456.52,433.37 1456.29,432.67 C1456.04,431.97 1455.71,431.49 1455.27,431.24 C1454.84,430.98 1454.32,430.94 1453.73,431.14 C1452.84,431.42 1452.13,432.09 1451.62,433.14 C1451.1,434.2 1450.83,435.58 1450.83,437.29 C1450.83,438.43 1450.95,439.35 1451.18,440.06 C1451.41,440.77 1451.75,441.25 1452.18,441.5 C1452.62,441.76 1453.13,441.79 1453.73,441.59z "/><path id="_R_G_L_0_G_D_7_P_0" fill="#4cc326" fill-opacity="1" fill-rule="nonzero" d=" M1466.88 439.6 C1465.73,439.96 1464.75,439.99 1463.92,439.67 C1463.1,439.34 1462.46,438.7 1462.02,437.73 C1461.58,436.76 1461.36,435.49 1461.36,433.93 C1461.36,432.36 1461.59,430.96 1462.03,429.73 C1462.48,428.49 1463.11,427.45 1463.93,426.61 C1464.75,425.77 1465.74,425.16 1466.88,424.79 C1468.03,424.43 1469.02,424.4 1469.84,424.71 C1470.67,425.03 1471.3,425.67 1471.75,426.63 C1472.19,427.59 1472.41,428.85 1472.41,430.41 C1472.41,431.98 1472.18,433.39 1471.75,434.63 C1471.3,435.88 1470.67,436.93 1469.85,437.77 C1469.02,438.62 1468.04,439.23 1466.88,439.6z  M1466.88 437.4 C1467.79,437.12 1468.49,436.45 1469.01,435.39 C1469.53,434.34 1469.79,432.95 1469.79,431.23 C1469.79,430.09 1469.67,429.17 1469.44,428.47 C1469.19,427.77 1468.86,427.3 1468.42,427.04 C1467.99,426.79 1467.47,426.75 1466.88,426.94 C1465.99,427.23 1465.28,427.89 1464.77,428.95 C1464.25,430 1463.99,431.38 1463.99,433.09 C1463.99,434.24 1464.1,435.16 1464.33,435.87 C1464.56,436.58 1464.9,437.05 1465.33,437.31 C1465.77,437.56 1466.29,437.59 1466.88,437.4z "/><path id="_R_G_L_0_G_D_8_P_0" fill="#4cc326" fill-opacity="1" fill-rule="nonzero" d=" M1480.57 420.61 C1480.57,420.61 1480.57,434.96 1480.57,434.96 C1480.57,434.96 1477.97,435.79 1477.97,435.79 C1477.97,435.79 1477.97,423.97 1477.97,423.97 C1477.97,423.97 1477.89,424 1477.89,424 C1477.89,424 1474.53,427.22 1474.53,427.22 C1474.53,427.22 1474.53,424.84 1474.53,424.84 C1474.53,424.84 1478.1,421.41 1478.1,421.41 C1478.1,421.41 1480.57,420.61 1480.57,420.61z "/><path id="_R_G_L_0_G_D_9_P_0" fill="#4cc326" fill-opacity="1" fill-rule="nonzero" d=" M1489.53 432.37 C1488.38,432.74 1487.39,432.77 1486.56,432.45 C1485.74,432.12 1485.1,431.47 1484.67,430.51 C1484.22,429.54 1484.01,428.27 1484.01,426.71 C1484.01,425.14 1484.23,423.74 1484.68,422.51 C1485.12,421.27 1485.75,420.23 1486.57,419.38 C1487.39,418.54 1488.39,417.94 1489.53,417.57 C1490.68,417.21 1491.67,417.18 1492.49,417.49 C1493.32,417.8 1493.95,418.44 1494.39,419.4 C1494.84,420.37 1495.05,421.62 1495.05,423.18 C1495.05,424.75 1494.83,426.16 1494.39,427.41 C1493.95,428.66 1493.32,429.71 1492.5,430.55 C1491.67,431.4 1490.68,432.01 1489.53,432.37z  M1489.53 430.19 C1490.42,429.9 1491.13,429.23 1491.66,428.18 C1492.18,427.13 1492.44,425.74 1492.44,424.01 C1492.44,422.88 1492.32,421.96 1492.08,421.26 C1491.84,420.56 1491.51,420.08 1491.07,419.83 C1490.64,419.58 1490.12,419.54 1489.53,419.73 C1488.64,420.01 1487.93,420.68 1487.41,421.74 C1486.9,422.79 1486.63,424.17 1486.63,425.88 C1486.63,427.02 1486.74,427.95 1486.98,428.66 C1487.21,429.36 1487.54,429.84 1487.98,430.09 C1488.42,430.34 1488.93,430.38 1489.53,430.19z "/><path id="_R_G_L_0_G_D_10_P_0" fill="#4cc326" fill-opacity="1" fill-rule="nonzero" d=" M1503.22 413.4 C1503.22,413.4 1503.22,427.74 1503.22,427.74 C1503.22,427.74 1500.62,428.57 1500.62,428.57 C1500.62,428.57 1500.62,416.76 1500.62,416.76 C1500.62,416.76 1500.53,416.79 1500.53,416.79 C1500.53,416.79 1497.18,420 1497.18,420 C1497.18,420 1497.18,417.61 1497.18,417.61 C1497.18,417.61 1500.75,414.19 1500.75,414.19 C1500.75,414.19 1503.22,413.4 1503.22,413.4z "/><path id="_R_G_L_0_G_D_11_P_0" fill="#4cc326" fill-opacity="1" fill-rule="nonzero" d=" M1512.7 410.37 C1512.7,410.37 1512.7,424.71 1512.7,424.71 C1512.7,424.71 1510.1,425.54 1510.1,425.54 C1510.1,425.54 1510.1,413.73 1510.1,413.73 C1510.1,413.73 1510.02,413.76 1510.02,413.76 C1510.02,413.76 1506.66,416.97 1506.66,416.97 C1506.66,416.97 1506.66,414.59 1506.66,414.59 C1506.66,414.59 1510.23,411.17 1510.23,411.17 C1510.23,411.17 1512.7,410.37 1512.7,410.37z "/><path id="_R_G_L_0_G_D_12_P_0" fill="#4cc326" fill-opacity="1" fill-rule="nonzero" d=" M1454.26 450.68 C1454.26,450.68 1454.26,465.03 1454.26,465.03 C1454.26,465.03 1451.67,465.86 1451.67,465.86 C1451.67,465.86 1451.67,454.05 1451.67,454.05 C1451.67,454.05 1451.58,454.08 1451.58,454.08 C1451.58,454.08 1448.23,457.29 1448.23,457.29 C1448.23,457.29 1448.23,454.9 1448.23,454.9 C1448.23,454.9 1451.8,451.47 1451.8,451.47 C1451.8,451.47 1454.26,450.68 1454.26,450.68z "/><path id="_R_G_L_0_G_D_13_P_0" fill="#4cc326" fill-opacity="1" fill-rule="nonzero" d=" M1463.74 447.66 C1463.74,447.66 1463.74,462.01 1463.74,462.01 C1463.74,462.01 1461.14,462.84 1461.14,462.84 C1461.14,462.84 1461.14,451.03 1461.14,451.03 C1461.14,451.03 1461.06,451.06 1461.06,451.06 C1461.06,451.06 1457.7,454.27 1457.7,454.27 C1457.7,454.27 1457.7,451.89 1457.7,451.89 C1457.7,451.89 1461.27,448.46 1461.27,448.46 C1461.27,448.46 1463.74,447.66 1463.74,447.66z "/><path id="_R_G_L_0_G_D_14_P_0" fill="#4cc326" fill-opacity="1" fill-rule="nonzero" d=" M1472.7 459.43 C1471.55,459.79 1470.56,459.82 1469.73,459.5 C1468.91,459.17 1468.27,458.53 1467.84,457.56 C1467.39,456.59 1467.18,455.32 1467.18,453.76 C1467.18,452.19 1467.4,450.79 1467.85,449.56 C1468.29,448.32 1468.92,447.28 1469.74,446.44 C1470.56,445.6 1471.56,444.99 1472.7,444.62 C1473.85,444.26 1474.84,444.23 1475.66,444.54 C1476.49,444.86 1477.12,445.5 1477.56,446.46 C1478.01,447.42 1478.22,448.68 1478.22,450.24 C1478.22,451.81 1478,453.22 1477.56,454.46 C1477.12,455.71 1476.49,456.76 1475.67,457.6 C1474.84,458.45 1473.86,459.06 1472.7,459.43z  M1472.7 457.23 C1473.6,456.95 1474.3,456.28 1474.83,455.22 C1475.34,454.17 1475.61,452.78 1475.61,451.06 C1475.61,449.92 1475.49,449 1475.25,448.3 C1475.01,447.6 1474.68,447.13 1474.24,446.87 C1473.8,446.62 1473.29,446.58 1472.7,446.77 C1471.81,447.06 1471.1,447.72 1470.58,448.78 C1470.07,449.83 1469.8,451.21 1469.8,452.92 C1469.8,454.07 1469.91,454.99 1470.15,455.7 C1470.38,456.41 1470.71,456.88 1471.15,457.14 C1471.59,457.39 1472.1,457.42 1472.7,457.23z "/><path id="_R_G_L_0_G_D_15_P_0" fill="#4cc326" fill-opacity="1" fill-rule="nonzero" d=" M1485.85 455.23 C1484.7,455.6 1483.71,455.63 1482.88,455.3 C1482.06,454.98 1481.43,454.33 1480.99,453.37 C1480.54,452.39 1480.33,451.13 1480.33,449.57 C1480.33,448 1480.55,446.6 1481,445.36 C1481.45,444.13 1482.07,443.08 1482.89,442.24 C1483.71,441.4 1484.71,440.79 1485.85,440.43 C1487,440.06 1487.99,440.03 1488.81,440.35 C1489.64,440.66 1490.27,441.3 1490.72,442.26 C1491.16,443.22 1491.38,444.48 1491.38,446.04 C1491.38,447.61 1491.15,449.02 1490.72,450.27 C1490.27,451.51 1489.64,452.57 1488.82,453.41 C1488,454.26 1487.01,454.87 1485.85,455.23z  M1485.85 453.03 C1486.75,452.75 1487.45,452.08 1487.98,451.03 C1488.5,449.97 1488.76,448.58 1488.76,446.86 C1488.76,445.73 1488.64,444.81 1488.41,444.11 C1488.16,443.41 1487.83,442.93 1487.39,442.68 C1486.96,442.42 1486.44,442.38 1485.85,442.58 C1484.96,442.86 1484.25,443.53 1483.74,444.58 C1483.22,445.64 1482.96,447.01 1482.96,448.73 C1482.96,449.87 1483.07,450.79 1483.3,451.5 C1483.53,452.21 1483.87,452.69 1484.3,452.94 C1484.74,453.2 1485.26,453.23 1485.85,453.03z "/><path id="_R_G_L_0_G_D_16_P_0" fill="#4cc326" fill-opacity="1" fill-rule="nonzero" d=" M1499.01 451.04 C1497.86,451.4 1496.88,451.43 1496.05,451.11 C1495.22,450.78 1494.59,450.13 1494.15,449.17 C1493.72,448.21 1493.49,446.93 1493.49,445.37 C1493.49,443.8 1493.72,442.4 1494.16,441.17 C1494.61,439.93 1495.23,438.89 1496.06,438.05 C1496.88,437.21 1497.87,436.6 1499.01,436.23 C1500.16,435.87 1501.15,435.84 1501.97,436.15 C1502.8,436.47 1503.43,437.11 1503.88,438.07 C1504.32,439.03 1504.54,440.29 1504.54,441.85 C1504.54,443.42 1504.31,444.83 1503.88,446.07 C1503.43,447.32 1502.8,448.37 1501.98,449.21 C1501.15,450.06 1500.17,450.67 1499.01,451.04z  M1499.01 448.84 C1499.91,448.55 1500.62,447.89 1501.14,446.83 C1501.66,445.78 1501.92,444.39 1501.92,442.67 C1501.92,441.53 1501.8,440.61 1501.57,439.91 C1501.32,439.21 1500.99,438.74 1500.55,438.48 C1500.12,438.23 1499.6,438.19 1499.01,438.38 C1498.12,438.66 1497.41,439.33 1496.9,440.39 C1496.38,441.44 1496.12,442.82 1496.12,444.53 C1496.12,445.68 1496.23,446.6 1496.46,447.31 C1496.69,448.02 1497.03,448.49 1497.46,448.75 C1497.9,449 1498.42,449.03 1499.01,448.84z "/><path id="_R_G_L_0_G_D_17_P_0" fill="#4cc326" fill-opacity="1" fill-rule="nonzero" d=" M1512.7 432.05 C1512.7,432.05 1512.7,446.4 1512.7,446.4 C1512.7,446.4 1510.1,447.23 1510.1,447.23 C1510.1,447.23 1510.1,435.41 1510.1,435.41 C1510.1,435.41 1510.02,435.44 1510.02,435.44 C1510.02,435.44 1506.66,438.66 1506.66,438.66 C1506.66,438.66 1506.66,436.28 1506.66,436.28 C1506.66,436.28 1510.23,432.85 1510.23,432.85 C1510.23,432.85 1512.7,432.05 1512.7,432.05z "/><path id="_R_G_L_0_G_D_18_P_0" stroke="#4cc326" stroke-linecap="round" stroke-linejoin="round" fill="none" stroke-width="1.067" stroke-opacity="1" d=" M1429.77 486.32 C1429.77,486.32 1423.8,480.32 1423.8,480.32 "/><path id="_R_G_L_0_G_D_19_P_0" stroke="#4cc326" stroke-linecap="round" stroke-linejoin="round" fill="none" stroke-width="1.067" stroke-opacity="1" d=" M1428.65 422.65 C1428.65,422.65 1422.95,416.94 1422.95,416.94 "/><path id="_R_G_L_0_G_D_20_P_0" stroke="#4cc326" stroke-linecap="round" stroke-linejoin="round" fill="none" stroke-width="1.067" stroke-opacity="1" d=" M1430.28 412.5 C1430.28,412.5 1424.94,407.1 1424.94,407.1 "/><path id="_R_G_L_0_G_D_21_P_0" stroke="#4cc326" stroke-linecap="round" stroke-linejoin="round" fill="none" stroke-width="1.067" stroke-opacity="1" d=" M1537.48 378.99 C1537.48,378.99 1531.36,372.89 1531.36,372.89 "/></g></g></g><g id="time_group"/></svg>