<svg xmlns="http://www.w3.org/2000/svg" xmlns:xlink="http://www.w3.org/1999/xlink" preserveAspectRatio="xMidYMid meet" width="110" height="110" viewBox="0 0 110 110" style="width:100%;height:100%"><defs><animateMotion repeatCount="indefinite" dur="18.8666667s" begin="0s" xlink:href="#_R_G_L_2_G" fill="freeze" keyTimes="0;0.125;0.25;0.375;0.5;0.625;0.75;0.875;1" path="M0 0 C0,0 5.42,4.55 5.42,4.55 C5.42,4.55 0,0 0,0 C0,0 0,0 0,0 C0,0 0,0 0,0 C0,0 5.42,4.55 5.42,4.55 C5.42,4.55 0,0 0,0 C0,0 0,0 0,0 C0,0 0,0 0,0 " keyPoints="0;0.25;0.5;0.5;0.5;0.75;1;1;1" keySplines="0.53 0 0.47 1;0.53 0 0.833 0.917;0.167 0.167 0.47 0.47;0.53 0.53 0.47 0.47;0.53 0 0.47 1;0.53 0 0.833 0.917;0.167 0.167 0.47 0.47;0.53 0.53 0.47 0.47" calcMode="spline"/><animateTransform repeatCount="indefinite" dur="18.8666667s" begin="0s" xlink:href="#_R_G_L_2_G" fill="freeze" attributeName="transform" from="0" to="0" type="rotate" additive="sum" keyTimes="0;0.125;0.25;0.375;0.5;0.625;0.75;0.875;1" values="0;-18;0;-19;0;-18;0;-19;0" keySplines="0.53 0 0.47 1;0.53 0 0.833 1;0.167 0.004 0.47 1;0.53 0 0.47 1;0.53 0 0.47 1;0.53 0 0.833 1;0.167 0.004 0.47 1;0.53 0 0.47 1" calcMode="spline"/><animateTransform repeatCount="indefinite" dur="18.8666667s" begin="0s" xlink:href="#_R_G_L_2_G" fill="freeze" attributeName="transform" from="-327.654 -469.768" to="-327.654 -469.768" type="translate" additive="sum" keyTimes="0;1" values="-327.654 -469.768;-327.654 -469.768" keySplines="0 0 1 1" calcMode="spline"/><animateMotion repeatCount="indefinite" dur="18.8666667s" begin="0s" xlink:href="#_R_G_L_2_G_N_10_N_2_T_0" fill="freeze" keyTimes="0;0.125;0.25;0.375;0.5;0.625;0.75;0.875;1" path="M0 0 C0,0 4.38,-3.75 4.38,-3.75 C4.38,-3.75 0,0 0,0 C0,0 0,-5.62 0,-5.62 C0,-5.62 0,0 0,0 C0,0 4.38,-3.75 4.38,-3.75 C4.38,-3.75 0,0 0,0 C0,0 0,-5.62 0,-5.62 C0,-5.62 0,0 0,0 " keyPoints="0;0.13;0.25;0.38;0.5;0.63;0.75;0.88;1" keySplines="0.53 0 0.47 1;0.53 0 0.833 0.835;0.167 0.169 0.47 1;0.53 0 0.47 1;0.53 0 0.47 1;0.53 0 0.833 0.835;0.167 0.169 0.47 1;0.53 0 0.47 1" calcMode="spline"/><animateTransform repeatCount="indefinite" dur="18.8666667s" begin="0s" xlink:href="#_R_G_L_2_G_N_10_N_2_T_0" fill="freeze" attributeName="transform" from="0" to="0" type="rotate" additive="sum" keyTimes="0;0.125;0.25;0.375;0.5;0.625;0.75;0.875;1" values="0;5;0;-14;0;5;0;-14;0" keySplines="0.53 0 0.47 1;0.53 0 0.833 0.683;0.167 0.113 0.47 1;0.53 0 0.47 1;0.53 0 0.47 1;0.53 0 0.833 0.683;0.167 0.113 0.47 1;0.53 0 0.47 1" calcMode="spline"/><animateTransform repeatCount="indefinite" dur="18.8666667s" begin="0s" xlink:href="#_R_G_L_2_G_N_10_N_2_T_0" fill="freeze" attributeName="transform" from="-50 -50" to="-50 -50" type="translate" additive="sum" keyTimes="0;1" values="-50 -50;-50 -50" keySplines="0 0 1 1" calcMode="spline"/><animateMotion repeatCount="indefinite" dur="18.8666667s" begin="0s" xlink:href="#_R_G_L_1_G" fill="freeze" keyTimes="0;0.125;0.25;0.375;0.5;0.625;0.75;0.875;1" path="M0 0 C0,0 0,0 0,0 C0,0 0,0 0,0 C0,0 0,0 0,0 C0,0 0,0 0,0 C0,0 0,0 0,0 C0,0 0,0 0,0 C0,0 0,0 0,0 C0,0 0,0 0,0 " keyPoints="0;NaN;NaN;NaN;NaN;NaN;NaN;NaN;1" keySplines="0.53 0.53 0.47 0.47;0.53 0.53 0.833 0.833;0.167 0.167 0.47 0.47;0.53 0.53 0.47 0.47;0.53 0.53 0.47 0.47;0.53 0.53 0.833 0.833;0.167 0.167 0.47 0.47;0.53 0.53 0.47 0.47" calcMode="spline"/><animateTransform repeatCount="indefinite" dur="18.8666667s" begin="0s" xlink:href="#_R_G_L_1_G" fill="freeze" attributeName="transform" from="0" to="0" type="rotate" additive="sum" keyTimes="0;0.125;0.25;0.375;0.5;0.625;0.75;0.875;1" values="0;12;0;0;0;12;0;0;0" keySplines="0.53 0 0.47 1;0.53 0 0.833 0.917;0.167 0 0.47 1;0.53 0 0.47 1;0.53 0 0.47 1;0.53 0 0.833 0.917;0.167 0 0.47 1;0.53 0 0.47 1" calcMode="spline"/><animateTransform repeatCount="indefinite" dur="18.8666667s" begin="0s" xlink:href="#_R_G_L_1_G" fill="freeze" attributeName="transform" from="-297.472 -465.834" to="-297.472 -465.834" type="translate" additive="sum" keyTimes="0;1" values="-297.472 -465.834;-297.472 -465.834" keySplines="0 0 1 1" calcMode="spline"/><animateMotion repeatCount="indefinite" dur="18.8666667s" begin="0s" xlink:href="#_R_G_L_1_G_N_9_N_2_T_0" fill="freeze" keyTimes="0;0.125;0.25;0.375;0.5;0.625;0.75;0.875;1" path="M0 0 C0,0 4.38,-3.75 4.38,-3.75 C4.38,-3.75 0,0 0,0 C0,0 0,-5.62 0,-5.62 C0,-5.62 0,0 0,0 C0,0 4.38,-3.75 4.38,-3.75 C4.38,-3.75 0,0 0,0 C0,0 0,-5.62 0,-5.62 C0,-5.62 0,0 0,0 " keyPoints="0;0.13;0.25;0.38;0.5;0.63;0.75;0.88;1" keySplines="0.53 0 0.47 1;0.53 0 0.833 0.835;0.167 0.169 0.47 1;0.53 0 0.47 1;0.53 0 0.47 1;0.53 0 0.833 0.835;0.167 0.169 0.47 1;0.53 0 0.47 1" calcMode="spline"/><animateTransform repeatCount="indefinite" dur="18.8666667s" begin="0s" xlink:href="#_R_G_L_1_G_N_9_N_2_T_0" fill="freeze" attributeName="transform" from="0" to="0" type="rotate" additive="sum" keyTimes="0;0.125;0.25;0.375;0.5;0.625;0.75;0.875;1" values="0;5;0;-14;0;5;0;-14;0" keySplines="0.53 0 0.47 1;0.53 0 0.833 0.683;0.167 0.113 0.47 1;0.53 0 0.47 1;0.53 0 0.47 1;0.53 0 0.833 0.683;0.167 0.113 0.47 1;0.53 0 0.47 1" calcMode="spline"/><animateTransform repeatCount="indefinite" dur="18.8666667s" begin="0s" xlink:href="#_R_G_L_1_G_N_9_N_2_T_0" fill="freeze" attributeName="transform" from="-50 -50" to="-50 -50" type="translate" additive="sum" keyTimes="0;1" values="-50 -50;-50 -50" keySplines="0 0 1 1" calcMode="spline"/><animateMotion repeatCount="indefinite" dur="18.8666667s" begin="0s" xlink:href="#_R_G_L_0_G" fill="freeze" keyTimes="0;0.125;0.25;0.375;0.5;0.625;0.75;0.875;1" path="M0 0 C0,0 -4.98,0.44 -4.98,0.44 C-4.98,0.44 0,0 0,0 C0,0 0,0 0,0 C0,0 0,0 0,0 C0,0 -4.98,0.44 -4.98,0.44 C-4.98,0.44 0,0 0,0 C0,0 0,0 0,0 C0,0 0,0 0,0 " keyPoints="0;0.25;0.5;0.5;0.5;0.75;1;1;1" keySplines="0.53 0 0.47 1;0.53 0 0.833 0.917;0.167 0.167 0.47 0.47;0.53 0.53 0.47 0.47;0.53 0 0.47 1;0.53 0 0.833 0.917;0.167 0.167 0.47 0.47;0.53 0.53 0.47 0.47" calcMode="spline"/><animateTransform repeatCount="indefinite" dur="18.8666667s" begin="0s" xlink:href="#_R_G_L_0_G" fill="freeze" attributeName="transform" from="0" to="0" type="rotate" additive="sum" keyTimes="0;0.125;0.25;0.375;0.5;0.625;0.75;0.875;1" values="0;-28;0;-28;0;-28;0;-28;0" keySplines="0.53 0 0.47 1;0.53 0 0.833 1;0.167 0 0.47 1;0.53 0 0.47 1;0.53 0 0.47 1;0.53 0 0.833 1;0.167 0 0.47 1;0.53 0 0.47 1" calcMode="spline"/><animateTransform repeatCount="indefinite" dur="18.8666667s" begin="0s" xlink:href="#_R_G_L_0_G" fill="freeze" attributeName="transform" from="-267.803 -460.146" to="-267.803 -460.146" type="translate" additive="sum" keyTimes="0;1" values="-267.803 -460.146;-267.803 -460.146" keySplines="0 0 1 1" calcMode="spline"/><animateMotion repeatCount="indefinite" dur="18.8666667s" begin="0s" xlink:href="#_R_G_L_0_G_N_8_N_2_T_0" fill="freeze" keyTimes="0;0.125;0.25;0.375;0.5;0.625;0.75;0.875;1" path="M0 0 C0,0 4.38,-3.75 4.38,-3.75 C4.38,-3.75 0,0 0,0 C0,0 0,-5.62 0,-5.62 C0,-5.62 0,0 0,0 C0,0 4.38,-3.75 4.38,-3.75 C4.38,-3.75 0,0 0,0 C0,0 0,-5.62 0,-5.62 C0,-5.62 0,0 0,0 " keyPoints="0;0.13;0.25;0.38;0.5;0.63;0.75;0.88;1" keySplines="0.53 0 0.47 1;0.53 0 0.833 0.835;0.167 0.169 0.47 1;0.53 0 0.47 1;0.53 0 0.47 1;0.53 0 0.833 0.835;0.167 0.169 0.47 1;0.53 0 0.47 1" calcMode="spline"/><animateTransform repeatCount="indefinite" dur="18.8666667s" begin="0s" xlink:href="#_R_G_L_0_G_N_8_N_2_T_0" fill="freeze" attributeName="transform" from="0" to="0" type="rotate" additive="sum" keyTimes="0;0.125;0.25;0.375;0.5;0.625;0.75;0.875;1" values="0;5;0;-14;0;5;0;-14;0" keySplines="0.53 0 0.47 1;0.53 0 0.833 0.683;0.167 0.113 0.47 1;0.53 0 0.47 1;0.53 0 0.47 1;0.53 0 0.833 0.683;0.167 0.113 0.47 1;0.53 0 0.47 1" calcMode="spline"/><animateTransform repeatCount="indefinite" dur="18.8666667s" begin="0s" xlink:href="#_R_G_L_0_G_N_8_N_2_T_0" fill="freeze" attributeName="transform" from="-50 -50" to="-50 -50" type="translate" additive="sum" keyTimes="0;1" values="-50 -50;-50 -50" keySplines="0 0 1 1" calcMode="spline"/><animate attributeType="XML" attributeName="opacity" dur="19s" from="0" to="1" xlink:href="#time_group"/></defs><g id="_R_G"><g id="_R_G_L_2_G_N_10_N_2_N_7_N_1_N_6_T_0" transform=" translate(51, 55) translate(0, 0)"><g id="_R_G_L_2_G_N_10_N_2_N_7_N_1_T_0" transform=" translate(0, 0) translate(-50, -50)"><g id="_R_G_L_2_G_N_10_N_2_N_7_T_0" transform=" translate(50, 50) translate(0, 0)"><g id="_R_G_L_2_G_N_10_N_2_T_0"><g id="_R_G_L_2_G_N_10_T_0" transform=" translate(79.926, 53.933) translate(0, 0)"><g id="_R_G_L_2_G"><path id="_R_G_L_2_G_D_0_P_0" fill="#292929" fill-opacity="0.2" fill-rule="nonzero" d=" M316.14 467.19 C316.14,467.19 318.22,458.58 318.22,458.58 C318.22,458.58 324.08,451.99 324.08,451.99 C324.08,451.99 344.16,468.42 344.16,468.42 C344.16,468.42 342.22,475.93 342.22,475.93 C342.22,475.93 336.35,482.49 336.35,482.49 C336.35,482.49 311.15,487.54 311.15,487.54 C311.15,487.54 313.26,478.63 313.26,478.63 C313.26,478.63 318.97,471.84 318.97,471.84 C318.97,471.84 321.89,471.32 321.89,471.32 C321.89,471.32 316.14,467.19 316.14,467.19z "/><path id="_R_G_L_2_G_D_1_P_0" stroke="#4cc326" stroke-linecap="round" stroke-linejoin="round" fill="none" stroke-width="1.067" stroke-opacity="1" d=" M321.89 471.32 C321.89,471.32 316.14,467.19 316.14,467.19 C316.14,467.19 318.22,458.58 318.22,458.58 "/><path id="_R_G_L_2_G_D_2_P_0" stroke="#4cc326" stroke-linecap="round" stroke-linejoin="round" fill="none" stroke-width="1.067" stroke-opacity="1" d=" M336.35 482.5 C336.35,482.5 311.15,487.54 311.15,487.54 C311.15,487.54 313.26,478.63 313.26,478.63 "/><path id="_R_G_L_2_G_D_3_P_0" stroke="#4cc326" stroke-linecap="round" stroke-linejoin="round" fill="none" stroke-width="1.067" stroke-opacity="1" d=" M342.22 475.93 C342.22,475.93 336.35,482.5 336.35,482.5 "/><path id="_R_G_L_2_G_D_4_P_0" stroke="#4cc326" stroke-linecap="round" stroke-linejoin="round" fill="none" stroke-width="1.067" stroke-opacity="1" d=" M324.08 451.99 C324.08,451.99 318.22,458.58 318.22,458.58 "/><path id="_R_G_L_2_G_D_5_P_0" stroke="#4cc326" stroke-linecap="round" stroke-linejoin="round" fill="none" stroke-width="1.067" stroke-opacity="1" d=" M318.97 471.84 C318.97,471.84 313.26,478.63 313.26,478.63 "/><path id="_R_G_L_2_G_D_6_P_0" stroke="#4cc326" stroke-linecap="round" stroke-linejoin="round" fill="none" stroke-width="1.067" stroke-opacity="1" d=" M321.88 460.65 C321.88,460.65 316.14,467.19 316.14,467.19 "/><path id="_R_G_L_2_G_D_7_P_0" stroke="#4cc326" stroke-linecap="round" stroke-linejoin="round" fill="none" stroke-width="1.067" stroke-opacity="1" d=" M316.93 480.92 C316.93,480.92 311.15,487.54 311.15,487.54 "/><path id="_R_G_L_2_G_D_8_P_0" stroke="#4cc326" stroke-linecap="round" stroke-linejoin="round" fill="none" stroke-width="1.067" stroke-opacity="1" d=" M342.22 475.93 C342.22,475.93 316.92,480.92 316.92,480.92 C316.92,480.92 318.97,471.84 318.97,471.84 C318.97,471.84 334.19,469.61 334.19,469.61 C334.19,469.61 321.88,460.64 321.88,460.64 C321.88,460.64 324.08,451.99 324.08,451.99 C324.08,451.99 344.16,468.42 344.16,468.42 C344.16,468.42 342.22,475.93 342.22,475.93z "/></g></g></g></g></g></g><g id="_R_G_L_1_G_N_9_N_2_N_7_N_1_N_6_T_0" transform=" translate(51, 55) translate(0, 0)"><g id="_R_G_L_1_G_N_9_N_2_N_7_N_1_T_0" transform=" translate(0, 0) translate(-50, -50)"><g id="_R_G_L_1_G_N_9_N_2_N_7_T_0" transform=" translate(50, 50) translate(0, 0)"><g id="_R_G_L_1_G_N_9_N_2_T_0"><g id="_R_G_L_1_G_N_9_T_0" transform=" translate(49.743, 50) translate(0, 0)"><g id="_R_G_L_1_G"><path id="_R_G_L_1_G_D_0_P_0" fill="#292929" fill-opacity="0.2" fill-rule="nonzero" d=" M302.4 491.76 C302.4,491.76 308.67,485.25 308.67,485.25 C308.67,485.25 301.14,442.04 301.14,442.04 C301.14,442.04 292.15,439.91 292.15,439.91 C292.15,439.91 286.27,446.31 286.27,446.31 C286.27,446.31 293.82,489.69 293.82,489.69 C293.82,489.69 302.4,491.76 302.4,491.76z "/><path id="_R_G_L_1_G_D_1_P_0" stroke="#4cc326" stroke-linecap="round" stroke-linejoin="round" fill="none" stroke-width="1.067" stroke-opacity="1" d=" M302.4 491.76 C302.4,491.76 293.82,489.69 293.82,489.69 C293.82,489.69 286.27,446.31 286.27,446.31 "/><path id="_R_G_L_1_G_D_2_P_0" stroke="#4cc326" stroke-linecap="round" stroke-linejoin="round" fill="none" stroke-width="1.067" stroke-opacity="1" d=" M308.67 485.25 C308.67,485.25 302.4,491.76 302.4,491.76 "/><path id="_R_G_L_1_G_D_3_P_0" stroke="#4cc326" stroke-linecap="round" stroke-linejoin="round" fill="none" stroke-width="1.067" stroke-opacity="1" d=" M299.68 483.13 C299.68,483.13 293.82,489.69 293.82,489.69 "/><path id="_R_G_L_1_G_D_4_P_0" stroke="#4cc326" stroke-linecap="round" stroke-linejoin="round" fill="none" stroke-width="1.067" stroke-opacity="1" d=" M292.15 439.91 C292.15,439.91 286.27,446.31 286.27,446.31 "/><path id="_R_G_L_1_G_D_5_P_0" stroke="#4cc326" stroke-linecap="round" stroke-linejoin="round" fill="none" stroke-width="1.067" stroke-opacity="1" d=" M308.67 485.25 C308.67,485.25 299.68,483.13 299.68,483.13 C299.68,483.13 292.15,439.91 292.15,439.91 C292.15,439.91 301.14,442.04 301.14,442.04 C301.14,442.04 308.67,485.25 308.67,485.25z "/></g></g></g></g></g></g><g id="_R_G_L_0_G_N_8_N_2_N_7_N_1_N_6_T_0" transform=" translate(51, 55) translate(0, 0)"><g id="_R_G_L_0_G_N_8_N_2_N_7_N_1_T_0" transform=" translate(0, 0) translate(-50, -50)"><g id="_R_G_L_0_G_N_8_N_2_N_7_T_0" transform=" translate(50, 50) translate(0, 0)"><g id="_R_G_L_0_G_N_8_N_2_T_0"><g id="_R_G_L_0_G_N_8_T_0" transform=" translate(20.074, 44.312) translate(0, 0)"><g id="_R_G_L_0_G"><path id="_R_G_L_0_G_D_0_P_0" fill="#292929" fill-opacity="0.2" fill-rule="nonzero" d=" M282.06 450.96 C282.06,450.96 284.29,442.4 284.29,442.4 C284.29,442.4 259.09,447.47 259.09,447.47 C259.09,447.47 253.21,454.04 253.21,454.04 C253.21,454.04 251.31,461.58 251.31,461.58 C251.31,461.58 271.38,477.89 271.38,477.89 C271.38,477.89 277.07,471.16 277.07,471.16 C277.07,471.16 279.33,462.44 279.33,462.44 C279.33,462.44 273.89,457.99 273.89,457.99 C273.89,457.99 276.36,457.51 276.36,457.51 C276.36,457.51 282.06,450.96 282.06,450.96z "/><path id="_R_G_L_0_G_D_1_P_0" stroke="#4cc326" stroke-linecap="round" stroke-linejoin="round" fill="none" stroke-width="1.067" stroke-opacity="1" d=" M271.38 477.89 C271.38,477.89 251.31,461.58 251.31,461.58 C251.31,461.58 253.21,454.04 253.21,454.04 "/><path id="_R_G_L_0_G_D_2_P_0" stroke="#4cc326" stroke-linecap="round" stroke-linejoin="round" fill="none" stroke-width="1.067" stroke-opacity="1" d=" M276.36 457.51 C276.36,457.51 273.89,457.99 273.89,457.99 "/><path id="_R_G_L_0_G_D_3_P_0" stroke="#4cc326" stroke-linecap="round" stroke-linejoin="round" fill="none" stroke-width="1.067" stroke-opacity="1" d=" M276.36 457.51 C276.36,457.51 282.06,450.96 282.06,450.96 "/><path id="_R_G_L_0_G_D_4_P_0" stroke="#4cc326" stroke-linecap="round" stroke-linejoin="round" fill="none" stroke-width="1.067" stroke-opacity="1" d=" M271.38 477.89 C271.38,477.89 277.07,471.16 277.07,471.16 "/><path id="_R_G_L_0_G_D_5_P_0" stroke="#4cc326" stroke-linecap="round" stroke-linejoin="round" fill="none" stroke-width="1.067" stroke-opacity="1" d=" M251.31 461.58 C251.31,461.58 257.15,455 257.15,455 "/><path id="_R_G_L_0_G_D_6_P_0" stroke="#4cc326" stroke-linecap="round" stroke-linejoin="round" fill="none" stroke-width="1.067" stroke-opacity="1" d=" M253.21 454.04 C253.21,454.04 259.09,447.47 259.09,447.47 "/><path id="_R_G_L_0_G_D_7_P_0" stroke="#4cc326" stroke-linecap="round" stroke-linejoin="round" fill="none" stroke-width="1.067" stroke-opacity="1" d=" M284.29 442.4 C284.29,442.4 282.06,450.96 282.06,450.96 C282.06,450.96 267.16,453.17 267.16,453.17 C267.16,453.17 279.33,462.44 279.33,462.44 C279.33,462.44 277.07,471.16 277.07,471.16 C277.07,471.16 257.15,455 257.15,455 C257.15,455 259.09,447.47 259.09,447.47 C259.09,447.47 284.29,442.4 284.29,442.4z "/></g></g></g></g></g></g></g><g id="time_group"/></svg>