<svg xmlns="http://www.w3.org/2000/svg" xmlns:xlink="http://www.w3.org/1999/xlink" preserveAspectRatio="xMidYMid meet" width="130" height="130" viewBox="0 0 130 130" style="width:100%;height:100%"><defs><animateMotion repeatCount="indefinite" dur="18.8666667s" begin="0s" xlink:href="#_R_G_L_0_G" fill="freeze" keyTimes="0;0.125;0.25;0.375;0.5;0.625;0.75;0.875;1" path="M50 50 C50,50 50,56.25 50,56.25 C50,56.25 50,50 50,50 C50,50 50,45 50,45 C50,45 50,50 50,50 C50,50 50,56.25 50,56.25 C50,56.25 50,50 50,50 C50,50 50,45 50,45 C50,45 50,50 50,50 " keyPoints="0;0.14;0.28;0.39;0.5;0.64;0.78;0.89;1" keySplines="0.53 0 0.47 1;0.53 0 0.833 0.85;0.167 0.188 0.47 1;0.53 0 0.47 1;0.53 0 0.47 1;0.53 0 0.833 0.85;0.167 0.188 0.47 1;0.53 0 0.47 1" calcMode="spline"/><animateTransform repeatCount="indefinite" dur="18.8666667s" begin="0s" xlink:href="#_R_G_L_0_G" fill="freeze" attributeName="transform" from="0" to="0" type="rotate" additive="sum" keyTimes="0;0.125;0.25;0.3754196;0.5;0.625;0.75;0.8754196;1" values="0;-16;0;15;0;-16;0;15;0" keySplines="0.53 0 0.47 1;0.53 0 0.833 0.839;0.167 0.173 0.47 1;0.53 0 0.47 1;0.53 0 0.47 1;0.53 0 0.833 0.839;0.167 0.173 0.47 1;0.53 0 0.47 1" calcMode="spline"/><animateTransform repeatCount="indefinite" dur="18.8666667s" begin="0s" xlink:href="#_R_G_L_0_G" fill="freeze" attributeName="transform" from="-384.891 -174.438" to="-384.891 -174.438" type="translate" additive="sum" keyTimes="0;1" values="-384.891 -174.438;-384.891 -174.438" keySplines="0 0 1 1" calcMode="spline"/><animate attributeType="XML" attributeName="opacity" dur="19s" from="0" to="1" xlink:href="#time_group"/></defs><g id="_R_G"><g id="_R_G_L_0_G_N_1_T_0" transform=" translate(65, 65) translate(-50, -50)"><g id="_R_G_L_0_G"><path id="_R_G_L_0_G_D_0_P_0" fill="#4cc326" fill-opacity="1" fill-rule="nonzero" d="  "/><path id="_R_G_L_0_G_D_1_P_0" fill="#4cc326" fill-opacity="1" fill-rule="nonzero" d=" M431.97 195.79 C431.97,195.79 425.11,189.9 425.11,189.9 C424.8,189.61 424.8,189.51 424.66,189.22 C424.76,188.76 424.87,188.29 424.94,187.83 C424.94,187.83 425.46,187.79 425.46,187.79 C425.92,187.76 426.31,187.58 426.52,187.22 C426.52,187.22 432.46,178.56 432.46,178.56 C432.5,178.52 432.5,178.52 432.53,178.48 C432.74,178.09 432.74,177.56 432.53,177.09 C432.53,177.09 429.02,169.6 429.02,169.6 C428.66,168.82 427.82,168.14 426.94,167.96 C426.94,167.96 419.28,166.32 419.28,166.32 C418.85,166.21 418.33,165.86 418.05,165.43 C415.58,161.9 412.63,158.51 409.25,155.4 C409.08,155.26 408.94,155.08 408.87,154.94 C408.83,154.83 408.83,154.76 408.83,154.76 C408.83,154.76 410.55,149.52 410.55,149.52 C410.7,149.16 410.66,148.77 410.45,148.34 C410.24,147.91 409.89,147.49 409.46,147.17 C409.46,147.17 401.24,141.46 401.24,141.46 C400.29,140.82 399.27,140.74 398.7,141.28 C398.7,141.28 394.63,144.77 394.63,144.77 C394.55,144.81 394.31,144.81 393.92,144.6 C389.81,142.42 385.66,140.78 381.54,139.67 C381.12,139.57 380.66,139.21 380.45,138.89 C380.45,138.89 376.09,132 376.09,132 C375.6,131.22 374.69,130.61 373.81,130.54 C373.81,130.54 365.79,129.94 365.79,129.94 C365.23,129.9 364.77,130.04 364.45,130.44 C364.07,131.11 361.89,134.22 358.51,139.14 C358.23,139.5 358.19,139.96 358.34,140.39 C358.34,140.39 358.51,140.92 358.51,140.92 C358.51,140.92 358.51,140.96 358.51,140.96 C358.12,141.17 357.77,141.39 357.39,141.64 C357.32,141.67 357,141.67 356.58,141.42 C356.58,141.42 348.74,136.89 348.74,136.89 C347.75,136.32 346.7,136.43 346.24,137.1 C346.24,137.1 341.28,144.27 341.28,144.27 C341.28,144.27 337.13,150.63 337.13,150.63 C336.53,151.41 337.13,152.37 337.83,153.09 C337.83,153.09 344.66,158.83 344.66,158.83 C345.04,159.19 344.97,159.22 345.15,159.58 C345.04,160.01 344.94,160.51 344.9,160.97 C344.9,160.97 344.37,161.01 344.37,161.01 C343.99,161.04 343.64,161.22 343.43,161.51 C343.14,161.75 338.54,168.64 337.45,170.21 C337.13,170.64 337.1,171.17 337.38,171.78 C337.38,171.78 340.86,179.2 340.86,179.2 C341.21,179.98 342.05,180.7 342.93,180.87 C344.34,181.2 346.7,181.7 348.59,182.09 C348.59,182.09 350.56,182.52 350.56,182.52 C350.56,182.52 350.56,182.52 350.6,182.52 C351.06,182.62 351.55,182.98 351.83,183.41 C351.94,183.58 352.08,183.76 352.18,183.94 C352.18,183.94 352.11,183.98 352.11,183.98 C352.25,184.16 354.75,187.76 358.34,191.26 C359.07,192 359.81,192.72 360.59,193.43 C360.9,193.75 360.97,193.93 360.97,194.25 C360.8,194.75 359.39,199.03 359.28,199.32 C359.14,199.67 359.18,200.07 359.43,200.57 C359.57,200.89 359.92,201.31 360.41,201.67 C360.41,201.67 368.57,207.41 368.57,207.41 C369.48,208.06 370.5,208.13 371.1,207.63 C371.1,207.63 375.18,204.1 375.18,204.1 C375.25,204.06 375.5,204.06 375.88,204.27 C380,206.45 384.18,208.09 388.3,209.2 C388.72,209.3 389.14,209.63 389.35,209.98 C389.35,209.98 393.68,216.87 393.68,216.87 C394.2,217.62 395.12,218.22 395.93,218.29 C395.93,218.29 404.01,218.94 404.01,218.94 C404.82,219.01 405.17,218.62 405.35,218.4 C405.35,218.4 411.22,209.77 411.22,209.77 C411.54,209.3 411.54,208.91 411.4,208.48 C411.4,208.48 411.26,207.98 411.26,207.98 C411.61,207.74 411.96,207.52 412.35,207.27 C412.42,207.24 412.7,207.2 413.12,207.41 C413.12,207.41 413.16,207.45 413.16,207.45 C413.16,207.45 421.03,212.02 421.03,212.02 C422.02,212.55 423,212.48 423.5,211.8 C423.67,211.55 432.15,199.03 432.67,198.25 C433.1,197.64 432.95,196.57 431.97,195.79z  M425.36 186.51 C425.36,186.51 425.08,186.55 425.08,186.55 C425.25,184.41 425.08,182.05 424.55,179.63 C424.55,179.63 430.35,179.2 430.35,179.2 C430.35,179.2 425.36,186.51 425.36,186.51z  M364.56 132.61 C364.63,132.86 366.14,138.07 366.25,138.39 C363.96,138.78 361.78,139.28 359.71,140.28 C359.71,140.28 359.6,139.92 359.6,139.92 C359.6,139.92 364.56,132.61 364.56,132.61z  M338.71 152.12 C338.04,151.37 338.36,151.62 338.19,151.37 C338.36,151.12 342.9,144.24 343.18,143.81 C343.35,144.03 343.64,144.31 343.74,144.38 C343.74,144.38 350.6,150.23 350.6,150.23 C350.85,150.45 351.02,150.66 351.02,150.95 C350.28,154.01 350.46,157.47 351.13,160.54 C351.13,160.54 346.17,160.9 346.17,160.9 C346.2,160.58 346.27,160.26 346.34,159.97 C346.52,159.19 346.03,158.47 345.46,157.9 C345.46,157.9 338.71,152.12 338.71,152.12z  M350.42 181.16 C350.42,181.16 348.84,180.84 348.84,180.84 C346.94,180.45 344.59,179.95 343.18,179.59 C342.72,179.48 342.19,179.09 342.02,178.7 C342.02,178.7 338.54,171.24 338.54,171.24 C338.43,171.1 338.47,171.03 338.47,171.07 C338.47,171.07 343.5,163.64 343.5,163.64 C343.64,163.93 346.84,170.85 346.73,170.57 C347.08,171.35 348.07,172.1 348.84,172.28 C349.09,172.35 355.24,173.6 355.49,173.67 C351.37,179.77 352.64,177.84 350.42,181.16z  M353.27 183.16 C353.13,183.02 353.03,182.84 352.88,182.69 C352.6,182.27 352.18,181.87 351.72,181.59 C351.72,181.59 356.86,173.99 356.86,173.99 C357.25,174.13 357.56,174.45 357.74,174.74 C360.02,177.99 363.61,182.12 366.53,184.76 C366.77,184.98 366.88,185.08 366.95,185.33 C366.81,185.55 362.87,191.26 361.99,192.57 C357.14,188.69 353.31,183.19 353.27,183.16z  M374.26 203.13 C374.26,203.13 374.19,203.2 374.19,203.2 C374.19,203.2 370.26,206.59 370.26,206.59 C370.19,206.63 369.76,206.59 369.27,206.31 C369.27,206.31 361.11,200.57 361.11,200.57 C360.9,200.39 360.69,200.17 360.55,199.96 C360.48,199.78 360.48,199.74 360.52,199.74 C360.52,199.74 362.2,194.61 362.2,194.61 C362.2,194.61 365.47,189.83 365.47,189.83 C365.47,189.83 365.19,190.61 365.19,190.61 C364.88,191.43 365.58,192.47 366.28,192.97 C366.28,192.97 374.44,198.71 374.44,198.71 C375.35,199.35 376.37,199.42 376.97,198.92 C376.97,198.92 377.18,198.75 377.18,198.75 C377.18,198.75 374.26,203.13 374.26,203.13z  M388.61 207.91 C384.6,206.84 380.49,205.2 376.48,203.06 C376.34,202.99 376.16,202.92 376.02,202.88 C376.02,202.88 381.09,195.39 381.09,195.39 C381.09,195.39 381.12,195.39 381.12,195.36 C381.19,195.32 381.47,195.36 381.83,195.54 C385.94,197.71 390.09,199.39 394.2,200.49 C394.52,200.57 394.8,200.74 395.01,200.96 C395.01,200.96 389.81,208.52 389.81,208.52 C389.49,208.27 389.07,208.02 388.61,207.91z  M409.36 210.2 C409.36,210.2 404.33,217.62 404.33,217.62 C404.33,217.62 404.26,217.65 404.12,217.62 C404.12,217.62 396.03,216.97 396.03,216.97 C395.57,216.94 395.05,216.58 394.77,216.12 C394.77,216.12 390.69,209.63 390.69,209.63 C390.69,209.63 395.82,202.13 395.82,202.13 C395.82,202.13 399.62,208.13 399.62,208.13 C400.11,208.91 401.06,209.48 401.87,209.55 C402.15,209.59 409.64,210.2 409.36,210.2z  M411.61 206.13 C411.36,206.31 411.12,206.45 410.87,206.59 C410.87,206.59 409.46,201.78 409.46,201.78 C412.91,201.31 415.86,200.21 418.29,198.53 C418.29,198.53 418.36,198.5 418.36,198.5 C418.36,198.5 413.23,205.99 413.23,205.99 C412.63,205.84 412.07,205.84 411.61,206.13z  M422.44 210.98 C422.37,211.02 422.09,211.02 421.67,210.8 C421.67,210.8 414.42,206.63 414.42,206.63 C414.42,206.63 419.63,199.07 419.63,199.07 C419.63,199.07 426.98,203.28 426.98,203.28 C427.19,203.38 427.36,203.45 427.54,203.53 C427.54,203.53 422.44,210.98 422.44,210.98z  M431.58 197.46 C431.58,197.46 428.38,202.31 428.38,202.31 C428.31,202.38 427.96,202.35 427.61,202.1 C427.36,201.96 419.24,197.28 419.73,197.57 C419.73,197.57 419.7,197.57 419.7,197.57 C418.82,197.07 417.83,197.28 417.55,197.46 C415.34,199.03 412.56,200.03 409.29,200.46 C408.45,200.64 407.92,201.31 408.23,202.21 C408.3,202.49 410.24,208.77 410.17,208.48 C410.17,208.48 410.27,208.84 410.27,208.84 C410.27,208.88 410.2,208.88 410.1,208.88 C410.03,208.88 409.85,208.84 410.1,208.88 C409.96,208.88 408.69,208.77 402.05,208.23 C401.59,208.2 401.03,207.84 400.78,207.41 C400.67,207.27 396.49,200.6 396.38,200.49 C396.03,199.89 395.36,199.42 394.63,199.21 C390.62,198.1 386.54,196.5 382.49,194.36 C381.86,194 381.16,193.97 380.66,194.18 C380.38,194.21 380.45,194.29 376.3,197.85 C376.06,197.96 375.6,197.71 375.32,197.57 C375.32,197.57 367.16,191.83 367.16,191.83 C366.49,191.33 366.74,191.33 366.56,191.04 C366.56,191.04 368.29,185.8 368.29,185.8 C368.39,185.05 368.25,184.37 367.51,183.76 C364.17,180.7 360.97,176.92 358.9,173.99 C358.9,173.99 358.9,173.95 358.9,173.95 C358.23,172.99 357.56,172.81 356.75,172.53 C355.63,172.28 353.48,171.81 349.19,170.92 C348.74,170.78 348.17,170.42 348.03,169.99 C347.82,169.53 349.02,172.1 344.55,162.5 C344.48,162.43 344.48,162.32 344.52,162.32 C344.55,162.32 344.55,162.32 344.55,162.32 C344.83,162.29 347.5,162.07 351.34,161.83 C352.22,161.79 352.78,161.04 352.57,160.19 C351.94,157.4 351.72,153.94 352.43,151.2 C352.53,150.84 352.43,149.98 351.55,149.2 C351.55,149.2 344.59,143.35 344.59,143.35 C343.92,142.74 344.2,142.64 344.09,142.64 C344.09,142.64 347.29,137.85 347.29,137.85 C347.29,137.85 347.29,137.85 347.33,137.85 C347.4,137.82 347.72,137.82 348.1,138.03 C348.1,138.03 355.98,142.56 355.98,142.56 C356.79,142.99 357.6,143.06 358.16,142.67 C360.73,140.99 363.75,139.96 366.42,139.64 C366.49,139.6 366.56,139.64 366.67,139.6 C367.41,139.32 367.76,138.75 367.55,137.89 C366.85,135.64 365.54,131.51 365.47,131.22 C365.47,131.22 365.54,131.22 365.54,131.22 C365.58,131.18 365.61,131.18 365.68,131.22 C365.68,131.22 373.74,131.83 373.74,131.83 C374.19,131.86 374.76,132.22 375.04,132.65 C375.04,132.65 379.36,139.53 379.36,139.53 C379.75,140.14 380.45,140.67 381.19,140.89 C385.24,141.96 389.32,143.6 393.32,145.7 C394.2,146.17 395.01,146.13 395.47,145.7 C395.47,145.7 399.55,142.17 399.55,142.17 C399.65,142.14 400.04,142.14 400.53,142.46 C400.53,142.46 408.69,148.2 408.69,148.2 C408.97,148.38 409.15,148.63 409.25,148.84 C409.29,148.91 409.29,148.98 409.32,149.02 C409.32,149.02 409.32,149.05 409.32,149.05 C409.32,149.05 407.57,154.3 407.57,154.3 C407.46,154.62 407.5,155.05 407.67,155.44 C407.81,155.76 408.02,156.05 408.34,156.33 C411.65,159.36 414.53,162.68 416.95,166.11 C417.41,166.78 418.22,167.36 418.99,167.5 C418.99,167.5 426.66,169.14 426.66,169.14 C427.12,169.24 427.65,169.64 427.82,170.07 C427.82,170.07 431.34,177.56 431.34,177.56 C431.37,177.63 431.37,177.66 431.37,177.7 C431.37,177.74 431.34,177.74 431.34,177.74 C428.31,177.95 424.27,178.27 424.52,178.27 C424.52,178.27 424.48,178.27 424.48,178.27 C423.71,178.31 423.11,178.88 423.28,179.91 C423.85,182.34 424.06,185.55 423.57,187.9 C423.5,188.79 422.83,189.61 424.27,190.9 C424.27,190.9 431.13,196.78 431.13,196.78 C431.34,196.93 431.48,197.11 431.55,197.28 C431.62,197.39 431.58,197.46 431.58,197.46z "/><path id="_R_G_L_0_G_D_2_P_0" fill="#4cc326" fill-opacity="1" fill-rule="nonzero" d=" M407.14 171.28 C402.5,161.33 390.05,152.73 379.72,151.91 C368.92,151.05 363.79,158.65 368.43,168.71 C373.03,178.52 385.34,187.23 395.86,188.05 C399.34,188.33 402.29,187.73 404.51,186.37 C409.71,183.16 409.78,176.99 407.14,171.28z  M403.56 185.41 C401.59,186.51 398.99,186.98 395.96,186.73 C385.83,185.91 374.02,177.59 369.59,168.14 C368.36,165.47 367.83,163 368.01,160.83 C368.04,160.58 368.11,160.4 368.15,160.19 C370.08,159.08 372.72,158.62 375.74,158.87 C385.87,159.65 397.69,168 402.12,177.49 C403.45,180.3 403.94,183.05 403.56,185.41z  M405 184.37 C405.11,182.09 404.51,179.52 403.31,176.88 C398.74,167.04 386.43,158.33 375.88,157.51 C373.11,157.3 370.64,157.62 368.6,158.47 C370.29,154.09 375,152.87 379.61,153.23 C389.39,153.98 401.45,162.11 405.95,171.85 C407.95,176.17 408.55,181.2 405,184.37z "/></g></g></g><g id="time_group"/></svg>