<svg xmlns="http://www.w3.org/2000/svg" xmlns:xlink="http://www.w3.org/1999/xlink" preserveAspectRatio="xMidYMid meet" width="130" height="130" viewBox="0 0 130 130" style="width:100%;height:100%"><defs><animateMotion repeatCount="indefinite" dur="18.8666667s" begin="0s" xlink:href="#_R_G_L_0_G" fill="freeze" keyTimes="0;0.1248896;0.2497792;0.3746687;0.4995583;0.6244479;0.7493375;0.874227;0.9991166;1" path="M50 50 C50,50 50,56.25 50,56.25 C50,56.25 50,50 50,50 C50,50 50,45 50,45 C50,45 50,50 50,50 C50,50 50,56.25 50,56.25 C50,56.25 50,50 50,50 C50,50 50,45 50,45 C50,45 50,50 50,50 C50,50 50,50 50,50 " keyPoints="0;0.14;0.28;0.39;0.5;0.64;0.78;0.89;1;1" keySplines="0.53 0 0.47 1;0.53 0 0.833 0.85;0.167 0.188 0.47 1;0.53 0 0.47 1;0.53 0 0.47 1;0.53 0 0.833 0.85;0.167 0.188 0.47 1;0.53 0 0.47 1;0 0 0 0" calcMode="spline"/><animateTransform repeatCount="indefinite" dur="18.8666667s" begin="0s" xlink:href="#_R_G_L_0_G" fill="freeze" attributeName="transform" from="0" to="0" type="rotate" additive="sum" keyTimes="0;0.1248896;0.2497792;0.3750866;0.4995583;0.6244479;0.7493375;0.8746449;0.9991166;1" values="0;-10;0;20;0;-10;0;20;0;0" keySplines="0.53 0 0.47 1;0.53 0 0.833 0.75;0.167 0.125 0.47 1;0.53 0 0.47 1;0.53 0 0.47 1;0.53 0 0.833 0.75;0.167 0.125 0.47 1;0.53 0 0.47 1;0 0 0 0" calcMode="spline"/><animateTransform repeatCount="indefinite" dur="18.8666667s" begin="0s" xlink:href="#_R_G_L_0_G" fill="freeze" attributeName="transform" from="-918.425 -35.937" to="-918.425 -35.937" type="translate" additive="sum" keyTimes="0;1" values="-918.425 -35.937;-918.425 -35.937" keySplines="0 0 1 1" calcMode="spline"/><animate attributeType="XML" attributeName="opacity" dur="19s" from="0" to="1" xlink:href="#time_group"/></defs><g id="_R_G"><g id="_R_G_L_0_G_N_1_T_0" transform=" translate(65, 65) translate(-50, -50)"><g id="_R_G_L_0_G"><path id="_R_G_L_0_G_D_0_P_0" stroke="#4cc326" stroke-linecap="round" stroke-linejoin="round" fill="none" stroke-width="1.067" stroke-opacity="1" d=" M892.14 -7.14 C892.14,-7.14 904.72,64.42 904.72,64.42 C905.32,67.83 909.72,68.84 911.74,66.03 C911.74,66.03 920.53,53.84 920.53,53.84 C922.11,51.64 925.39,51.68 926.92,53.91 C926.92,53.91 942.31,76.29 942.31,76.29 C943.67,78.26 946.46,78.56 948.21,76.92 C948.21,76.92 952.52,72.88 952.52,72.88 C953.89,71.59 954.15,69.5 953.13,67.91 C953.13,67.91 937.31,43.19 937.31,43.19 C936.05,41.23 936.77,38.62 938.84,37.58 C938.84,37.58 951.81,31.07 951.81,31.07 C954.56,29.69 954.71,25.82 952.08,24.23 C952.08,24.23 895.87,-9.7 895.87,-9.7 C894.05,-10.8 891.78,-9.24 892.14,-7.14z "/><path id="_R_G_L_0_G_D_1_P_0" stroke="#4cc326" stroke-linecap="round" stroke-linejoin="round" fill="none" stroke-width="1.067" stroke-opacity="1" d=" M917.7 57.86 C917.7,57.86 933.09,80.24 933.09,80.24 C934.44,82.21 937.24,82.52 938.98,80.88 "/><path id="_R_G_L_0_G_D_2_P_0" stroke="#4cc326" stroke-linecap="round" stroke-linejoin="round" fill="none" stroke-width="1.067" stroke-opacity="1" d=" M884.4 -5.91 C884.29,-5.86 884.19,-5.81 884.09,-5.75 C883.27,-5.25 882.73,-4.29 882.92,-3.2 C882.92,-3.2 895.5,68.37 895.5,68.37 C895.94,70.93 898.53,72.13 900.66,71.39 "/><path id="_R_G_L_0_G_D_3_P_0" stroke="#4cc326" stroke-linecap="round" stroke-linejoin="round" fill="none" stroke-width="1.067" stroke-opacity="1" d=" M893.44 -9.78 C893.44,-9.78 884.12,-5.78 884.12,-5.78 "/><path id="_R_G_L_0_G_D_4_P_0" stroke="#4cc326" stroke-linecap="round" stroke-linejoin="round" fill="none" stroke-width="1.067" stroke-opacity="1" d=" M900.52 71.43 C900.52,71.43 909.9,67.44 909.9,67.44 "/><path id="_R_G_L_0_G_D_5_P_0" stroke="#4cc326" stroke-linecap="round" stroke-linejoin="round" fill="none" stroke-width="1.067" stroke-opacity="1" d=" M937.48 81.78 C937.48,81.78 946.2,77.98 946.2,77.98 "/></g></g></g><g id="time_group"/></svg>