<svg xmlns="http://www.w3.org/2000/svg" width="222" height="39" viewBox="0 0 222 39" fill="none">
<path fill-rule="evenodd" clip-rule="evenodd" d="M170.063 5.34044L166.164 11.3839C165.948 11.7169 165.732 12.0517 165.516 12.387C165.154 12.9498 164.79 13.5139 164.422 14.0727C164.385 14.1248 164.338 14.1689 164.284 14.2026C164.23 14.2363 164.169 14.2588 164.107 14.2689C163.21 14.3261 162.31 14.3788 161.408 14.4316C160.531 14.4829 159.652 14.5343 158.776 14.59C158.737 14.5988 158.697 14.5994 158.657 14.5919C158.618 14.5844 158.58 14.5688 158.547 14.5461C158.514 14.5234 158.485 14.4941 158.464 14.46C158.442 14.4259 158.428 14.3876 158.421 14.3476C158.177 13.6715 157.928 12.9965 157.68 12.3212L157.68 12.3203L157.679 12.3194L157.679 12.3184C157.422 11.6203 157.165 10.9215 156.912 10.2216C156.868 10.1074 156.868 9.98059 156.912 9.86633C158.627 6.59639 160.347 3.33238 162.07 0.0743177C162.086 0.0485153 162.104 0.0237001 162.123 0L170.063 5.34044ZM159.011 11.6633C159.011 12.3917 159.633 13.0724 160.303 13.0695C161.134 13.0695 161.758 12.4749 161.765 11.6797C161.772 11.4936 161.742 11.3079 161.676 11.1337C161.611 10.9596 161.511 10.8005 161.384 10.666C161.256 10.5314 161.103 10.4241 160.933 10.3504C160.763 10.2767 160.581 10.2382 160.396 10.2371C160.212 10.236 160.028 10.2723 159.858 10.344C159.688 10.4157 159.533 10.5212 159.404 10.6542C159.275 10.7873 159.173 10.9452 159.106 11.1185C159.038 11.2919 159.006 11.4771 159.011 11.6633ZM133.419 13.959C132.847 13.8824 132.288 13.8075 131.732 13.7131C130.535 13.5125 129.374 13.1959 128.303 12.5864C127.575 12.166 126.955 11.5802 126.491 10.8757C126.132 10.3545 125.961 9.72436 126.007 9.09112C126.054 8.45781 126.315 7.85991 126.746 7.39766C127.712 6.35722 128.927 5.79241 130.264 5.45501C131.374 5.17409 132.5 5.07599 133.618 5.39109C134.485 5.63057 135.287 6.06563 135.963 6.6634C136.943 7.53143 137.184 8.63133 136.895 9.87685C136.646 10.95 136.139 11.9131 135.616 12.8688C135.488 13.1022 135.357 13.3341 135.199 13.612C135.363 13.6388 135.523 13.6667 135.68 13.6941C135.994 13.7488 136.299 13.8019 136.607 13.8425C140.899 14.4102 145.217 14.4637 149.536 14.437C151.114 14.4247 152.691 14.3751 154.268 14.3255C154.982 14.303 155.697 14.2806 156.411 14.2616C156.424 14.2616 156.438 14.2594 156.453 14.2573C156.48 14.253 156.508 14.2488 156.527 14.2616C156.598 14.3014 156.664 14.3474 156.731 14.3934C156.756 14.4109 156.782 14.4287 156.807 14.4459C156.781 14.4659 156.756 14.4892 156.73 14.5122C156.673 14.5644 156.616 14.6162 156.551 14.6317C156.377 14.6631 156.2 14.678 156.023 14.6762C152.375 14.8249 148.724 14.8249 145.076 14.709C142.962 14.6465 140.849 14.547 138.739 14.4355C137.643 14.3731 136.559 14.2691 135.475 14.1561C135.084 14.1204 134.843 14.1694 134.633 14.5663C134.366 15.0614 134.077 15.5454 133.788 16.0293C133.325 16.8036 132.862 17.5774 132.492 18.3952C130.809 22.1109 130.46 25.9755 131.764 29.892C133.058 33.7624 135.727 36.3501 139.439 37.9019C139.777 38.0435 140.124 38.1629 140.474 38.2831C140.62 38.3332 140.767 38.3835 140.913 38.4355C140.934 38.4435 140.958 38.4488 140.982 38.4541C141.029 38.4645 141.075 38.4748 141.104 38.5053C141.179 38.607 141.246 38.7143 141.305 38.8264C141.267 38.8456 141.229 38.8712 141.191 38.8969C141.108 38.9529 141.025 39.009 140.951 38.9988C140.669 38.9519 140.39 38.8833 140.118 38.7937C137.383 37.9836 134.913 36.7128 132.927 34.6052C130.93 32.5393 129.714 29.8319 129.493 26.955C129.162 23.138 130.274 19.7328 132.467 16.6472C132.929 15.9987 133.386 15.3459 133.842 14.6943L134.088 14.3419C134.135 14.2823 134.174 14.2128 134.221 14.1302C134.231 14.1117 134.242 14.0926 134.253 14.0728C133.972 14.0329 133.695 13.9959 133.422 13.9593L133.419 13.959ZM130.972 5.57348C130.821 5.58598 130.646 5.60053 130.47 5.61999C128.699 5.8147 127.346 6.98594 126.935 8.67296C126.67 9.75948 126.962 10.6721 127.844 11.3335C128.309 11.6805 128.82 11.9597 129.362 12.1629C130.845 12.7201 132.401 13.0166 133.955 13.3127C134.13 13.346 134.304 13.3792 134.479 13.4129C134.536 13.4137 134.593 13.4006 134.644 13.3748C134.695 13.3489 134.74 13.311 134.773 13.2642L134.891 13.0534C135.228 12.4526 135.564 11.8532 135.862 11.2265C136.682 9.52163 135.967 7.86437 134.9 6.91609C133.857 5.9886 132.61 5.6081 131.167 5.55757H131.159C131.103 5.56261 131.041 5.5678 130.973 5.57338L130.972 5.57348ZM207.166 28.3761V28.6333L207.094 28.6585C207.063 28.6158 207.032 28.5765 207.001 28.5378C206.972 28.5011 206.943 28.465 206.915 28.4267C204.651 25.3312 202.391 22.2316 200.137 19.1281C200.077 19.03 199.991 18.9504 199.89 18.8979C199.788 18.8455 199.674 18.8223 199.56 18.8309C198.94 18.8388 198.318 18.8362 197.696 18.8335H197.694C197.383 18.8322 197.072 18.8309 196.76 18.8309H196.259V19.4433C196.338 19.4649 196.416 19.4847 196.492 19.5042C196.641 19.5421 196.785 19.5789 196.926 19.626C198.147 20.0378 198.557 20.616 198.557 21.9151C198.564 24.0088 198.564 26.1021 198.557 28.1948C198.554 28.6704 198.532 29.1476 198.491 29.6203C198.417 30.4095 198.137 30.7483 197.385 30.9654C197.182 31.0221 196.975 31.0725 196.764 31.1238L196.644 31.1532C196.585 31.1677 196.525 31.1823 196.466 31.1972V31.7918H201.718V31.1972L200.592 30.9C200.058 30.7514 199.706 30.408 199.616 29.8595C199.516 29.2945 199.459 28.7226 199.444 28.1488C199.434 26.7015 199.437 25.2535 199.441 23.8053V23.8043C199.442 23.0799 199.444 22.3556 199.444 21.6311C199.444 21.5771 199.447 21.5209 199.452 21.4472C199.454 21.4136 199.456 21.3761 199.459 21.3339C199.5 21.3869 199.536 21.4302 199.567 21.4687C199.607 21.5189 199.641 21.5607 199.674 21.6044L206.954 31.5302C207.275 31.9687 207.464 32.0282 208.041 31.8795V31.5332C208.042 30.6319 208.042 29.7306 208.042 28.8293C208.043 26.7251 208.043 24.6206 208.053 22.5156C208.064 21.9017 208.107 21.2889 208.184 20.6799C208.197 20.4441 208.289 20.2196 208.444 20.0425C208.599 19.8653 208.808 19.746 209.039 19.7033C209.307 19.6391 209.574 19.569 209.84 19.4993C209.931 19.4755 210.021 19.4519 210.112 19.4284V18.8487H204.917V19.4225C205.037 19.4564 205.154 19.4902 205.27 19.5235C205.564 19.6081 205.848 19.6896 206.134 19.7643C206.363 19.813 206.571 19.934 206.727 20.1095C206.883 20.2851 206.979 20.5062 207.002 20.7408C207.095 21.3172 207.15 21.8992 207.166 22.4828C207.176 23.7924 207.172 25.1013 207.169 26.4105V26.4115C207.168 27.0663 207.166 27.7211 207.166 28.3761ZM222 28.0324L221.973 28.4547C221.901 29.5736 221.83 30.6807 221.757 31.8018L211.085 31.7943V31.1878C211.177 31.1748 211.269 31.1624 211.361 31.1499L211.362 31.1497C211.606 31.1167 211.851 31.0834 212.095 31.0393C212.631 30.9486 212.896 30.6527 212.898 30.1088C212.904 26.9547 212.906 23.8002 212.905 20.6452C212.905 20.183 212.694 19.8634 212.255 19.7296C212.004 19.6528 211.749 19.5895 211.487 19.5242C211.358 19.4922 211.227 19.4597 211.094 19.425V18.8467H221.025V21.9398C220.969 21.9398 220.916 21.9386 220.864 21.9374C220.763 21.9351 220.668 21.933 220.574 21.9398C220.431 21.9502 220.368 21.8789 220.296 21.7511C220.017 21.2303 219.712 20.7252 219.378 20.238C219.24 20.0305 219.053 19.8611 218.833 19.7454C218.613 19.6296 218.368 19.5711 218.12 19.5751H214.862V24.7104H215.434C215.565 24.7071 215.696 24.7045 215.827 24.702H215.828C216.178 24.6951 216.528 24.6883 216.878 24.6688C217.132 24.6623 217.378 24.5808 217.586 24.4344C217.794 24.288 217.955 24.0831 218.048 23.8453C218.167 23.5692 218.254 23.2801 218.345 22.983C218.385 22.8546 218.424 22.7248 218.467 22.5938H219.069V27.634H218.459C218.423 27.5105 218.389 27.3868 218.355 27.2632C218.277 26.9775 218.198 26.6932 218.097 26.4182C218.014 26.1493 217.849 25.914 217.625 25.7466C217.4 25.5792 217.129 25.4885 216.85 25.4877C216.414 25.4719 215.978 25.4771 215.537 25.4824C215.315 25.4851 215.091 25.4877 214.865 25.4877C214.855 25.5606 214.848 25.6341 214.846 25.7077C214.846 26.1343 214.845 26.5609 214.844 26.9873V26.9982V26.9996V27.0009C214.841 27.8592 214.839 28.7174 214.846 29.5722C214.856 30.6974 215.149 31.002 216.262 31.0393C216.376 31.0427 216.49 31.0468 216.604 31.0508C217.492 31.0821 218.379 31.1133 219.261 30.9263C219.437 30.9016 219.605 30.8382 219.755 30.7406C219.904 30.643 220.03 30.5136 220.124 30.3615C220.489 29.7298 220.851 29.0951 221.181 28.444L221.211 28.3846C221.418 27.9735 221.421 27.9656 222 28.0324ZM175.596 23.3176V18.8764C174.981 18.6326 174.67 18.9314 174.491 19.4398C173.619 18.9418 172.749 18.6148 171.799 18.5479C169.463 18.3844 167.496 19.1157 166.074 21.0242C164.622 22.9713 164.347 25.186 164.961 27.4972C165.646 30.0716 167.67 31.8047 170.266 32.0677C172.111 32.255 173.855 31.7779 175.532 31.0347C175.571 31.0067 175.603 30.97 175.626 30.9275C175.648 30.885 175.661 30.8377 175.663 30.7895C175.664 30.2894 175.659 29.7889 175.655 29.2884C175.651 28.8265 175.647 28.3645 175.647 27.903C175.647 27.1628 175.887 26.8774 176.624 26.7287C176.78 26.698 176.937 26.6701 177.092 26.6426L177.093 26.6424L177.178 26.6274C177.219 26.6201 177.259 26.6127 177.3 26.6054V25.9752H171.7V26.6069C171.768 26.6147 171.834 26.6219 171.899 26.6289C172.056 26.646 172.208 26.6625 172.359 26.6857C172.573 26.7147 172.785 26.7549 172.995 26.806C173.551 26.9502 173.793 27.1955 173.806 27.7529C173.818 28.2459 173.808 28.7393 173.799 29.2327C173.792 29.5617 173.785 29.8914 173.785 30.2202C173.785 30.5174 173.628 30.6661 173.398 30.7895C172.448 31.3199 171.33 31.4559 170.283 31.1685C168.804 30.7731 167.92 29.7238 167.388 28.3444C166.793 26.7972 166.746 25.1904 167.001 23.5688C167.161 22.5403 167.483 21.5682 168.13 20.7314C169.394 19.0979 171.756 18.7828 173.24 20.061C173.807 20.5738 174.231 21.227 174.471 21.9562C174.59 22.2932 174.703 22.6369 174.813 22.9749L174.814 22.9774L174.816 22.982C174.853 23.0946 174.889 23.2067 174.926 23.3176H175.596ZM151.122 31.7573V31.1493C151.165 31.1408 151.206 31.1317 151.245 31.1231C151.315 31.1076 151.382 31.0929 151.449 31.0824C152.297 30.9532 152.857 30.4657 153.171 29.6764L153.281 29.4013C153.655 28.4645 154.03 27.527 154.394 26.5863L154.574 26.1214C155.507 23.711 156.44 21.3001 157.356 18.884C157.455 18.6258 157.612 18.6199 157.796 18.6131C157.824 18.6121 157.853 18.611 157.882 18.609C157.928 18.5991 157.976 18.5985 158.023 18.6073C158.07 18.6161 158.114 18.6342 158.154 18.6604C158.194 18.6867 158.228 18.7206 158.254 18.7603C158.281 18.8 158.3 18.8445 158.309 18.8914C158.83 20.2651 159.356 21.6372 159.881 23.0092L159.881 23.0104C160.714 25.1863 161.547 27.3622 162.365 29.5441C162.723 30.4998 163.305 31.0795 164.354 31.1316V31.7588H159.049V31.1761C159.164 31.1547 159.278 31.1349 159.392 31.1154C159.656 31.0698 159.919 31.0245 160.176 30.9591C160.683 30.8298 160.766 30.6767 160.59 30.1921C160.438 29.7647 160.282 29.339 160.125 28.9135C159.951 28.438 159.776 27.9625 159.607 27.4855C159.591 27.4193 159.551 27.3618 159.494 27.3245C159.437 27.2872 159.369 27.2731 159.302 27.2849H155.231C155.173 27.2875 155.118 27.3036 155.068 27.3321C155.018 27.3604 154.975 27.4003 154.943 27.4483C154.657 28.2912 154.373 29.1353 154.131 29.9915C153.994 30.4805 154.131 30.7168 154.625 30.8729C154.908 30.9633 155.2 31.0261 155.505 31.0916C155.641 31.1208 155.779 31.1506 155.92 31.1835V31.7557L151.122 31.7573ZM159.204 26.4659L157.254 21.4123C156.597 23.135 155.967 24.7834 155.326 26.4584L159.204 26.4659ZM140.135 22.295H140.738C140.766 22.2161 140.79 22.1454 140.816 22.0692L140.832 22.0216C141.124 21.256 141.493 20.5382 142.083 19.9555C142.245 19.7935 142.457 19.6018 142.664 19.578C143.165 19.5195 143.67 19.4981 144.181 19.4765C144.372 19.4684 144.564 19.4603 144.756 19.4502C144.76 19.5068 144.764 19.5523 144.767 19.5911C144.773 19.6539 144.777 19.6997 144.777 19.7474C144.772 23.1413 144.769 26.5351 144.769 29.9289C144.768 30.574 144.491 30.8906 143.85 30.9901C143.565 31.0374 143.279 31.0711 142.987 31.1053C142.894 31.1163 142.8 31.1273 142.706 31.1388V31.7497H148.748V31.1552C148.618 31.1292 148.491 31.1051 148.366 31.0814C148.132 31.0372 147.906 30.9944 147.681 30.944C146.902 30.7672 146.698 30.5115 146.698 29.7134V19.8292C146.698 19.7726 146.703 19.7164 146.707 19.6644C146.71 19.6194 146.713 19.5774 146.713 19.5409H148.538C148.7 19.5461 148.86 19.5855 149.007 19.6567C149.153 19.7279 149.284 19.8291 149.389 19.954C149.921 20.5021 150.327 21.1619 150.577 21.8863C150.696 22.2311 150.857 22.3708 151.202 22.2995C151.225 22.2939 151.248 22.2907 151.272 22.2872C151.287 22.2851 151.302 22.283 151.318 22.2802V18.8096H140.135V22.295ZM178.209 19.4267V18.8322H183.612V19.4267C183.502 19.4493 183.393 19.4705 183.284 19.4915C183.052 19.5366 182.824 19.5809 182.598 19.6377C182.083 19.7655 181.898 19.9989 181.861 20.5295V20.6782C181.861 21.6684 181.86 22.6586 181.859 23.6492V23.6502V23.6531C181.857 25.635 181.855 27.618 181.861 29.6051C181.861 30.7942 182.123 31.0677 183.301 31.0767C184.046 31.0767 184.792 31.0261 185.535 30.9652C185.762 30.9486 185.981 30.8749 186.173 30.7508C186.365 30.6267 186.523 30.4562 186.632 30.2547C186.728 30.0908 186.825 29.9274 186.921 29.7641C187.191 29.3069 187.46 28.8499 187.716 28.3834L187.745 28.3288C187.961 27.9261 187.966 27.9172 188.539 27.9627L188.46 29.0996L188.454 29.1921C188.394 30.0508 188.333 30.9126 188.273 31.7826H178.222V31.1688C178.318 31.1551 178.415 31.1425 178.512 31.1299C178.73 31.1015 178.951 31.0727 179.168 31.0306C179.67 30.934 179.896 30.6678 179.92 30.1522C179.931 29.9048 179.93 29.6566 179.929 29.4089C179.929 29.3097 179.928 29.2106 179.929 29.1117V20.9576C179.929 20.0658 179.764 19.8384 178.897 19.5916C178.744 19.5478 178.592 19.5135 178.427 19.4764C178.357 19.4606 178.285 19.4444 178.209 19.4267ZM195.278 18.8662C195.274 18.8603 195.268 18.8527 195.262 18.8424L189.515 18.8394V19.4236C189.627 19.4503 189.736 19.4753 189.845 19.4999C190.103 19.5586 190.353 19.6152 190.598 19.6896C191.305 19.9037 191.426 20.0716 191.426 20.8147V29.9498C191.426 30.7242 191.15 31.0244 190.386 31.0898C190.186 31.1066 189.981 31.1255 189.774 31.1446C189.687 31.1526 189.599 31.1607 189.512 31.1686V31.7825H195.28V31.188C195.17 31.1676 195.062 31.1489 194.955 31.1305C194.726 31.0909 194.503 31.0523 194.282 31.0007C193.561 30.8267 193.362 30.5548 193.362 29.8116V20.736C193.359 20.6269 193.362 20.5178 193.371 20.409C193.412 20.03 193.598 19.7579 193.983 19.6658C194.258 19.5975 194.538 19.541 194.82 19.4964L194.837 19.4936C195.337 19.4132 195.338 19.4131 195.288 18.887C195.288 18.8814 195.285 18.8763 195.278 18.8662Z" fill="white"/>
<path fill-rule="evenodd" clip-rule="evenodd" d="M14.3724 23.2233L9.54599 20.5L4.773 23.2234V28.7233L9.54591 31.4999L14.3725 28.7232L9.54591 25.9999L14.3724 23.2233ZM14.3724 23.2233L19.1455 20.5L9.54599 15L3.78113e-05 20.5V26.0001L4.773 28.7233L0 31.4999L4.77296 34.2233L9.54591 37L19.1455 31.4999V25.9999L14.3724 23.2233ZM42.7085 15.8166H45.3335V31.8669H42.7085V15.8166ZM31.2126 35.3641C32.1405 35.9917 33.4303 36.3055 35.037 36.3055C36.6663 36.3055 38.0014 35.8348 38.9519 34.9605C39.9702 34.0639 40.468 32.7413 40.468 31.06V20.1207H37.843V21.0398C36.9605 20.3 35.8743 19.9414 34.5618 19.9414C32.7967 19.9414 31.3484 20.5242 30.2622 21.6899C29.2213 22.8107 28.7008 24.2453 28.7008 25.9042C28.7008 27.5855 29.2213 28.9977 30.2849 30.1186C31.3484 31.2842 32.7741 31.867 34.4713 31.867C35.829 31.867 36.9605 31.4859 37.8657 30.7462V30.948C37.8657 31.9343 37.6393 32.674 37.1642 33.1448C36.7116 33.6155 35.8969 33.8621 34.7881 33.8621C33.3398 33.8621 32.4573 33.4138 32.0726 32.4947L31.9368 32.1809H29.1081L29.3118 32.8309C29.6286 33.8621 30.2849 34.7364 31.2126 35.3641ZM32.2084 23.4159C32.842 22.7435 33.634 22.4072 34.675 22.4072C35.6706 22.4072 36.4627 22.721 37.051 23.3935C37.6393 24.0436 37.9109 24.8731 37.9109 25.9042C37.9109 26.9354 37.6393 27.7648 37.0736 28.4149C36.8021 28.7287 36.44 28.9753 36.0553 29.1546C35.6706 29.3339 35.1954 29.4236 34.675 29.4236C33.6567 29.4236 32.842 29.1098 32.231 28.4373C31.62 27.7648 31.3258 26.9354 31.3258 25.9266C31.3258 24.9179 31.62 24.0884 32.2084 23.4159ZM52.8463 32.0464C51.0812 32.0464 49.6329 31.4411 48.5241 30.2755C47.4832 29.1546 46.9627 27.7199 46.9627 25.9939C46.9627 24.2902 47.4832 22.8331 48.5241 21.7123C49.6329 20.5242 51.0812 19.9414 52.8463 19.9414C54.6114 19.9414 56.0596 20.5466 57.1685 21.7123C58.2094 22.8331 58.7298 24.2678 58.7298 25.9939C58.7298 27.6975 58.2094 29.1322 57.1685 30.2755C56.0596 31.4411 54.6114 32.0464 52.8463 32.0464ZM52.8463 22.4072C51.828 22.4072 51.0359 22.7435 50.4476 23.4384C49.8592 24.1109 49.5877 24.9627 49.5877 26.0163C49.5877 27.0699 49.8592 27.8993 50.4476 28.5718C51.0359 29.2667 51.828 29.603 52.8463 29.603C53.8646 29.603 54.6566 29.2667 55.245 28.5718C55.8334 27.8993 56.1049 27.0474 56.1049 26.0163C56.1049 24.9627 55.8334 24.1333 55.245 23.4608C54.6566 22.7435 53.8646 22.4072 52.8463 22.4072ZM62.9841 30.9478C63.844 31.6875 64.9528 32.0462 66.2427 32.0462C68.0304 32.0462 69.4787 31.441 70.5423 30.2529C71.5832 29.1096 72.1263 27.675 72.1263 25.9937C72.1263 24.3125 71.5832 22.8778 70.5423 21.7346C69.4787 20.5689 68.0757 19.9637 66.3785 19.9637C65.0207 19.9637 63.8892 20.3447 62.9841 21.0845V15.8166H60.3591V31.8669H62.9841V30.9478ZM63.7535 23.4383C64.3418 22.7433 65.1339 22.4071 66.1522 22.4071C67.1705 22.4071 67.9625 22.7433 68.5961 23.4383C69.2071 24.1108 69.5013 24.9401 69.5013 25.9937C69.5013 27.0473 69.2071 27.8768 68.5961 28.5492C67.9852 29.2441 67.1705 29.5804 66.1522 29.5804C65.1339 29.5804 64.3418 29.2441 63.7535 28.5492C63.1651 27.8768 62.8936 27.0473 62.8936 25.9937C62.8936 24.9625 63.1651 24.1108 63.7535 23.4383ZM78.5982 32.0462C77.8061 32.0462 77.1273 31.9341 76.5389 31.7099C75.9505 31.4858 75.4301 31.1496 75.0001 30.6788C74.0271 29.7149 73.5066 28.4371 73.5066 26.868V20.1205H76.1316V26.8231C76.1316 27.6974 76.3579 28.3475 76.8331 28.8406C77.3083 29.3338 77.8967 29.5803 78.6661 29.5803C79.4583 29.5803 80.0913 29.3338 80.6572 28.8182C81.2004 28.3026 81.4494 27.6301 81.4494 26.8007V20.1205H84.0741V31.8668H81.4494V30.9254C81.2457 31.1047 81.0193 31.2615 80.793 31.4184C80.1366 31.822 79.4131 32.0462 78.5982 32.0462ZM87.2648 30.8581C88.2154 31.6426 89.4829 32.0462 91.0439 32.0462C92.4925 32.0462 93.6695 31.7323 94.5967 31.1495C95.5247 30.4994 96 29.5579 96 28.3474C96 27.5404 95.7737 26.8903 95.321 26.4196C94.9362 25.9712 94.4156 25.635 93.8279 25.3884C93.2621 25.1642 92.6283 24.9625 91.9719 24.8503C91.3608 24.7159 90.7723 24.5814 90.2525 24.4469C89.7772 24.3348 89.3697 24.1555 89.0529 23.9762C88.8492 23.8193 88.7586 23.6623 88.7586 23.3933C88.7586 23.1019 88.7586 22.3397 90.7497 22.3397C92.8219 22.3397 92.9436 23.2497 92.9897 23.59L92.9904 23.595L93.0357 24.0209H95.6831L95.6152 23.4606C95.502 22.4518 95.072 21.6224 94.3251 21.0171C93.4657 20.3222 92.3114 19.9635 90.8628 19.9635C89.3698 19.9635 88.1928 20.2774 87.378 20.8826C86.5413 21.5103 86.1112 22.3845 86.1112 23.5278C86.1112 24.3124 86.3376 24.9401 86.7676 25.4108C87.1742 25.8367 87.6948 26.1729 88.2833 26.4196C88.8492 26.6437 89.4603 26.823 90.1167 26.9576C90.727 27.0696 91.3155 27.2041 91.8361 27.361C92.3114 27.4955 92.7188 27.6749 93.0131 27.8766L93.0357 27.8991C93.262 28.056 93.3526 28.2353 93.3526 28.5043C93.3526 28.8181 93.262 29.1992 92.6283 29.4457C92.3793 29.5355 92.0851 29.6027 91.8135 29.6475C91.5192 29.6924 91.2023 29.7148 90.8402 29.7148C90.5241 29.7148 90.2072 29.6475 89.8903 29.5579C89.0529 29.2664 88.6228 28.7733 88.5323 27.9663L88.487 27.5179H85.817L85.8396 28.0335C85.8849 29.1992 86.3828 30.1407 87.2648 30.8581Z" fill="white"/>
</svg>