<svg width="96" height="40" viewBox="0 0 96 40" fill="none" xmlns="http://www.w3.org/2000/svg">
    <path fill-rule="evenodd" clip-rule="evenodd" d="M44.063 5.84044L40.1637 11.8839C39.9475 12.2169 39.7319 12.5517 39.516 12.887C39.1536 13.4498 38.7903 14.0139 38.4219 14.5727C38.3847 14.6248 38.3378 14.6689 38.2837 14.7026C38.2295 14.7363 38.1694 14.7588 38.1065 14.7689C37.2101 14.8261 36.3096 14.8788 35.408 14.9316C34.5312 14.9829 33.6524 15.0343 32.7763 15.09C32.7372 15.0988 32.6966 15.0994 32.6572 15.0919C32.6177 15.0844 32.5803 15.0688 32.547 15.0461C32.5137 15.0234 32.4854 14.9941 32.4638 14.96C32.4422 14.9259 32.4277 14.8876 32.4213 14.8476C32.1765 14.1715 31.9283 13.4965 31.68 12.8212L31.6796 12.8203L31.6793 12.8194L31.679 12.8184C31.4222 12.1203 31.1652 11.4215 30.9122 10.7216C30.8679 10.6074 30.8679 10.4806 30.9122 10.3663C32.6275 7.09639 34.3468 3.83238 36.07 0.574318C36.0862 0.548515 36.1039 0.5237 36.123 0.5L44.063 5.84044ZM33.0106 12.1633C33.0106 12.8917 33.6326 13.5724 34.3031 13.5695C35.1342 13.5695 35.7575 12.9749 35.7649 12.1797C35.7719 11.9936 35.7418 11.8079 35.6763 11.6337C35.6107 11.4596 35.5112 11.3005 35.3835 11.166C35.2558 11.0314 35.1026 10.9241 34.933 10.8504C34.7634 10.7767 34.5808 10.7382 34.3962 10.7371C34.2115 10.736 34.0284 10.7723 33.858 10.844C33.6876 10.9157 33.5331 11.0212 33.4039 11.1542C33.2746 11.2873 33.1732 11.4452 33.1057 11.6185C33.0381 11.7919 33.0058 11.9771 33.0106 12.1633ZM7.4192 14.459C6.84662 14.3824 6.28759 14.3075 5.73177 14.2131C4.53517 14.0125 3.37394 13.6959 2.3026 13.0864C1.57525 12.666 0.955128 12.0802 0.491497 11.3757C0.13195 10.8545 -0.0389466 10.2244 0.00747141 9.59112C0.0538894 8.95781 0.314799 8.35991 0.746437 7.89766C1.71167 6.85722 2.92742 6.29241 4.26401 5.95501C5.37367 5.67409 6.49953 5.57599 7.61802 5.89109C8.48502 6.13057 9.28675 6.56563 9.96259 7.1634C10.9426 8.03143 11.1842 9.13134 10.8954 10.3769C10.6464 11.45 10.1394 12.4131 9.61627 13.3688C9.4881 13.6022 9.35688 13.8341 9.19928 14.112C9.3627 14.1388 9.52252 14.1667 9.68013 14.1941C9.99424 14.2488 10.2994 14.3019 10.6066 14.3425C14.8993 14.9102 19.217 14.9637 23.5363 14.937C25.1136 14.9247 26.6909 14.8751 28.2682 14.8255C28.9824 14.803 29.6966 14.7806 30.4108 14.7616C30.4242 14.7616 30.4384 14.7594 30.4525 14.7573C30.4803 14.753 30.5077 14.7488 30.5273 14.7616C30.5976 14.8014 30.664 14.8474 30.7306 14.8934C30.7559 14.9109 30.7817 14.9287 30.8073 14.9459C30.781 14.9659 30.7556 14.9892 30.7303 15.0122C30.6731 15.0644 30.6161 15.1162 30.5508 15.1317C30.3767 15.1631 30.2001 15.178 30.0233 15.1762C26.3746 15.3249 22.7244 15.3249 19.0756 15.209C16.9624 15.1465 14.8492 15.047 12.7389 14.9355C11.6426 14.8731 10.5594 14.7691 9.47482 14.6561C9.0843 14.6204 8.84262 14.6694 8.63336 15.0663C8.36641 15.5614 8.07701 16.0454 7.78769 16.5293C7.3248 17.3036 6.86216 18.0774 6.49216 18.8952C4.80927 22.6109 4.46001 26.4755 5.76418 30.392C7.05804 34.2624 9.72682 36.8501 13.4389 38.4019C13.7769 38.5435 14.1245 38.6629 14.4743 38.7831C14.6201 38.8332 14.7665 38.8835 14.9126 38.9355C14.9344 38.9435 14.9582 38.9488 14.9819 38.9541C15.0286 38.9645 15.0748 38.9748 15.1042 39.0053C15.1791 39.107 15.2461 39.2143 15.3046 39.3264C15.2675 39.3456 15.2294 39.3712 15.1912 39.3969C15.108 39.4529 15.0246 39.509 14.9509 39.4988C14.6685 39.4519 14.3902 39.3833 14.1183 39.2937C11.3832 38.4836 8.91336 37.2128 6.92689 35.1052C4.92955 33.0393 3.71441 30.3319 3.4933 27.455C3.16173 23.638 4.27433 20.2328 6.46711 17.1472C6.92904 16.4987 7.38568 15.8459 7.84151 15.1943L8.08812 14.8419C8.13511 14.7823 8.17421 14.7128 8.22074 14.6302C8.23112 14.6117 8.24187 14.5926 8.25316 14.5728C7.97191 14.5329 7.69511 14.4959 7.42153 14.4593L7.4192 14.459ZM4.97211 6.07348C4.82142 6.08598 4.64608 6.10053 4.47033 6.11999C2.69901 6.3147 1.34621 7.48594 0.935067 9.17296C0.669808 10.2595 0.961587 11.1721 1.8443 11.8335C2.30911 12.1805 2.82009 12.4597 3.36215 12.6629C4.84456 13.2201 6.40083 13.5166 7.95491 13.8127C8.12954 13.846 8.30416 13.8792 8.47863 13.9129C8.53596 13.9137 8.59267 13.9006 8.64396 13.8748C8.69524 13.8489 8.73962 13.811 8.77336 13.7642L8.89146 13.5534C9.22825 12.9526 9.56423 12.3532 9.86238 11.7265C10.6817 10.0216 9.96702 8.36437 8.9001 7.41609C7.85675 6.4886 6.61006 6.1081 5.16736 6.05757H5.15852C5.10305 6.06261 5.04056 6.0678 4.97318 6.07338L4.97211 6.07348ZM81.1659 28.8761V29.1333L81.0936 29.1585C81.0626 29.1158 81.0315 29.0765 81.0008 29.0378C80.9718 29.0011 80.9432 28.965 80.9153 28.9267C78.6509 25.8312 76.3913 22.7316 74.1366 19.6281C74.0768 19.53 73.9915 19.4503 73.8899 19.3979C73.7883 19.3455 73.6742 19.3223 73.5604 19.3309C72.9398 19.3388 72.3179 19.3362 71.6955 19.3335H71.6944C71.3832 19.3322 71.0718 19.3309 70.7605 19.3309H70.2594V19.9433C70.3383 19.9649 70.4158 19.9847 70.4921 20.0042C70.6411 20.0421 70.7852 20.0789 70.9256 20.126C72.1472 20.5378 72.5568 21.116 72.5568 22.4151C72.5638 24.5088 72.5638 26.6021 72.5568 28.6948C72.5539 29.1704 72.5318 29.6476 72.4906 30.1203C72.4168 30.9095 72.1369 31.2483 71.3853 31.4654C71.1817 31.5221 70.9747 31.5725 70.7644 31.6238L70.6437 31.6532C70.5847 31.6677 70.5254 31.6823 70.4658 31.6972V32.2918H75.7178V31.6972L74.592 31.4C74.0584 31.2514 73.7063 30.908 73.6164 30.3595C73.5163 29.7945 73.4587 29.2226 73.444 28.6488C73.4342 27.2015 73.4374 25.7535 73.4408 24.3053V24.3043C73.4423 23.5799 73.444 22.8556 73.444 22.1311C73.444 22.0771 73.4475 22.0209 73.452 21.9472C73.4541 21.9136 73.4564 21.8761 73.4587 21.8339C73.5004 21.8869 73.5355 21.9302 73.5668 21.9687C73.6075 22.0189 73.6414 22.0607 73.6738 22.1044L80.9536 32.0302C81.275 32.4687 81.4636 32.5282 82.0412 32.3795V32.0332C82.042 31.1319 82.0421 30.2306 82.0422 29.3293C82.0425 27.2251 82.0427 25.1206 82.053 23.0156C82.0635 22.4017 82.1074 21.7889 82.1842 21.1799C82.1974 20.9441 82.289 20.7196 82.444 20.5425C82.599 20.3653 82.8085 20.246 83.0388 20.2033C83.3069 20.1391 83.5741 20.069 83.84 19.9993C83.9307 19.9755 84.0213 19.9519 84.1116 19.9284V19.3487H78.9171V19.9225C79.037 19.9564 79.1543 19.9902 79.27 20.0235C79.5641 20.1081 79.8477 20.1896 80.1343 20.2643C80.3631 20.313 80.5705 20.434 80.7265 20.6095C80.8826 20.7851 80.9792 21.0062 81.0023 21.2408C81.0949 21.8172 81.1495 22.3992 81.1659 22.9828C81.1757 24.2924 81.1724 25.6013 81.1691 26.9105V26.9115C81.1675 27.5663 81.1659 28.2211 81.1659 28.8761ZM96 28.5324L95.9732 28.9547C95.9013 30.0736 95.8302 31.1807 95.7573 32.3018L85.0851 32.2943V31.6878C85.1768 31.6748 85.2688 31.6624 85.3609 31.6499L85.362 31.6497C85.6059 31.6167 85.851 31.5834 86.0946 31.5393C86.631 31.4486 86.8963 31.1527 86.8977 30.6088C86.9036 27.4547 86.906 24.3002 86.9051 21.1452C86.9051 20.683 86.6944 20.3634 86.2552 20.2296C86.0042 20.1528 85.7492 20.0895 85.4866 20.0242C85.3577 19.9922 85.227 19.9597 85.094 19.925V19.3467H95.0246V22.4398C94.9693 22.4398 94.9158 22.4386 94.8641 22.4374C94.7635 22.4351 94.6675 22.433 94.5743 22.4398C94.4313 22.4502 94.3676 22.3789 94.2957 22.2511C94.017 21.7303 93.7115 21.2252 93.3784 20.738C93.24 20.5305 93.0527 20.3611 92.8331 20.2454C92.6134 20.1296 92.368 20.0711 92.1203 20.0751H88.862V25.2104H89.4339C89.5647 25.2071 89.6957 25.2045 89.8265 25.202H89.8277C90.1782 25.1951 90.5285 25.1882 90.878 25.1688C91.1316 25.1623 91.3777 25.0808 91.5858 24.9344C91.7938 24.788 91.9546 24.5831 92.0481 24.3453C92.1668 24.0692 92.2545 23.7801 92.3449 23.483C92.3846 23.3546 92.4243 23.2248 92.4667 23.0938H93.0693V28.134H92.4594C92.4234 28.0105 92.3892 27.8868 92.3551 27.7632C92.2766 27.4775 92.1982 27.1932 92.0967 26.9182C92.0144 26.6493 91.849 26.414 91.6248 26.2466C91.4005 26.0792 91.129 25.9885 90.85 25.9877C90.4141 25.9719 89.9782 25.9771 89.5371 25.9824C89.3147 25.9851 89.0909 25.9877 88.8651 25.9877C88.8546 26.0606 88.8482 26.1341 88.8459 26.2077C88.8459 26.6343 88.8448 27.0609 88.8436 27.4873V27.4982V27.4996V27.5009C88.8413 28.3592 88.839 29.2174 88.8459 30.0722C88.8562 31.1974 89.1495 31.502 90.2621 31.5393C90.3761 31.5427 90.4902 31.5468 90.6042 31.5508C91.4922 31.5821 92.3791 31.6133 93.2612 31.4263C93.4375 31.4016 93.6054 31.3382 93.7549 31.2406C93.9044 31.143 94.0299 31.0136 94.124 30.8615C94.4885 30.2298 94.8512 29.5951 95.1806 28.944L95.211 28.8846C95.4177 28.4735 95.4214 28.4656 96 28.5324ZM49.5964 23.8176V19.3764C48.9805 19.1326 48.6695 19.4314 48.4913 19.9398C47.6188 19.4418 46.7493 19.1148 45.7989 19.0479C43.4631 18.8844 41.4958 19.6157 40.0738 21.5242C38.6223 23.4713 38.3466 25.686 38.9612 27.9972C39.6464 30.5716 41.6697 32.3047 44.2663 32.5677C46.1113 32.755 47.8546 32.2779 49.5316 31.5347C49.5706 31.5067 49.6028 31.47 49.6255 31.4275C49.6482 31.385 49.661 31.3377 49.6628 31.2895C49.6635 30.7894 49.6591 30.2889 49.6547 29.7884C49.6506 29.3265 49.6466 28.8645 49.6466 28.403C49.6466 27.6628 49.8868 27.3774 50.6236 27.2287C50.7801 27.198 50.9373 27.1701 51.0923 27.1426L51.0934 27.1424L51.1777 27.1274C51.2187 27.1201 51.2595 27.1127 51.3 27.1054V26.4752H45.7002V27.1069C45.7676 27.1147 45.8336 27.1219 45.8986 27.1289C46.0561 27.146 46.2076 27.1625 46.3588 27.1857C46.573 27.2147 46.7854 27.2549 46.9954 27.306C47.551 27.4502 47.7927 27.6955 47.806 28.2529C47.8184 28.7459 47.8084 29.2393 47.7985 29.7327C47.792 30.0617 47.7853 30.3914 47.7853 30.7202C47.7853 31.0174 47.6276 31.1661 47.3978 31.2895C46.4478 31.8199 45.3302 31.9559 44.2825 31.6685C42.8044 31.2731 41.9202 30.2238 41.3883 28.8444C40.7929 27.2972 40.7457 25.6904 41.0007 24.0688C41.1613 23.0403 41.4826 22.0682 42.1295 21.2314C43.3939 19.5979 45.7562 19.2828 47.2401 20.561C47.807 21.0738 48.2312 21.727 48.4706 22.4562C48.5905 22.7932 48.7028 23.1369 48.8134 23.4749L48.8142 23.4774L48.8158 23.482C48.8526 23.5946 48.8892 23.7067 48.926 23.8176H49.5964ZM25.1221 32.2573V31.6493C25.1647 31.6408 25.2056 31.6317 25.2453 31.6231C25.3155 31.6076 25.3825 31.5929 25.4493 31.5824C26.2966 31.4532 26.8566 30.9657 27.1705 30.1764L27.2805 29.9013C27.6551 28.9645 28.0299 28.027 28.3936 27.0863L28.5736 26.6214C29.5069 24.211 30.4404 21.8001 31.3557 19.384C31.4555 19.1258 31.6121 19.1199 31.7965 19.1131C31.8243 19.1121 31.8527 19.111 31.8817 19.109C31.9281 19.0991 31.9761 19.0985 32.0228 19.1073C32.0695 19.1161 32.1141 19.1342 32.1538 19.1604C32.1935 19.1867 32.2277 19.2206 32.2543 19.2603C32.281 19.3 32.2996 19.3445 32.3091 19.3914C32.8304 20.7651 33.3556 22.1372 33.8807 23.5092L33.8812 23.5104C34.714 25.6863 35.5468 27.8622 36.3645 30.0441C36.7226 30.9998 37.3047 31.5795 38.3539 31.6316V32.2588H33.0488V31.6761C33.1635 31.6547 33.2778 31.6349 33.3916 31.6154C33.6562 31.5698 33.9186 31.5245 34.1762 31.4591C34.6831 31.3298 34.7656 31.1767 34.5902 30.6921C34.4379 30.2647 34.2816 29.839 34.1253 29.4135C33.9507 28.938 33.7761 28.4625 33.6074 27.9855C33.5911 27.9193 33.5507 27.8618 33.4941 27.8245C33.4374 27.7872 33.3689 27.7731 33.3023 27.7849H29.2306C29.1734 27.7875 29.1176 27.8036 29.0677 27.8321C29.0177 27.8604 28.9751 27.9003 28.9433 27.9483C28.6574 28.7912 28.373 29.6353 28.1313 30.4915C27.9943 30.9805 28.1313 31.2168 28.625 31.3729C28.9084 31.4633 29.2002 31.5261 29.5049 31.5916C29.6407 31.6208 29.779 31.6506 29.9203 31.6835V32.2557L25.1221 32.2573ZM33.2036 26.9659L31.254 21.9123C30.5967 23.635 29.9674 25.2834 29.3264 26.9584L33.2036 26.9659ZM14.1348 22.795H14.7375C14.7656 22.7161 14.7897 22.6454 14.8156 22.5692L14.8318 22.5216C15.1236 21.7561 15.4935 21.0382 16.0829 20.4555C16.2451 20.2935 16.4572 20.1018 16.6635 20.078C17.1647 20.0195 17.6697 19.9981 18.1809 19.9765C18.3717 19.9684 18.5635 19.9603 18.7561 19.9502C18.7601 20.0068 18.764 20.0523 18.7674 20.0911C18.7728 20.1539 18.7768 20.1997 18.7768 20.2474C18.7719 23.6413 18.7694 27.0351 18.7694 30.4289C18.7679 31.074 18.4909 31.3906 17.8498 31.4901C17.565 31.5374 17.2786 31.5711 16.9872 31.6053C16.894 31.6163 16.8005 31.6273 16.7063 31.6388V32.2497H22.7483V31.6552C22.6178 31.6292 22.4905 31.6051 22.3655 31.5814C22.1319 31.5372 21.906 31.4944 21.6813 31.444C20.9017 31.2672 20.6984 31.0115 20.6984 30.2134V20.3292C20.6984 20.2726 20.7027 20.2164 20.7066 20.1644C20.71 20.1194 20.7131 20.0774 20.7131 20.0409H22.5375C22.7002 20.0461 22.86 20.0855 23.0066 20.1567C23.1534 20.2279 23.2837 20.3291 23.3893 20.454C23.9213 21.0021 24.3267 21.6619 24.577 22.3863C24.6964 22.7311 24.857 22.8708 25.2018 22.7995C25.2247 22.7939 25.2477 22.7907 25.2719 22.7872C25.2867 22.7851 25.3021 22.783 25.3183 22.7802V19.3096H14.1348V22.795ZM52.2092 19.9267V19.3322H57.6115V19.9267C57.5015 19.9493 57.3925 19.9705 57.2844 19.9915C57.0521 20.0366 56.8239 20.0809 56.5977 20.1377C56.0834 20.2655 55.8977 20.4989 55.8608 21.0295V21.1782C55.8608 22.1684 55.8598 23.1586 55.8589 24.1492V24.1502V24.1531C55.857 26.135 55.8549 28.118 55.8608 30.1051C55.8608 31.2942 56.1232 31.5677 57.3006 31.5767C58.0462 31.5767 58.7919 31.5261 59.5347 31.4652C59.7619 31.4486 59.9814 31.3749 60.1732 31.2508C60.365 31.1267 60.5228 30.9562 60.6325 30.7547C60.7282 30.5908 60.8247 30.4274 60.921 30.2641C61.1908 29.8069 61.4605 29.3499 61.7156 28.8834L61.7449 28.8288C61.9611 28.4261 61.966 28.4172 62.5394 28.4627L62.46 29.5996L62.4536 29.6921C62.3937 30.5508 62.3335 31.4126 62.2727 32.2826H52.2225V31.6688C52.3182 31.6551 52.4149 31.6425 52.5117 31.6299C52.7304 31.6015 52.951 31.5727 53.1685 31.5306C53.6695 31.434 53.8965 31.1678 53.9201 30.6522C53.9306 30.4048 53.9299 30.1566 53.9291 29.9089C53.9287 29.8097 53.9285 29.7106 53.9289 29.6117V21.4576C53.9289 20.5658 53.7639 20.3384 52.8974 20.0916C52.7443 20.0478 52.5918 20.0135 52.4269 19.9764C52.357 19.9606 52.2847 19.9444 52.2092 19.9267ZM69.2778 19.3662C69.2737 19.3603 69.2684 19.3527 69.2619 19.3424L63.5147 19.3394V19.9236C63.6266 19.9503 63.7365 19.9753 63.8448 19.9999C64.1033 20.0586 64.3528 20.1152 64.5979 20.1896C65.3052 20.4037 65.4261 20.5716 65.4261 21.3147V30.4498C65.4261 31.2242 65.1504 31.5244 64.3856 31.5898C64.1858 31.6066 63.9807 31.6255 63.7742 31.6446C63.6869 31.6526 63.5993 31.6607 63.5118 31.6686V32.2825H69.2796V31.688C69.1698 31.6676 69.0617 31.6489 68.9547 31.6305C68.726 31.5909 68.5029 31.5523 68.2819 31.5007C67.5613 31.3267 67.3624 31.0548 67.3624 30.3116V21.236C67.3594 21.1269 67.3624 21.0178 67.3713 20.909C67.4125 20.53 67.5982 20.2579 67.9828 20.1658C68.2584 20.0975 68.5384 20.041 68.8198 19.9964L68.8372 19.9936C69.3371 19.9132 69.3379 19.9131 69.2884 19.387C69.2884 19.3814 69.2849 19.3763 69.2778 19.3662Z" fill="white" />
</svg>