<svg xmlns="http://www.w3.org/2000/svg" width="462" height="447" viewBox="0 0 462 447" fill="none">
<g opacity="0.5">
<path d="M164.1 45.8092C162.358 45.8092 160.79 44.4158 160.79 42.4998C160.79 40.758 162.184 39.1904 164.1 39.1904C165.841 39.1904 167.409 40.5839 167.409 42.4998C167.235 44.4158 165.841 45.8092 164.1 45.8092Z" fill="white" fill-opacity="0.3"/>
<path d="M164.099 39.8853C165.666 39.8853 166.711 41.1045 166.711 42.4979C166.711 44.0655 165.492 45.1106 164.099 45.1106C162.705 45.1106 161.486 43.8913 161.486 42.4979C161.312 41.1045 162.531 39.8853 164.099 39.8853ZM164.099 38.666C162.009 38.666 160.267 40.4078 160.267 42.4979C160.267 44.5881 162.009 46.3298 164.099 46.3298C166.189 46.3298 167.931 44.5881 167.931 42.4979C167.931 40.4078 166.189 38.666 164.099 38.666Z" fill="white" fill-opacity="0.2"/>
<path d="M437.56 128.023C435.818 128.023 434.251 126.63 434.251 124.714C434.251 122.798 435.644 121.404 437.56 121.404C439.302 121.404 440.869 122.798 440.869 124.714C440.869 126.63 439.476 128.023 437.56 128.023Z" fill="white" fill-opacity="0.3"/>
<path d="M437.558 121.926C439.126 121.926 440.171 123.145 440.171 124.539C440.171 125.932 438.952 127.151 437.558 127.151C435.991 127.151 434.946 125.932 434.946 124.539C434.946 123.145 436.165 121.926 437.558 121.926ZM437.558 120.881C435.468 120.881 433.727 122.623 433.727 124.713C433.727 126.803 435.468 128.545 437.558 128.545C439.649 128.545 441.39 126.803 441.39 124.713C441.39 122.623 439.823 120.881 437.558 120.881Z" fill="white" fill-opacity="0.2"/>
<path d="M454.8 132.027C453.058 132.027 451.491 130.634 451.491 128.718C451.491 126.802 452.884 125.408 454.8 125.408C456.542 125.408 458.109 126.802 458.109 128.718C458.109 130.634 456.716 132.027 454.8 132.027Z" fill="white" fill-opacity="0.3"/>
<path d="M454.799 125.929C456.367 125.929 457.412 127.148 457.412 128.542C457.412 129.935 456.193 131.154 454.799 131.154C453.406 131.154 452.186 129.935 452.186 128.542C452.186 127.148 453.406 125.929 454.799 125.929ZM454.799 124.884C452.709 124.884 450.967 126.626 450.967 128.716C450.967 130.806 452.709 132.548 454.799 132.548C456.889 132.548 458.631 130.806 458.631 128.716C458.631 126.626 457.063 124.884 454.799 124.884Z" fill="white" fill-opacity="0.2"/>
<path d="M15.0015 387.374C13.2597 387.374 11.6921 385.98 11.6921 384.064C11.6921 382.322 13.0856 380.755 15.0015 380.755C16.7433 380.755 18.3109 382.148 18.3109 384.064C18.3109 385.98 16.7433 387.374 15.0015 387.374Z" fill="white" fill-opacity="0.3"/>
<path d="M14.9999 381.45C16.5675 381.45 17.6125 382.669 17.6125 384.062C17.6125 385.456 16.3933 386.675 14.9999 386.675C13.6065 386.675 12.3872 385.456 12.3872 384.062C12.3872 382.669 13.4323 381.45 14.9999 381.45ZM14.9999 380.23C12.9097 380.23 11.168 381.972 11.168 384.062C11.168 386.153 12.9097 387.894 14.9999 387.894C17.09 387.894 18.8318 386.153 18.8318 384.062C18.8318 381.972 17.09 380.23 14.9999 380.23Z" fill="white" fill-opacity="0.2"/>
<path d="M75.443 381.1C73.7013 381.1 72.1337 379.707 72.1337 377.791C72.1337 376.049 73.5271 374.481 75.443 374.481C77.1848 374.481 78.7524 375.875 78.7524 377.791C78.7524 379.707 77.1848 381.1 75.443 381.1Z" fill="white" fill-opacity="0.3"/>
<path d="M75.4419 375.177C77.0095 375.177 78.0546 376.396 78.0546 377.79C78.0546 379.183 76.8353 380.403 75.4419 380.403C73.8743 380.403 72.8292 379.183 72.8292 377.79C72.8292 376.396 73.8743 375.177 75.4419 375.177ZM75.4419 373.958C73.3518 373.958 71.61 375.7 71.61 377.79C71.61 379.88 73.3518 381.622 75.4419 381.622C77.532 381.622 79.2738 379.88 79.2738 377.79C79.2738 375.7 77.532 373.958 75.4419 373.958Z" fill="white" fill-opacity="0.2"/>
<path d="M455.148 427.258C453.406 427.258 451.839 425.865 451.839 423.949C451.839 422.207 453.232 420.64 455.148 420.64C456.89 420.64 458.457 422.033 458.457 423.949C458.283 425.865 456.89 427.258 455.148 427.258Z" fill="white" fill-opacity="0.3"/>
<path d="M455.146 421.335C456.713 421.335 457.758 422.555 457.758 423.948C457.758 425.342 456.539 426.561 455.146 426.561C453.752 426.561 452.533 425.342 452.533 423.948C452.533 422.555 453.578 421.335 455.146 421.335ZM455.146 420.116C453.056 420.116 451.314 421.858 451.314 423.948C451.314 426.038 453.056 427.78 455.146 427.78C457.236 427.78 458.978 426.038 458.978 423.948C458.978 421.858 457.236 420.116 455.146 420.116Z" fill="white" fill-opacity="0.2"/>
<path d="M295.258 17.2467C293.516 17.2467 291.948 15.8533 291.948 13.9373C291.948 12.1955 293.342 10.6279 295.258 10.6279C297 10.6279 298.567 12.0214 298.567 13.9373C298.567 15.8533 297.174 17.2467 295.258 17.2467Z" fill="white" fill-opacity="0.3"/>
<path d="M295.257 11.3237C296.825 11.3237 297.87 12.543 297.87 13.9364C297.87 15.3298 296.65 16.5491 295.257 16.5491C293.689 16.5491 292.644 15.3298 292.644 13.9364C292.644 12.543 293.864 11.3237 295.257 11.3237ZM295.257 10.1045C293.167 10.1045 291.425 11.8463 291.425 13.9364C291.425 16.0265 293.167 17.7683 295.257 17.7683C297.347 17.7683 299.089 16.0265 299.089 13.9364C299.089 11.8463 297.521 10.1045 295.257 10.1045Z" fill="white" fill-opacity="0.2"/>
<path d="M37.6443 131.852C35.9026 131.852 34.335 130.459 34.335 128.543C34.335 126.801 35.7284 125.233 37.6443 125.233C39.3861 125.233 40.9537 126.627 40.9537 128.543C40.9537 130.459 39.5603 131.852 37.6443 131.852Z" fill="white" fill-opacity="0.3"/>
<path d="M37.6439 125.93C39.2115 125.93 40.2566 127.149 40.2566 128.543C40.2566 129.936 39.0373 131.156 37.6439 131.156C36.2505 131.156 35.0313 129.936 35.0313 128.543C35.0313 127.149 36.2505 125.93 37.6439 125.93ZM37.6439 124.711C35.5538 124.711 33.812 126.453 33.812 128.543C33.812 130.633 35.5538 132.375 37.6439 132.375C39.7341 132.375 41.4758 130.633 41.4758 128.543C41.4758 126.453 39.9082 124.711 37.6439 124.711Z" fill="white" fill-opacity="0.2"/>
<path d="M67.2544 153.799C65.5127 153.799 63.9451 152.406 63.9451 150.49C63.9451 148.748 65.3385 147.181 67.2544 147.181C68.9962 147.181 70.5638 148.574 70.5638 150.49C70.5638 152.406 69.1704 153.799 67.2544 153.799Z" fill="white" fill-opacity="0.3"/>
<path d="M67.2528 147.876C68.8204 147.876 69.8655 149.095 69.8655 150.488C69.8655 152.056 68.6462 153.101 67.2528 153.101C65.6852 153.101 64.6401 151.882 64.6401 150.488C64.6401 149.095 65.8594 147.876 67.2528 147.876ZM67.2528 146.656C65.1627 146.656 63.4209 148.398 63.4209 150.488C63.4209 152.578 65.1627 154.32 67.2528 154.32C69.3429 154.32 71.0847 152.578 71.0847 150.488C71.2589 148.398 69.5171 146.656 67.2528 146.656Z" fill="white" fill-opacity="0.2"/>
<path d="M71.0879 246.463C69.3462 246.463 67.7786 245.07 67.7786 243.154C67.7786 241.412 69.172 239.845 71.0879 239.845C72.8297 239.845 74.3973 241.238 74.3973 243.154C74.3973 245.07 72.8297 246.463 71.0879 246.463Z" fill="white" fill-opacity="0.3"/>
<path d="M71.0874 240.541C72.655 240.541 73.7001 241.76 73.7001 243.153C73.7001 244.547 72.4808 245.766 71.0874 245.766C69.5198 245.766 68.4747 244.547 68.4747 243.153C68.4747 241.76 69.5198 240.541 71.0874 240.541ZM71.0874 239.321C68.9973 239.321 67.2555 241.063 67.2555 243.153C67.2555 245.243 68.9973 246.985 71.0874 246.985C73.1775 246.985 74.9193 245.243 74.9193 243.153C74.9193 241.063 73.1775 239.321 71.0874 239.321Z" fill="white" fill-opacity="0.2"/>
<path d="M252.408 74.5475C250.666 74.5475 249.098 73.154 249.098 71.2381C249.098 69.4963 250.492 67.9287 252.408 67.9287C254.15 67.9287 255.717 69.3221 255.717 71.2381C255.717 72.9799 254.324 74.5475 252.408 74.5475Z" fill="white" fill-opacity="0.3"/>
<path d="M252.405 68.4507C253.973 68.4507 255.018 69.6699 255.018 71.0634C255.018 72.631 253.798 73.676 252.405 73.676C250.837 73.676 249.792 72.4568 249.792 71.0634C249.792 69.6699 251.012 68.4507 252.405 68.4507ZM252.405 67.2314C250.315 67.2314 248.573 68.9732 248.573 71.0634C248.573 73.1535 250.315 74.8953 252.405 74.8953C254.495 74.8953 256.237 73.1535 256.237 71.0634C256.411 68.9732 254.669 67.2314 252.405 67.2314Z" fill="white" fill-opacity="0.2"/>
<path d="M126.475 128.196C124.734 128.196 123.166 126.802 123.166 124.887C123.166 123.145 124.559 121.577 126.475 121.577C128.217 121.577 129.785 122.971 129.785 124.887C129.611 126.628 128.217 128.196 126.475 128.196Z" fill="white" fill-opacity="0.3"/>
<path d="M126.475 122.1C128.043 122.1 129.088 123.319 129.088 124.713C129.088 126.106 127.868 127.325 126.475 127.325C124.907 127.325 123.862 126.106 123.862 124.713C123.862 123.319 124.907 122.1 126.475 122.1ZM126.475 120.881C124.385 120.881 122.643 122.623 122.643 124.713C122.643 126.803 124.385 128.545 126.475 128.545C128.565 128.545 130.307 126.803 130.307 124.713C130.307 122.623 128.565 120.881 126.475 120.881Z" fill="white" fill-opacity="0.2"/>
<path d="M147.378 83.9557C145.636 83.9557 144.068 82.5622 144.068 80.6463C144.068 78.7303 145.462 77.3369 147.378 77.3369C149.12 77.3369 150.687 78.7303 150.687 80.6463C150.687 82.5622 149.294 83.9557 147.378 83.9557Z" fill="white" fill-opacity="0.3"/>
<path d="M147.375 78.0317C148.942 78.0317 149.988 79.251 149.988 80.6444C149.988 82.0378 148.768 83.2571 147.375 83.2571C145.981 83.2571 144.762 82.0378 144.762 80.6444C144.762 79.251 145.981 78.0317 147.375 78.0317ZM147.375 76.8125C145.285 76.8125 143.543 78.5543 143.543 80.6444C143.543 82.7345 145.285 84.4763 147.375 84.4763C149.465 84.4763 151.207 82.7345 151.207 80.6444C151.207 78.5543 149.639 76.8125 147.375 76.8125Z" fill="white" fill-opacity="0.2"/>
<path d="M217.048 52.774C215.306 52.774 213.738 51.3806 213.738 49.4646C213.738 47.7229 215.132 46.1553 217.048 46.1553C218.789 46.1553 220.357 47.5487 220.357 49.4646C220.357 51.2064 218.789 52.774 217.048 52.774Z" fill="white" fill-opacity="0.3"/>
<path d="M217.046 46.8511C218.614 46.8511 219.659 48.0703 219.659 49.4637C219.659 50.8572 218.44 52.0764 217.046 52.0764C215.479 52.0764 214.434 50.8572 214.434 49.4637C214.434 48.0703 215.479 46.8511 217.046 46.8511ZM217.046 45.6318C214.956 45.6318 213.214 47.3736 213.214 49.4637C213.214 51.5539 214.956 53.2957 217.046 53.2957C219.137 53.2957 220.878 51.5539 220.878 49.4637C220.878 47.3736 219.137 45.6318 217.046 45.6318Z" fill="white" fill-opacity="0.2"/>
<path d="M429.544 84.9986C427.802 84.9986 426.235 83.6052 426.235 81.6893C426.235 79.9475 427.628 78.3799 429.544 78.3799C431.286 78.3799 432.854 79.7733 432.854 81.6893C432.854 83.6052 431.286 84.9986 429.544 84.9986Z" fill="white" fill-opacity="0.3"/>
<path d="M429.544 79.0747C431.111 79.0747 432.156 80.294 432.156 81.6874C432.156 83.255 430.937 84.3 429.544 84.3C427.976 84.3 426.931 83.0808 426.931 81.6874C426.757 80.294 427.976 79.0747 429.544 79.0747ZM429.544 77.8555C427.453 77.8555 425.712 79.5972 425.712 81.6874C425.712 83.7775 427.453 85.5193 429.544 85.5193C431.634 85.5193 433.375 83.7775 433.375 81.6874C433.375 79.5972 431.634 77.8555 429.544 77.8555Z" fill="white" fill-opacity="0.2"/>
<path d="M296.823 13.7607L37.1241 129.066L13.9585 383.366L307.796 573.219L450.97 497.626L491.554 385.978L524.125 93.5341L296.823 13.7607Z" stroke="white" stroke-opacity="0.2" stroke-width="0.5" stroke-miterlimit="10"/>
<path d="M469.782 292.619L454.628 424.123L253.453 587.153L102.093 534.552L42.8722 304.115L164.1 42.6738L429.024 81.1671L469.782 292.619Z" stroke="white" stroke-opacity="0.2" stroke-width="0.5" stroke-miterlimit="10"/>
<path d="M454.454 129.066L252.582 71.4131L67.9539 150.316L75.966 376.747L171.938 526.365L376.597 558.588L523.254 397.3L454.454 129.066Z" stroke="white" stroke-opacity="0.2" stroke-width="0.5" stroke-miterlimit="10"/>
</g>
<g filter="url(#filter0_b_122_9236)">
<path d="M240.785 292.88L235.418 272.07L220.314 256.389L171.966 298.037L177.281 316.388L192.385 332.068L254.162 343.061L248.769 321.02L234.922 306.545L227.461 303.011L240.785 292.88Z" fill="white" fill-opacity="0.05"/>
</g>
<g filter="url(#filter1_b_122_9236)">
<path d="M324.837 251.7L318.241 230.916L380.018 241.909L395.122 257.588L400.436 275.938L352.089 317.586L338.188 300.65L331.592 279.866L343.659 268.531L338.711 267.406L324.837 251.7Z" fill="white" fill-opacity="0.05"/>
</g>
<path d="M226.773 304.402L241.221 293.383L235.539 272.178" stroke="white" stroke-opacity="0.4" stroke-width="1.06746" stroke-miterlimit="10"/>
<path d="M191.985 331.901L254.541 343.088L248.72 321.366" stroke="white" stroke-opacity="0.4" stroke-width="1.06746" stroke-miterlimit="10"/>
<path d="M275.118 353.458L297.099 347.568L313.334 240.531" stroke="white" stroke-opacity="0.4" stroke-width="1.06746" stroke-miterlimit="10"/>
<path d="M351.643 317.07L400.225 276.104L395.263 257.587" stroke="white" stroke-opacity="0.4" stroke-width="1.06746" stroke-miterlimit="10"/>
<path d="M338.325 267.362L345.405 268.276" stroke="white" stroke-opacity="0.4" stroke-width="1.06746" stroke-miterlimit="10"/>
<g filter="url(#filter2_b_122_9236)">
<path d="M260.245 336.913L276.447 230.715L298.488 225.322L313.566 239.771L297.39 347.201L280.271 352.489L274.119 352.62L260.245 336.913Z" fill="white" fill-opacity="0.05"/>
</g>
<path d="M177.383 315.985L192.012 331.93" stroke="white" stroke-opacity="0.4" stroke-width="1.06746" stroke-miterlimit="10"/>
<path d="M220.941 256.156L235.536 272.231" stroke="white" stroke-opacity="0.4" stroke-width="1.06746" stroke-miterlimit="10"/>
<path d="M234.015 305.463L248.717 321.353" stroke="white" stroke-opacity="0.4" stroke-width="1.06746" stroke-miterlimit="10"/>
<path d="M226.608 277.432L241.203 293.507" stroke="white" stroke-opacity="0.4" stroke-width="1.06746" stroke-miterlimit="10"/>
<path d="M239.799 326.982L254.533 343.055" stroke="white" stroke-opacity="0.4" stroke-width="1.06746" stroke-miterlimit="10"/>
<path d="M260.442 337.472L275.104 353.407" stroke="white" stroke-opacity="0.4" stroke-width="1.06746" stroke-miterlimit="10"/>
<path d="M282.342 331.598L296.988 347.538" stroke="white" stroke-opacity="0.4" stroke-width="1.06746" stroke-miterlimit="10"/>
<path d="M298.795 224.659L313.457 240.595" stroke="white" stroke-opacity="0.4" stroke-width="1.06746" stroke-miterlimit="10"/>
<path d="M338.254 267.296L323.654 251.465" stroke="white" stroke-opacity="0.4" stroke-width="1.06746" stroke-miterlimit="10"/>
<path d="M351.555 317.059L336.999 301.13" stroke="white" stroke-opacity="0.4" stroke-width="1.06746" stroke-miterlimit="10"/>
<path d="M400.181 276.06L385.556 260.132" stroke="white" stroke-opacity="0.4" stroke-width="1.06746" stroke-miterlimit="10"/>
<path d="M395.233 257.6L380.603 241.655" stroke="white" stroke-opacity="0.4" stroke-width="1.06746" stroke-miterlimit="10"/>
<path d="M177.344 315.987L239.895 327.158L234.075 305.436L196.768 300.165L226.58 277.465L220.898 256.261L172.378 297.454L177.344 315.987Z" stroke="white" stroke-opacity="0.4" stroke-width="1.06746" stroke-miterlimit="10"/>
<path d="M260.476 337.533L282.458 331.643L298.689 224.59L276.837 230.445L260.476 337.533Z" stroke="white" stroke-opacity="0.4" stroke-width="1.06746" stroke-miterlimit="10"/>
<path d="M318.001 230.242L323.682 251.447L360.85 256.199L331.177 279.417L336.997 301.139L385.583 260.189L380.617 241.656L318.001 230.242Z" stroke="white" stroke-opacity="0.4" stroke-width="1.06746" stroke-miterlimit="10"/>
<defs>
<filter id="filter0_b_122_9236" x="167.966" y="252.389" width="90.1959" height="94.6729" filterUnits="userSpaceOnUse" color-interpolation-filters="sRGB">
<feFlood flood-opacity="0" result="BackgroundImageFix"/>
<feGaussianBlur in="BackgroundImageFix" stdDeviation="2"/>
<feComposite in2="SourceAlpha" operator="in" result="effect1_backgroundBlur_122_9236"/>
<feBlend mode="normal" in="SourceGraphic" in2="effect1_backgroundBlur_122_9236" result="shape"/>
</filter>
<filter id="filter1_b_122_9236" x="314.241" y="226.916" width="90.1959" height="94.6699" filterUnits="userSpaceOnUse" color-interpolation-filters="sRGB">
<feFlood flood-opacity="0" result="BackgroundImageFix"/>
<feGaussianBlur in="BackgroundImageFix" stdDeviation="2"/>
<feComposite in2="SourceAlpha" operator="in" result="effect1_backgroundBlur_122_9236"/>
<feBlend mode="normal" in="SourceGraphic" in2="effect1_backgroundBlur_122_9236" result="shape"/>
</filter>
<filter id="filter2_b_122_9236" x="256.245" y="221.322" width="61.3204" height="135.298" filterUnits="userSpaceOnUse" color-interpolation-filters="sRGB">
<feFlood flood-opacity="0" result="BackgroundImageFix"/>
<feGaussianBlur in="BackgroundImageFix" stdDeviation="2"/>
<feComposite in2="SourceAlpha" operator="in" result="effect1_backgroundBlur_122_9236"/>
<feBlend mode="normal" in="SourceGraphic" in2="effect1_backgroundBlur_122_9236" result="shape"/>
</filter>
</defs>
</svg>