<svg xmlns="http://www.w3.org/2000/svg" width="462" height="447" viewBox="0 0 462 447" fill="none">
<g opacity="0.5">
<path d="M164.1 45.8092C162.358 45.8092 160.791 44.4158 160.791 42.4998C160.791 40.758 162.184 39.1904 164.1 39.1904C165.842 39.1904 167.409 40.5839 167.409 42.4998C167.235 44.4158 165.842 45.8092 164.1 45.8092Z" fill="white" fill-opacity="0.3"/>
<path d="M164.099 39.8853C165.667 39.8853 166.712 41.1045 166.712 42.4979C166.712 44.0655 165.492 45.1106 164.099 45.1106C162.706 45.1106 161.486 43.8913 161.486 42.4979C161.312 41.1045 162.531 39.8853 164.099 39.8853ZM164.099 38.666C162.009 38.666 160.267 40.4078 160.267 42.4979C160.267 44.5881 162.009 46.3298 164.099 46.3298C166.189 46.3298 167.931 44.5881 167.931 42.4979C167.931 40.4078 166.189 38.666 164.099 38.666Z" fill="white" fill-opacity="0.2"/>
<path d="M437.56 128.023C435.818 128.023 434.25 126.63 434.25 124.714C434.25 122.798 435.644 121.404 437.56 121.404C439.302 121.404 440.869 122.798 440.869 124.714C440.869 126.63 439.476 128.023 437.56 128.023Z" fill="white" fill-opacity="0.3"/>
<path d="M437.558 121.926C439.126 121.926 440.171 123.145 440.171 124.539C440.171 125.932 438.952 127.151 437.558 127.151C435.991 127.151 434.946 125.932 434.946 124.539C434.946 123.145 436.165 121.926 437.558 121.926ZM437.558 120.881C435.468 120.881 433.727 122.623 433.727 124.713C433.727 126.803 435.468 128.545 437.558 128.545C439.649 128.545 441.39 126.803 441.39 124.713C441.39 122.623 439.823 120.881 437.558 120.881Z" fill="white" fill-opacity="0.2"/>
<path d="M454.8 132.027C453.058 132.027 451.491 130.634 451.491 128.718C451.491 126.802 452.884 125.408 454.8 125.408C456.542 125.408 458.109 126.802 458.109 128.718C458.109 130.634 456.716 132.027 454.8 132.027Z" fill="white" fill-opacity="0.3"/>
<path d="M454.799 125.929C456.367 125.929 457.412 127.148 457.412 128.542C457.412 129.935 456.193 131.154 454.799 131.154C453.406 131.154 452.186 129.935 452.186 128.542C452.186 127.148 453.406 125.929 454.799 125.929ZM454.799 124.884C452.709 124.884 450.967 126.626 450.967 128.716C450.967 130.806 452.709 132.548 454.799 132.548C456.889 132.548 458.631 130.806 458.631 128.716C458.631 126.626 457.063 124.884 454.799 124.884Z" fill="white" fill-opacity="0.2"/>
<path d="M15.0013 387.374C13.2595 387.374 11.6919 385.98 11.6919 384.064C11.6919 382.322 13.0853 380.755 15.0013 380.755C16.743 380.755 18.3106 382.148 18.3106 384.064C18.3106 385.98 16.743 387.374 15.0013 387.374Z" fill="white" fill-opacity="0.3"/>
<path d="M14.9999 381.45C16.5675 381.45 17.6125 382.669 17.6125 384.062C17.6125 385.456 16.3933 386.675 14.9999 386.675C13.6065 386.675 12.3872 385.456 12.3872 384.062C12.3872 382.669 13.4323 381.45 14.9999 381.45ZM14.9999 380.23C12.9097 380.23 11.168 381.972 11.168 384.062C11.168 386.153 12.9097 387.894 14.9999 387.894C17.09 387.894 18.8318 386.153 18.8318 384.062C18.8318 381.972 17.09 380.23 14.9999 380.23Z" fill="white" fill-opacity="0.2"/>
<path d="M75.4432 381.1C73.7014 381.1 72.1338 379.707 72.1338 377.791C72.1338 376.049 73.5272 374.481 75.4432 374.481C77.1849 374.481 78.7525 375.875 78.7525 377.791C78.7525 379.707 77.1849 381.1 75.4432 381.1Z" fill="white" fill-opacity="0.3"/>
<path d="M75.4418 375.177C77.0094 375.177 78.0544 376.396 78.0544 377.79C78.0544 379.183 76.8352 380.403 75.4418 380.403C73.8742 380.403 72.8291 379.183 72.8291 377.79C72.8291 376.396 73.8742 375.177 75.4418 375.177ZM75.4418 373.958C73.3516 373.958 71.6099 375.7 71.6099 377.79C71.6099 379.88 73.3516 381.622 75.4418 381.622C77.5319 381.622 79.2737 379.88 79.2737 377.79C79.2737 375.7 77.5319 373.958 75.4418 373.958Z" fill="white" fill-opacity="0.2"/>
<path d="M455.148 427.258C453.406 427.258 451.838 425.865 451.838 423.949C451.838 422.207 453.232 420.64 455.148 420.64C456.89 420.64 458.457 422.033 458.457 423.949C458.283 425.865 456.89 427.258 455.148 427.258Z" fill="white" fill-opacity="0.3"/>
<path d="M455.145 421.335C456.713 421.335 457.758 422.555 457.758 423.948C457.758 425.342 456.539 426.561 455.145 426.561C453.752 426.561 452.533 425.342 452.533 423.948C452.533 422.555 453.578 421.335 455.145 421.335ZM455.145 420.116C453.055 420.116 451.313 421.858 451.313 423.948C451.313 426.038 453.055 427.78 455.145 427.78C457.236 427.78 458.977 426.038 458.977 423.948C458.977 421.858 457.236 420.116 455.145 420.116Z" fill="white" fill-opacity="0.2"/>
<path d="M295.258 17.2467C293.516 17.2467 291.949 15.8533 291.949 13.9373C291.949 12.1955 293.342 10.6279 295.258 10.6279C297 10.6279 298.567 12.0214 298.567 13.9373C298.567 15.8533 297.174 17.2467 295.258 17.2467Z" fill="white" fill-opacity="0.3"/>
<path d="M295.257 11.3237C296.825 11.3237 297.87 12.543 297.87 13.9364C297.87 15.3298 296.651 16.5491 295.257 16.5491C293.69 16.5491 292.645 15.3298 292.645 13.9364C292.645 12.543 293.864 11.3237 295.257 11.3237ZM295.257 10.1045C293.167 10.1045 291.425 11.8463 291.425 13.9364C291.425 16.0265 293.167 17.7683 295.257 17.7683C297.347 17.7683 299.089 16.0265 299.089 13.9364C299.089 11.8463 297.522 10.1045 295.257 10.1045Z" fill="white" fill-opacity="0.2"/>
<path d="M37.6443 131.852C35.9026 131.852 34.335 130.459 34.335 128.543C34.335 126.801 35.7284 125.233 37.6443 125.233C39.3861 125.233 40.9537 126.627 40.9537 128.543C40.9537 130.459 39.5603 131.852 37.6443 131.852Z" fill="white" fill-opacity="0.3"/>
<path d="M37.6439 125.93C39.2115 125.93 40.2566 127.149 40.2566 128.543C40.2566 129.936 39.0373 131.156 37.6439 131.156C36.2505 131.156 35.0313 129.936 35.0313 128.543C35.0313 127.149 36.2505 125.93 37.6439 125.93ZM37.6439 124.711C35.5538 124.711 33.812 126.453 33.812 128.543C33.812 130.633 35.5538 132.375 37.6439 132.375C39.7341 132.375 41.4758 130.633 41.4758 128.543C41.4758 126.453 39.9082 124.711 37.6439 124.711Z" fill="white" fill-opacity="0.2"/>
<path d="M67.2547 153.799C65.5129 153.799 63.9453 152.406 63.9453 150.49C63.9453 148.748 65.3387 147.181 67.2547 147.181C68.9965 147.181 70.5641 148.574 70.5641 150.49C70.5641 152.406 69.1706 153.799 67.2547 153.799Z" fill="white" fill-opacity="0.3"/>
<path d="M67.2528 147.876C68.8204 147.876 69.8655 149.095 69.8655 150.488C69.8655 152.056 68.6462 153.101 67.2528 153.101C65.6852 153.101 64.6401 151.882 64.6401 150.488C64.6401 149.095 65.8594 147.876 67.2528 147.876ZM67.2528 146.656C65.1627 146.656 63.4209 148.398 63.4209 150.488C63.4209 152.578 65.1627 154.32 67.2528 154.32C69.3429 154.32 71.0847 152.578 71.0847 150.488C71.2589 148.398 69.5171 146.656 67.2528 146.656Z" fill="white" fill-opacity="0.2"/>
<path d="M71.0877 246.463C69.3459 246.463 67.7783 245.07 67.7783 243.154C67.7783 241.412 69.1717 239.845 71.0877 239.845C72.8295 239.845 74.3971 241.238 74.3971 243.154C74.3971 245.07 72.8295 246.463 71.0877 246.463Z" fill="white" fill-opacity="0.3"/>
<path d="M71.0873 240.541C72.6549 240.541 73.6999 241.76 73.6999 243.153C73.6999 244.547 72.4807 245.766 71.0873 245.766C69.5197 245.766 68.4746 244.547 68.4746 243.153C68.4746 241.76 69.5197 240.541 71.0873 240.541ZM71.0873 239.321C68.9971 239.321 67.2554 241.063 67.2554 243.153C67.2554 245.243 68.9971 246.985 71.0873 246.985C73.1774 246.985 74.9192 245.243 74.9192 243.153C74.9192 241.063 73.1774 239.321 71.0873 239.321Z" fill="white" fill-opacity="0.2"/>
<path d="M252.408 74.5475C250.666 74.5475 249.099 73.154 249.099 71.2381C249.099 69.4963 250.492 67.9287 252.408 67.9287C254.15 67.9287 255.717 69.3221 255.717 71.2381C255.717 72.9799 254.324 74.5475 252.408 74.5475Z" fill="white" fill-opacity="0.3"/>
<path d="M252.405 68.4507C253.973 68.4507 255.018 69.6699 255.018 71.0634C255.018 72.631 253.799 73.676 252.405 73.676C250.838 73.676 249.792 72.4568 249.792 71.0634C249.792 69.6699 251.012 68.4507 252.405 68.4507ZM252.405 67.2314C250.315 67.2314 248.573 68.9732 248.573 71.0634C248.573 73.1535 250.315 74.8953 252.405 74.8953C254.495 74.8953 256.237 73.1535 256.237 71.0634C256.411 68.9732 254.669 67.2314 252.405 67.2314Z" fill="white" fill-opacity="0.2"/>
<path d="M126.475 128.196C124.734 128.196 123.166 126.802 123.166 124.887C123.166 123.145 124.559 121.577 126.475 121.577C128.217 121.577 129.785 122.971 129.785 124.887C129.611 126.628 128.217 128.196 126.475 128.196Z" fill="white" fill-opacity="0.3"/>
<path d="M126.475 122.1C128.043 122.1 129.088 123.319 129.088 124.713C129.088 126.106 127.868 127.325 126.475 127.325C124.907 127.325 123.862 126.106 123.862 124.713C123.862 123.319 124.907 122.1 126.475 122.1ZM126.475 120.881C124.385 120.881 122.643 122.623 122.643 124.713C122.643 126.803 124.385 128.545 126.475 128.545C128.565 128.545 130.307 126.803 130.307 124.713C130.307 122.623 128.565 120.881 126.475 120.881Z" fill="white" fill-opacity="0.2"/>
<path d="M147.378 83.9557C145.636 83.9557 144.068 82.5622 144.068 80.6463C144.068 78.7303 145.462 77.3369 147.378 77.3369C149.12 77.3369 150.687 78.7303 150.687 80.6463C150.687 82.5622 149.294 83.9557 147.378 83.9557Z" fill="white" fill-opacity="0.3"/>
<path d="M147.375 78.0317C148.942 78.0317 149.988 79.251 149.988 80.6444C149.988 82.0378 148.768 83.2571 147.375 83.2571C145.981 83.2571 144.762 82.0378 144.762 80.6444C144.762 79.251 145.981 78.0317 147.375 78.0317ZM147.375 76.8125C145.285 76.8125 143.543 78.5543 143.543 80.6444C143.543 82.7345 145.285 84.4763 147.375 84.4763C149.465 84.4763 151.207 82.7345 151.207 80.6444C151.207 78.5543 149.639 76.8125 147.375 76.8125Z" fill="white" fill-opacity="0.2"/>
<path d="M217.047 52.774C215.305 52.774 213.738 51.3806 213.738 49.4646C213.738 47.7229 215.131 46.1553 217.047 46.1553C218.789 46.1553 220.357 47.5487 220.357 49.4646C220.357 51.2064 218.789 52.774 217.047 52.774Z" fill="white" fill-opacity="0.3"/>
<path d="M217.046 46.8511C218.614 46.8511 219.659 48.0703 219.659 49.4637C219.659 50.8572 218.44 52.0764 217.046 52.0764C215.479 52.0764 214.434 50.8572 214.434 49.4637C214.434 48.0703 215.479 46.8511 217.046 46.8511ZM217.046 45.6318C214.956 45.6318 213.214 47.3736 213.214 49.4637C213.214 51.5539 214.956 53.2957 217.046 53.2957C219.136 53.2957 220.878 51.5539 220.878 49.4637C220.878 47.3736 219.136 45.6318 217.046 45.6318Z" fill="white" fill-opacity="0.2"/>
<path d="M429.544 84.9986C427.802 84.9986 426.234 83.6052 426.234 81.6893C426.234 79.9475 427.628 78.3799 429.544 78.3799C431.286 78.3799 432.853 79.7733 432.853 81.6893C432.853 83.6052 431.286 84.9986 429.544 84.9986Z" fill="white" fill-opacity="0.3"/>
<path d="M429.543 79.0747C431.111 79.0747 432.156 80.294 432.156 81.6874C432.156 83.255 430.937 84.3 429.543 84.3C427.976 84.3 426.931 83.0808 426.931 81.6874C426.756 80.294 427.976 79.0747 429.543 79.0747ZM429.543 77.8555C427.453 77.8555 425.711 79.5972 425.711 81.6874C425.711 83.7775 427.453 85.5193 429.543 85.5193C431.633 85.5193 433.375 83.7775 433.375 81.6874C433.375 79.5972 431.633 77.8555 429.543 77.8555Z" fill="white" fill-opacity="0.2"/>
<path d="M296.823 13.7607L37.1241 129.066L13.9585 383.366L307.796 573.219L450.97 497.626L491.554 385.978L524.125 93.5341L296.823 13.7607Z" stroke="white" stroke-opacity="0.2" stroke-width="0.5" stroke-miterlimit="10"/>
<path d="M469.782 292.619L454.628 424.123L253.453 587.153L102.092 534.552L42.8721 304.115L164.1 42.6738L429.024 81.1671L469.782 292.619Z" stroke="white" stroke-opacity="0.2" stroke-width="0.5" stroke-miterlimit="10"/>
<path d="M454.454 129.066L252.582 71.4131L67.9536 150.316L75.9658 376.747L171.938 526.365L376.596 558.588L523.254 397.3L454.454 129.066Z" stroke="white" stroke-opacity="0.2" stroke-width="0.5" stroke-miterlimit="10"/>
</g>
<path d="M358.594 199.712L361.427 194.481L364.477 193.5C364.586 193.5 364.586 193.391 364.695 193.391L378.203 181.729L378.312 181.62L387.572 165.162C387.572 165.053 387.68 164.944 387.68 164.835L387.027 151.647C387.027 151.43 386.809 151.212 386.591 151.103C386.373 151.103 386.046 151.212 386.046 151.43L381.907 164.726L374.063 176.824L364.368 185.217L363.388 176.933C363.388 176.715 363.17 176.497 362.952 176.497C362.734 176.497 362.516 176.606 362.407 176.824L358.05 188.377L348.79 190.993L355.762 183.8L355.871 183.691L363.497 170.503C363.605 170.394 363.605 170.285 363.605 170.176L361.536 160.04C361.536 159.822 361.318 159.604 360.991 159.604C360.773 159.604 360.555 159.713 360.446 159.931L356.307 171.811L341.165 190.339L331.36 192.955L323.735 192.41L324.606 184.672C324.606 184.454 324.497 184.236 324.279 184.127C324.062 184.018 323.735 184.127 323.626 184.345L318.179 192.083L312.732 191.538L313.713 190.339L313.821 190.23L316.654 182.056L322.21 178.786C322.427 178.677 322.536 178.459 322.427 178.132C322.319 177.914 322.101 177.696 321.883 177.696L315.891 177.587L313.495 173.882L318.506 166.688C318.615 166.579 318.615 166.47 318.615 166.252L317.09 155.789C317.09 155.571 316.872 155.353 316.545 155.353C316.327 155.353 316.109 155.462 316 155.68L313.277 163.745L311.316 165.925L305.542 154.045C305.433 153.827 305.107 153.718 304.889 153.718C304.671 153.827 304.453 154.045 304.453 154.263L305.869 169.849L303.146 179.113L287.241 196.552L274.931 183.146L271.009 171.811C270.9 171.593 270.683 171.484 270.465 171.484C270.247 171.484 270.029 171.702 269.92 171.92L267.632 182.274C267.632 182.383 267.632 182.492 267.632 182.71L270.574 188.159H266.87C266.652 188.159 266.434 188.377 266.325 188.595C266.216 188.813 266.434 189.14 266.652 189.249L275.258 193.609L272.208 194.263C271.99 194.263 271.772 194.481 271.772 194.808C271.772 195.135 271.881 195.244 272.099 195.353L279.18 197.642L282.557 202.764L277.655 209.848L266.761 205.816C266.652 205.816 266.543 205.816 266.434 205.816L260.007 207.778L240.943 204.835C240.834 204.835 240.616 204.835 240.507 204.944C240.398 205.053 240.289 205.162 240.289 205.38L240.18 217.042C240.18 217.26 240.289 217.369 240.398 217.478L252.817 225.979L257.828 233.063L235.387 291.809C235.387 291.918 235.387 292.027 235.387 292.136L238.655 306.087L223.186 303.144C223.077 303.144 222.968 303.144 222.859 303.253L209.569 310.556C209.351 310.665 209.242 310.883 209.351 311.101L218.938 357.64C218.938 357.749 219.047 357.858 219.047 357.967L231.357 369.738L243.448 380.419C243.666 380.637 243.884 380.637 244.102 380.419L245.627 379.329C245.736 379.22 245.845 379.002 245.845 378.893L244.865 366.795V366.686L240.507 354.261C240.398 354.043 240.18 353.825 239.963 353.934L231.465 354.479L227.762 346.414L227.653 346.305L224.385 342.926L223.186 319.82L238.546 326.686L241.052 330.392L246.608 355.133L249.985 370.719L252.599 403.634L253.906 426.849L244.647 443.197C244.538 443.415 244.538 443.524 244.647 443.742C244.756 443.96 244.974 443.96 245.083 443.96L263.057 443.851C263.166 443.851 263.384 443.742 263.493 443.633C263.602 443.524 263.602 443.415 263.602 443.197L263.493 430.445L266.434 423.688C266.434 423.579 266.543 423.47 266.434 423.361L263.384 411.59L264.146 377.803L267.088 362.653L269.266 353.716L280.705 352.19L286.696 354.588L308.81 359.493L310.444 360.037L310.771 372.026C310.771 372.135 310.771 372.244 310.88 372.353L334.628 398.729L331.251 425.323L328.637 427.503C328.528 427.612 328.528 427.612 328.419 427.721L326.24 434.042L317.743 445.486C317.634 445.595 317.634 445.813 317.634 446.031C317.743 446.249 317.852 446.358 318.07 446.358L329.399 447.012C329.508 447.012 329.508 447.012 329.617 447.012L334.411 445.268C334.519 445.159 334.737 445.05 334.737 444.941L335.827 441.453L338.441 437.748L338.55 437.639L339.966 432.843L352.821 397.748C352.93 397.53 352.821 397.203 352.603 397.094L348.681 394.369L340.838 380.419L359.575 395.132L370.577 415.841V421.181C370.577 421.29 370.577 421.29 370.577 421.399L372.32 425.432L365.022 434.914C364.913 435.023 364.913 435.241 364.913 435.459C365.022 435.677 365.131 435.786 365.348 435.786L372.647 437.203H372.756L382.56 436.876C382.887 436.876 383.105 436.658 383.105 436.331L382.996 419.982C382.996 419.873 382.996 419.873 382.996 419.764L380.817 413.988L372.211 392.517L371.122 386.74C371.122 386.631 371.013 386.522 371.013 386.413L362.625 377.803L354.782 367.558L363.605 351.863C363.605 351.754 363.714 351.645 363.714 351.536L362.952 337.585L370.142 332.572C370.251 332.572 370.251 332.463 370.36 332.354L374.826 323.199C374.935 323.09 374.935 322.981 374.826 322.872L371.34 307.831C371.34 307.613 371.122 307.504 370.904 307.395C370.686 307.395 370.468 307.504 370.36 307.613L364.695 316.877L360.011 318.621L343.343 310.338L317.09 303.253L300.749 294.643L293.45 284.943L291.054 271.973L290.618 252.137L292.688 233.063L292.361 228.486L299.006 222.6C299.115 222.491 299.224 222.273 299.224 222.164C299.224 221.946 299.115 221.837 298.897 221.728L293.015 218.459L293.995 216.279C294.104 216.17 294.104 215.952 293.995 215.843C293.886 215.734 293.777 215.625 293.668 215.516L291.816 214.862L301.73 204.726L322.863 209.63L347.483 213.554C347.592 213.554 347.592 213.554 347.701 213.554L364.913 209.412C365.022 209.412 365.022 209.412 365.131 209.304L377.549 199.494L377.658 199.385L386.918 185.544C387.027 185.435 387.027 185.326 387.027 185.217L387.463 175.734C387.463 175.516 387.354 175.298 387.027 175.189C386.809 175.08 386.482 175.189 386.373 175.407L381.362 185.108L373.192 195.462L363.061 203.527L352.167 205.38L358.377 199.821C358.485 199.821 358.594 199.821 358.594 199.712Z" fill="url(#paint0_linear_2_7241)"/>
<path d="M374.349 402.222C373.475 399.709 372.382 397.305 371.289 394.901C370.634 392.934 369.869 390.858 369.104 388.892C369.65 388.455 370.306 387.908 370.743 387.362C370.087 387.69 369.432 388.127 368.886 388.564C367.137 386.816 365.28 385.068 363.532 383.319C361.674 381.571 359.817 379.932 357.959 378.184C356.757 374.797 355.665 371.41 354.463 368.023C354.354 367.913 354.244 367.804 354.135 367.913L346.05 371.956C343.318 373.267 340.696 374.688 337.964 375.999C339.385 375.343 340.805 374.688 342.226 374.032C344.739 374.906 347.252 375.671 349.874 376.327C351.185 376.654 352.496 376.982 353.807 377.31C355.119 377.638 356.32 377.966 357.522 378.293C357.85 379.277 358.178 380.26 358.615 381.134C359.38 383.319 360.145 385.395 360.909 387.581L363.095 394.136L370.306 409.105C372.71 414.022 375.114 418.939 377.627 423.746C376.643 423.2 375.66 422.872 374.676 422.545C373.584 422.217 372.382 421.889 371.289 421.67C372.382 422.217 373.475 422.654 374.567 423.091C375.551 423.419 376.643 423.746 377.736 423.856C377.736 423.856 377.736 423.965 377.845 423.965L378.282 428.008C377.517 427.571 376.752 427.134 375.988 426.806C375.114 426.478 374.239 426.15 373.256 425.932C374.021 426.478 374.895 426.915 375.769 427.243C376.534 427.571 377.408 427.898 378.282 428.008C376.534 431.067 374.786 434.017 373.147 437.076C375.004 434.126 376.862 431.067 378.61 428.117V428.008L378.282 423.746V423.637C375.878 418.611 373.475 413.694 370.962 408.668L363.422 393.809C364.515 393.153 365.389 392.388 366.263 391.514C366.7 391.077 367.137 390.531 367.574 390.094C367.902 389.657 368.339 389.438 368.776 389.11C369.541 391.077 370.415 392.934 371.289 394.792C372.054 397.305 372.928 399.818 373.912 402.222C375.004 404.626 375.988 407.029 376.862 409.542C378.61 414.568 380.467 419.485 382.653 424.293C381.014 419.267 379.156 414.35 377.08 409.542C376.097 407.139 375.223 404.626 374.349 402.222ZM354.026 376.873C352.715 376.436 351.513 376.108 350.202 375.671C347.689 375.015 345.176 374.36 342.553 373.814C343.865 373.267 345.066 372.612 346.378 372.065L354.244 368.35C355.337 371.519 356.539 374.797 357.632 377.966C356.43 377.638 355.228 377.31 354.026 376.873ZM367.465 389.984C367.028 390.421 366.482 390.749 365.935 391.186C364.952 391.951 364.187 392.825 363.422 393.809L361.128 387.471C360.363 385.286 359.598 383.101 358.943 381.025C358.724 380.26 358.396 379.386 358.178 378.621C359.817 380.26 361.565 382.008 363.204 383.647C364.952 385.395 366.81 387.144 368.558 388.892C368.23 389.22 367.902 389.657 367.465 389.984Z" fill="white" fill-opacity="0.3"/>
<path d="M384.62 164.688L387.461 164.906V164.688L384.62 164.469C385.385 160.208 386.15 155.947 386.805 151.576C385.822 155.837 385.057 160.208 384.183 164.469C381.67 168.84 379.157 173.101 376.644 177.471L369.76 183.699C367.466 185.775 365.171 187.851 362.768 189.927C359.381 190.583 356.103 191.238 352.716 192.003C351.077 192.331 349.328 192.768 347.69 193.096L343.1 194.079L347.471 188.725C348.891 187.086 350.203 185.338 351.623 183.699H355.338V183.481H351.841C351.951 183.371 352.06 183.153 352.169 183.044L360.801 171.025L362.986 170.369L362.877 170.151L360.91 170.697C361.02 167.201 361.02 163.704 361.02 160.099C360.91 163.704 360.801 167.201 360.692 170.806L351.951 182.607C351.841 182.716 351.732 182.934 351.623 183.044L350.421 180.203L350.203 180.312L351.514 183.262C350.203 185.01 348.782 186.649 347.471 188.398L342.882 194.079L332.502 196.264C332.393 195.827 332.284 195.5 332.174 195.063C331.956 194.516 331.737 193.97 331.519 193.424C331.519 193.97 331.628 194.625 331.737 195.172C331.846 195.5 331.846 195.937 331.956 196.264L318.407 196.92L296.992 194.735C299.177 193.533 301.362 192.331 303.657 191.129L311.742 192.112V191.894L307.372 191.348C308.683 190.255 309.994 189.162 311.305 188.07C312.179 186.54 312.944 184.901 313.709 183.262C314.474 181.623 315.129 179.984 315.785 178.345C314.911 179.875 314.037 181.514 313.272 183.044C312.507 184.683 311.742 186.212 311.087 187.851C309.885 189.053 308.683 190.146 307.481 191.457L304.094 191.02L309.557 184.136C310.759 180.749 311.961 177.471 313.163 174.084C311.852 177.362 310.65 180.64 309.338 183.918L306.388 182.279L309.994 172.992L315.785 165.562C315.785 165.562 315.785 165.562 315.785 165.452L316.878 156.056L315.566 165.343L309.885 171.79L311.196 166.873L310.977 166.764L309.557 172.227C309.12 169.167 308.355 166.217 307.481 163.376C307.044 161.847 306.716 160.317 306.498 158.787C306.17 157.258 305.733 155.728 305.187 154.198C305.405 155.728 305.733 157.367 306.061 158.787C306.498 160.317 307.044 161.847 307.262 163.376C307.809 166.436 308.464 169.386 309.557 172.336L309.448 172.445L305.733 181.623L303.875 179.438L303.657 179.657L305.624 181.951L296.118 194.735L285.519 203.148C286.175 201.29 286.721 199.433 287.267 197.576C286.503 199.542 285.738 201.4 284.973 203.366C283.88 201.837 282.897 200.307 281.695 198.777C280.493 197.139 279.291 195.5 278.199 193.861C276.013 190.583 273.938 187.414 271.752 184.136C272.626 184.027 273.61 183.809 274.484 183.59C273.5 183.481 272.517 183.59 271.534 183.699C271.206 179.875 270.878 175.942 270.441 172.117C270.55 175.942 270.769 179.766 270.987 183.59C270.55 183.371 270.223 183.262 269.786 183.044C269.239 182.825 268.693 182.607 268.147 182.497C268.584 182.825 269.13 183.153 269.676 183.371C270.113 183.59 270.66 183.918 271.206 184.136C273.173 186.977 275.249 189.818 277.215 192.55L271.752 188.616L271.643 188.835L277.762 193.205C277.98 193.424 278.089 193.642 278.308 193.97C279.51 195.609 280.602 197.248 281.695 198.996C282.788 200.635 283.88 202.274 284.973 203.913L281.586 216.259C277.106 216.15 272.736 216.15 268.256 216.041C269.786 215.167 271.315 214.293 272.845 213.528C274.593 212.654 276.341 211.67 277.98 210.687C278.089 210.687 278.089 210.578 278.089 210.469C278.089 210.359 277.98 210.25 277.871 210.25L272.408 209.704C270.66 209.594 269.021 209.485 267.272 209.376C267.272 209.267 267.163 209.157 267.054 209.157L259.515 209.594L259.406 209.485H259.296C256.128 209.157 252.85 208.939 249.681 208.611C246.622 207.518 243.672 206.317 240.613 205.224C243.563 206.535 246.513 207.737 249.572 209.048C249.244 210.578 249.026 212.217 248.916 213.746C248.807 215.385 248.698 216.915 248.698 218.554C248.479 218.445 248.261 218.335 248.042 218.226C245.529 217.024 243.126 215.822 240.613 214.62C243.016 215.932 245.42 217.243 247.933 218.554C250.337 219.756 252.741 221.067 255.144 222.16C254.489 223.252 253.943 224.345 253.396 225.437C254.161 224.345 254.817 223.252 255.581 222.269C257.22 224.454 258.75 226.749 260.389 228.934L265.087 235.38L258.641 232.977L265.306 235.599L265.415 235.708V235.817L248.261 259.418V259.527C248.261 259.637 248.37 259.746 248.479 259.746L265.197 258.325L257.657 281.38L235.914 292.197L257.767 281.707L254.817 309.46L235.368 306.182V306.401L254.926 310.662L257.439 321.916L240.285 316.453L222.694 310.99C222.584 310.99 222.475 310.99 222.366 311.099L217.449 319.294C216.247 317.983 214.936 316.562 213.734 315.251C212.423 313.831 211.002 312.519 209.582 311.208C210.784 312.738 212.095 314.158 213.406 315.579C214.717 316.999 216.029 318.42 217.34 319.84L222.366 347.702C221.492 347.593 220.727 347.593 219.853 347.593C218.979 347.593 217.995 347.593 217.121 347.593C217.995 347.811 218.869 347.92 219.853 348.03C220.727 348.139 221.601 348.248 222.584 348.248L225.753 353.602C224.66 354.258 223.568 354.913 222.584 355.678C221.492 356.443 220.399 357.098 219.306 357.973C220.508 357.426 221.601 356.771 222.803 356.115C223.895 355.459 224.988 354.804 226.081 354.148L231.981 361.797C231.981 361.906 231.981 361.906 231.981 362.015C230.779 363.654 229.686 365.293 228.703 367.041C230.014 365.512 231.325 363.873 232.527 362.234L244.437 367.369L232.527 362.124C232.527 362.124 232.527 362.124 232.527 362.015C232.309 360.923 232.199 359.83 231.981 358.737C231.762 357.645 231.544 356.552 231.216 355.46C231.325 356.552 231.434 357.645 231.544 358.737C231.653 359.611 231.762 360.486 231.981 361.36L226.408 353.821C226.845 351.526 227.173 349.341 227.392 347.046C226.845 349.122 226.408 351.198 225.971 353.274L222.912 348.139C223.349 346.609 223.677 345.08 223.895 343.55C223.458 344.752 223.021 345.954 222.694 347.156L217.777 319.949C219.416 319.731 221.055 319.621 222.694 319.294C221.164 319.294 219.525 319.403 217.995 319.403L222.694 311.318L240.066 316.781L257.657 322.244H257.767L282.023 345.626C279.728 344.533 277.543 343.55 275.249 342.567C269.239 339.835 263.121 337.103 257.111 334.372L238.974 326.286L238.864 326.614L254.707 333.826C255.472 335.465 256.237 337.103 257.111 338.742C257.548 339.616 257.985 340.381 258.422 341.146C258.859 341.911 259.187 342.567 259.624 343.331C256.674 343.113 253.615 342.567 250.665 342.129C250.665 342.129 250.665 342.129 250.555 342.129C247.715 338.087 244.764 334.153 241.596 330.329C244.327 334.481 247.168 338.415 250.228 342.348L250.446 356.661C250.446 361.469 250.555 366.167 250.665 370.975C250.665 366.167 250.774 361.469 250.774 356.661V344.533C253.615 356.006 256.565 367.588 259.515 379.06V379.169V379.279L259.624 392.062V404.955V417.739C257.767 417.957 255.8 418.285 253.943 418.722C255.8 418.722 257.767 418.504 259.624 418.285L260.389 430.304C259.515 429.758 258.641 429.321 257.657 428.884C256.674 428.337 255.581 427.9 254.489 427.463C255.472 428.119 256.456 428.774 257.439 429.321C258.422 429.867 259.406 430.413 260.389 430.85C259.078 435.112 257.657 439.482 256.456 443.853C257.876 439.591 259.296 435.221 260.717 430.96C261.482 430.96 262.246 430.96 263.121 430.96C262.356 430.741 261.591 430.632 260.826 430.523L260.17 418.067C260.717 417.083 261.154 416.1 261.591 415.117C262.028 414.133 262.574 413.15 262.902 412.057C262.246 412.931 261.7 413.915 261.154 414.898C260.717 415.554 260.389 416.209 260.061 416.974L259.952 404.846L259.843 391.953V379.169L263.667 377.203L263.776 377.093C264.104 371.849 264.432 366.604 264.869 361.469C265.087 358.847 265.306 356.224 265.524 353.602L265.961 346.609C266.945 348.904 267.819 351.089 268.802 353.383C267.928 350.98 267.054 348.576 266.18 346.281C268.474 347.265 270.878 348.139 273.282 349.013C275.576 349.778 277.762 350.761 279.947 351.745C282.023 352.619 284.099 353.384 286.284 354.039C286.503 354.148 286.612 354.148 286.83 354.258C286.612 354.148 286.393 354.039 286.284 354.039C285.41 351.635 284.427 349.122 283.443 346.719C283.553 346.719 283.553 346.719 283.662 346.828C283.88 346.937 283.99 346.937 284.208 347.046L293.168 351.308L311.087 360.049C311.196 360.049 311.196 360.049 311.305 360.049L315.129 356.989L311.414 372.395V372.504C311.414 372.614 311.524 372.614 311.633 372.614L323.761 369.227C325.072 372.177 326.602 375.017 328.132 377.858C329.771 380.699 331.3 383.54 332.721 386.49C335.561 392.281 338.511 397.853 341.789 403.426C341.352 403.098 340.915 402.77 340.478 402.442C339.932 402.005 339.495 401.568 338.949 401.24C337.856 400.476 336.763 399.711 335.561 399.164C336.545 400.038 337.637 400.803 338.621 401.568C339.167 401.896 339.713 402.333 340.26 402.661C340.806 402.989 341.243 403.316 341.68 403.644C341.134 406.266 340.587 408.998 340.041 411.62C339.495 414.243 338.839 416.974 338.293 419.596C337.637 422.219 336.982 424.841 336.436 427.573C335.889 429.867 335.343 432.271 334.906 434.565C334.469 433.363 334.141 432.052 333.704 430.85C333.158 429.321 332.611 427.791 332.065 426.261C332.393 427.9 332.83 429.43 333.267 430.96C333.595 432.162 333.922 433.254 334.25 434.347C333.595 433.473 332.939 432.708 332.174 431.943C331.191 430.741 330.208 429.649 329.224 428.556C330.098 429.758 330.972 430.96 331.956 432.162C332.83 433.363 333.704 434.456 334.578 435.549C333.704 437.078 332.939 438.608 332.174 440.138C331.409 439.264 330.645 438.39 329.771 437.515C328.896 436.641 328.022 435.658 327.039 434.893C327.804 435.876 328.569 436.86 329.443 437.843C330.208 438.827 331.082 439.701 331.956 440.575C331.191 442.651 330.535 444.836 329.88 446.912C330.754 444.836 331.519 442.76 332.284 440.684C333.485 441.012 334.578 441.34 335.78 441.558C334.687 441.012 333.595 440.575 332.502 440.247C333.376 438.717 334.25 437.297 335.124 435.767L338.73 436.969L338.949 436.423L335.343 435.221C335.889 432.599 336.545 430.086 336.982 427.463C337.528 424.841 338.074 422.109 338.621 419.487C339.167 416.865 339.713 414.133 340.369 411.511C341.025 408.889 341.68 406.266 342.226 403.644C343.975 402.77 345.723 401.787 347.471 400.803C349.219 399.82 351.077 398.837 352.825 397.853C350.967 398.727 349.11 399.601 347.362 400.476C345.832 401.24 344.193 402.114 342.663 402.879C343.101 402.442 343.538 402.005 343.865 401.459C344.412 400.803 345.067 400.038 345.614 399.383C346.706 397.962 347.799 396.542 348.782 395.012C347.471 396.324 346.378 397.635 345.176 399.055C344.63 399.82 344.084 400.476 343.538 401.24C343.1 401.896 342.663 402.552 342.117 403.098C342.008 403.098 342.008 403.207 341.899 403.207C339.167 397.416 336.108 391.735 332.939 386.162C331.3 383.321 329.88 380.481 328.459 377.53C327.039 374.69 325.4 371.849 323.761 369.117L329.771 370.756L335.998 372.395L339.276 378.623L339.495 378.514L336.217 372.286L342.991 367.369C345.286 365.73 347.58 363.982 349.766 362.234L356.54 357.098C358.834 355.35 361.129 353.711 363.423 352.072C363.423 352.072 363.423 352.072 363.423 351.963C363.423 351.854 363.423 351.854 363.314 351.854C362.549 349.341 361.675 346.828 360.91 344.315C360.145 341.802 359.271 339.289 358.397 336.666C356.758 331.968 355.119 327.27 353.371 322.681L362.112 337.868L362.331 337.759L362.549 337.65L362.331 337.213C363.533 335.246 364.844 333.17 366.046 331.203C367.247 329.237 368.449 327.27 369.651 325.194L369.76 325.412L374.459 323.118L369.87 324.866V324.757C370.088 322.135 370.307 319.621 370.416 316.999C370.525 315.688 370.525 314.377 370.635 313.175C370.744 311.864 370.744 310.553 370.744 309.242C370.635 310.553 370.416 311.864 370.307 313.066C370.198 314.377 369.979 315.688 369.979 316.89C369.76 319.403 369.542 322.025 369.323 324.538C368.122 326.614 366.92 328.8 365.718 330.875C364.516 332.951 363.423 335.027 362.331 337.103L360.364 319.512C360.364 319.403 360.255 319.403 360.145 319.403L352.825 321.37L343.428 311.099L352.497 321.26L335.015 318.092C335.015 318.092 335.015 318.092 334.906 318.092L312.616 308.367C313.381 307.712 314.037 306.947 314.692 306.291C315.457 305.527 316.222 304.762 316.878 303.888C316.003 304.543 315.239 305.308 314.474 306.073C313.709 306.838 312.944 307.493 312.179 308.258L303.22 302.14C299.396 297.113 295.571 292.087 291.857 287.061C291.529 282.035 291.092 277.118 290.655 272.092C290.218 269.142 289.671 266.192 289.125 263.351L287.595 254.829V254.72V254.61L289.999 252.316L287.705 254.283C288.469 247.508 289.125 240.734 289.89 233.96V233.851L289.781 233.632L292.075 233.195L289.781 233.523L285.847 223.361C285.956 223.361 286.175 223.361 286.284 223.361C286.503 223.361 286.83 223.361 287.049 223.361C287.049 223.361 287.049 223.361 287.158 223.361L290.218 220.739C290.327 222.05 290.436 223.361 290.764 224.563C291.092 225.874 291.31 227.186 291.857 228.388C291.747 227.076 291.529 225.765 291.31 224.454C291.092 223.143 290.764 221.941 290.218 220.739L292.294 218.882L292.075 218.663L286.94 223.143C284.099 223.471 279.947 221.723 279.947 221.723L279.619 219.974L281.586 216.587C283.88 215.932 286.175 215.385 288.36 214.73C288.469 214.73 288.579 214.73 288.579 214.73L290.655 215.495L290.764 215.058L288.797 214.511C290.764 211.233 292.731 207.955 294.697 204.678C297.647 203.257 300.488 201.837 303.438 200.416L301.362 204.131L301.581 204.241L303.766 200.198C308.683 201.4 313.49 202.711 318.407 203.913L333.158 207.409C338.293 208.174 343.428 209.157 348.564 210.031C348.564 210.031 348.564 210.031 348.673 210.031L365.062 205.989H365.171L375.661 197.357C376.207 198.013 376.753 198.559 377.409 198.996C376.863 198.34 376.316 197.794 375.77 197.248L384.839 184.792L386.696 185.338L386.805 185.12L384.948 184.573C385.713 181.623 386.478 178.673 387.242 175.723C386.368 178.673 385.494 181.623 384.62 184.573L375.333 196.92L374.896 197.357C374.131 197.685 373.257 197.903 372.492 198.231C371.509 198.559 370.416 198.996 369.433 199.542C370.525 199.215 371.509 198.887 372.601 198.45C373.366 198.122 374.022 197.794 374.677 197.576L364.953 205.552L348.673 209.813C344.849 209.157 341.025 208.611 337.31 207.955L347.471 206.863L350.749 206.535V206.317L347.908 206.644L354.901 200.853C356.103 200.526 357.195 200.089 358.288 199.761C357.195 199.979 356.212 200.198 355.119 200.526L358.069 195.609C359.162 195.172 360.145 194.844 361.238 194.407C355.556 196.264 349.875 198.231 344.193 200.198C343.756 198.45 343.319 196.592 342.882 194.844L347.69 193.861C349.328 193.533 351.077 193.205 352.716 192.768C355.993 192.112 359.271 191.238 362.658 190.474L364.407 193.424L364.625 193.314L362.877 190.474C365.171 188.398 367.466 186.431 369.87 184.464L376.753 178.564L377.955 181.842L378.174 181.733L376.972 178.345C379.594 173.429 382.107 169.058 384.62 164.688ZM342.554 194.516C343.1 196.264 343.538 198.013 344.084 199.761L332.83 200.089C332.721 198.996 332.611 197.903 332.284 196.811C332.284 196.701 332.174 196.592 332.174 196.483L342.554 194.516ZM318.189 197.466L331.846 196.592C331.846 196.701 331.956 196.811 331.956 197.029C332.174 198.122 332.502 199.105 332.939 200.089L330.754 200.198L317.205 200.635L307.59 200.089C305.951 199.979 304.422 199.87 302.783 199.761L298.084 199.433L296.773 195.281L318.189 197.466ZM324.089 202.711L310.977 200.526L317.205 200.963L324.744 200.853L324.089 202.711ZM291.638 287.171C295.462 292.197 299.177 297.223 302.892 302.249L290.218 303.997H290.108C289.562 301.702 288.797 299.299 288.032 297.113C287.158 294.819 286.284 292.524 285.629 290.121C284.317 285.532 282.788 280.943 281.04 276.463L291.638 287.171ZM287.158 254.501C283.553 255.048 280.056 255.703 276.451 256.14L265.852 257.779C267.054 255.485 268.365 253.19 269.567 250.786L273.5 243.575L280.93 229.808C281.914 233.851 282.897 237.893 283.99 241.936L287.158 254.283C287.267 254.392 287.158 254.392 287.158 254.501ZM273.173 243.466L269.348 250.786C268.147 253.081 266.945 255.375 265.743 257.67C265.743 250.458 265.743 243.138 265.634 235.927L280.602 229.371L273.173 243.466ZM281.149 318.638L267.928 310.443L289.562 304.653C286.721 309.242 283.88 313.94 281.149 318.638ZM267.6 309.897C269.13 307.384 270.441 304.871 271.752 302.249C273.063 299.626 274.265 297.113 275.467 294.491C276.232 295.037 276.997 295.584 277.762 296.021L281.914 298.752L289.781 303.997L267.6 309.897ZM267.272 310.553L280.712 318.966L258.204 321.807L267.272 310.553ZM290.436 304.325C295.681 308.367 300.925 312.41 306.17 316.453L321.357 328.035L301.909 323.555C295.134 322.025 288.36 320.496 281.586 318.857C284.536 314.049 287.486 309.132 290.436 304.325ZM282.023 298.425L277.98 295.693C277.215 295.147 276.341 294.6 275.576 294.054C277.434 288.154 279.182 282.254 280.93 276.463C282.132 281.052 283.662 285.641 285.301 290.121C286.175 292.415 286.83 294.819 287.595 297.223C288.251 299.517 289.125 301.702 289.999 303.888L282.023 298.425ZM275.686 294.054C275.576 294.054 275.576 294.054 275.686 294.054C275.139 293.726 274.593 293.289 274.047 292.852L258.422 281.38C260.28 281.052 262.028 280.615 263.885 280.287C265.852 279.85 267.71 279.413 269.676 278.867C273.391 277.993 276.997 276.791 280.712 276.026C278.854 282.145 277.215 288.045 275.686 294.054ZM269.348 278.43C267.382 278.867 265.524 279.304 263.558 279.85C261.809 280.287 259.952 280.833 258.204 281.38L265.743 258.544L273.063 267.176L280.493 275.807C276.778 276.9 273.063 277.556 269.348 278.43ZM273.719 293.289C274.265 293.726 274.812 294.054 275.358 294.491C273.938 297.004 272.517 299.517 271.206 302.03C269.895 304.653 268.584 307.275 267.491 309.897L267.054 310.006L255.144 309.46L257.985 281.707L273.719 293.289ZM266.726 310.553L257.876 321.697L255.363 310.662L266.726 310.553ZM281.04 319.075C281.149 319.184 281.149 319.184 281.258 319.075C281.367 323.555 281.586 328.144 281.914 332.624C282.023 334.918 282.132 337.213 282.351 339.507C282.46 341.583 282.678 343.659 282.788 345.735L258.204 322.244L281.04 319.075ZM283.225 346.172C283.116 343.987 283.006 341.692 282.897 339.507C282.788 337.213 282.569 334.918 282.46 332.624C282.132 328.144 281.804 323.664 281.367 319.184C281.477 319.184 281.477 319.184 281.586 319.075C288.36 320.605 295.134 322.353 302.018 323.883L322.122 328.69L316.768 350.433L315.457 355.897C304.531 352.509 293.823 349.341 283.225 346.172ZM315.785 356.224L337.856 345.517C335.452 349.341 333.158 353.274 330.863 357.098L323.652 369.008L315.785 356.224ZM335.234 318.857L352.606 321.807C351.514 323.664 350.312 325.522 349.11 327.379C347.908 329.346 346.597 331.203 345.395 333.17C344.193 335.137 342.991 337.103 341.789 338.961C340.697 340.818 339.604 342.676 338.511 344.643C337.528 336.011 336.436 327.488 335.234 318.857ZM338.293 344.752C338.184 344.861 338.184 344.861 338.184 344.97L315.785 356.115L317.205 350.652L322.668 328.799L335.015 319.184C335.889 327.598 337.091 336.12 338.293 344.752ZM322.231 328.253L322.122 328.144C321.467 326.505 320.702 324.975 320.046 323.446C319.281 321.807 318.407 320.168 317.533 318.42C316.659 316.781 315.785 315.142 314.911 313.503C314.146 311.973 313.49 310.443 312.726 308.914L334.469 318.529L322.231 328.253ZM312.07 308.695C312.944 310.334 313.927 311.973 314.692 313.612C315.457 315.251 316.222 316.999 316.987 318.638C317.752 320.277 318.626 322.025 319.5 323.664C320.265 325.085 321.03 326.505 321.904 327.925L306.279 316.125C301.035 312.082 295.681 308.149 290.327 304.215L303.001 302.358L312.07 308.695ZM273.5 266.739L266.071 258.107L276.56 256.359C280.056 255.812 283.662 255.266 287.158 254.72L280.93 275.37L273.5 266.739ZM284.427 241.718C283.443 237.566 282.46 233.414 281.367 229.262L289.343 233.632L289.453 233.851C288.688 240.406 287.923 246.962 287.267 253.627L284.427 241.718ZM281.367 229.043C281.367 228.934 281.367 228.934 281.367 229.043C281.367 228.934 281.367 228.934 281.367 228.934L285.629 223.689L289.453 233.632L281.367 229.043ZM280.821 228.825L280.712 229.043L265.524 235.49C265.743 231.228 265.852 227.076 266.071 222.815L279.401 220.084L280.93 228.715C280.93 228.825 280.821 228.825 280.821 228.825ZM265.961 222.378C266.508 220.411 267.054 218.445 267.6 216.478C267.819 216.478 267.928 216.478 268.147 216.478C271.643 217.68 275.249 218.772 278.745 219.974L265.961 222.378ZM255.472 222.05C256.674 218.008 257.876 213.965 259.187 210.031L267.163 216.041C265.197 217.024 263.23 218.008 261.263 218.991C259.296 219.974 257.439 220.958 255.472 222.05C255.581 222.05 255.581 222.05 255.472 222.05ZM261.482 219.428C263.339 218.554 265.306 217.571 267.163 216.587C266.726 218.554 266.289 220.411 265.852 222.378C265.743 222.378 265.743 222.487 265.743 222.487C263.995 222.487 262.356 222.269 260.608 222.16C259.078 222.05 257.439 222.05 255.909 221.941C257.767 221.285 259.624 220.302 261.482 219.428ZM279.401 219.756C275.795 218.663 272.08 217.571 268.474 216.478C272.736 216.587 276.997 216.587 281.258 216.587L279.401 219.756ZM285.192 203.913L295.244 196.155L289.562 205.661V205.77L288.36 214.511C286.175 215.058 283.99 215.495 281.804 216.041L285.192 203.913ZM305.951 182.279L308.901 183.918L303.329 190.801C301.253 192.003 299.177 193.096 297.101 194.298L305.951 182.279ZM290.108 205.88L296.336 195.5L297.757 199.652C294.807 204.241 291.857 208.939 288.906 213.528L290.108 205.88ZM276.997 210.578C275.467 211.452 274.047 212.326 272.517 213.2C270.987 214.183 269.348 215.058 267.71 215.932L267.272 209.376C269.021 209.594 270.66 209.813 272.408 210.031L276.997 210.578ZM266.835 209.485L267.163 215.822L259.733 209.813L266.835 209.485ZM249.353 213.965C249.463 212.435 249.572 210.796 249.572 209.157C252.741 209.485 255.909 209.704 259.078 209.922C257.876 213.965 256.456 217.898 255.144 221.941C253.068 220.848 250.883 219.756 248.698 218.772C249.026 217.134 249.244 215.495 249.353 213.965ZM255.363 222.487C257.111 222.597 258.75 222.706 260.498 222.706C262.137 222.706 263.885 222.706 265.524 222.815C265.306 226.967 265.306 231.119 265.087 235.271L260.389 228.934C258.75 226.749 257.111 224.563 255.363 222.487ZM265.524 257.779L248.916 259.309L265.087 236.254C265.197 243.466 265.415 250.568 265.524 257.779ZM250.665 342.567C253.724 342.894 256.674 343.113 259.733 343.659H259.843C261.7 344.533 263.558 345.407 265.524 346.172L265.415 347.374C264.978 349.669 264.432 351.963 263.995 354.367L262.356 362.671L260.826 370.975L259.515 378.514C256.674 366.386 253.724 354.476 250.665 342.567ZM264.432 361.578C264.213 366.823 263.776 371.958 263.339 377.093L259.843 378.732L261.372 370.865L262.902 362.562L264.322 354.258C264.65 352.291 264.978 350.433 265.306 348.467L264.869 353.711C264.759 356.334 264.541 358.956 264.432 361.578ZM280.056 351.417C277.762 350.652 275.467 349.778 273.282 348.794C268.911 346.828 264.432 345.08 259.843 343.55V343.441C259.406 342.567 259.078 341.802 258.641 340.928C258.204 340.054 257.767 339.289 257.33 338.524C256.456 336.994 255.581 335.355 254.598 333.826L256.783 334.809C262.793 337.54 268.911 340.272 274.921 342.894C277.434 343.987 279.947 345.189 282.569 346.281L282.788 346.5C282.788 346.5 282.788 346.5 282.897 346.5C283.99 349.013 285.082 351.526 286.175 353.93C284.208 353.056 282.132 352.182 280.056 351.417ZM310.977 359.721L293.168 351.198L285.301 347.374C295.244 350.324 305.187 353.383 315.129 356.334V356.443L310.977 359.721ZM315.676 356.443L323.324 369.008L311.524 372.177L315.676 356.443ZM356.43 356.989L349.547 362.015C347.252 363.654 344.958 365.293 342.663 367.041L335.889 372.067L329.88 370.647L323.761 369.227C323.761 369.227 323.761 369.227 323.761 369.117L331.409 357.208C333.922 353.274 336.326 349.341 338.839 345.407C346.925 347.702 355.119 349.996 363.314 352.182C360.801 353.711 358.616 355.35 356.43 356.989ZM360.473 344.533C361.347 346.937 362.221 349.45 363.205 351.854C355.01 349.45 346.815 347.046 338.621 344.643C339.823 342.785 341.025 341.037 342.226 339.179C343.428 337.213 344.63 335.355 345.832 333.389C347.034 331.422 348.127 329.455 349.328 327.488C350.421 325.631 351.623 323.773 352.825 321.916C354.464 326.942 356.103 331.968 357.851 336.885C358.725 339.507 359.599 342.02 360.473 344.533ZM362.221 337.103L353.043 321.807L360.036 319.84L362.221 337.103ZM291.857 287.061L281.149 275.917C282.678 275.37 284.208 274.824 285.738 274.168C287.267 273.513 288.797 272.967 290.218 272.202C290.764 277.228 291.201 282.145 291.857 287.061ZM288.688 263.461C289.125 266.411 289.671 269.252 290.218 272.202C288.688 272.748 287.049 273.185 285.519 273.841C283.99 274.387 282.569 274.933 281.04 275.589L287.267 255.485L288.688 263.461ZM285.301 223.361L281.149 228.715L279.947 222.05C280.493 222.269 283.006 223.143 285.301 223.361ZM297.757 199.652L302.564 199.979C302.892 199.979 303.111 199.979 303.438 199.979C300.488 201.509 297.647 203.039 294.807 204.568C295.79 202.929 296.773 201.29 297.757 199.652ZM318.626 203.476C314.037 202.274 309.448 201.29 304.859 200.198C305.733 200.307 306.607 200.307 307.481 200.416L310.868 200.635L324.198 203.257C324.307 203.257 324.417 203.257 324.417 203.148L325.181 200.963H327.695C327.585 201.946 327.367 202.82 327.257 203.804C327.257 203.913 327.257 203.913 327.367 204.022C328.787 204.35 330.208 204.678 331.628 205.005L335.998 205.989C335.998 205.989 335.998 205.989 336.108 205.989C336.108 205.989 336.108 205.989 336.217 205.989L336.873 208.065C335.671 207.846 334.578 207.628 333.376 207.409L318.626 203.476ZM336.873 207.846L336.217 205.77C339.604 205.552 342.991 205.115 346.488 204.896C346.488 204.896 346.488 204.896 346.597 204.896C347.58 203.694 348.673 202.383 349.766 201.181C350.749 200.089 351.841 198.887 352.825 197.794C353.371 198.777 354.027 199.652 354.682 200.635L347.58 206.754L337.2 208.065C336.982 207.846 336.982 207.846 336.873 207.846ZM354.792 200.089C354.245 199.105 353.59 198.122 353.043 197.139C354.792 196.483 356.54 195.827 358.179 195.281L354.792 200.089ZM352.279 197.466C351.295 198.559 350.421 199.761 349.438 200.963C348.454 202.274 347.362 203.476 346.378 204.678C342.991 204.896 339.495 205.005 336.108 205.224L331.846 204.35C330.426 204.131 329.006 203.804 327.585 203.585C327.695 202.711 327.695 201.837 327.804 200.853L330.645 200.744L344.193 200.307C344.193 200.307 344.193 200.307 344.302 200.307C347.034 199.324 349.656 198.34 352.279 197.466Z" fill="white" fill-opacity="0.3"/>
<path d="M362.877 177.035L361.019 187.743C360.145 188.071 359.38 188.398 358.506 188.835C359.38 188.726 360.255 188.508 361.129 188.289C361.675 188.071 362.112 187.743 362.658 187.415C363.095 187.087 363.642 186.759 364.079 186.432C363.532 186.65 362.986 186.869 362.44 187.087C362.003 187.306 361.675 187.524 361.238 187.743L363.095 177.144L362.877 177.035Z" fill="white" fill-opacity="0.3"/>
<g filter="url(#filter0_d_2_7241)">
<path d="M329.651 447.427L318.285 446.772C318.067 446.772 317.957 446.663 317.848 446.444C317.739 446.226 317.739 446.007 317.957 445.898L326.482 434.426L328.667 428.09C328.667 427.981 328.777 427.871 328.886 427.871L331.509 425.686L334.896 399.029L311.072 372.59C310.963 372.481 310.963 372.372 310.963 372.263L310.635 360.245L308.996 359.699L286.592 354.892L280.582 352.488L269.107 354.018L266.921 362.976L264.08 378.271L263.315 412.139L266.375 424.048C266.375 424.157 266.375 424.266 266.375 424.375L263.424 431.149L263.533 443.931C263.533 444.041 263.533 444.259 263.424 444.368C263.315 444.478 263.205 444.478 262.987 444.587H245.064C244.846 444.587 244.736 444.478 244.627 444.368C244.518 444.15 244.518 444.041 244.627 443.822L253.916 427.434L252.714 403.945L250.091 370.952L246.485 355.329L240.911 330.529L238.398 326.814L222.988 319.931L224.191 343.092L227.469 346.479L227.578 346.589L231.294 354.673L239.818 354.127C240.037 354.127 240.256 354.236 240.365 354.455L244.736 366.909V367.018L245.72 379.145C245.72 379.364 245.611 379.473 245.501 379.582L243.971 380.675C243.753 380.784 243.534 380.784 243.316 380.675L231.185 369.968L218.836 358.278C218.726 358.169 218.726 358.06 218.726 357.951L209 311.3C209 311.082 209.109 310.863 209.219 310.754L222.551 303.434C222.661 303.325 222.77 303.325 222.879 303.325L238.398 306.275L235.119 292.291C235.119 292.181 235.119 292.072 235.119 291.963L257.632 233.077L252.714 226.085L240.037 217.454C239.928 217.344 239.818 217.126 239.818 217.017L239.928 205.327C239.928 205.218 240.037 204.999 240.146 204.89C240.256 204.781 240.474 204.781 240.583 204.781L259.708 207.73L266.156 205.764C266.265 205.764 266.375 205.764 266.484 205.764L277.412 209.806L282.33 202.705L278.942 197.57L271.839 195.276C271.62 195.167 271.402 194.948 271.511 194.729C271.62 194.511 271.73 194.292 271.948 194.183L275.008 193.528L266.375 189.158C266.156 189.048 266.047 188.83 266.047 188.502C266.047 188.174 266.265 188.065 266.593 188.065L270.418 187.956L267.468 182.493C267.358 182.384 267.358 182.275 267.468 182.056L269.763 171.678C269.763 171.459 269.981 171.241 270.309 171.241C270.528 171.241 270.746 171.35 270.855 171.568L274.899 182.93L287.139 196.368L303.095 178.888L305.827 169.602L304.515 154.307C304.515 154.088 304.624 153.76 304.952 153.76C305.171 153.651 305.499 153.76 305.608 154.088L311.291 165.996L313.258 163.811L316.099 155.618C316.209 155.399 316.427 155.181 316.646 155.29C316.864 155.29 317.083 155.508 317.192 155.727L318.722 166.324C318.722 166.433 318.722 166.652 318.613 166.761L313.586 173.972L315.99 177.686L322.001 177.796C322.219 177.796 322.438 178.014 322.547 178.233C322.657 178.451 322.547 178.67 322.329 178.888L316.755 182.166L313.914 190.141C313.914 190.25 313.914 190.25 313.804 190.25L312.821 191.561L317.957 192.107L323.422 184.351C323.531 184.132 323.859 184.023 324.077 184.132C324.296 184.241 324.405 184.46 324.405 184.678L323.531 192.435L331.181 192.981L341.016 190.359L356.207 171.787L360.36 159.878C360.469 159.66 360.688 159.551 360.906 159.551C361.125 159.551 361.343 159.769 361.453 159.988L363.529 170.148C363.529 170.257 363.529 170.367 363.42 170.476L355.77 183.695C355.77 183.695 355.77 183.804 355.661 183.804L348.666 191.015L357.956 188.393L362.327 176.812C362.436 176.594 362.655 176.375 362.873 176.485C363.092 176.485 363.311 176.703 363.311 176.922L364.294 185.225L374.021 176.812L381.889 164.685L386.042 151.357C386.151 151.138 386.37 150.92 386.588 151.029C386.807 151.029 387.025 151.248 387.025 151.575L387.681 164.795C387.681 164.904 387.681 165.013 387.572 165.122L378.283 181.619L378.173 181.729L364.622 193.418C364.622 193.418 364.513 193.528 364.403 193.528L361.343 194.511L358.502 199.755C358.502 199.864 358.393 199.864 358.393 199.864L352.164 205.436L363.092 203.579L373.256 195.494L381.452 185.115L386.479 175.392C386.588 175.174 386.807 175.064 387.135 175.174C387.353 175.283 387.572 175.501 387.572 175.72L387.135 185.225C387.135 185.334 387.135 185.443 387.025 185.552L377.736 199.427L377.627 199.537L365.168 209.369C365.059 209.369 365.059 209.478 364.95 209.478L347.683 213.63C347.574 213.63 347.574 213.63 347.464 213.63L322.766 209.697L301.565 204.781L291.62 214.941L293.477 215.596C293.587 215.596 293.696 215.706 293.805 215.924C293.915 216.033 293.915 216.252 293.805 216.361L292.822 218.546L298.723 221.824C298.832 221.933 298.942 222.042 299.051 222.261C299.051 222.479 299.051 222.589 298.832 222.698L292.166 228.597L292.494 233.186L290.417 252.305L290.855 272.189L293.259 285.189L300.581 294.913L316.864 303.544L343.311 310.645L360.032 318.948L364.731 317.2L370.414 307.914C370.523 307.695 370.742 307.586 370.961 307.695C371.179 307.695 371.398 307.914 371.398 308.132L374.895 323.209C374.895 323.318 374.895 323.427 374.895 323.537L370.414 332.714C370.414 332.823 370.305 332.823 370.196 332.932L362.983 337.958L363.748 351.942C363.748 352.051 363.748 352.16 363.638 352.27L354.786 368.002L362.655 378.271L371.07 386.902C371.179 387.011 371.179 387.121 371.179 387.23L372.272 393.02L380.906 414.543L383.091 420.333C383.091 420.442 383.091 420.442 383.091 420.552L383.201 436.939C383.201 437.267 382.982 437.485 382.654 437.485L372.818 437.813H372.709L365.387 436.393C365.168 436.393 365.059 436.174 364.95 436.065C364.841 435.847 364.95 435.737 365.059 435.519L372.381 426.014L370.633 421.972C370.633 421.863 370.633 421.863 370.633 421.753V416.4L359.595 395.642L340.798 380.893L348.666 394.878L352.601 397.609C352.819 397.718 352.929 398.046 352.819 398.264L340.142 433.225L338.721 438.032C338.721 438.141 338.721 438.141 338.612 438.141L335.989 441.856L334.896 445.352C334.896 445.57 334.678 445.679 334.569 445.679L329.76 447.427C329.869 447.427 329.76 447.427 329.651 447.427ZM319.378 445.789L329.651 446.335L334.131 444.805L335.115 441.528C335.115 441.418 335.115 441.418 335.224 441.418L337.847 437.813L339.268 433.115L352.054 398.264L348.339 395.752C348.229 395.752 348.229 395.642 348.12 395.533L338.831 379.036C338.721 378.818 338.721 378.49 338.94 378.381C339.159 378.162 339.377 378.162 339.596 378.381L360.578 394.878C360.688 394.878 360.688 394.987 360.688 395.096L371.944 416.072C371.944 416.182 372.053 416.291 372.053 416.291V421.644L373.911 425.905C374.021 426.123 373.911 426.342 373.802 426.451L366.917 435.519L373.256 436.721L382.436 436.393L382.326 420.661L380.141 414.98L371.398 393.348L370.305 387.667L361.999 379.036L353.912 368.439C353.803 368.22 353.803 368.002 353.912 367.892L362.873 352.051L362.108 337.958C362.108 337.739 362.218 337.63 362.327 337.521L369.758 332.386L374.13 323.537L370.961 309.88L365.824 318.293C365.715 318.402 365.715 318.511 365.606 318.511L360.578 320.478C360.469 320.587 360.251 320.478 360.141 320.478L343.311 312.065L316.974 304.964H316.864L300.362 296.224C300.253 296.224 300.253 296.115 300.144 296.115L292.712 286.173C292.712 286.063 292.603 286.063 292.603 285.954L289.98 272.298L289.543 252.305L291.62 233.295L291.292 228.597C291.292 228.379 291.401 228.27 291.51 228.16L297.74 222.589L292.057 219.42C291.838 219.311 291.729 218.983 291.838 218.765L292.822 216.689L290.745 215.924C290.527 215.815 290.417 215.706 290.417 215.487C290.417 215.269 290.417 215.159 290.527 214.941L301.237 203.907C301.346 203.797 301.565 203.688 301.783 203.797L323.312 208.823L347.901 212.647L364.95 208.495L377.19 198.772L386.37 185.115L386.698 178.233L382.763 185.88L374.458 196.368C374.458 196.368 374.458 196.478 374.348 196.478L364.076 204.671C363.966 204.781 363.966 204.781 363.857 204.781L350.961 206.966C350.743 206.966 350.524 206.856 350.415 206.638C350.306 206.419 350.415 206.201 350.524 205.982L358.065 199.209L361.016 193.855C361.125 193.746 361.234 193.637 361.343 193.637L364.513 192.544L377.846 180.964L387.025 164.685L386.588 154.744L383.31 165.232C383.31 165.232 383.31 165.341 383.201 165.341L375.113 177.577L375.004 177.686L364.403 186.863C364.294 186.973 364.076 187.082 363.857 186.973C363.638 186.863 363.529 186.754 363.529 186.536L362.655 179.434L358.939 189.158C358.83 189.267 358.721 189.485 358.611 189.485L347.136 192.763C346.918 192.872 346.59 192.763 346.481 192.544C346.371 192.326 346.371 192.107 346.59 191.889L354.896 183.258L362.436 170.257L360.797 162.282L357.3 172.333C357.3 172.442 357.3 172.442 357.191 172.552L341.781 191.343C341.672 191.452 341.563 191.452 341.454 191.561L331.29 194.183C331.181 194.183 331.181 194.183 331.072 194.183L322.875 193.528C322.766 193.528 322.547 193.418 322.547 193.309C322.438 193.2 322.438 193.091 322.438 192.872L323.094 186.645L318.722 192.872C318.613 192.981 318.394 193.091 318.176 193.091L311.728 192.544C311.509 192.544 311.4 192.435 311.291 192.217C311.182 191.998 311.291 191.78 311.4 191.67L312.93 189.704L315.772 181.401C315.772 181.292 315.881 181.182 315.99 181.073L320.034 178.67L315.662 178.56C315.444 178.56 315.334 178.451 315.225 178.342L312.493 174.081C312.384 173.863 312.384 173.644 312.493 173.426L317.629 166.106L316.427 158.021L314.351 164.139C314.351 164.248 314.242 164.248 314.242 164.358L311.619 167.198C311.509 167.307 311.291 167.417 311.182 167.417C310.963 167.417 310.854 167.307 310.744 167.089L305.936 157.147L307.029 169.82C307.029 169.929 307.029 169.929 307.029 170.039L304.187 179.544C304.187 179.653 304.078 179.653 304.078 179.762L287.576 197.898C287.467 198.007 287.357 198.007 287.248 198.007C287.139 198.007 286.92 197.898 286.811 197.789L274.025 183.804C274.025 183.804 273.915 183.695 273.915 183.586L270.528 173.972L268.67 182.384L271.948 188.393C272.058 188.611 272.058 188.721 271.948 188.939C271.839 189.158 271.73 189.158 271.511 189.267H268.998L277.085 193.418C277.303 193.528 277.412 193.746 277.412 193.965C277.412 194.183 277.194 194.402 276.975 194.402L274.462 194.948L279.707 196.587C279.817 196.587 279.926 196.696 280.035 196.805L283.751 202.377C283.86 202.596 283.86 202.814 283.751 203.033L278.287 210.789C278.177 211.008 277.85 211.117 277.631 211.008L266.375 206.747L260.036 208.714C259.927 208.714 259.927 208.714 259.818 208.714L241.13 205.873L241.021 216.58L253.588 225.101L253.698 225.211L258.943 232.64C259.053 232.749 259.053 232.967 259.053 233.186L236.54 292.181L239.928 306.821C239.928 307.04 239.928 307.149 239.818 307.367C239.709 307.477 239.491 307.586 239.272 307.477L223.098 304.418L210.202 311.41L219.71 357.514L231.841 369.203L243.643 379.692L244.627 379.036L243.753 367.346L239.6 355.329L231.185 355.875C230.966 355.875 230.748 355.766 230.638 355.547L226.813 347.244L223.426 343.748C223.316 343.639 223.316 343.529 223.316 343.42L222.114 319.167C222.114 318.948 222.224 318.839 222.333 318.729C222.442 318.62 222.661 318.62 222.879 318.729L239.272 326.049C239.381 326.049 239.491 326.159 239.491 326.268L242.113 330.201C242.113 330.31 242.223 330.31 242.223 330.419L247.796 355.329L251.184 371.061L253.807 404.164L255.009 427.871C255.009 427.981 255.009 428.09 254.9 428.199L246.048 443.822L262.659 443.713L262.55 431.367C262.55 431.258 262.55 431.258 262.55 431.149L265.391 424.485L262.331 412.685V412.576L263.096 378.49L266.047 363.195L268.233 353.799C268.233 353.581 268.451 353.362 268.67 353.362L280.582 351.723C280.691 351.723 280.8 351.723 280.91 351.723L287.03 354.127L309.214 359.043L311.291 359.699C311.509 359.808 311.619 359.917 311.728 360.245L312.056 372.481L335.88 398.92C335.989 399.029 335.989 399.248 335.989 399.357L332.601 426.451C332.601 426.56 332.492 426.67 332.383 426.779L329.651 428.964L327.574 435.191C327.574 435.191 327.574 435.3 327.465 435.3L319.378 445.789Z" fill="#787878"/>
</g>
<defs>
<filter id="filter0_d_2_7241" x="180.7" y="122.7" width="235.281" height="353.028" filterUnits="userSpaceOnUse" color-interpolation-filters="sRGB">
<feFlood flood-opacity="0" result="BackgroundImageFix"/>
<feColorMatrix in="SourceAlpha" type="matrix" values="0 0 0 0 0 0 0 0 0 0 0 0 0 0 0 0 0 0 127 0" result="hardAlpha"/>
<feOffset/>
<feGaussianBlur stdDeviation="14.15"/>
<feComposite in2="hardAlpha" operator="out"/>
<feColorMatrix type="matrix" values="0 0 0 0 1 0 0 0 0 1 0 0 0 0 1 0 0 0 0.47 0"/>
<feBlend mode="normal" in2="BackgroundImageFix" result="effect1_dropShadow_2_7241"/>
<feBlend mode="normal" in="SourceGraphic" in2="effect1_dropShadow_2_7241" result="shape"/>
</filter>
<linearGradient id="paint0_linear_2_7241" x1="239.164" y1="203.07" x2="382.417" y2="431.66" gradientUnits="userSpaceOnUse">
<stop stop-color="#585858"/>
<stop offset="1" stop-color="#2C2C2C" stop-opacity="0"/>
</linearGradient>
</defs>
</svg>