<svg xmlns="http://www.w3.org/2000/svg" width="462" height="447" viewBox="0 0 462 447" fill="none">
<g opacity="0.5">
<path d="M164.1 45.8092C162.358 45.8092 160.79 44.4158 160.79 42.4998C160.79 40.758 162.184 39.1904 164.1 39.1904C165.841 39.1904 167.409 40.5839 167.409 42.4998C167.235 44.4158 165.841 45.8092 164.1 45.8092Z" fill="white" fill-opacity="0.3"/>
<path d="M164.099 39.8853C165.666 39.8853 166.711 41.1045 166.711 42.4979C166.711 44.0655 165.492 45.1106 164.099 45.1106C162.705 45.1106 161.486 43.8913 161.486 42.4979C161.312 41.1045 162.531 39.8853 164.099 39.8853ZM164.099 38.666C162.009 38.666 160.267 40.4078 160.267 42.4979C160.267 44.5881 162.009 46.3298 164.099 46.3298C166.189 46.3298 167.931 44.5881 167.931 42.4979C167.931 40.4078 166.189 38.666 164.099 38.666Z" fill="white" fill-opacity="0.2"/>
<path d="M437.56 128.023C435.818 128.023 434.251 126.63 434.251 124.714C434.251 122.798 435.644 121.404 437.56 121.404C439.302 121.404 440.869 122.798 440.869 124.714C440.869 126.63 439.476 128.023 437.56 128.023Z" fill="white" fill-opacity="0.3"/>
<path d="M437.558 121.926C439.126 121.926 440.171 123.145 440.171 124.539C440.171 125.932 438.952 127.151 437.558 127.151C435.991 127.151 434.946 125.932 434.946 124.539C434.946 123.145 436.165 121.926 437.558 121.926ZM437.558 120.881C435.468 120.881 433.727 122.623 433.727 124.713C433.727 126.803 435.468 128.545 437.558 128.545C439.649 128.545 441.39 126.803 441.39 124.713C441.39 122.623 439.823 120.881 437.558 120.881Z" fill="white" fill-opacity="0.2"/>
<path d="M454.8 132.027C453.058 132.027 451.491 130.634 451.491 128.718C451.491 126.802 452.884 125.408 454.8 125.408C456.542 125.408 458.11 126.802 458.11 128.718C458.11 130.634 456.716 132.027 454.8 132.027Z" fill="white" fill-opacity="0.3"/>
<path d="M454.799 125.929C456.367 125.929 457.412 127.148 457.412 128.542C457.412 129.935 456.193 131.154 454.799 131.154C453.406 131.154 452.186 129.935 452.186 128.542C452.186 127.148 453.406 125.929 454.799 125.929ZM454.799 124.884C452.709 124.884 450.967 126.626 450.967 128.716C450.967 130.806 452.709 132.548 454.799 132.548C456.889 132.548 458.631 130.806 458.631 128.716C458.631 126.626 457.063 124.884 454.799 124.884Z" fill="white" fill-opacity="0.2"/>
<path d="M15.0015 387.374C13.2597 387.374 11.6921 385.98 11.6921 384.064C11.6921 382.322 13.0856 380.755 15.0015 380.755C16.7433 380.755 18.3109 382.148 18.3109 384.064C18.3109 385.98 16.7433 387.374 15.0015 387.374Z" fill="white" fill-opacity="0.3"/>
<path d="M14.9999 381.45C16.5675 381.45 17.6125 382.669 17.6125 384.062C17.6125 385.456 16.3933 386.675 14.9999 386.675C13.6065 386.675 12.3872 385.456 12.3872 384.062C12.3872 382.669 13.4323 381.45 14.9999 381.45ZM14.9999 380.23C12.9097 380.23 11.168 381.972 11.168 384.062C11.168 386.153 12.9097 387.894 14.9999 387.894C17.09 387.894 18.8318 386.153 18.8318 384.062C18.8318 381.972 17.09 380.23 14.9999 380.23Z" fill="white" fill-opacity="0.2"/>
<path d="M75.443 381.1C73.7013 381.1 72.1337 379.707 72.1337 377.791C72.1337 376.049 73.5271 374.481 75.443 374.481C77.1848 374.481 78.7524 375.875 78.7524 377.791C78.7524 379.707 77.1848 381.1 75.443 381.1Z" fill="white" fill-opacity="0.3"/>
<path d="M75.4419 375.177C77.0095 375.177 78.0546 376.396 78.0546 377.79C78.0546 379.183 76.8353 380.403 75.4419 380.403C73.8743 380.403 72.8292 379.183 72.8292 377.79C72.8292 376.396 73.8743 375.177 75.4419 375.177ZM75.4419 373.958C73.3518 373.958 71.61 375.7 71.61 377.79C71.61 379.88 73.3518 381.622 75.4419 381.622C77.532 381.622 79.2738 379.88 79.2738 377.79C79.2738 375.7 77.532 373.958 75.4419 373.958Z" fill="white" fill-opacity="0.2"/>
<path d="M455.148 427.258C453.406 427.258 451.839 425.865 451.839 423.949C451.839 422.207 453.232 420.64 455.148 420.64C456.89 420.64 458.457 422.033 458.457 423.949C458.283 425.865 456.89 427.258 455.148 427.258Z" fill="white" fill-opacity="0.3"/>
<path d="M455.146 421.335C456.713 421.335 457.758 422.555 457.758 423.948C457.758 425.342 456.539 426.561 455.146 426.561C453.752 426.561 452.533 425.342 452.533 423.948C452.533 422.555 453.578 421.335 455.146 421.335ZM455.146 420.116C453.055 420.116 451.314 421.858 451.314 423.948C451.314 426.038 453.055 427.78 455.146 427.78C457.236 427.78 458.977 426.038 458.977 423.948C458.977 421.858 457.236 420.116 455.146 420.116Z" fill="white" fill-opacity="0.2"/>
<path d="M295.258 17.2467C293.516 17.2467 291.948 15.8533 291.948 13.9373C291.948 12.1955 293.342 10.6279 295.258 10.6279C297 10.6279 298.567 12.0214 298.567 13.9373C298.567 15.8533 297.174 17.2467 295.258 17.2467Z" fill="white" fill-opacity="0.3"/>
<path d="M295.257 11.3237C296.825 11.3237 297.87 12.543 297.87 13.9364C297.87 15.3298 296.65 16.5491 295.257 16.5491C293.689 16.5491 292.644 15.3298 292.644 13.9364C292.644 12.543 293.864 11.3237 295.257 11.3237ZM295.257 10.1045C293.167 10.1045 291.425 11.8463 291.425 13.9364C291.425 16.0265 293.167 17.7683 295.257 17.7683C297.347 17.7683 299.089 16.0265 299.089 13.9364C299.089 11.8463 297.521 10.1045 295.257 10.1045Z" fill="white" fill-opacity="0.2"/>
<path d="M37.6443 131.852C35.9026 131.852 34.335 130.459 34.335 128.543C34.335 126.801 35.7284 125.233 37.6443 125.233C39.3861 125.233 40.9537 126.627 40.9537 128.543C40.9537 130.459 39.5603 131.852 37.6443 131.852Z" fill="white" fill-opacity="0.3"/>
<path d="M37.6439 125.93C39.2115 125.93 40.2566 127.149 40.2566 128.543C40.2566 129.936 39.0373 131.156 37.6439 131.156C36.2505 131.156 35.0313 129.936 35.0313 128.543C35.0313 127.149 36.2505 125.93 37.6439 125.93ZM37.6439 124.711C35.5538 124.711 33.812 126.453 33.812 128.543C33.812 130.633 35.5538 132.375 37.6439 132.375C39.7341 132.375 41.4758 130.633 41.4758 128.543C41.4758 126.453 39.9082 124.711 37.6439 124.711Z" fill="white" fill-opacity="0.2"/>
<path d="M67.2544 153.799C65.5127 153.799 63.9451 152.406 63.9451 150.49C63.9451 148.748 65.3385 147.181 67.2544 147.181C68.9962 147.181 70.5638 148.574 70.5638 150.49C70.5638 152.406 69.1704 153.799 67.2544 153.799Z" fill="white" fill-opacity="0.3"/>
<path d="M67.2528 147.876C68.8204 147.876 69.8655 149.095 69.8655 150.488C69.8655 152.056 68.6462 153.101 67.2528 153.101C65.6852 153.101 64.6401 151.882 64.6401 150.488C64.6401 149.095 65.8594 147.876 67.2528 147.876ZM67.2528 146.656C65.1627 146.656 63.4209 148.398 63.4209 150.488C63.4209 152.578 65.1627 154.32 67.2528 154.32C69.3429 154.32 71.0847 152.578 71.0847 150.488C71.2589 148.398 69.5171 146.656 67.2528 146.656Z" fill="white" fill-opacity="0.2"/>
<path d="M71.0879 246.463C69.3462 246.463 67.7786 245.07 67.7786 243.154C67.7786 241.412 69.172 239.845 71.0879 239.845C72.8297 239.845 74.3973 241.238 74.3973 243.154C74.3973 245.07 72.8297 246.463 71.0879 246.463Z" fill="white" fill-opacity="0.3"/>
<path d="M71.0874 240.541C72.655 240.541 73.7001 241.76 73.7001 243.153C73.7001 244.547 72.4808 245.766 71.0874 245.766C69.5198 245.766 68.4747 244.547 68.4747 243.153C68.4747 241.76 69.5198 240.541 71.0874 240.541ZM71.0874 239.321C68.9973 239.321 67.2555 241.063 67.2555 243.153C67.2555 245.243 68.9973 246.985 71.0874 246.985C73.1775 246.985 74.9193 245.243 74.9193 243.153C74.9193 241.063 73.1775 239.321 71.0874 239.321Z" fill="white" fill-opacity="0.2"/>
<path d="M252.408 74.5475C250.666 74.5475 249.098 73.154 249.098 71.2381C249.098 69.4963 250.492 67.9287 252.408 67.9287C254.15 67.9287 255.717 69.3221 255.717 71.2381C255.717 72.9799 254.324 74.5475 252.408 74.5475Z" fill="white" fill-opacity="0.3"/>
<path d="M252.405 68.4507C253.973 68.4507 255.018 69.6699 255.018 71.0634C255.018 72.631 253.798 73.676 252.405 73.676C250.837 73.676 249.792 72.4568 249.792 71.0634C249.792 69.6699 251.012 68.4507 252.405 68.4507ZM252.405 67.2314C250.315 67.2314 248.573 68.9732 248.573 71.0634C248.573 73.1535 250.315 74.8953 252.405 74.8953C254.495 74.8953 256.237 73.1535 256.237 71.0634C256.411 68.9732 254.669 67.2314 252.405 67.2314Z" fill="white" fill-opacity="0.2"/>
<path d="M126.475 128.196C124.734 128.196 123.166 126.802 123.166 124.887C123.166 123.145 124.559 121.577 126.475 121.577C128.217 121.577 129.785 122.971 129.785 124.887C129.611 126.628 128.217 128.196 126.475 128.196Z" fill="white" fill-opacity="0.3"/>
<path d="M126.475 122.1C128.043 122.1 129.088 123.319 129.088 124.713C129.088 126.106 127.868 127.325 126.475 127.325C124.907 127.325 123.862 126.106 123.862 124.713C123.862 123.319 124.907 122.1 126.475 122.1ZM126.475 120.881C124.385 120.881 122.643 122.623 122.643 124.713C122.643 126.803 124.385 128.545 126.475 128.545C128.565 128.545 130.307 126.803 130.307 124.713C130.307 122.623 128.565 120.881 126.475 120.881Z" fill="white" fill-opacity="0.2"/>
<path d="M147.378 83.9557C145.636 83.9557 144.068 82.5622 144.068 80.6463C144.068 78.7303 145.462 77.3369 147.378 77.3369C149.12 77.3369 150.687 78.7303 150.687 80.6463C150.687 82.5622 149.294 83.9557 147.378 83.9557Z" fill="white" fill-opacity="0.3"/>
<path d="M147.375 78.0317C148.942 78.0317 149.988 79.251 149.988 80.6444C149.988 82.0378 148.768 83.2571 147.375 83.2571C145.981 83.2571 144.762 82.0378 144.762 80.6444C144.762 79.251 145.981 78.0317 147.375 78.0317ZM147.375 76.8125C145.285 76.8125 143.543 78.5543 143.543 80.6444C143.543 82.7345 145.285 84.4763 147.375 84.4763C149.465 84.4763 151.207 82.7345 151.207 80.6444C151.207 78.5543 149.639 76.8125 147.375 76.8125Z" fill="white" fill-opacity="0.2"/>
<path d="M217.048 52.774C215.306 52.774 213.738 51.3806 213.738 49.4646C213.738 47.7229 215.132 46.1553 217.048 46.1553C218.789 46.1553 220.357 47.5487 220.357 49.4646C220.357 51.2064 218.789 52.774 217.048 52.774Z" fill="white" fill-opacity="0.3"/>
<path d="M217.046 46.8511C218.614 46.8511 219.659 48.0703 219.659 49.4637C219.659 50.8572 218.44 52.0764 217.046 52.0764C215.479 52.0764 214.434 50.8572 214.434 49.4637C214.434 48.0703 215.479 46.8511 217.046 46.8511ZM217.046 45.6318C214.956 45.6318 213.214 47.3736 213.214 49.4637C213.214 51.5539 214.956 53.2957 217.046 53.2957C219.137 53.2957 220.878 51.5539 220.878 49.4637C220.878 47.3736 219.137 45.6318 217.046 45.6318Z" fill="white" fill-opacity="0.2"/>
<path d="M429.544 84.9986C427.802 84.9986 426.235 83.6052 426.235 81.6893C426.235 79.9475 427.628 78.3799 429.544 78.3799C431.286 78.3799 432.853 79.7733 432.853 81.6893C432.853 83.6052 431.286 84.9986 429.544 84.9986Z" fill="white" fill-opacity="0.3"/>
<path d="M429.544 79.0747C431.111 79.0747 432.156 80.294 432.156 81.6874C432.156 83.255 430.937 84.3 429.544 84.3C427.976 84.3 426.931 83.0808 426.931 81.6874C426.757 80.294 427.976 79.0747 429.544 79.0747ZM429.544 77.8555C427.453 77.8555 425.712 79.5972 425.712 81.6874C425.712 83.7775 427.453 85.5193 429.544 85.5193C431.634 85.5193 433.375 83.7775 433.375 81.6874C433.375 79.5972 431.634 77.8555 429.544 77.8555Z" fill="white" fill-opacity="0.2"/>
<path d="M296.823 13.7607L37.1241 129.066L13.9585 383.366L307.796 573.219L450.97 497.626L491.554 385.978L524.125 93.5341L296.823 13.7607Z" stroke="white" stroke-opacity="0.2" stroke-width="0.5" stroke-miterlimit="10"/>
<path d="M469.782 292.619L454.628 424.123L253.453 587.153L102.093 534.552L42.8723 304.115L164.1 42.6738L429.024 81.1671L469.782 292.619Z" stroke="white" stroke-opacity="0.2" stroke-width="0.5" stroke-miterlimit="10"/>
<path d="M454.454 129.066L252.582 71.4131L67.9539 150.316L75.966 376.747L171.938 526.365L376.597 558.588L523.254 397.3L454.454 129.066Z" stroke="white" stroke-opacity="0.2" stroke-width="0.5" stroke-miterlimit="10"/>
</g>
<g opacity="0.6" clip-path="url(#clip0_122_8284)">
<g filter="url(#filter0_b_122_8284)">
<path d="M256.208 264.563L251.673 310.141L291.603 324.838L332.075 306.663L324.952 262.03L289.577 237.221L256.208 264.563Z" fill="url(#paint0_linear_122_8284)"/>
</g>
<g filter="url(#filter1_b_122_8284)">
<path d="M233.976 220.514L201.63 244.318V277.23L226.893 298.501L256.208 264.564L264.294 227.591L233.976 220.514Z" fill="url(#paint1_linear_122_8284)"/>
</g>
<g filter="url(#filter2_b_122_8284)">
<path d="M312.311 225.58L324.952 262.03L353.264 293.434L372.968 274.696L371.182 239.814L339.098 217.98L312.311 225.58Z" fill="url(#paint2_linear_122_8284)"/>
</g>
<g filter="url(#filter3_b_122_8284)">
<path d="M252.175 335.976L257.733 370.416L291.603 388.148L326.477 369.913L333.038 333.443L291.603 324.838L252.175 335.976Z" fill="url(#paint3_linear_122_8284)"/>
</g>
<g filter="url(#filter4_b_122_8284)">
<path d="M201.63 277.23L213.75 316.736L201.63 342.048L193.022 339.012L183.431 311.167V292.932L189.992 263.056L201.63 277.23Z" fill="url(#paint4_linear_122_8284)"/>
</g>
<g filter="url(#filter5_b_122_8284)">
<path d="M382.037 263.337L372.968 274.696L366.908 311.669L373.991 335.473L380.071 333.423L386.111 311.669V285.332L382.037 263.337Z" fill="url(#paint5_linear_122_8284)"/>
</g>
<g filter="url(#filter6_b_122_8284)">
<path d="M203.637 355.217L201.63 342.048L227.394 341.043L257.733 370.416L267.966 390.24L247.62 388.651L225.388 377.513L203.637 355.217Z" fill="url(#paint6_linear_122_8284)"/>
</g>
<g filter="url(#filter7_b_122_8284)">
<path d="M313.173 388.732L326.477 369.913L353.264 336.479L373.991 335.474V346.109L360.327 364.344L342.649 378.518L330.008 386.62L313.173 388.732Z" fill="url(#paint7_linear_122_8284)"/>
</g>
<g filter="url(#filter8_b_122_8284)">
<path d="M282.092 193.231L272.882 210.884L233.976 220.514L207.69 230.647L226.893 209.376L256.71 195.704L282.092 193.231Z" fill="url(#paint8_linear_122_8284)"/>
</g>
<g filter="url(#filter9_b_122_8284)">
<path d="M283.176 193.231L298.666 207.848L339.098 217.981L352.481 218.483L336.569 206.34L309.281 196.207L283.176 193.231Z" fill="url(#paint9_linear_122_8284)"/>
</g>
<path d="M291.643 325.884L291.443 325.803L251.151 310.986L251.192 310.604L255.767 264.825L289.577 237.101L325.453 262.252L332.657 307.468L291.643 325.884ZM252.235 310.323L291.603 324.798L331.533 306.865L324.51 262.835L289.637 238.347L256.73 265.328L252.235 310.323Z" fill="white" fill-opacity="0.4"/>
<path d="M226.993 299.707L201.149 277.974V244.559L233.895 220.474L264.936 227.731L264.836 228.214L256.73 265.308L256.649 265.408L226.993 299.707ZM202.152 277.491L226.872 298.3L255.787 264.845L263.732 228.475L234.116 221.559L202.152 245.082V277.491Z" fill="white" fill-opacity="0.4"/>
<path d="M353.264 294.661L324.55 262.794L324.51 262.694L311.708 225.721L339.218 217.94L339.419 218.081L371.684 240.056L371.704 240.297L373.51 275.4L353.264 294.661ZM325.433 262.272L353.324 293.213L372.486 274.998L370.72 240.599L339.057 219.026L313.013 226.405L325.433 262.272Z" fill="white" fill-opacity="0.4"/>
<path d="M291.623 389.214L291.382 389.094L257.291 371.261L251.633 336.117L291.603 324.818L333.64 333.544L326.938 370.738L291.623 389.214ZM258.214 370.597L291.623 388.088L326.055 370.095L332.496 334.348L291.643 325.864L252.757 336.841L258.214 370.597Z" fill="white" fill-opacity="0.4"/>
<path d="M201.911 343.174L192.661 339.897L192.581 339.676L182.95 311.75V293.374L189.752 262.433L202.092 277.491L202.112 277.592L214.292 317.279L214.211 317.46L201.911 343.174ZM193.464 339.133L201.41 341.947L213.268 317.218L201.229 277.994L190.314 264.684L183.953 293.495V311.589L193.464 339.133Z" fill="white" fill-opacity="0.4"/>
<path d="M373.69 336.62L366.427 312.212L366.447 312.092L372.526 274.998L382.358 262.674L386.652 285.855V312.232L386.632 312.293L380.532 334.308L373.69 336.62ZM367.45 312.132L374.352 335.333L379.71 333.544L385.649 312.112V285.875L381.776 265.006L373.469 275.4L367.45 312.132Z" fill="white" fill-opacity="0.4"/>
<path d="M268.869 391.325L247.52 389.637L247.439 389.596L225.127 378.418L225.067 378.358L203.216 355.961L201.069 342.088L227.615 341.043L227.775 341.184L258.154 370.617L268.869 391.325ZM247.781 388.651L267.144 390.179L257.352 371.22L227.234 342.048L202.232 343.033L204.139 355.478L225.709 377.594L247.781 388.651Z" fill="white" fill-opacity="0.4"/>
<path d="M312.13 389.877L326.115 370.114L353.043 336.519L374.513 335.474V346.813L360.728 365.229L360.688 365.269L342.97 379.463L342.95 379.483L330.209 387.646L312.13 389.877ZM326.898 370.718L314.257 388.591L329.868 386.641L342.388 378.619L360.006 364.485L373.51 346.431V336.499L353.545 337.484L326.898 370.718Z" fill="white" fill-opacity="0.4"/>
<path d="M205.944 232.376L226.632 209.456L256.629 195.705H256.71L283.015 193.151L273.284 211.829L234.176 221.499L205.944 232.376ZM227.234 210.281L209.496 229.923L233.835 220.534L272.561 210.964L281.229 194.338L256.89 196.69L227.234 210.281Z" fill="white" fill-opacity="0.4"/>
<path d="M354.086 219.549L339.078 218.966L298.445 208.813L281.771 193.071L309.441 196.208L309.501 196.228L336.87 206.381L336.931 206.421L354.086 219.549ZM339.218 217.981L350.956 218.424L336.369 207.285L309.2 197.193L284.661 194.418L298.947 207.889L339.218 217.981Z" fill="white" fill-opacity="0.4"/>
<path d="M193.493 339.228L192.654 339.779L203.268 355.982L204.106 355.43L193.493 339.228Z" fill="white" fill-opacity="0.4"/>
<path d="M286.687 398H286.647L268.347 396.472L268.287 396.452L247.5 389.637L247.801 388.672L268.548 395.487L286.687 396.995L308.518 395.487L329.848 386.661L330.229 387.586L308.759 396.472H308.659L286.687 398Z" fill="white" fill-opacity="0.4"/>
<path d="M190.494 263.74L189.571 263.378L197.176 243.112L208.734 229.119L209.516 229.762L198.059 243.635L190.494 263.74Z" fill="white" fill-opacity="0.4"/>
<path d="M381.616 264.041L371.222 240.599L352.361 219.549L353.103 218.865L372.065 240.056L382.519 263.639L381.616 264.041Z" fill="white" fill-opacity="0.4"/>
<path d="M379.64 333.722L373.028 347.177L373.928 347.621L380.54 334.166L379.64 333.722Z" fill="white" fill-opacity="0.4"/>
<path d="M228.097 344.3C229.393 344.3 230.444 343.247 230.444 341.948C230.444 340.649 229.393 339.596 228.097 339.596C226.8 339.596 225.749 340.649 225.749 341.948C225.749 343.247 226.8 344.3 228.097 344.3Z" fill="white" fill-opacity="0.4"/>
<path d="M228.097 339.616C229.381 339.616 230.444 340.661 230.444 341.968C230.444 343.275 229.401 344.32 228.097 344.32C226.812 344.32 225.749 343.275 225.749 341.968C225.749 340.661 226.792 339.616 228.097 339.616ZM228.097 338.812C226.371 338.812 224.946 340.219 224.946 341.968C224.946 343.717 226.351 345.124 228.097 345.124C229.842 345.124 231.247 343.717 231.247 341.968C231.247 340.219 229.822 338.812 228.097 338.812Z" fill="#141414"/>
<path d="M291.443 391.164C292.739 391.164 293.79 390.111 293.79 388.812C293.79 387.513 292.739 386.46 291.443 386.46C290.146 386.46 289.095 387.513 289.095 388.812C289.095 390.111 290.146 391.164 291.443 391.164Z" fill="white" fill-opacity="0.4"/>
<path d="M291.443 386.459C292.727 386.459 293.79 387.505 293.79 388.812C293.79 390.119 292.747 391.164 291.443 391.164C290.158 391.164 289.095 390.119 289.095 388.812C289.095 387.505 290.158 386.459 291.443 386.459ZM291.443 385.655C289.717 385.655 288.292 387.063 288.292 388.812C288.292 390.561 289.697 391.968 291.443 391.968C293.188 391.968 294.593 390.561 294.593 388.812C294.593 387.063 293.168 385.655 291.443 385.655Z" fill="#141414"/>
<path d="M213.609 319.53C214.906 319.53 215.957 318.477 215.957 317.177C215.957 315.878 214.906 314.825 213.609 314.825C212.313 314.825 211.262 315.878 211.262 317.177C211.262 318.477 212.313 319.53 213.609 319.53Z" fill="white" fill-opacity="0.4"/>
<path d="M213.609 314.826C214.894 314.826 215.957 315.871 215.957 317.178C215.957 318.465 214.914 319.53 213.609 319.53C212.325 319.53 211.262 318.485 211.262 317.178C211.262 315.871 212.325 314.826 213.609 314.826ZM213.609 314.021C211.884 314.021 210.459 315.429 210.459 317.178C210.459 318.927 211.864 320.334 213.609 320.334C215.355 320.334 216.76 318.927 216.76 317.178C216.76 315.429 215.335 314.021 213.609 314.021Z" fill="#141414"/>
<path d="M353.886 339.777C355.182 339.777 356.233 338.724 356.233 337.425C356.233 336.125 355.182 335.072 353.886 335.072C352.589 335.072 351.538 336.125 351.538 337.425C351.538 338.724 352.589 339.777 353.886 339.777Z" fill="white" fill-opacity="0.4"/>
<path d="M353.886 335.072C355.17 335.072 356.233 336.117 356.233 337.424C356.233 338.731 355.19 339.776 353.886 339.776C352.602 339.776 351.538 338.731 351.538 337.424C351.538 336.117 352.602 335.072 353.886 335.072ZM353.886 334.268C352.16 334.268 350.735 335.675 350.735 337.424C350.735 339.173 352.14 340.581 353.886 340.581C355.631 340.581 357.036 339.173 357.036 337.424C357.036 335.675 355.611 334.268 353.886 334.268Z" fill="#141414"/>
<path d="M226.893 301.999C228.189 301.999 229.24 300.946 229.24 299.647C229.24 298.348 228.189 297.295 226.893 297.295C225.596 297.295 224.545 298.348 224.545 299.647C224.545 300.946 225.596 301.999 226.893 301.999Z" fill="white" fill-opacity="0.4"/>
<path d="M226.893 297.294C228.177 297.294 229.24 298.34 229.24 299.647C229.24 300.933 228.197 301.999 226.893 301.999C225.608 301.999 224.545 300.954 224.545 299.647C224.545 298.34 225.588 297.294 226.893 297.294ZM226.893 296.49C225.167 296.49 223.742 297.898 223.742 299.647C223.742 301.396 225.147 302.803 226.893 302.803C228.638 302.803 230.043 301.396 230.043 299.647C230.043 297.898 228.618 296.49 226.893 296.49Z" fill="#141414"/>
<path d="M325.534 372.728C326.83 372.728 327.881 371.675 327.881 370.376C327.881 369.077 326.83 368.023 325.534 368.023C324.237 368.023 323.186 369.077 323.186 370.376C323.186 371.675 324.237 372.728 325.534 372.728Z" fill="white" fill-opacity="0.4"/>
<path d="M325.534 368.024C326.818 368.024 327.881 369.069 327.881 370.376C327.881 371.683 326.838 372.728 325.534 372.728C324.229 372.728 323.186 371.683 323.186 370.376C323.186 369.069 324.229 368.024 325.534 368.024ZM325.534 367.22C323.808 367.22 322.383 368.627 322.383 370.376C322.383 372.125 323.788 373.533 325.534 373.533C327.279 373.533 328.684 372.125 328.684 370.376C328.684 368.627 327.259 367.22 325.534 367.22Z" fill="#141414"/>
<path d="M257.954 373.632C259.25 373.632 260.301 372.579 260.301 371.28C260.301 369.981 259.25 368.928 257.954 368.928C256.657 368.928 255.606 369.981 255.606 371.28C255.606 372.579 256.657 373.632 257.954 373.632Z" fill="white" fill-opacity="0.4"/>
<path d="M257.954 368.928C259.238 368.928 260.301 369.974 260.301 371.28C260.301 372.587 259.258 373.633 257.954 373.633C256.669 373.633 255.606 372.587 255.606 371.28C255.606 369.974 256.669 368.928 257.954 368.928ZM257.954 368.124C256.228 368.124 254.803 369.531 254.803 371.28C254.803 373.03 256.208 374.437 257.954 374.437C259.699 374.437 261.104 373.03 261.104 371.28C261.104 369.531 259.699 368.124 257.954 368.124Z" fill="#141414"/>
<path d="M252.837 338.871C254.134 338.871 255.185 337.817 255.185 336.518C255.185 335.219 254.134 334.166 252.837 334.166C251.54 334.166 250.489 335.219 250.489 336.518C250.489 337.817 251.54 338.871 252.837 338.871Z" fill="white" fill-opacity="0.4"/>
<path d="M252.837 334.167C254.121 334.167 255.185 335.212 255.185 336.519C255.185 337.805 254.141 338.871 252.837 338.871C251.553 338.871 250.489 337.826 250.489 336.519C250.489 335.212 251.533 334.167 252.837 334.167ZM252.837 333.362C251.111 333.362 249.687 334.77 249.687 336.519C249.687 338.268 251.091 339.675 252.837 339.675C254.583 339.675 255.987 338.268 255.987 336.519C255.987 334.77 254.563 333.362 252.837 333.362Z" fill="#141414"/>
<path d="M372.587 279.622C373.883 279.622 374.934 278.568 374.934 277.269C374.934 275.97 373.883 274.917 372.587 274.917C371.29 274.917 370.239 275.97 370.239 277.269C370.239 278.568 371.29 279.622 372.587 279.622Z" fill="white" fill-opacity="0.4"/>
<path d="M372.587 274.917C373.871 274.917 374.934 275.963 374.934 277.27C374.934 278.556 373.891 279.622 372.587 279.622C371.302 279.622 370.239 278.577 370.239 277.27C370.259 275.983 371.302 274.917 372.587 274.917ZM372.587 274.113C370.861 274.113 369.436 275.521 369.436 277.27C369.436 278.999 370.841 280.426 372.587 280.426C374.332 280.426 375.737 279.019 375.737 277.27C375.737 275.541 374.332 274.113 372.587 274.113Z" fill="#141414"/>
<path d="M252.235 312.875C253.532 312.875 254.583 311.822 254.583 310.523C254.583 309.224 253.532 308.171 252.235 308.171C250.938 308.171 249.887 309.224 249.887 310.523C249.887 311.822 250.938 312.875 252.235 312.875Z" fill="white" fill-opacity="0.4"/>
<path d="M252.235 308.171C253.519 308.171 254.583 309.217 254.583 310.524C254.583 311.81 253.539 312.876 252.235 312.876C250.951 312.876 249.887 311.83 249.887 310.524C249.887 309.217 250.931 308.171 252.235 308.171ZM252.235 307.367C250.509 307.367 249.085 308.775 249.085 310.524C249.085 312.273 250.489 313.68 252.235 313.68C253.981 313.68 255.385 312.273 255.385 310.524C255.385 308.775 253.961 307.367 252.235 307.367Z" fill="#141414"/>
<path d="M183.15 314.082C184.447 314.082 185.498 313.028 185.498 311.729C185.498 310.43 184.447 309.377 183.15 309.377C181.854 309.377 180.803 310.43 180.803 311.729C180.803 313.028 181.854 314.082 183.15 314.082Z" fill="white" fill-opacity="0.4"/>
<path d="M183.15 309.377C184.434 309.377 185.498 310.423 185.498 311.73C185.498 313.037 184.454 314.082 183.15 314.082C181.866 314.082 180.803 313.037 180.803 311.73C180.803 310.423 181.846 309.377 183.15 309.377ZM183.15 308.573C181.425 308.573 180 309.981 180 311.73C180 313.479 181.405 314.886 183.15 314.886C184.896 314.886 186.3 313.479 186.3 311.73C186.3 309.981 184.876 308.573 183.15 308.573Z" fill="#141414"/>
<path d="M202.152 344.621C203.449 344.621 204.5 343.567 204.5 342.268C204.5 340.969 203.449 339.916 202.152 339.916C200.856 339.916 199.804 340.969 199.804 342.268C199.804 343.567 200.856 344.621 202.152 344.621Z" fill="white" fill-opacity="0.4"/>
<path d="M202.152 339.917C203.436 339.917 204.5 340.962 204.5 342.269C204.5 343.576 203.456 344.621 202.152 344.621C200.868 344.621 199.804 343.576 199.804 342.269C199.804 340.962 200.848 339.917 202.152 339.917ZM202.152 339.112C200.426 339.112 199.002 340.52 199.002 342.269C199.002 344.018 200.406 345.425 202.152 345.425C203.898 345.425 205.302 344.018 205.302 342.269C205.302 340.52 203.878 339.112 202.152 339.112Z" fill="#141414"/>
<path d="M267.906 392.671C269.203 392.671 270.254 391.618 270.254 390.319C270.254 389.02 269.203 387.967 267.906 387.967C266.609 387.967 265.558 389.02 265.558 390.319C265.558 391.618 266.609 392.671 267.906 392.671Z" fill="white" fill-opacity="0.4"/>
<path d="M267.906 387.967C269.19 387.967 270.254 389.013 270.254 390.32C270.254 391.626 269.21 392.672 267.906 392.672C266.622 392.672 265.558 391.626 265.558 390.32C265.558 389.013 266.622 387.967 267.906 387.967ZM267.906 387.163C266.18 387.163 264.756 388.57 264.756 390.32C264.756 392.069 266.16 393.476 267.906 393.476C269.652 393.476 271.056 392.069 271.056 390.32C271.056 388.57 269.652 387.163 267.906 387.163Z" fill="#141414"/>
<path d="M202.453 247.576C203.75 247.576 204.801 246.522 204.801 245.223C204.801 243.924 203.75 242.871 202.453 242.871C201.157 242.871 200.105 243.924 200.105 245.223C200.105 246.522 201.157 247.576 202.453 247.576Z" fill="white" fill-opacity="0.4"/>
<path d="M202.453 242.891C203.737 242.891 204.801 243.937 204.801 245.243C204.801 246.55 203.757 247.596 202.453 247.596C201.149 247.596 200.105 246.55 200.105 245.243C200.105 243.937 201.149 242.891 202.453 242.891ZM202.453 242.087C200.727 242.087 199.303 243.494 199.303 245.243C199.303 246.993 200.707 248.4 202.453 248.4C204.199 248.4 205.603 246.993 205.603 245.243C205.603 243.494 204.179 242.087 202.453 242.087Z" fill="#141414"/>
<path d="M383.141 266.634C384.438 266.634 385.489 265.581 385.489 264.282C385.489 262.983 384.438 261.93 383.141 261.93C381.844 261.93 380.793 262.983 380.793 264.282C380.793 265.581 381.844 266.634 383.141 266.634Z" fill="white" fill-opacity="0.4"/>
<path d="M383.141 261.93C384.425 261.93 385.489 262.976 385.489 264.282C385.489 265.569 384.445 266.635 383.141 266.635C381.857 266.635 380.793 265.589 380.793 264.282C380.813 262.976 381.857 261.93 383.141 261.93ZM383.141 261.126C381.415 261.126 379.991 262.533 379.991 264.282C379.991 266.011 381.395 267.439 383.141 267.439C384.887 267.439 386.291 266.032 386.291 264.282C386.291 262.533 384.887 261.126 383.141 261.126Z" fill="#141414"/>
<path d="M184.053 293.234C185.35 293.234 186.401 292.181 186.401 290.882C186.401 289.582 185.35 288.529 184.053 288.529C182.757 288.529 181.706 289.582 181.706 290.882C181.706 292.181 182.757 293.234 184.053 293.234Z" fill="white" fill-opacity="0.4"/>
<path d="M184.053 288.529C185.337 288.529 186.401 289.574 186.401 290.881C186.401 292.168 185.357 293.233 184.053 293.233C182.769 293.233 181.706 292.188 181.706 290.881C181.706 289.574 182.749 288.529 184.053 288.529ZM184.053 287.725C182.328 287.725 180.903 289.132 180.903 290.881C180.903 292.63 182.308 294.038 184.053 294.038C185.799 294.038 187.203 292.63 187.203 290.881C187.203 289.132 185.779 287.725 184.053 287.725Z" fill="#141414"/>
<path d="M201.851 280.226C203.148 280.226 204.199 279.173 204.199 277.874C204.199 276.575 203.148 275.521 201.851 275.521C200.554 275.521 199.503 276.575 199.503 277.874C199.503 279.173 200.554 280.226 201.851 280.226Z" fill="white" fill-opacity="0.4"/>
<path d="M201.851 275.542C203.135 275.542 204.199 276.587 204.199 277.894C204.199 279.201 203.155 280.246 201.851 280.246C200.567 280.246 199.503 279.201 199.503 277.894C199.503 276.587 200.547 275.542 201.851 275.542ZM201.851 274.737C200.125 274.737 198.701 276.145 198.701 277.894C198.701 279.643 200.105 281.05 201.851 281.05C203.597 281.05 205.001 279.643 205.001 277.894C205.001 276.145 203.577 274.737 201.851 274.737Z" fill="#141414"/>
<path d="M254.944 198.92C256.24 198.92 257.291 197.867 257.291 196.568C257.291 195.269 256.24 194.216 254.944 194.216C253.647 194.216 252.596 195.269 252.596 196.568C252.596 197.867 253.647 198.92 254.944 198.92Z" fill="white" fill-opacity="0.4"/>
<path d="M254.944 194.216C256.228 194.216 257.291 195.262 257.291 196.569C257.291 197.875 256.248 198.921 254.944 198.921C253.66 198.921 252.596 197.875 252.596 196.569C252.596 195.262 253.64 194.216 254.944 194.216ZM254.944 193.412C253.218 193.412 251.794 194.819 251.794 196.569C251.794 198.318 253.198 199.725 254.944 199.725C256.69 199.725 258.094 198.318 258.094 196.569C258.094 194.819 256.669 193.412 254.944 193.412Z" fill="#141414"/>
<path d="M227.194 213.437C228.49 213.437 229.541 212.384 229.541 211.085C229.541 209.786 228.49 208.732 227.194 208.732C225.897 208.732 224.846 209.786 224.846 211.085C224.846 212.384 225.897 213.437 227.194 213.437Z" fill="white" fill-opacity="0.4"/>
<path d="M227.194 208.733C228.478 208.733 229.541 209.778 229.541 211.085C229.541 212.392 228.498 213.437 227.194 213.437C225.909 213.437 224.846 212.392 224.846 211.085C224.846 209.778 225.889 208.733 227.194 208.733ZM227.194 207.929C225.468 207.929 224.043 209.336 224.043 211.085C224.043 212.834 225.448 214.242 227.194 214.242C228.939 214.242 230.344 212.834 230.344 211.085C230.344 209.336 228.919 207.929 227.194 207.929Z" fill="#141414"/>
<path d="M292.045 327.392C293.341 327.392 294.392 326.339 294.392 325.04C294.392 323.741 293.341 322.688 292.045 322.688C290.748 322.688 289.697 323.741 289.697 325.04C289.697 326.339 290.748 327.392 292.045 327.392Z" fill="white" fill-opacity="0.4"/>
<path d="M292.045 322.687C293.329 322.687 294.392 323.732 294.392 325.039C294.392 326.346 293.349 327.392 292.045 327.392C290.76 327.392 289.697 326.346 289.697 325.039C289.697 323.732 290.76 322.687 292.045 322.687ZM292.045 321.883C290.319 321.883 288.894 323.29 288.894 325.039C288.894 326.788 290.299 328.196 292.045 328.196C293.79 328.196 295.195 326.788 295.195 325.039C295.195 323.29 293.77 321.883 292.045 321.883Z" fill="#141414"/>
<path d="M333.379 336.459C334.676 336.459 335.727 335.406 335.727 334.107C335.727 332.808 334.676 331.755 333.379 331.755C332.082 331.755 331.031 332.808 331.031 334.107C331.031 335.406 332.082 336.459 333.379 336.459Z" fill="white" fill-opacity="0.4"/>
<path d="M333.379 331.754C334.663 331.754 335.727 332.8 335.727 334.107C335.727 335.413 334.683 336.459 333.379 336.459C332.095 336.459 331.031 335.413 331.031 334.107C331.031 332.8 332.075 331.754 333.379 331.754ZM333.379 330.95C331.653 330.95 330.229 332.358 330.229 334.107C330.229 335.856 331.633 337.263 333.379 337.263C335.125 337.263 336.529 335.856 336.529 334.107C336.529 332.358 335.105 330.95 333.379 330.95Z" fill="#141414"/>
<path d="M264.294 231.27C265.591 231.27 266.642 230.217 266.642 228.918C266.642 227.619 265.591 226.565 264.294 226.565C262.998 226.565 261.947 227.619 261.947 228.918C261.947 230.217 262.998 231.27 264.294 231.27Z" fill="white" fill-opacity="0.4"/>
<path d="M264.294 226.566C265.578 226.566 266.642 227.611 266.642 228.918C266.642 230.205 265.599 231.27 264.294 231.27C262.99 231.27 261.947 230.225 261.947 228.918C261.947 227.611 262.99 226.566 264.294 226.566ZM264.294 225.762C262.569 225.762 261.144 227.169 261.144 228.918C261.144 230.667 262.549 232.075 264.294 232.075C266.04 232.075 267.445 230.667 267.445 228.918C267.445 227.169 266.02 225.762 264.294 225.762Z" fill="#141414"/>
<path d="M331.573 309.86C332.87 309.86 333.921 308.807 333.921 307.508C333.921 306.208 332.87 305.155 331.573 305.155C330.277 305.155 329.225 306.208 329.225 307.508C329.225 308.807 330.277 309.86 331.573 309.86Z" fill="white" fill-opacity="0.4"/>
<path d="M331.573 305.156C332.857 305.156 333.921 306.201 333.921 307.508C333.921 308.815 332.877 309.86 331.573 309.86C330.289 309.86 329.225 308.815 329.225 307.508C329.225 306.201 330.269 305.156 331.573 305.156ZM331.573 304.352C329.847 304.352 328.423 305.759 328.423 307.508C328.423 309.257 329.827 310.665 331.573 310.665C333.319 310.665 334.723 309.257 334.723 307.508C334.723 305.759 333.299 304.352 331.573 304.352Z" fill="#141414"/>
<path d="M256.148 267.539C257.444 267.539 258.495 266.485 258.495 265.186C258.495 263.887 257.444 262.834 256.148 262.834C254.851 262.834 253.8 263.887 253.8 265.186C253.8 266.485 254.851 267.539 256.148 267.539Z" fill="white" fill-opacity="0.4"/>
<path d="M256.148 262.834C257.432 262.834 258.495 263.88 258.495 265.187C258.495 266.494 257.452 267.539 256.148 267.539C254.864 267.539 253.8 266.494 253.8 265.187C253.8 263.88 254.864 262.834 256.148 262.834ZM256.148 262.03C254.422 262.03 252.998 263.438 252.998 265.187C252.998 266.936 254.402 268.343 256.148 268.343C257.893 268.343 259.298 266.936 259.298 265.187C259.298 263.438 257.873 262.03 256.148 262.03Z" fill="#141414"/>
<path d="M353.284 295.947C354.58 295.947 355.631 294.894 355.631 293.594C355.631 292.295 354.58 291.242 353.284 291.242C351.987 291.242 350.936 292.295 350.936 293.594C350.936 294.894 351.987 295.947 353.284 295.947Z" fill="white" fill-opacity="0.4"/>
<path d="M353.284 291.243C354.568 291.243 355.631 292.288 355.631 293.595C355.631 294.902 354.568 295.947 353.284 295.947C352 295.947 350.936 294.902 350.936 293.595C350.936 292.288 352 291.243 353.284 291.243ZM353.284 290.438C351.558 290.438 350.134 291.846 350.134 293.595C350.134 295.344 351.538 296.751 353.284 296.751C355.029 296.751 356.434 295.344 356.434 293.595C356.434 291.846 355.009 290.438 353.284 290.438Z" fill="#141414"/>
<path d="M299.288 211.306C300.585 211.306 301.636 210.253 301.636 208.954C301.636 207.655 300.585 206.602 299.288 206.602C297.992 206.602 296.94 207.655 296.94 208.954C296.94 210.253 297.992 211.306 299.288 211.306Z" fill="white" fill-opacity="0.4"/>
<path d="M299.288 206.622C300.572 206.622 301.636 207.667 301.636 208.974C301.636 210.261 300.592 211.326 299.288 211.326C297.984 211.326 296.94 210.281 296.94 208.974C296.94 207.667 297.984 206.622 299.288 206.622ZM299.288 205.817C297.562 205.817 296.138 207.225 296.138 208.974C296.138 210.723 297.542 212.13 299.288 212.13C301.034 212.13 302.438 210.723 302.438 208.974C302.438 207.225 301.014 205.817 299.288 205.817Z" fill="#141414"/>
<path d="M324.932 264.503C326.228 264.503 327.279 263.45 327.279 262.151C327.279 260.852 326.228 259.799 324.932 259.799C323.635 259.799 322.584 260.852 322.584 262.151C322.584 263.45 323.635 264.503 324.932 264.503Z" fill="white" fill-opacity="0.4"/>
<path d="M324.932 259.819C326.216 259.819 327.279 260.864 327.279 262.171C327.279 263.458 326.236 264.523 324.932 264.523C323.647 264.523 322.584 263.478 322.584 262.171C322.584 260.864 323.627 259.819 324.932 259.819ZM324.932 259.015C323.206 259.015 321.781 260.422 321.781 262.171C321.781 263.92 323.186 265.328 324.932 265.328C326.677 265.328 328.082 263.92 328.082 262.171C328.082 260.422 326.657 259.015 324.932 259.015Z" fill="#141414"/>
<path d="M282.694 196.508C283.991 196.508 285.042 195.455 285.042 194.156C285.042 192.857 283.991 191.804 282.694 191.804C281.398 191.804 280.346 192.857 280.346 194.156C280.346 195.455 281.398 196.508 282.694 196.508Z" fill="white" fill-opacity="0.4"/>
<path d="M282.694 191.804C283.978 191.804 285.042 192.85 285.042 194.156C285.042 195.443 283.998 196.509 282.694 196.509C281.41 196.509 280.346 195.463 280.346 194.156C280.346 192.85 281.41 191.804 282.694 191.804ZM282.694 191C280.968 191 279.544 192.407 279.544 194.156C279.544 195.906 280.948 197.313 282.694 197.313C284.44 197.313 285.844 195.906 285.844 194.156C285.844 192.407 284.42 191 282.694 191Z" fill="#141414"/>
<path d="M234.738 223.409C236.035 223.409 237.086 222.355 237.086 221.056C237.086 219.757 236.035 218.704 234.738 218.704C233.442 218.704 232.391 219.757 232.391 221.056C232.391 222.355 233.442 223.409 234.738 223.409Z" fill="white" fill-opacity="0.4"/>
<path d="M234.738 218.705C236.022 218.705 237.086 219.75 237.086 221.057C237.086 222.364 236.042 223.409 234.738 223.409C233.454 223.409 232.391 222.364 232.391 221.057C232.391 219.75 233.434 218.705 234.738 218.705ZM234.738 217.9C233.013 217.9 231.588 219.308 231.588 221.057C231.588 222.806 232.992 224.213 234.738 224.213C236.484 224.213 237.888 222.806 237.888 221.057C237.888 219.308 236.464 217.9 234.738 217.9Z" fill="#141414"/>
<path d="M339.72 221.58C341.016 221.58 342.067 220.526 342.067 219.227C342.067 217.928 341.016 216.875 339.72 216.875C338.423 216.875 337.372 217.928 337.372 219.227C337.372 220.526 338.423 221.58 339.72 221.58Z" fill="white" fill-opacity="0.4"/>
<path d="M339.72 216.895C341.004 216.895 342.067 217.94 342.067 219.247C342.067 220.554 341.024 221.6 339.72 221.6C338.436 221.6 337.372 220.554 337.372 219.247C337.372 217.94 338.415 216.895 339.72 216.895ZM339.72 216.091C337.994 216.091 336.569 217.498 336.569 219.247C336.569 220.996 337.974 222.404 339.72 222.404C341.465 222.404 342.87 220.996 342.87 219.247C342.87 217.498 341.445 216.091 339.72 216.091Z" fill="#141414"/>
<path d="M310.444 198.92C311.741 198.92 312.792 197.867 312.792 196.568C312.792 195.269 311.741 194.216 310.444 194.216C309.148 194.216 308.097 195.269 308.097 196.568C308.097 197.867 309.148 198.92 310.444 198.92Z" fill="white" fill-opacity="0.4"/>
<path d="M310.444 194.216C311.729 194.216 312.792 195.262 312.792 196.569C312.792 197.875 311.749 198.921 310.444 198.921C309.16 198.921 308.097 197.875 308.097 196.569C308.097 195.262 309.16 194.216 310.444 194.216ZM310.444 193.412C308.719 193.412 307.294 194.819 307.294 196.569C307.294 198.318 308.699 199.725 310.444 199.725C312.19 199.725 313.595 198.318 313.595 196.569C313.595 194.819 312.19 193.412 310.444 193.412Z" fill="#141414"/>
<path d="M313.474 228.837C314.771 228.837 315.822 227.784 315.822 226.485C315.822 225.186 314.771 224.133 313.474 224.133C312.178 224.133 311.127 225.186 311.127 226.485C311.127 227.784 312.178 228.837 313.474 228.837Z" fill="white" fill-opacity="0.4"/>
<path d="M313.474 224.153C314.758 224.153 315.822 225.198 315.822 226.505C315.822 227.812 314.778 228.857 313.474 228.857C312.19 228.857 311.127 227.812 311.127 226.505C311.127 225.198 312.17 224.153 313.474 224.153ZM313.474 223.349C311.749 223.349 310.324 224.756 310.324 226.505C310.324 228.254 311.729 229.662 313.474 229.662C315.22 229.662 316.624 228.254 316.624 226.505C316.624 224.756 315.2 223.349 313.474 223.349Z" fill="#141414"/>
<path d="M353.886 221.881C355.182 221.881 356.233 220.828 356.233 219.529C356.233 218.23 355.182 217.177 353.886 217.177C352.589 217.177 351.538 218.23 351.538 219.529C351.538 220.828 352.589 221.881 353.886 221.881Z" fill="white" fill-opacity="0.4"/>
<path d="M353.886 217.197C355.17 217.197 356.233 218.242 356.233 219.549C356.233 220.856 355.19 221.901 353.886 221.901C352.602 221.901 351.538 220.856 351.538 219.549C351.538 218.242 352.602 217.197 353.886 217.197ZM353.886 216.393C352.16 216.393 350.735 217.8 350.735 219.549C350.735 221.298 352.14 222.706 353.886 222.706C355.631 222.706 357.036 221.298 357.036 219.549C357.036 217.8 355.611 216.393 353.886 216.393Z" fill="#141414"/>
<path d="M371.985 242.749C373.281 242.749 374.332 241.696 374.332 240.397C374.332 239.098 373.281 238.045 371.985 238.045C370.688 238.045 369.637 239.098 369.637 240.397C369.637 241.696 370.688 242.749 371.985 242.749Z" fill="white" fill-opacity="0.4"/>
<path d="M371.985 238.045C373.269 238.045 374.332 239.091 374.332 240.398C374.332 241.704 373.289 242.75 371.985 242.75C370.701 242.75 369.637 241.704 369.637 240.398C369.637 239.091 370.701 238.045 371.985 238.045ZM371.985 237.241C370.259 237.241 368.834 238.649 368.834 240.398C368.834 242.147 370.239 243.554 371.985 243.554C373.73 243.554 375.135 242.147 375.135 240.398C375.135 238.649 373.73 237.241 371.985 237.241Z" fill="#141414"/>
<path d="M373.49 349.748C374.786 349.748 375.837 348.694 375.837 347.395C375.837 346.096 374.786 345.043 373.49 345.043C372.193 345.043 371.142 346.096 371.142 347.395C371.142 348.694 372.193 349.748 373.49 349.748Z" fill="white" fill-opacity="0.4"/>
<path d="M373.49 345.043C374.774 345.043 375.837 346.089 375.837 347.396C375.837 348.682 374.794 349.748 373.49 349.748C372.185 349.748 371.142 348.703 371.142 347.396C371.162 346.109 372.205 345.043 373.49 345.043ZM373.49 344.239C371.764 344.239 370.339 345.647 370.339 347.396C370.339 349.145 371.744 350.552 373.49 350.552C375.235 350.552 376.64 349.145 376.64 347.396C376.64 345.647 375.235 344.239 373.49 344.239Z" fill="#141414"/>
<path d="M226.291 381.795C227.587 381.795 228.638 380.742 228.638 379.443C228.638 378.144 227.587 377.091 226.291 377.091C224.994 377.091 223.943 378.144 223.943 379.443C223.943 380.742 224.994 381.795 226.291 381.795Z" fill="white" fill-opacity="0.4"/>
<path d="M226.291 377.091C227.575 377.091 228.638 378.137 228.638 379.444C228.638 380.75 227.595 381.796 226.291 381.796C225.006 381.796 223.943 380.75 223.943 379.444C223.943 378.137 224.986 377.091 226.291 377.091ZM226.291 376.287C224.565 376.287 223.14 377.694 223.14 379.444C223.14 381.193 224.545 382.6 226.291 382.6C228.036 382.6 229.441 381.193 229.441 379.444C229.441 377.694 228.016 376.287 226.291 376.287Z" fill="#141414"/>
<path d="M273.645 213.116C274.941 213.116 275.992 212.063 275.992 210.763C275.992 209.464 274.941 208.411 273.645 208.411C272.348 208.411 271.297 209.464 271.297 210.763C271.297 212.063 272.348 213.116 273.645 213.116Z" fill="white" fill-opacity="0.4"/>
<path d="M273.645 208.431C274.929 208.431 275.992 209.477 275.992 210.783C275.992 212.09 274.949 213.136 273.645 213.136C272.36 213.136 271.297 212.09 271.297 210.783C271.297 209.477 272.36 208.431 273.645 208.431ZM273.645 207.627C271.919 207.627 270.494 209.034 270.494 210.783C270.494 212.533 271.899 213.94 273.645 213.94C275.39 213.94 276.795 212.533 276.795 210.783C276.795 209.034 275.37 207.627 273.645 207.627Z" fill="#141414"/>
<path d="M374.092 337.966C375.388 337.966 376.439 336.913 376.439 335.614C376.439 334.315 375.388 333.262 374.092 333.262C372.795 333.262 371.744 334.315 371.744 335.614C371.744 336.913 372.795 337.966 374.092 337.966Z" fill="white" fill-opacity="0.4"/>
<path d="M374.092 333.262C375.376 333.262 376.439 334.308 376.439 335.614C376.439 336.921 375.396 337.967 374.092 337.967C372.787 337.967 371.744 336.921 371.744 335.614C371.744 334.308 372.807 333.262 374.092 333.262ZM374.092 332.458C372.366 332.458 370.941 333.865 370.941 335.614C370.941 337.364 372.346 338.771 374.092 338.771C375.837 338.771 377.242 337.364 377.242 335.614C377.242 333.865 375.837 332.458 374.092 332.458Z" fill="#141414"/>
<path d="M365.644 313.78C366.941 313.78 367.992 312.727 367.992 311.427C367.992 310.128 366.941 309.075 365.644 309.075C364.347 309.075 363.296 310.128 363.296 311.427C363.296 312.727 364.347 313.78 365.644 313.78Z" fill="white" fill-opacity="0.4"/>
<path d="M365.644 309.076C366.928 309.076 367.992 310.121 367.992 311.428C367.992 312.735 366.948 313.78 365.644 313.78C364.36 313.78 363.296 312.735 363.296 311.428C363.296 310.121 364.36 309.076 365.644 309.076ZM365.644 308.271C363.918 308.271 362.494 309.679 362.494 311.428C362.494 313.177 363.898 314.584 365.644 314.584C367.39 314.584 368.794 313.177 368.794 311.428C368.794 309.679 367.39 308.271 365.644 308.271Z" fill="#141414"/>
<path d="M385.87 315.289C387.166 315.289 388.217 314.235 388.217 312.936C388.217 311.637 387.166 310.584 385.87 310.584C384.573 310.584 383.522 311.637 383.522 312.936C383.522 314.235 384.573 315.289 385.87 315.289Z" fill="white" fill-opacity="0.4"/>
<path d="M385.87 310.604C387.154 310.604 388.217 311.649 388.217 312.956C388.217 314.263 387.174 315.309 385.87 315.309C384.586 315.309 383.522 314.263 383.522 312.956C383.522 311.649 384.565 310.604 385.87 310.604ZM385.87 309.8C384.144 309.8 382.719 311.207 382.719 312.956C382.719 314.705 384.124 316.113 385.87 316.113C387.615 316.113 389.02 314.705 389.02 312.956C389.02 311.207 387.595 309.8 385.87 309.8Z" fill="#141414"/>
<path d="M329.446 389.354C330.743 389.354 331.794 388.301 331.794 387.002C331.794 385.703 330.743 384.649 329.446 384.649C328.15 384.649 327.099 385.703 327.099 387.002C327.099 388.301 328.15 389.354 329.446 389.354Z" fill="white" fill-opacity="0.4"/>
<path d="M329.446 384.65C330.73 384.65 331.794 385.695 331.794 387.002C331.794 388.289 330.751 389.354 329.446 389.354C328.162 389.354 327.099 388.309 327.099 387.002C327.119 385.695 328.162 384.65 329.446 384.65ZM329.446 383.846C327.721 383.846 326.296 385.253 326.296 387.002C326.296 388.751 327.701 390.159 329.446 390.159C331.192 390.159 332.597 388.751 332.597 387.002C332.597 385.253 331.192 383.846 329.446 383.846Z" fill="#141414"/>
</g>
<defs>
<filter id="filter0_b_122_8284" x="247.673" y="233.221" width="88.4016" height="95.6172" filterUnits="userSpaceOnUse" color-interpolation-filters="sRGB">
<feFlood flood-opacity="0" result="BackgroundImageFix"/>
<feGaussianBlur in="BackgroundImageFix" stdDeviation="2"/>
<feComposite in2="SourceAlpha" operator="in" result="effect1_backgroundBlur_122_8284"/>
<feBlend mode="normal" in="SourceGraphic" in2="effect1_backgroundBlur_122_8284" result="shape"/>
</filter>
<filter id="filter1_b_122_8284" x="197.63" y="216.514" width="70.6639" height="85.9873" filterUnits="userSpaceOnUse" color-interpolation-filters="sRGB">
<feFlood flood-opacity="0" result="BackgroundImageFix"/>
<feGaussianBlur in="BackgroundImageFix" stdDeviation="2"/>
<feComposite in2="SourceAlpha" operator="in" result="effect1_backgroundBlur_122_8284"/>
<feBlend mode="normal" in="SourceGraphic" in2="effect1_backgroundBlur_122_8284" result="shape"/>
</filter>
<filter id="filter2_b_122_8284" x="308.311" y="213.98" width="68.6573" height="83.4541" filterUnits="userSpaceOnUse" color-interpolation-filters="sRGB">
<feFlood flood-opacity="0" result="BackgroundImageFix"/>
<feGaussianBlur in="BackgroundImageFix" stdDeviation="2"/>
<feComposite in2="SourceAlpha" operator="in" result="effect1_backgroundBlur_122_8284"/>
<feBlend mode="normal" in="SourceGraphic" in2="effect1_backgroundBlur_122_8284" result="shape"/>
</filter>
<filter id="filter3_b_122_8284" x="248.175" y="320.838" width="88.863" height="71.3105" filterUnits="userSpaceOnUse" color-interpolation-filters="sRGB">
<feFlood flood-opacity="0" result="BackgroundImageFix"/>
<feGaussianBlur in="BackgroundImageFix" stdDeviation="2"/>
<feComposite in2="SourceAlpha" operator="in" result="effect1_backgroundBlur_122_8284"/>
<feBlend mode="normal" in="SourceGraphic" in2="effect1_backgroundBlur_122_8284" result="shape"/>
</filter>
<filter id="filter4_b_122_8284" x="179.431" y="259.056" width="38.3186" height="86.9922" filterUnits="userSpaceOnUse" color-interpolation-filters="sRGB">
<feFlood flood-opacity="0" result="BackgroundImageFix"/>
<feGaussianBlur in="BackgroundImageFix" stdDeviation="2"/>
<feComposite in2="SourceAlpha" operator="in" result="effect1_backgroundBlur_122_8284"/>
<feBlend mode="normal" in="SourceGraphic" in2="effect1_backgroundBlur_122_8284" result="shape"/>
</filter>
<filter id="filter5_b_122_8284" x="362.908" y="259.337" width="27.2025" height="80.1367" filterUnits="userSpaceOnUse" color-interpolation-filters="sRGB">
<feFlood flood-opacity="0" result="BackgroundImageFix"/>
<feGaussianBlur in="BackgroundImageFix" stdDeviation="2"/>
<feComposite in2="SourceAlpha" operator="in" result="effect1_backgroundBlur_122_8284"/>
<feBlend mode="normal" in="SourceGraphic" in2="effect1_backgroundBlur_122_8284" result="shape"/>
</filter>
<filter id="filter6_b_122_8284" x="197.63" y="337.043" width="74.3358" height="57.1963" filterUnits="userSpaceOnUse" color-interpolation-filters="sRGB">
<feFlood flood-opacity="0" result="BackgroundImageFix"/>
<feGaussianBlur in="BackgroundImageFix" stdDeviation="2"/>
<feComposite in2="SourceAlpha" operator="in" result="effect1_backgroundBlur_122_8284"/>
<feBlend mode="normal" in="SourceGraphic" in2="effect1_backgroundBlur_122_8284" result="shape"/>
</filter>
<filter id="filter7_b_122_8284" x="309.173" y="331.474" width="68.8179" height="61.2578" filterUnits="userSpaceOnUse" color-interpolation-filters="sRGB">
<feFlood flood-opacity="0" result="BackgroundImageFix"/>
<feGaussianBlur in="BackgroundImageFix" stdDeviation="2"/>
<feComposite in2="SourceAlpha" operator="in" result="effect1_backgroundBlur_122_8284"/>
<feBlend mode="normal" in="SourceGraphic" in2="effect1_backgroundBlur_122_8284" result="shape"/>
</filter>
<filter id="filter8_b_122_8284" x="203.69" y="189.231" width="82.4021" height="45.415" filterUnits="userSpaceOnUse" color-interpolation-filters="sRGB">
<feFlood flood-opacity="0" result="BackgroundImageFix"/>
<feGaussianBlur in="BackgroundImageFix" stdDeviation="2"/>
<feComposite in2="SourceAlpha" operator="in" result="effect1_backgroundBlur_122_8284"/>
<feBlend mode="normal" in="SourceGraphic" in2="effect1_backgroundBlur_122_8284" result="shape"/>
</filter>
<filter id="filter9_b_122_8284" x="279.176" y="189.231" width="77.3055" height="33.252" filterUnits="userSpaceOnUse" color-interpolation-filters="sRGB">
<feFlood flood-opacity="0" result="BackgroundImageFix"/>
<feGaussianBlur in="BackgroundImageFix" stdDeviation="2"/>
<feComposite in2="SourceAlpha" operator="in" result="effect1_backgroundBlur_122_8284"/>
<feBlend mode="normal" in="SourceGraphic" in2="effect1_backgroundBlur_122_8284" result="shape"/>
</filter>
<linearGradient id="paint0_linear_122_8284" x1="265.131" y1="252.608" x2="298.313" y2="333.214" gradientUnits="userSpaceOnUse">
<stop stop-color="white" stop-opacity="0.52"/>
<stop offset="1" stop-color="white" stop-opacity="0"/>
</linearGradient>
<linearGradient id="paint1_linear_122_8284" x1="212.119" y1="234.21" x2="244.425" y2="302.927" gradientUnits="userSpaceOnUse">
<stop stop-color="white" stop-opacity="0.52"/>
<stop offset="1" stop-color="white" stop-opacity="0"/>
</linearGradient>
<linearGradient id="paint2_linear_122_8284" x1="322.463" y1="231.232" x2="353.71" y2="297.728" gradientUnits="userSpaceOnUse">
<stop stop-color="white" stop-opacity="0.52"/>
<stop offset="1" stop-color="white" stop-opacity="0"/>
</linearGradient>
<linearGradient id="paint3_linear_122_8284" x1="265.71" y1="335.956" x2="284.235" y2="398.592" gradientUnits="userSpaceOnUse">
<stop stop-color="white" stop-opacity="0.52"/>
<stop offset="1" stop-color="white" stop-opacity="0"/>
</linearGradient>
<linearGradient id="paint4_linear_122_8284" x1="188.506" y1="276.928" x2="230.994" y2="320.098" gradientUnits="userSpaceOnUse">
<stop stop-color="white" stop-opacity="0.52"/>
<stop offset="1" stop-color="white" stop-opacity="0"/>
</linearGradient>
<linearGradient id="paint5_linear_122_8284" x1="370.122" y1="276.005" x2="406.666" y2="301.757" gradientUnits="userSpaceOnUse">
<stop stop-color="white" stop-opacity="0.52"/>
<stop offset="1" stop-color="white" stop-opacity="0"/>
</linearGradient>
<linearGradient id="paint6_linear_122_8284" x1="212.734" y1="349.683" x2="226.483" y2="398.761" gradientUnits="userSpaceOnUse">
<stop stop-color="white" stop-opacity="0.52"/>
<stop offset="1" stop-color="white" stop-opacity="0"/>
</linearGradient>
<linearGradient id="paint7_linear_122_8284" x1="323.353" y1="344.827" x2="340.438" y2="396.474" gradientUnits="userSpaceOnUse">
<stop stop-color="white" stop-opacity="0.52"/>
<stop offset="1" stop-color="white" stop-opacity="0"/>
</linearGradient>
<linearGradient id="paint8_linear_122_8284" x1="220.143" y1="199.802" x2="227.524" y2="238.655" gradientUnits="userSpaceOnUse">
<stop stop-color="white" stop-opacity="0.52"/>
<stop offset="1" stop-color="white" stop-opacity="0"/>
</linearGradient>
<linearGradient id="paint9_linear_122_8284" x1="294.776" y1="197.666" x2="298.446" y2="224.329" gradientUnits="userSpaceOnUse">
<stop stop-color="white" stop-opacity="0.52"/>
<stop offset="1" stop-color="white" stop-opacity="0"/>
</linearGradient>
<clipPath id="clip0_122_8284">
<rect width="209" height="207" fill="white" transform="translate(180 191)"/>
</clipPath>
</defs>
</svg>