<svg width="142" height="137" viewBox="0 0 142 137" fill="none" xmlns="http://www.w3.org/2000/svg">
<g opacity="0.4">
<g clip-path="url(#clip0_835_2170)">
<path d="M71.4358 55.2325L64.3704 56.5376L59.1484 61.495L57.4379 68.535L59.7703 75.411L72.5622 80.7074L78.9588 77.4384L82.5779 71.1933L82.2523 63.9442L71.4358 55.2325Z" fill="url(#paint0_linear_835_2170)"/>
<path d="M75.5974 12.4472L68.5348 13.7608L63.3212 18.7155L62.6413 29.5658L63.9404 32.623L69.5783 37.1586L76.7323 37.9193L83.1289 34.6504L86.7396 28.408L82.2613 15.2064L75.5974 12.4472Z" fill="url(#paint1_linear_835_2170)"/>
<path d="M67.1168 99.4954L60.0598 100.798L54.8378 105.755L53.1274 112.795L55.4597 119.671L61.0976 124.207L74.6483 121.699L78.2562 115.448L77.9417 108.204L73.7891 102.252L67.1168 99.4954Z" fill="url(#paint2_linear_835_2170)"/>
<path d="M120.605 43.0051L115.737 37.6301L101.95 37.932L97.3955 43.5201L96.5823 50.7222L99.7512 57.2541L105.909 61.04L113.093 60.8804L119.033 56.8284L121.829 50.1623L120.605 43.0051Z" fill="url(#paint3_linear_835_2170)"/>
<path d="M42.7786 81.1106L37.9108 75.7356L30.958 73.8394L24.1241 76.0375L18.7561 88.8277L21.925 95.3596L28.0833 99.1455L35.2664 98.9859L41.2041 94.9253L44.0033 88.2677L42.7786 81.1106Z" fill="url(#paint4_linear_835_2170)"/>
<path d="M115.281 102.159L117.832 95.393L116.355 88.2888L111.301 83.0863L104.285 81.4548L97.5332 83.9082L93.1872 89.6545L96.0334 103.297L102.322 106.853L109.496 106.433L115.281 102.159Z" fill="url(#paint5_linear_835_2170)"/>
<path d="M46.1821 48.8159L48.733 42.0503L47.2448 34.9403L42.1938 29.7463L35.1776 28.1148L25.2531 33.1195L23.5267 43.5457L26.9344 49.9538L33.223 53.5099L40.3968 53.0904L46.1821 48.8159Z" fill="url(#paint6_linear_835_2170)"/>
<path d="M72.5738 80.9193L59.6116 75.5557L57.2327 68.5349L58.9747 61.3909L64.2728 56.3527L71.4784 55.0212L82.4424 63.8452L82.7698 71.244L79.0996 77.5901L72.5738 80.9193ZM59.9244 75.2578L72.5461 80.4868L78.8078 77.2894L82.3647 71.1395L82.0492 64.0374L71.3718 55.4406L64.4549 56.7167L59.3202 61.5991L57.6359 68.518L59.9244 75.2578Z" fill="white"/>
<path d="M76.7697 38.1229L69.501 37.3521L63.7768 32.7504L62.4392 29.6023L63.1313 18.6165L68.4463 13.5729L75.6238 12.2411L82.4272 15.0587L86.9603 28.4306L83.273 34.8103L76.7697 38.1229ZM69.6549 36.9645L76.6916 37.7067L82.987 34.4984L86.5268 28.3822L82.106 15.3593L75.5816 12.6585L68.6311 13.9455L63.5105 18.8139L62.8371 29.5401L64.0976 32.5063L69.6549 36.9645Z" fill="white"/>
<path d="M74.7731 121.884L61.046 124.421L55.294 119.79L52.9261 112.803L54.668 105.659L59.9662 100.621L67.1437 99.2894L73.9137 102.09L78.1328 108.133L78.4604 115.504L74.7731 121.884ZM61.1498 123.993L74.5267 121.522L78.0665 115.405L77.7512 108.275L73.6678 102.422L67.11 99.7041L60.1595 100.991L55.0247 105.873L53.3404 112.792L55.6371 119.558L61.1498 123.993Z" fill="white"/>
<path d="M113.155 61.0761L105.852 61.2368L99.5986 57.3875L96.38 50.7589L97.2108 43.4383L101.859 37.7358L115.828 37.4223L120.787 42.9087L122.03 50.1819L119.185 56.9575L113.155 61.0761ZM105.966 60.843L113.038 60.6819L118.877 56.6906L121.625 50.1339L120.419 43.0928L115.66 37.8238L102.049 38.1254L97.5959 43.5962L96.792 50.6827L99.9085 57.1094L105.966 60.843Z" fill="white"/>
<path d="M35.3297 99.1816L28.0262 99.3423L21.7732 95.493L18.5326 88.8245L23.9689 75.8714L30.9459 73.6273L38.0076 75.5448L42.9503 81.0084L44.1938 88.2816L41.349 95.0572L35.3297 99.1816ZM28.1383 98.94L35.2094 98.7788L41.0486 94.7875L43.7968 88.2309L42.5908 81.1898L37.8064 75.9007L30.9708 74.0513L24.28 76.2034L18.9692 88.825L22.0747 95.2176L28.1383 98.94Z" fill="white"/>
<path d="M109.567 106.626L102.276 107.055L95.8616 103.427L92.9774 89.6092L97.414 83.7398L104.275 81.2513L111.403 82.9126L116.537 88.1925L118.044 95.4186L115.445 102.294L109.567 106.626ZM102.368 106.65L109.422 106.231L115.108 102.026L117.619 95.3674L116.158 88.3708L111.191 83.2627L104.295 81.6582L97.6495 84.0679L93.3994 89.7083L96.2077 103.175L102.368 106.65Z" fill="white"/>
<path d="M40.4689 53.2836L33.1775 53.7129L26.7857 50.096L23.3228 43.5741L25.07 32.9816L35.1574 27.9057L42.2938 29.5643L47.4281 34.8442L48.935 42.0702L46.3358 48.9453L40.4689 53.2836ZM33.27 53.3074L40.3234 52.889L46.0102 48.6837L48.5211 42.0249L47.0601 35.0283L42.0925 29.9202L35.2075 28.3216L25.4263 33.252L23.7291 43.5092L27.0732 49.8063L33.27 53.3074Z" fill="white"/>
<path d="M72.7823 81.134L56.979 68.4098L71.704 65.6836L71.2418 55.2381L69.5544 37.3164L69.952 37.2824L71.6281 55.2266L72.0907 65.6155L82.197 63.7456L99.6821 57.0698L99.8221 57.4474L82.3061 64.1425L82.2892 64.1479L72.1102 66.0225L72.7823 81.134ZM57.9009 68.6486L72.349 80.2778L71.7178 66.1018L57.9009 68.6486Z" fill="white"/>
<path d="M46.3161 48.6687L46.04 48.9565L59.0134 61.6366L59.2895 61.3488L46.3161 48.6687Z" fill="white"/>
<path d="M61.2702 124.311L60.9274 124.111L64.3227 118.238L55.0741 119.945L66.9409 99.4108L72.445 80.5472L72.8248 80.6598L67.3007 99.5768L67.2894 99.5993L55.845 119.397L64.5835 117.779L73.8315 101.778L78.5208 115.607L64.8384 118.138L61.2702 124.311ZM65.0992 117.679L78.0025 115.294L73.7379 102.728L65.0992 117.679Z" fill="white"/>
<path d="M106.675 95.0368L97.4053 84.0618L81.0821 74.7451L81.2777 74.4004L97.6594 83.7547L106.97 94.7727L106.675 95.0368Z" fill="white"/>
<path d="M33.0221 53.4887L30.7588 73.8164L31.1546 73.8639L33.4179 53.5362L33.0221 53.4887Z" fill="white"/>
<path d="M111.494 83.1089L111.102 83.0752L112.891 60.9173L101.801 38.0741L86.6351 28.573L86.8418 28.2341L102.102 37.7987L113.294 60.8438L111.494 83.1089Z" fill="white"/>
<path d="M41.3241 94.7668L41.0791 95.082L54.7206 105.912L54.9656 105.597L41.3241 94.7668Z" fill="white"/>
<path d="M37.7607 75.6036L21.7695 95.2295L22.0778 95.486L38.0689 75.8601L37.7607 75.6036Z" fill="white"/>
<path d="M28.1911 99.308L27.9724 98.9745L43.6336 88.2739L24.022 76.2112L24.226 75.8638L44.3615 88.2558L28.1911 99.308Z" fill="white"/>
<path d="M40.6794 53.4785L23.0567 43.4997L37.1298 38.4003L34.9868 28.1574L35.3708 28.0809L37.4974 38.2727L47.1788 34.7643L62.6517 29.2241L62.7833 29.6044L47.3104 35.1447L37.5785 38.6693L40.6794 53.4785ZM24.0021 43.5807L40.1113 52.6939L37.2082 38.7884L24.0021 43.5807Z" fill="white"/>
<path d="M84.4929 32.1359L77.4991 20.0064L64.0789 32.7661L63.8095 32.4771L77.3029 19.6562L73.524 13.1045L73.8697 12.9088L77.6043 19.3808L82.1416 15.0663L82.4766 15.1839L84.8717 32.0141L84.4929 32.1359ZM77.7921 19.7337L84.3216 31.0546L82.1237 15.6168L77.7921 19.7337Z" fill="white"/>
<path d="M113.185 61.1701L96.1094 50.668L120.957 42.6855L113.185 61.1701ZM97.0546 50.7772L112.999 60.5914L120.244 43.328L97.0546 50.7772Z" fill="white"/>
<path d="M109.443 107.136L107 95.4397L96.1187 103.476L96.085 103.487L77.9829 108.389L77.8766 108L95.945 103.109L106.908 95.0091L104.083 81.4916L104.467 81.4151L107.251 94.7484L116.765 87.7157L109.443 107.136ZM107.354 95.1848L109.557 105.728L115.931 88.8479L107.354 95.1848Z" fill="white"/>
<path d="M42.8392 81.2981L42.7076 80.9178L59.6761 75.2346L72.2419 65.6799L64.218 56.6711L64.5138 56.4069L72.8181 65.7388L59.8639 75.5875L42.8392 81.2981Z" fill="white"/>
<path d="M72.7046 65.606L72.3564 65.7988L78.789 77.5295L79.1372 77.3366L72.7046 65.606Z" fill="white"/>
<path d="M102.272 39.1061C102.816 38.9312 103.113 38.3435 102.936 37.7936C102.759 37.2436 102.175 36.9395 101.631 37.1144C101.087 37.2894 100.79 37.877 100.967 38.427C101.144 38.977 101.728 39.281 102.272 39.1061Z" fill="white"/>
<path d="M101.634 37.123C102.173 36.9497 102.761 37.2489 102.939 37.8021C103.117 38.3553 102.822 38.9387 102.275 39.1147C101.736 39.2879 101.148 38.9888 100.97 38.4355C100.792 37.8823 101.095 37.2962 101.634 37.123ZM101.524 36.7825C100.801 37.0153 100.395 37.8033 100.633 38.5438C100.871 39.2843 101.652 39.6906 102.384 39.4551C103.116 39.2196 103.514 38.4343 103.276 37.6938C103.037 36.9533 102.257 36.547 101.524 36.7825Z" fill="#141414"/>
<path d="M115.841 38.6203C116.385 38.4454 116.682 37.8577 116.505 37.3077C116.329 36.7577 115.744 36.4537 115.201 36.6286C114.657 36.8035 114.359 37.3912 114.536 37.9411C114.713 38.4911 115.297 38.7952 115.841 38.6203Z" fill="white"/>
<path d="M115.203 36.6371C115.742 36.4639 116.33 36.763 116.508 37.3163C116.686 37.8695 116.391 38.4529 115.844 38.6288C115.297 38.8048 114.717 38.5029 114.539 37.9497C114.361 37.3964 114.665 36.8104 115.203 36.6371ZM115.094 36.2967C114.37 36.5295 113.964 37.3175 114.202 38.058C114.44 38.7985 115.221 39.2048 115.953 38.9693C116.686 38.7338 117.083 37.9485 116.845 37.208C116.607 36.4675 115.826 36.0612 115.094 36.2967Z" fill="#141414"/>
<path d="M121.314 44.0543C121.858 43.8794 122.155 43.2918 121.978 42.7418C121.801 42.1918 121.217 41.8878 120.673 42.0627C120.129 42.2376 119.832 42.8252 120.009 43.3752C120.186 43.9252 120.77 44.2293 121.314 44.0543Z" fill="white"/>
<path d="M120.676 42.0712C121.215 41.898 121.803 42.1971 121.981 42.7503C122.156 43.2951 121.864 43.8869 121.317 44.0629C120.77 44.2389 120.19 43.937 120.012 43.3838C119.834 42.8305 120.137 42.2445 120.676 42.0712ZM120.566 41.7308C119.843 41.9636 119.437 42.7516 119.675 43.4921C119.91 44.224 120.694 44.6389 121.426 44.4034C122.158 44.1678 122.556 43.3826 122.318 42.6421C122.079 41.9016 121.29 41.498 120.566 41.7308Z" fill="#141414"/>
<path d="M113.229 61.8517C113.773 61.6768 114.07 61.0892 113.893 60.5392C113.716 59.9892 113.132 59.6851 112.588 59.86C112.044 60.035 111.747 60.6226 111.924 61.1726C112.101 61.7226 112.685 62.0266 113.229 61.8517Z" fill="white"/>
<path d="M112.588 59.8598C113.127 59.6866 113.715 59.9857 113.893 60.5389C114.071 61.0922 113.776 61.6755 113.229 61.8515C112.682 62.0274 112.102 61.7256 111.924 61.1723C111.746 60.6191 112.041 60.0358 112.588 59.8598ZM112.479 59.5193C111.755 59.7521 111.349 60.5401 111.587 61.2806C111.825 62.0211 112.606 62.4274 113.338 62.1919C114.07 61.9564 114.468 61.1711 114.23 60.4306C113.992 59.6902 113.202 59.2865 112.479 59.5193Z" fill="#141414"/>
<path d="M118.982 58.3952C119.526 58.2203 119.823 57.6326 119.646 57.0826C119.469 56.5326 118.885 56.2286 118.341 56.4035C117.797 56.5784 117.5 57.1661 117.677 57.7161C117.854 58.266 118.438 58.5701 118.982 58.3952Z" fill="white"/>
<path d="M118.341 56.4033C118.88 56.23 119.468 56.5291 119.646 57.0824C119.824 57.6356 119.529 58.219 118.982 58.3949C118.435 58.5709 117.855 58.269 117.677 57.7158C117.499 57.1626 117.794 56.5792 118.341 56.4033ZM118.231 56.0628C117.508 56.2956 117.102 57.0836 117.34 57.8241C117.578 58.5646 118.359 58.9709 119.091 58.7354C119.823 58.4999 120.221 57.7146 119.983 56.9741C119.744 56.2336 118.955 55.83 118.231 56.0628Z" fill="#141414"/>
<path d="M122.246 52.0358C122.79 51.8609 123.088 51.2732 122.911 50.7232C122.734 50.1733 122.15 49.8692 121.606 50.0441C121.062 50.219 120.764 50.8067 120.941 51.3567C121.118 51.9067 121.703 52.2107 122.246 52.0358Z" fill="white"/>
<path d="M121.606 50.0439C122.144 49.8706 122.733 50.1698 122.911 50.723C123.089 51.2762 122.793 51.8596 122.246 52.0356C121.699 52.2115 121.119 51.9097 120.941 51.3564C120.763 50.8032 121.059 50.2198 121.606 50.0439ZM121.496 49.7034C120.772 49.9362 120.366 50.7242 120.605 51.4647C120.843 52.2052 121.624 52.6115 122.356 52.376C123.088 52.1405 123.485 51.3552 123.247 50.6147C123.009 49.8742 122.22 49.4706 121.496 49.7034Z" fill="#141414"/>
<path d="M99.721 58.3722C100.265 58.1973 100.562 57.6097 100.385 57.0597C100.208 56.5097 99.6242 56.2056 99.0804 56.3806C98.5366 56.5555 98.2391 57.1431 98.416 57.6931C98.5929 58.2431 99.1772 58.5471 99.721 58.3722Z" fill="white"/>
<path d="M99.0802 56.3808C99.6189 56.2076 100.207 56.5067 100.385 57.0599C100.56 57.6046 100.268 58.1965 99.7208 58.3725C99.1822 58.5457 98.5938 58.2466 98.4159 57.6933C98.2407 57.1486 98.5332 56.5567 99.0802 56.3808ZM98.9707 56.0403C98.247 56.2731 97.841 57.0611 98.0792 57.8016C98.3174 58.5421 99.0981 58.9484 99.8304 58.7129C100.563 58.4774 100.96 57.6921 100.722 56.9516C100.484 56.2111 99.6945 55.8075 98.9707 56.0403Z" fill="#141414"/>
<path d="M107.055 48.4342C107.599 48.2593 107.896 47.6717 107.719 47.1217C107.542 46.5717 106.958 46.2676 106.414 46.4426C105.871 46.6175 105.573 47.2051 105.75 47.7551C105.927 48.3051 106.511 48.6091 107.055 48.4342Z" fill="white"/>
<path d="M106.414 46.4423C106.953 46.2691 107.541 46.5682 107.719 47.1214C107.897 47.6747 107.602 48.258 107.055 48.434C106.516 48.6072 105.928 48.3081 105.75 47.7549C105.572 47.2016 105.867 46.6183 106.414 46.4423ZM106.305 46.1019C105.581 46.3347 105.175 47.1227 105.413 47.8631C105.651 48.6036 106.432 49.01 107.164 48.7744C107.897 48.5389 108.294 47.7537 108.056 47.0132C107.818 46.2727 107.029 45.8691 106.305 46.1019Z" fill="#141414"/>
<path d="M111.394 84.1833C111.938 84.0083 112.235 83.4207 112.058 82.8707C111.881 82.3207 111.297 82.0167 110.753 82.1916C110.209 82.3665 109.912 82.9542 110.089 83.5041C110.266 84.0541 110.85 84.3582 111.394 84.1833Z" fill="white"/>
<path d="M110.753 82.1918C111.292 82.0186 111.88 82.3177 112.058 82.871C112.236 83.4242 111.941 84.0075 111.394 84.1835C110.855 84.3567 110.267 84.0576 110.089 83.5044C109.911 82.9511 110.206 82.3678 110.753 82.1918ZM110.644 81.8514C109.92 82.0842 109.514 82.8722 109.752 83.6127C109.99 84.3532 110.771 84.7595 111.503 84.524C112.235 84.2885 112.633 83.5032 112.395 82.7627C112.157 82.0222 111.367 81.6186 110.644 81.8514Z" fill="#141414"/>
<path d="M107.53 96.0768C108.073 95.9019 108.371 95.3142 108.194 94.7643C108.017 94.2143 107.433 93.9102 106.889 94.0851C106.345 94.2601 106.048 94.8477 106.225 95.3977C106.401 95.9477 106.986 96.2517 107.53 96.0768Z" fill="white"/>
<path d="M106.889 94.0854C107.427 93.9121 108.016 94.2113 108.194 94.7645C108.372 95.3177 108.076 95.9011 107.529 96.0771C106.982 96.253 106.402 95.9512 106.224 95.3979C106.047 94.8447 106.35 94.2586 106.889 94.0854ZM106.779 93.7449C106.056 93.9777 105.65 94.7657 105.888 95.5062C106.126 96.2467 106.907 96.653 107.639 96.4175C108.371 96.182 108.769 95.3967 108.53 94.6562C108.292 93.9157 107.512 93.5094 106.779 93.7449Z" fill="#141414"/>
<path d="M97.9573 85.2277C98.5011 85.0528 98.7986 84.4651 98.6217 83.9151C98.4448 83.3652 97.8605 83.0611 97.3167 83.236C96.7729 83.4109 96.4754 83.9986 96.6523 84.5486C96.8292 85.0986 97.4135 85.4026 97.9573 85.2277Z" fill="white"/>
<path d="M97.3195 83.2446C97.8581 83.0713 98.4466 83.3704 98.6245 83.9237C98.8024 84.4769 98.5072 85.0603 97.9601 85.2362C97.4131 85.4122 96.8331 85.1104 96.6551 84.5571C96.4772 84.0039 96.7809 83.4178 97.3195 83.2446ZM97.21 82.9041C96.4862 83.1369 96.0803 83.9249 96.3185 84.6654C96.5566 85.4059 97.3374 85.8122 98.0696 85.5767C98.8018 85.3412 99.1993 84.5559 98.9611 83.8154C98.723 83.0749 97.9422 82.6686 97.21 82.9041Z" fill="#141414"/>
<path d="M93.2151 90.7536C93.759 90.5786 94.0564 89.991 93.8795 89.441C93.7026 88.891 93.1184 88.587 92.5745 88.7619C92.0307 88.9368 91.7332 89.5245 91.9101 90.0744C92.087 90.6244 92.6713 90.9285 93.2151 90.7536Z" fill="white"/>
<path d="M92.5773 88.7704C93.116 88.5972 93.7044 88.8963 93.8823 89.4496C94.0603 90.0028 93.765 90.5862 93.2179 90.7621C92.6793 90.9354 92.0909 90.6362 91.9129 90.083C91.735 89.5298 92.0387 88.9437 92.5773 88.7704ZM92.4678 88.43C91.744 88.6628 91.3381 89.4508 91.5763 90.1913C91.8145 90.9318 92.5952 91.3381 93.3274 91.1026C94.0596 90.8671 94.4571 90.0818 94.219 89.3413C93.9808 88.6008 93.1916 88.1972 92.4678 88.43Z" fill="#141414"/>
<path d="M104.46 82.3185C105.004 82.1436 105.302 81.5559 105.125 81.006C104.948 80.456 104.363 80.1519 103.82 80.3268C103.276 80.5018 102.978 81.0894 103.155 81.6394C103.332 82.1894 103.916 82.4934 104.46 82.3185Z" fill="white"/>
<path d="M103.82 80.3271C104.358 80.1538 104.947 80.453 105.124 81.0062C105.302 81.5594 105.007 82.1428 104.46 82.3188C103.913 82.4947 103.333 82.1929 103.155 81.6396C102.977 81.0864 103.281 80.5003 103.82 80.3271ZM103.71 79.9866C102.986 80.2194 102.58 81.0074 102.818 81.7479C103.057 82.4884 103.837 82.8947 104.57 82.6592C105.302 82.4237 105.699 81.6384 105.461 80.8979C105.223 80.1574 104.442 79.7511 103.71 79.9866Z" fill="#141414"/>
<path d="M115.935 103.498C116.479 103.323 116.776 102.735 116.599 102.185C116.422 101.635 115.838 101.331 115.294 101.506C114.75 101.681 114.453 102.269 114.63 102.819C114.807 103.369 115.391 103.673 115.935 103.498Z" fill="white"/>
<path d="M115.294 101.506C115.833 101.333 116.421 101.632 116.599 102.185C116.774 102.73 116.482 103.322 115.935 103.498C115.396 103.671 114.808 103.372 114.63 102.819C114.463 102.271 114.755 101.68 115.294 101.506ZM115.185 101.166C114.461 101.399 114.055 102.187 114.293 102.927C114.529 103.659 115.312 104.074 116.044 103.838C116.776 103.603 117.174 102.818 116.936 102.077C116.7 101.345 115.917 100.93 115.185 101.166Z" fill="#141414"/>
<path d="M96.3274 103.982C96.8713 103.807 97.1687 103.219 96.9918 102.669C96.8149 102.119 96.2307 101.815 95.6868 101.99C95.143 102.165 94.8456 102.752 95.0225 103.302C95.1993 103.852 95.7836 104.157 96.3274 103.982Z" fill="white"/>
<path d="M95.6896 101.998C96.2283 101.825 96.8167 102.124 96.9946 102.678C97.1726 103.231 96.8773 103.814 96.3302 103.99C95.7916 104.163 95.2032 103.864 95.0252 103.311C94.8473 102.758 95.1426 102.174 95.6896 101.998ZM95.5801 101.658C94.8563 101.891 94.4504 102.679 94.6886 103.419C94.9268 104.16 95.7075 104.566 96.4397 104.331C97.1719 104.095 97.5694 103.31 97.3313 102.569C97.0931 101.829 96.3039 101.425 95.5801 101.658Z" fill="#141414"/>
<path d="M73.9388 103.265C74.4826 103.09 74.7801 102.503 74.6032 101.953C74.4263 101.403 73.842 101.099 73.2982 101.274C72.7543 101.449 72.4569 102.036 72.6338 102.586C72.8107 103.136 73.3949 103.44 73.9388 103.265Z" fill="white"/>
<path d="M73.298 101.273C73.8367 101.1 74.4251 101.399 74.603 101.952C74.781 102.506 74.4857 103.089 73.9386 103.265C73.4 103.438 72.8116 103.139 72.6336 102.586C72.4557 102.033 72.7594 101.447 73.298 101.273ZM73.1885 100.933C72.4647 101.166 72.0588 101.954 72.297 102.694C72.5352 103.435 73.3159 103.841 74.0481 103.605C74.7803 103.37 75.1778 102.585 74.9397 101.844C74.7015 101.104 73.9123 100.7 73.1885 100.933Z" fill="#141414"/>
<path d="M65.0833 118.84C65.6271 118.665 65.9246 118.077 65.7477 117.527C65.5708 116.977 64.9865 116.673 64.4427 116.848C63.8989 117.023 63.6014 117.611 63.7783 118.161C63.9552 118.711 64.5395 119.015 65.0833 118.84Z" fill="white"/>
<path d="M64.4426 116.848C64.9812 116.675 65.5696 116.974 65.7475 117.527C65.9255 118.08 65.6302 118.664 65.0832 118.84C64.5445 119.013 63.9561 118.714 63.7782 118.161C63.6002 117.607 63.9039 117.021 64.4426 116.848ZM64.3331 116.508C63.6093 116.74 63.2033 117.528 63.4415 118.269C63.6797 119.009 64.4605 119.416 65.1927 119.18C65.9249 118.945 66.3224 118.159 66.0842 117.419C65.846 116.678 65.0568 116.275 64.3331 116.508Z" fill="#141414"/>
<path d="M78.2561 116.603C78.8 116.428 79.0974 115.84 78.9205 115.29C78.7436 114.74 78.1594 114.436 77.6155 114.611C77.0717 114.786 76.7743 115.374 76.9512 115.924C77.1281 116.474 77.7123 116.778 78.2561 116.603Z" fill="white"/>
<path d="M77.6183 114.62C78.157 114.446 78.7454 114.745 78.9233 115.299C79.0985 115.843 78.806 116.435 78.2589 116.611C77.7203 116.784 77.1319 116.485 76.9539 115.932C76.776 115.379 77.0713 114.796 77.6183 114.62ZM77.5088 114.279C76.785 114.512 76.3791 115.3 76.6173 116.04C76.8555 116.781 77.6362 117.187 78.3684 116.952C79.1006 116.716 79.4981 115.931 79.26 115.19C79.0218 114.45 78.2326 114.046 77.5088 114.279Z" fill="#141414"/>
<path d="M78.4876 109.325C79.0314 109.15 79.3289 108.562 79.152 108.012C78.9751 107.462 78.3908 107.158 77.847 107.333C77.3032 107.508 77.0057 108.096 77.1826 108.646C77.3595 109.196 77.9438 109.5 78.4876 109.325Z" fill="white"/>
<path d="M77.8498 107.342C78.3884 107.168 78.9768 107.468 79.1548 108.021C79.3327 108.574 79.0374 109.157 78.4904 109.333C77.9518 109.507 77.3633 109.208 77.1854 108.654C77.0075 108.101 77.3027 107.518 77.8498 107.342ZM77.7403 107.001C77.0165 107.234 76.6106 108.022 76.8488 108.763C77.0869 109.503 77.8677 109.909 78.5999 109.674C79.3321 109.438 79.7296 108.653 79.4914 107.913C79.2532 107.172 78.4641 106.768 77.7403 107.001Z" fill="#141414"/>
<path d="M74.6741 122.789C75.2179 122.614 75.5154 122.026 75.3385 121.476C75.1616 120.926 74.5773 120.622 74.0335 120.797C73.4897 120.972 73.1922 121.56 73.3691 122.11C73.546 122.66 74.1303 122.964 74.6741 122.789Z" fill="white"/>
<path d="M74.0334 120.797C74.572 120.624 75.1604 120.923 75.3384 121.476C75.5136 122.021 75.221 122.613 74.674 122.789C74.1353 122.962 73.5469 122.663 73.369 122.11C73.1938 121.565 73.4947 120.971 74.0334 120.797ZM73.9239 120.457C73.2001 120.69 72.7942 121.478 73.0323 122.218C73.2705 122.959 74.0513 123.365 74.7835 123.129C75.5157 122.894 75.9132 122.109 75.675 121.368C75.4368 120.628 74.6477 120.224 73.9239 120.457Z" fill="#141414"/>
<path d="M61.511 125.088C62.0549 124.913 62.3523 124.325 62.1754 123.775C61.9985 123.226 61.4143 122.921 60.8704 123.096C60.3266 123.271 60.0291 123.859 60.206 124.409C60.3829 124.959 60.9672 125.263 61.511 125.088Z" fill="white"/>
<path d="M60.8703 123.097C61.4089 122.923 61.9973 123.223 62.1753 123.776C62.3532 124.329 62.0579 124.912 61.5109 125.088C60.9723 125.262 60.3838 124.962 60.2059 124.409C60.028 123.856 60.3317 123.27 60.8703 123.097ZM60.7608 122.756C60.037 122.989 59.6311 123.777 59.8693 124.517C60.1074 125.258 60.8882 125.664 61.6204 125.429C62.3526 125.193 62.7501 124.408 62.5119 123.667C62.2738 122.927 61.4846 122.523 60.7608 122.756Z" fill="#141414"/>
<path d="M55.9729 120.718C56.5168 120.543 56.8142 119.955 56.6373 119.405C56.4604 118.855 55.8762 118.551 55.3323 118.726C54.7885 118.901 54.4911 119.489 54.668 120.039C54.8449 120.589 55.4291 120.893 55.9729 120.718Z" fill="white"/>
<path d="M55.3322 118.726C55.8708 118.553 56.4593 118.852 56.6372 119.405C56.8124 119.95 56.5199 120.542 55.9728 120.718C55.4342 120.891 54.8458 120.592 54.6678 120.039C54.4899 119.485 54.7936 118.899 55.3322 118.726ZM55.2227 118.386C54.4989 118.618 54.093 119.406 54.3312 120.147C54.5693 120.887 55.3501 121.294 56.0823 121.058C56.8145 120.823 57.212 120.037 56.9738 119.297C56.7357 118.556 55.9465 118.153 55.2227 118.386Z" fill="#141414"/>
<path d="M53.5716 114.033C54.1154 113.858 54.4129 113.27 54.236 112.72C54.0591 112.17 53.4748 111.866 52.931 112.041C52.3871 112.216 52.0897 112.804 52.2666 113.354C52.4435 113.904 53.0277 114.208 53.5716 114.033Z" fill="white"/>
<path d="M52.9338 112.05C53.4724 111.876 54.0608 112.176 54.2388 112.729C54.414 113.274 54.1214 113.865 53.5744 114.041C53.0357 114.215 52.4473 113.916 52.2694 113.362C52.0914 112.809 52.3867 112.226 52.9338 112.05ZM52.8243 111.709C52.1005 111.942 51.6946 112.73 51.9327 113.471C52.1682 114.203 52.9517 114.617 53.6839 114.382C54.4161 114.146 54.8136 113.361 54.5754 112.621C54.3288 111.883 53.548 111.476 52.8243 111.709Z" fill="#141414"/>
<path d="M55.0979 106.939C55.6418 106.764 55.9392 106.177 55.7623 105.627C55.5854 105.077 55.0012 104.773 54.4573 104.947C53.9135 105.122 53.6161 105.71 53.793 106.26C53.9699 106.81 54.5541 107.114 55.0979 106.939Z" fill="white"/>
<path d="M54.4572 104.948C54.9958 104.774 55.5842 105.074 55.7622 105.627C55.9374 106.172 55.6449 106.763 55.0978 106.939C54.5592 107.113 53.9708 106.813 53.7928 106.26C53.6149 105.707 53.9186 105.121 54.4572 104.948ZM54.3477 104.607C53.6239 104.84 53.218 105.628 53.4562 106.369C53.6943 107.109 54.4751 107.515 55.2073 107.28C55.9395 107.044 56.337 106.259 56.0988 105.519C55.8607 104.778 55.0715 104.374 54.3477 104.607Z" fill="#141414"/>
<path d="M41.4124 95.9201C41.9562 95.7452 42.2537 95.1575 42.0768 94.6075C41.8999 94.0575 41.3156 93.7535 40.7718 93.9284C40.228 94.1033 39.9305 94.691 40.1074 95.241C40.2843 95.7909 40.8686 96.095 41.4124 95.9201Z" fill="white"/>
<path d="M40.7717 93.9282C41.3103 93.7549 41.8987 94.054 42.0766 94.6073C42.2546 95.1605 41.9593 95.7439 41.4123 95.9198C40.8736 96.0931 40.2852 95.794 40.1073 95.2407C39.9293 94.6875 40.233 94.1014 40.7717 93.9282ZM40.6622 93.5877C39.9384 93.8205 39.5325 94.6085 39.7706 95.349C40.0088 96.0895 40.7896 96.4958 41.5218 96.2603C42.254 96.0248 42.6515 95.2395 42.4133 94.499C42.1751 93.7585 41.3944 93.3522 40.6622 93.5877Z" fill="#141414"/>
<path d="M44.3226 89.4611C44.8664 89.2862 45.1638 88.6985 44.9869 88.1485C44.81 87.5986 44.2258 87.2945 43.682 87.4694C43.1381 87.6443 42.8407 88.232 43.0176 88.782C43.1945 89.332 43.7787 89.636 44.3226 89.4611Z" fill="white"/>
<path d="M43.6818 87.4697C44.2204 87.2964 44.8089 87.5955 44.9868 88.1488C45.162 88.6935 44.8695 89.2854 44.3224 89.4613C43.7754 89.6373 43.1954 89.3355 43.0174 88.7822C42.8422 88.2375 43.1348 87.6456 43.6818 87.4697ZM43.5723 87.1292C42.8485 87.362 42.4426 88.15 42.6808 88.8905C42.9162 89.6225 43.6997 90.0373 44.4319 89.8018C45.1641 89.5663 45.5616 88.781 45.3234 88.0405C45.0796 87.3112 44.2961 86.8964 43.5723 87.1292Z" fill="#141414"/>
<path d="M43.0569 82.5241C43.6008 82.3492 43.8982 81.7615 43.7213 81.2115C43.5444 80.6615 42.9602 80.3575 42.4163 80.5324C41.8725 80.7073 41.575 81.295 41.7519 81.845C41.9288 82.3949 42.5131 82.699 43.0569 82.5241Z" fill="white"/>
<path d="M42.4191 80.541C42.9578 80.3677 43.5462 80.6668 43.7241 81.2201C43.902 81.7733 43.6068 82.3567 43.0597 82.5326C42.5211 82.7059 41.9327 82.4067 41.7547 81.8535C41.5768 81.3003 41.8721 80.7169 42.4191 80.541ZM42.3096 80.2005C41.5858 80.4333 41.1799 81.2213 41.4181 81.9618C41.6563 82.7023 42.437 83.1086 43.1692 82.8731C43.9014 82.6376 44.2989 81.8523 44.0608 81.1118C43.8226 80.3713 43.0334 79.9677 42.3096 80.2005Z" fill="#141414"/>
<path d="M38.346 76.7419C38.8898 76.5669 39.1873 75.9793 39.0104 75.4293C38.8335 74.8793 38.2492 74.5753 37.7054 74.7502C37.1616 74.9251 36.8641 75.5127 37.041 76.0627C37.2179 76.6127 37.8022 76.9168 38.346 76.7419Z" fill="white"/>
<path d="M37.7053 74.7499C38.2439 74.5767 38.8323 74.8758 39.0102 75.4291C39.1882 75.9823 38.8929 76.5657 38.3459 76.7416C37.8072 76.9149 37.2188 76.6157 37.0409 76.0625C36.8629 75.5092 37.1666 74.9232 37.7053 74.7499ZM37.5957 74.4095C36.872 74.6423 36.466 75.4303 36.7042 76.1708C36.9424 76.9113 37.7232 77.3176 38.4554 77.0821C39.1876 76.8466 39.5851 76.0613 39.3469 75.3208C39.1087 74.5803 38.328 74.174 37.5957 74.4095Z" fill="#141414"/>
<path d="M59.4309 62.6061C59.9748 62.4312 60.2722 61.8435 60.0953 61.2936C59.9184 60.7436 59.3342 60.4395 58.7903 60.6144C58.2465 60.7894 57.9491 61.377 58.126 61.927C58.3029 62.477 58.8871 62.781 59.4309 62.6061Z" fill="white"/>
<path d="M58.7902 60.6142C59.3288 60.4409 59.9173 60.7401 60.0952 61.2933C60.2731 61.8466 59.9779 62.4299 59.4308 62.6059C58.8922 62.7791 58.3038 62.48 58.1258 61.9267C57.9479 61.3735 58.2432 60.7901 58.7902 60.6142ZM58.6807 60.2737C57.9569 60.5065 57.551 61.2945 57.7892 62.035C58.0274 62.7755 58.8081 63.1818 59.5403 62.9463C60.2725 62.7108 60.67 61.9255 60.4318 61.185C60.1937 60.4445 59.4045 60.0409 58.6807 60.2737Z" fill="#141414"/>
<path d="M46.6702 49.9274C47.214 49.7525 47.5115 49.1648 47.3346 48.6148C47.1577 48.0649 46.5734 47.7608 46.0296 47.9357C45.4858 48.1106 45.1883 48.6983 45.3652 49.2483C45.5421 49.7983 46.1264 50.1023 46.6702 49.9274Z" fill="white"/>
<path d="M46.0295 47.9355C46.5681 47.7622 47.1565 48.0614 47.3345 48.6146C47.5124 49.1678 47.2171 49.7512 46.6701 49.9272C46.1314 50.1004 45.543 49.8013 45.3651 49.248C45.1871 48.6948 45.4908 48.1087 46.0295 47.9355ZM45.92 47.595C45.1962 47.8278 44.7903 48.6158 45.0284 49.3563C45.2666 50.0968 46.0474 50.5031 46.7796 50.2676C47.5118 50.0321 47.9093 49.2468 47.6711 48.5063C47.4329 47.7658 46.6522 47.3595 45.92 47.595Z" fill="#141414"/>
<path d="M40.3694 54.1603C40.9133 53.9854 41.2107 53.3977 41.0338 52.8478C40.8569 52.2978 40.2727 51.9937 39.7288 52.1686C39.185 52.3436 38.8875 52.9312 39.0644 53.4812C39.2413 54.0312 39.8256 54.3352 40.3694 54.1603Z" fill="white"/>
<path d="M39.7316 52.1772C40.2703 52.0039 40.8587 52.3031 41.0366 52.8563C41.2146 53.4095 40.9193 53.9929 40.3722 54.1689C39.8336 54.3421 39.2452 54.043 39.0672 53.4897C38.8893 52.9365 39.193 52.3504 39.7316 52.1772ZM39.6221 51.8367C38.8983 52.0695 38.4924 52.8575 38.7306 53.598C38.9688 54.3385 39.7495 54.7448 40.4817 54.5093C41.2139 54.2738 41.6114 53.4885 41.3733 52.748C41.1351 52.0075 40.3459 51.6039 39.6221 51.8367Z" fill="#141414"/>
<path d="M33.5638 54.4806C34.1076 54.3057 34.405 53.7181 34.2282 53.1681C34.0513 52.6181 33.467 52.314 32.9232 52.4889C32.3793 52.6639 32.0819 53.2515 32.2588 53.8015C32.4357 54.3515 33.0199 54.6555 33.5638 54.4806Z" fill="white"/>
<path d="M32.923 52.4892C33.4617 52.3159 34.0501 52.6151 34.228 53.1683C34.406 53.7216 34.1107 54.3049 33.5636 54.4809C33.025 54.6541 32.4366 54.355 32.2586 53.8017C32.0807 53.2485 32.3844 52.6624 32.923 52.4892ZM32.8135 52.1487C32.0897 52.3815 31.6838 53.1695 31.922 53.91C32.1602 54.6505 32.9409 55.0568 33.6731 54.8213C34.4053 54.5858 34.8028 53.8005 34.5647 53.06C34.3265 52.3195 33.5373 51.9159 32.8135 52.1487Z" fill="#141414"/>
<path d="M27.3714 50.6774C27.9152 50.5025 28.2127 49.9148 28.0358 49.3648C27.8589 48.8149 27.2746 48.5108 26.7308 48.6857C26.187 48.8606 25.8895 49.4483 26.0664 49.9983C26.2433 50.5483 26.8276 50.8523 27.3714 50.6774Z" fill="white"/>
<path d="M26.7306 48.6855C27.2693 48.5122 27.8577 48.8114 28.0356 49.3646C28.2136 49.9178 27.9183 50.5012 27.3712 50.6772C26.8242 50.8531 26.2442 50.5513 26.0663 49.998C25.8883 49.4448 26.1836 48.8614 26.7306 48.6855ZM26.6211 48.345C25.8974 48.5778 25.4914 49.3658 25.7296 50.1063C25.9678 50.8468 26.7485 51.2531 27.4807 51.0176C28.2129 50.7821 28.6104 49.9968 28.3723 49.2563C28.1341 48.5158 27.3449 48.1122 26.6211 48.345Z" fill="#141414"/>
<path d="M23.8157 44.3263C24.3595 44.1514 24.657 43.5638 24.4801 43.0138C24.3032 42.4638 23.7189 42.1597 23.1751 42.3347C22.6313 42.5096 22.3338 43.0972 22.5107 43.6472C22.6876 44.1972 23.2719 44.5012 23.8157 44.3263Z" fill="white"/>
<path d="M23.175 42.3349C23.7136 42.1617 24.302 42.4608 24.48 43.014C24.6579 43.5673 24.3626 44.1506 23.8156 44.3266C23.2769 44.4998 22.6885 44.2007 22.5106 43.6474C22.3326 43.0942 22.6279 42.5108 23.175 42.3349ZM23.0655 41.9944C22.3417 42.2272 21.9358 43.0152 22.1739 43.7557C22.4121 44.4962 23.1929 44.9025 23.9251 44.667C24.6573 44.4315 25.0548 43.6462 24.8166 42.9057C24.5784 42.1652 23.7893 41.7616 23.0655 41.9944Z" fill="#141414"/>
<path d="M25.4095 34.3561C25.9533 34.1812 26.2508 33.5935 26.0739 33.0436C25.897 32.4936 25.3127 32.1895 24.7689 32.3644C24.225 32.5394 23.9276 33.127 24.1045 33.677C24.2814 34.227 24.8656 34.531 25.4095 34.3561Z" fill="white"/>
<path d="M24.7687 32.3642C25.3074 32.1909 25.8958 32.4901 26.0737 33.0433C26.2517 33.5966 25.9564 34.1799 25.4093 34.3559C24.8707 34.5291 24.2823 34.23 24.1043 33.6767C23.9264 33.1235 24.2217 32.5401 24.7687 32.3642ZM24.6592 32.0237C23.9354 32.2565 23.5295 33.0445 23.7677 33.785C24.0059 34.5255 24.7866 34.9318 25.5188 34.6963C26.251 34.4608 26.6485 33.6755 26.4104 32.935C26.1722 32.1945 25.383 31.7909 24.6592 32.0237Z" fill="#141414"/>
<path d="M35.7024 29.1671C36.2463 28.9922 36.5437 28.4046 36.3668 27.8546C36.1899 27.3046 35.6057 27.0006 35.0618 27.1755C34.518 27.3504 34.2206 27.938 34.3974 28.488C34.5743 29.038 35.1586 29.3421 35.7024 29.1671Z" fill="white"/>
<path d="M35.0646 27.184C35.6033 27.0108 36.1917 27.3099 36.3696 27.8631C36.5476 28.4164 36.2523 28.9997 35.7052 29.1757C35.1666 29.3489 34.5782 29.0498 34.4002 28.4966C34.2223 27.9433 34.5176 27.36 35.0646 27.184ZM34.9551 26.8436C34.2313 27.0764 33.8254 27.8644 34.0636 28.6048C34.3018 29.3453 35.0825 29.7517 35.8147 29.5161C36.5469 29.2806 36.9444 28.4954 36.7063 27.7549C36.4681 27.0144 35.6789 26.6108 34.9551 26.8436Z" fill="#141414"/>
<path d="M47.9632 35.8737C48.507 35.6988 48.8045 35.1111 48.6276 34.5611C48.4507 34.0112 47.8664 33.7071 47.3226 33.882C46.7788 34.0569 46.4813 34.6446 46.6582 35.1946C46.8351 35.7446 47.4194 36.0486 47.9632 35.8737Z" fill="white"/>
<path d="M47.3254 33.8906C47.864 33.7173 48.4524 34.0164 48.6304 34.5697C48.8083 35.1229 48.513 35.7063 47.966 35.8822C47.4273 36.0555 46.8389 35.7564 46.661 35.2031C46.483 34.6499 46.7867 34.0638 47.3254 33.8906ZM47.2159 33.5501C46.4921 33.7829 46.0862 34.5709 46.3243 35.3114C46.5625 36.0519 47.3433 36.4582 48.0755 36.2227C48.8077 35.9872 49.2052 35.2019 48.967 34.4614C48.7288 33.7209 47.9481 33.3146 47.2159 33.5501Z" fill="#141414"/>
<path d="M37.3987 39.9577C37.9426 39.7828 38.24 39.1951 38.0631 38.6451C37.8862 38.0951 37.302 37.7911 36.7581 37.966C36.2143 38.1409 35.9168 38.7286 36.0937 39.2785C36.2706 39.8285 36.8549 40.1326 37.3987 39.9577Z" fill="white"/>
<path d="M36.758 37.9658C37.2966 37.7925 37.885 38.0916 38.063 38.6449C38.2409 39.1981 37.9456 39.7815 37.3986 39.9574C36.8515 40.1334 36.2715 39.8315 36.0936 39.2783C35.9157 38.7251 36.2194 38.139 36.758 37.9658ZM36.6485 37.6253C35.9247 37.8581 35.5188 38.6461 35.757 39.3866C35.9951 40.1271 36.7759 40.5334 37.5081 40.2979C38.2403 40.0624 38.6378 39.2771 38.3996 38.5366C38.1614 37.7961 37.3807 37.3898 36.6485 37.6253Z" fill="#141414"/>
<path d="M49.2561 43.3C49.8 43.125 50.0974 42.5374 49.9205 41.9874C49.7436 41.4374 49.1594 41.1334 48.6155 41.3083C48.0717 41.4832 47.7743 42.0709 47.9512 42.6208C48.1281 43.1708 48.7123 43.4749 49.2561 43.3Z" fill="white"/>
<path d="M48.6154 41.3085C49.154 41.1353 49.7424 41.4344 49.9204 41.9877C50.0956 42.5324 49.8031 43.1242 49.256 43.3002C48.7174 43.4734 48.129 43.1743 47.951 42.6211C47.7815 42.0651 48.0768 41.4818 48.6154 41.3085ZM48.5059 40.9681C47.7821 41.2009 47.3762 41.9889 47.6144 42.7294C47.8498 43.4613 48.6333 43.8762 49.3655 43.6407C50.0977 43.4052 50.4952 42.6199 50.257 41.8794C50.0189 41.1389 49.2381 40.7326 48.5059 40.9681Z" fill="#141414"/>
<path d="M63.0413 30.3483C63.5851 30.1734 63.8826 29.5857 63.7057 29.0357C63.5288 28.4858 62.9445 28.1817 62.4007 28.3566C61.8569 28.5315 61.5594 29.1192 61.7363 29.6692C61.9132 30.2192 62.4975 30.5232 63.0413 30.3483Z" fill="white"/>
<path d="M62.4006 28.3564C62.9392 28.1831 63.5276 28.4823 63.7056 29.0355C63.8808 29.5802 63.5882 30.1721 63.0412 30.3481C62.5025 30.5213 61.9141 30.2222 61.7362 29.6689C61.5582 29.1157 61.8535 28.5323 62.4006 28.3564ZM62.2911 28.0159C61.5673 28.2487 61.1614 29.0367 61.3995 29.7772C61.635 30.5092 62.4185 30.924 63.1507 30.6885C63.8829 30.453 64.2804 29.6677 64.0422 28.9272C63.7956 28.1894 63.0148 27.7831 62.2911 28.0159Z" fill="#141414"/>
<path d="M63.6224 19.5949C64.1662 19.42 64.4636 18.8323 64.2867 18.2823C64.1099 17.7323 63.5256 17.4283 62.9818 17.6032C62.4379 17.7781 62.1405 18.3658 62.3174 18.9158C62.4943 19.4657 63.0785 19.7698 63.6224 19.5949Z" fill="white"/>
<path d="M62.9816 17.6035C63.5203 17.4302 64.1087 17.7293 64.2866 18.2826C64.4646 18.8358 64.1693 19.4192 63.6222 19.5951C63.0836 19.7684 62.4952 19.4692 62.3172 18.916C62.1393 18.3628 62.443 17.7767 62.9816 17.6035ZM62.8721 17.263C62.1483 17.4958 61.7424 18.2838 61.9806 19.0243C62.2188 19.7648 62.9995 20.1711 63.7317 19.9356C64.4639 19.7001 64.8614 18.9148 64.6233 18.1743C64.3851 17.4338 63.6043 17.0275 62.8721 17.263Z" fill="#141414"/>
<path d="M74.1058 13.6686C74.6496 13.4937 74.947 12.906 74.7701 12.3561C74.5932 11.8061 74.009 11.502 73.4652 11.6769C72.9213 11.8519 72.6239 12.4395 72.8008 12.9895C72.9777 13.5395 73.5619 13.8435 74.1058 13.6686Z" fill="white"/>
<path d="M73.465 11.6772C74.0036 11.5039 74.5921 11.8031 74.77 12.3563C74.9479 12.9095 74.6527 13.4929 74.1056 13.6689C73.567 13.8421 72.9786 13.543 72.8006 12.9897C72.6227 12.4365 72.918 11.8531 73.465 11.6772ZM73.3555 11.3367C72.6317 11.5695 72.2258 12.3575 72.464 13.098C72.7022 13.8385 73.4829 14.2448 74.2151 14.0093C74.9473 13.7738 75.3448 12.9885 75.1066 12.248C74.8685 11.5075 74.0793 11.1039 73.3555 11.3367Z" fill="#141414"/>
<path d="M82.8392 16.2228C83.383 16.0479 83.6804 15.4602 83.5035 14.9103C83.3266 14.3603 82.7424 14.0562 82.1986 14.2311C81.6547 14.4061 81.3573 14.9937 81.5342 15.5437C81.7111 16.0937 82.2953 16.3977 82.8392 16.2228Z" fill="white"/>
<path d="M82.2013 14.2397C82.74 14.0664 83.3284 14.3656 83.5063 14.9188C83.6843 15.472 83.389 16.0554 82.8419 16.2314C82.3033 16.4046 81.7149 16.1055 81.537 15.5522C81.359 14.999 81.6627 14.4129 82.2013 14.2397ZM82.0918 13.8992C81.3681 14.132 80.9621 14.92 81.2003 15.6605C81.4385 16.401 82.2192 16.8073 82.9515 16.5718C83.6837 16.3363 84.0812 15.551 83.843 14.8105C83.6048 14.07 82.824 13.6637 82.0918 13.8992Z" fill="#141414"/>
<path d="M77.8352 20.8185C78.3791 20.6436 78.6765 20.0559 78.4996 19.506C78.3227 18.956 77.7385 18.6519 77.1947 18.8268C76.6508 19.0018 76.3534 19.5894 76.5303 20.1394C76.7072 20.6894 77.2914 20.9934 77.8352 20.8185Z" fill="white"/>
<path d="M77.1945 18.8271C77.7331 18.6538 78.3216 18.953 78.4995 19.5062C78.6774 20.0594 78.3822 20.6428 77.8351 20.8188C77.2965 20.992 76.7081 20.6929 76.5301 20.1396C76.3522 19.5864 76.6475 19.003 77.1945 18.8271ZM77.085 18.4866C76.3612 18.7194 75.9553 19.5074 76.1935 20.2479C76.4316 20.9884 77.2124 21.3947 77.9446 21.1592C78.6768 20.9237 79.0743 20.1384 78.8361 19.3979C78.598 18.6574 77.8088 18.2538 77.085 18.4866Z" fill="#141414"/>
<path d="M70.1438 38.2819C70.6877 38.107 70.9851 37.5193 70.8082 36.9693C70.6313 36.4194 70.0471 36.1153 69.5032 36.2902C68.9594 36.4651 68.662 37.0528 68.8389 37.6028C69.0158 38.1528 69.6 38.4568 70.1438 38.2819Z" fill="white"/>
<path d="M69.506 36.2988C70.0447 36.1255 70.6331 36.4246 70.811 36.9779C70.9862 37.5226 70.6937 38.1145 70.1466 38.2904C69.608 38.4637 69.0196 38.1646 68.8416 37.6113C68.6637 37.0581 68.959 36.4747 69.506 36.2988ZM69.3965 35.9583C68.6727 36.1911 68.2668 36.9791 68.505 37.7196C68.7404 38.4516 69.5239 38.8664 70.2561 38.6309C70.9883 38.3954 71.3858 37.6101 71.1477 36.8696C70.9011 36.1318 70.1203 35.7255 69.3965 35.9583Z" fill="#141414"/>
<path d="M87.2698 29.4489C87.8136 29.274 88.1111 28.6863 87.9342 28.1363C87.7573 27.5863 87.173 27.2823 86.6292 27.4572C86.0854 27.6321 85.7879 28.2198 85.9648 28.7698C86.1417 29.3197 86.726 29.6238 87.2698 29.4489Z" fill="white"/>
<path d="M86.632 27.4658C87.1706 27.2925 87.7591 27.5916 87.937 28.1449C88.1149 28.6981 87.8197 29.2815 87.2726 29.4574C86.7256 29.6334 86.1456 29.3315 85.9676 28.7783C85.7897 28.2251 86.085 27.6417 86.632 27.4658ZM86.5225 27.1253C85.7987 27.3581 85.3928 28.1461 85.631 28.8866C85.8691 29.6271 86.6499 30.0334 87.3821 29.7979C88.1143 29.5624 88.5118 28.7771 88.2736 28.0366C88.0355 27.2961 87.2463 26.8925 86.5225 27.1253Z" fill="#141414"/>
<path d="M84.9104 32.8566C85.4543 32.6817 85.7517 32.094 85.5748 31.544C85.3979 30.9941 84.8137 30.69 84.2698 30.8649C83.726 31.0398 83.4286 31.6275 83.6055 32.1775C83.7824 32.7275 84.3666 33.0315 84.9104 32.8566Z" fill="white"/>
<path d="M84.2697 30.8647C84.8083 30.6914 85.3968 30.9906 85.5747 31.5438C85.7526 32.097 85.4574 32.6804 84.9103 32.8564C84.3717 33.0296 83.7833 32.7305 83.6053 32.1772C83.4274 31.624 83.7227 31.0406 84.2697 30.8647ZM84.1602 30.5242C83.4364 30.757 83.0305 31.545 83.2687 32.2855C83.5068 33.026 84.2876 33.4323 85.0198 33.1968C85.752 32.9613 86.1495 32.176 85.9113 31.4355C85.6732 30.695 84.884 30.2914 84.1602 30.5242Z" fill="#141414"/>
<path d="M57.7972 69.8561C58.341 69.6812 58.6384 69.0935 58.4615 68.5436C58.2847 67.9936 57.7004 67.6895 57.1566 67.8644C56.6127 68.0394 56.3153 68.627 56.4922 69.177C56.6691 69.727 57.2533 70.031 57.7972 69.8561Z" fill="white"/>
<path d="M57.1594 67.873C57.698 67.6997 58.2864 67.9989 58.4643 68.5521C58.6423 69.1053 58.347 69.6887 57.8 69.8647C57.2613 70.0379 56.6729 69.7388 56.495 69.1855C56.317 68.6323 56.6207 68.0462 57.1594 67.873ZM57.0498 67.5325C56.3261 67.7653 55.9201 68.5533 56.1583 69.2938C56.3965 70.0343 57.1773 70.4406 57.9095 70.2051C58.6417 69.9696 59.0392 69.1843 58.801 68.4438C58.5628 67.7033 57.7821 67.297 57.0498 67.5325Z" fill="#141414"/>
<path d="M64.8509 57.4538C65.3947 57.2788 65.6922 56.6912 65.5153 56.1412C65.3384 55.5912 64.7541 55.2872 64.2103 55.4621C63.6664 55.637 63.369 56.2247 63.5459 56.7746C63.7228 57.3246 64.307 57.6287 64.8509 57.4538Z" fill="white"/>
<path d="M64.2101 55.4618C64.7488 55.2886 65.3372 55.5877 65.5151 56.141C65.6931 56.6942 65.3978 57.2776 64.8507 57.4535C64.3037 57.6295 63.7237 57.3276 63.5457 56.7744C63.3678 56.2212 63.6631 55.6378 64.2101 55.4618ZM64.1006 55.1214C63.3768 55.3542 62.9709 56.1422 63.2091 56.8827C63.4473 57.6232 64.228 58.0295 64.9602 57.794C65.6924 57.5585 66.0899 56.7732 65.8518 56.0327C65.6136 55.2922 64.8244 54.8886 64.1006 55.1214Z" fill="#141414"/>
<path d="M71.969 56.0719C72.5129 55.897 72.8103 55.3094 72.6334 54.7594C72.4565 54.2094 71.8723 53.9053 71.3284 54.0803C70.7846 54.2552 70.4872 54.8428 70.664 55.3928C70.8409 55.9428 71.4252 56.2468 71.969 56.0719Z" fill="white"/>
<path d="M71.3283 54.08C71.8669 53.9068 72.4553 54.2059 72.6333 54.7591C72.8112 55.3124 72.5159 55.8957 71.9689 56.0717C71.4218 56.2476 70.8419 55.9458 70.6639 55.3926C70.486 54.8393 70.7813 54.256 71.3283 54.08ZM71.2188 53.7396C70.495 53.9724 70.0891 54.7604 70.3273 55.5008C70.5654 56.2413 71.3462 56.6476 72.0784 56.4121C72.8106 56.1766 73.2081 55.3913 72.9699 54.6509C72.7318 53.9104 71.9426 53.5068 71.2188 53.7396Z" fill="#141414"/>
<path d="M82.3792 64.8585C82.923 64.6836 83.2205 64.096 83.0436 63.546C82.8667 62.996 82.2824 62.692 81.7386 62.8669C81.1948 63.0418 80.8973 63.6294 81.0742 64.1794C81.2511 64.7294 81.8354 65.0335 82.3792 64.8585Z" fill="white"/>
<path d="M81.7385 62.8666C82.2771 62.6934 82.8655 62.9925 83.0434 63.5458C83.2214 64.099 82.9261 64.6824 82.3791 64.8583C81.832 65.0343 81.252 64.7324 81.0741 64.1792C80.8961 63.6259 81.1914 63.0426 81.7385 62.8666ZM81.629 62.5262C80.9052 62.759 80.4992 63.547 80.7374 64.2875C80.9756 65.028 81.7564 65.4343 82.4886 65.1988C83.2208 64.9633 83.6183 64.178 83.3801 63.4375C83.1419 62.697 82.3527 62.2934 81.629 62.5262Z" fill="#141414"/>
<path d="M72.3147 66.5788C72.8586 66.4038 73.156 65.8162 72.9791 65.2662C72.8022 64.7162 72.218 64.4122 71.6741 64.5871C71.1303 64.762 70.8329 65.3497 71.0098 65.8996C71.1866 66.4496 71.7709 66.7537 72.3147 66.5788Z" fill="white"/>
<path d="M71.674 64.5873C72.2126 64.4141 72.801 64.7132 72.979 65.2665C73.1569 65.8197 72.8617 66.4031 72.3146 66.579C71.7676 66.755 71.1876 66.4531 71.0096 65.8999C70.8317 65.3466 71.127 64.7633 71.674 64.5873ZM71.5645 64.2469C70.8407 64.4797 70.4348 65.2677 70.673 66.0082C70.9111 66.7487 71.6919 67.155 72.4241 66.9195C73.1563 66.684 73.5538 65.8987 73.3156 65.1582C73.0775 64.4177 72.2883 64.0141 71.5645 64.2469Z" fill="#141414"/>
<path d="M79.0433 78.0666C79.5871 77.8916 79.8845 77.304 79.7076 76.754C79.5308 76.204 78.9465 75.9 78.4027 76.0749C77.8588 76.2498 77.5614 76.8375 77.7383 77.3874C77.9152 77.9374 78.4994 78.2415 79.0433 78.0666Z" fill="white"/>
<path d="M78.4025 76.0751C78.9412 75.9019 79.5296 76.201 79.7075 76.7543C79.8855 77.3075 79.5902 77.8908 79.0431 78.0668C78.4961 78.2428 77.9161 77.9409 77.7381 77.3877C77.5602 76.8344 77.8555 76.2511 78.4025 76.0751ZM78.293 75.7347C77.5692 75.9675 77.1633 76.7555 77.4015 77.496C77.6397 78.2365 78.4204 78.6428 79.1526 78.4073C79.8848 78.1718 80.2823 77.3865 80.0442 76.646C79.806 75.9055 79.0168 75.5019 78.293 75.7347Z" fill="#141414"/>
<path d="M81.8167 74.8991C82.3605 74.7242 82.658 74.1365 82.4811 73.5865C82.3042 73.0365 81.7199 72.7325 81.1761 72.9074C80.6323 73.0823 80.3348 73.67 80.5117 74.22C80.6886 74.7699 81.2729 75.074 81.8167 74.8991Z" fill="white"/>
<path d="M81.176 72.9077C81.7146 72.7344 82.303 73.0335 82.4809 73.5868C82.6589 74.14 82.3636 74.7234 81.8166 74.8993C81.2695 75.0753 80.6895 74.7734 80.5116 74.2202C80.3336 73.667 80.6289 73.0836 81.176 72.9077ZM81.0665 72.5672C80.3427 72.8 79.9367 73.588 80.1749 74.3285C80.4131 75.069 81.1939 75.4753 81.9261 75.2398C82.6583 75.0043 83.0558 74.219 82.8176 73.4785C82.5794 72.738 81.7902 72.3344 81.0665 72.5672Z" fill="#141414"/>
<path d="M31.0823 74.9171C31.6261 74.7422 31.9236 74.1546 31.7467 73.6046C31.5698 73.0546 30.9855 72.7506 30.4417 72.9255C29.8979 73.1004 29.6004 73.688 29.7773 74.238C29.9542 74.788 30.5385 75.0921 31.0823 74.9171Z" fill="white"/>
<path d="M30.4445 72.934C30.9831 72.7608 31.5716 73.0599 31.7495 73.6131C31.9274 74.1664 31.6322 74.7497 31.0851 74.9257C30.5381 75.1016 29.9581 74.7998 29.7801 74.2466C29.6022 73.6933 29.9059 73.1073 30.4445 72.934ZM30.335 72.5936C29.6112 72.8264 29.2053 73.6144 29.4435 74.3548C29.6816 75.0953 30.4624 75.5016 31.1946 75.2661C31.9268 75.0306 32.3243 74.2454 32.0861 73.5049C31.848 72.7644 31.0588 72.3608 30.335 72.5936Z" fill="#141414"/>
<path d="M24.3968 77.1432C24.9406 76.9683 25.2381 76.3807 25.0612 75.8307C24.8843 75.2807 24.3 74.9766 23.7562 75.1515C23.2123 75.3265 22.9149 75.9141 23.0918 76.4641C23.2687 77.0141 23.8529 77.3181 24.3968 77.1432Z" fill="white"/>
<path d="M23.756 75.1513C24.2947 74.9781 24.8831 75.2772 25.061 75.8304C25.239 76.3837 24.9437 76.967 24.3966 77.143C23.858 77.3162 23.2696 77.0171 23.0916 76.4639C22.9137 75.9106 23.209 75.3273 23.756 75.1513ZM23.6465 74.8108C22.9227 75.0436 22.5168 75.8316 22.755 76.5721C22.9932 77.3126 23.7739 77.7189 24.5061 77.4834C25.2383 77.2479 25.6358 76.4626 25.3977 75.7221C25.1595 74.9817 24.3703 74.578 23.6465 74.8108Z" fill="#141414"/>
<path d="M19.1048 89.7956C19.6486 89.6206 19.9461 89.033 19.7692 88.483C19.5923 87.933 19.008 87.629 18.4642 87.8039C17.9204 87.9788 17.6229 88.5665 17.7998 89.1164C17.9767 89.6664 18.561 89.9705 19.1048 89.7956Z" fill="white"/>
<path d="M18.464 87.8041C19.0027 87.6309 19.5911 87.93 19.769 88.4833C19.9442 89.028 19.6517 89.6198 19.1046 89.7958C18.566 89.969 17.9776 89.6699 17.7997 89.1167C17.6244 88.572 17.917 87.9801 18.464 87.8041ZM18.3545 87.4637C17.6307 87.6965 17.2248 88.4845 17.463 89.225C17.7012 89.9655 18.4819 90.3718 19.2141 90.1363C19.9463 89.9008 20.3438 89.1155 20.1057 88.375C19.8675 87.6345 19.0783 87.2309 18.3545 87.4637Z" fill="#141414"/>
<path d="M22.3997 95.9958C22.9435 95.8208 23.241 95.2332 23.0641 94.6832C22.8872 94.1332 22.3029 93.8292 21.7591 94.0041C21.2153 94.179 20.9178 94.7667 21.0947 95.3166C21.2716 95.8666 21.8559 96.1707 22.3997 95.9958Z" fill="white"/>
<path d="M21.759 94.0043C22.2976 93.8311 22.886 94.1302 23.064 94.6835C23.2392 95.2282 22.9466 95.8201 22.3996 95.996C21.8609 96.1692 21.2725 95.8701 21.0946 95.3169C20.9194 94.7722 21.2119 94.1803 21.759 94.0043ZM21.6495 93.6639C20.9257 93.8967 20.5198 94.6847 20.7579 95.4252C20.9961 96.1657 21.7769 96.572 22.5091 96.3365C23.2413 96.101 23.6388 95.3157 23.4006 94.5752C23.1624 93.8347 22.3732 93.4311 21.6495 93.6639Z" fill="#141414"/>
<path d="M28.7972 99.8927C29.341 99.7178 29.6384 99.1302 29.4616 98.5802C29.2847 98.0302 28.7004 97.7261 28.1566 97.9011C27.6127 98.076 27.3153 98.6636 27.4922 99.2136C27.6691 99.7636 28.2533 100.068 28.7972 99.8927Z" fill="white"/>
<path d="M28.1564 97.9008C28.6951 97.7276 29.2835 98.0267 29.4614 98.5799C29.6366 99.1247 29.3441 99.7165 28.797 99.8925C28.25 100.068 27.67 99.7666 27.492 99.2134C27.3225 98.6574 27.6178 98.0741 28.1564 97.9008ZM28.0469 97.5604C27.3231 97.7932 26.9172 98.5811 27.1554 99.3216C27.3908 100.054 28.1743 100.468 28.9065 100.233C29.6387 99.9974 30.0362 99.2121 29.7981 98.4717C29.5599 97.7312 28.7707 97.3276 28.0469 97.5604Z" fill="#141414"/>
<path d="M35.888 100.11C36.4318 99.9351 36.7293 99.3475 36.5524 98.7975C36.3755 98.2475 35.7912 97.9434 35.2474 98.1183C34.7036 98.2933 34.4061 98.8809 34.583 99.4309C34.7599 99.9809 35.3442 100.285 35.888 100.11Z" fill="white"/>
<path d="M35.2502 98.1269C35.7888 97.9536 36.3772 98.2528 36.5552 98.806C36.7331 99.3593 36.4378 99.9426 35.8908 100.119C35.3521 100.292 34.7637 99.9927 34.5858 99.4394C34.4078 98.8862 34.7115 98.3001 35.2502 98.1269ZM35.1407 97.7864C34.4169 98.0192 34.011 98.8072 34.2491 99.5477C34.4873 100.288 35.2681 100.695 36.0003 100.459C36.7325 100.224 37.13 99.4382 36.8918 98.6977C36.6536 97.9572 35.8645 97.5536 35.1407 97.7864Z" fill="#141414"/>
<path d="M33.347 83.0265C33.8908 82.8516 34.1883 82.2639 34.0114 81.714C33.8345 81.164 33.2502 80.8599 32.7064 81.0348C32.1625 81.2098 31.8651 81.7974 32.042 82.3474C32.2189 82.8974 32.8031 83.2014 33.347 83.0265Z" fill="white"/>
<path d="M32.7092 81.0434C33.2478 80.8701 33.8362 81.1693 34.0141 81.7225C34.1921 82.2758 33.8968 82.8591 33.3498 83.0351C32.8027 83.211 32.2227 82.9092 32.0448 82.3559C31.8668 81.8027 32.1705 81.2166 32.7092 81.0434ZM32.5997 80.7029C31.8759 80.9357 31.47 81.7237 31.7081 82.4642C31.9463 83.2047 32.7271 83.611 33.4593 83.3755C34.1915 83.14 34.589 82.3547 34.3508 81.6142C34.1126 80.8737 33.3234 80.4701 32.5997 80.7029Z" fill="#141414"/>
<path d="M59.8938 76.5168C60.4377 76.3418 60.7351 75.7542 60.5582 75.2042C60.3813 74.6542 59.7971 74.3502 59.2532 74.5251C58.7094 74.7 58.412 75.2876 58.5889 75.8376C58.7658 76.3876 59.35 76.6917 59.8938 76.5168Z" fill="white"/>
<path d="M59.2531 74.5253C59.7917 74.3521 60.3801 74.6512 60.5581 75.2044C60.736 75.7577 60.4408 76.341 59.8937 76.517C59.3551 76.6902 58.7667 76.3911 58.5887 75.8379C58.4108 75.2846 58.7145 74.6986 59.2531 74.5253ZM59.1436 74.1849C58.4198 74.4177 58.0139 75.2057 58.2521 75.9462C58.4902 76.6866 59.271 77.093 60.0032 76.8575C60.7354 76.6219 61.1329 75.8367 60.8947 75.0962C60.6566 74.3557 59.8674 73.9521 59.1436 74.1849Z" fill="#141414"/>
<path d="M72.8294 81.654C73.3732 81.479 73.6707 80.8914 73.4938 80.3414C73.3169 79.7914 72.7326 79.4874 72.1888 79.6623C71.645 79.8372 71.3475 80.4249 71.5244 80.9748C71.7013 81.5248 72.2856 81.8289 72.8294 81.654Z" fill="white"/>
<path d="M72.1887 79.6625C72.7273 79.4893 73.3157 79.7884 73.4936 80.3417C73.6716 80.8949 73.3763 81.4783 72.8293 81.6542C72.2906 81.8275 71.7022 81.5283 71.5243 80.9751C71.3463 80.4218 71.6416 79.8385 72.1887 79.6625ZM72.0791 79.3221C71.3554 79.5549 70.9494 80.3429 71.1876 81.0834C71.4258 81.8239 72.2066 82.2302 72.9388 81.9947C73.671 81.7592 74.0685 80.9739 73.8303 80.2334C73.5921 79.4929 72.8029 79.0893 72.0791 79.3221Z" fill="#141414"/>
<path d="M67.0364 100.63C67.5802 100.455 67.8777 99.8675 67.7008 99.3175C67.5239 98.7675 66.9396 98.4634 66.3958 98.6384C65.852 98.8133 65.5545 99.4009 65.7314 99.9509C65.9083 100.501 66.4926 100.805 67.0364 100.63Z" fill="white"/>
<path d="M66.3957 98.6381C66.9343 98.4649 67.5227 98.764 67.7007 99.3172C67.8786 99.8705 67.5833 100.454 67.0363 100.63C66.4892 100.806 65.9092 100.504 65.7313 99.9507C65.5533 99.3974 65.857 98.8114 66.3957 98.6381ZM66.2862 98.2977C65.5624 98.5305 65.1565 99.3185 65.3946 100.059C65.6328 100.799 66.4136 101.206 67.1458 100.97C67.878 100.735 68.2755 99.9495 68.0373 99.209C67.7991 98.4685 67.0184 98.0622 66.2862 98.2977Z" fill="#141414"/>
<path d="M116.809 89.7013C117.353 89.5264 117.65 88.9388 117.473 88.3888C117.296 87.8388 116.712 87.5347 116.168 87.7097C115.624 87.8846 115.327 88.4722 115.504 89.0222C115.681 89.5722 116.265 89.8762 116.809 89.7013Z" fill="white"/>
<path d="M116.168 87.7099C116.707 87.5367 117.295 87.8358 117.473 88.389C117.651 88.9423 117.356 89.5256 116.809 89.7016C116.27 89.8748 115.682 89.5757 115.504 89.0224C115.326 88.4692 115.63 87.8831 116.168 87.7099ZM116.059 87.3694C115.335 87.6022 114.929 88.3902 115.167 89.1307C115.403 89.8627 116.186 90.2775 116.918 90.042C117.65 89.8065 118.048 89.0212 117.81 88.2807C117.574 87.5488 116.782 87.1366 116.059 87.3694Z" fill="#141414"/>
<path d="M109.853 107.37C110.397 107.195 110.694 106.607 110.517 106.057C110.34 105.507 109.756 105.203 109.212 105.378C108.668 105.553 108.371 106.141 108.548 106.691C108.725 107.241 109.309 107.545 109.853 107.37Z" fill="white"/>
<path d="M109.212 105.378C109.751 105.205 110.339 105.504 110.517 106.057C110.692 106.602 110.4 107.194 109.853 107.37C109.314 107.543 108.726 107.244 108.548 106.691C108.37 106.138 108.665 105.554 109.212 105.378ZM109.103 105.038C108.379 105.271 107.973 106.059 108.211 106.799C108.449 107.54 109.23 107.946 109.962 107.71C110.694 107.475 111.092 106.69 110.854 105.949C110.616 105.209 109.826 104.805 109.103 105.038Z" fill="#141414"/>
<path d="M96.9153 51.902C97.4592 51.7271 97.7566 51.1394 97.5797 50.5895C97.4028 50.0395 96.8186 49.7354 96.2747 49.9103C95.7309 50.0853 95.4334 50.6729 95.6103 51.2229C95.7872 51.7729 96.3715 52.0769 96.9153 51.902Z" fill="white"/>
<path d="M96.2746 49.9101C96.8132 49.7368 97.4016 50.036 97.5796 50.5892C97.7548 51.1339 97.4622 51.7258 96.9152 51.9018C96.3766 52.075 95.7881 51.7759 95.6102 51.2226C95.4323 50.6694 95.7275 50.086 96.2746 49.9101ZM96.1651 49.5696C95.4413 49.8024 95.0354 50.5904 95.2736 51.3309C95.5117 52.0714 96.2925 52.4777 97.0247 52.2422C97.7569 52.0067 98.1544 51.2214 97.9162 50.4809C97.6781 49.7404 96.8889 49.3368 96.1651 49.5696Z" fill="#141414"/>
</g>
</g>
<defs>
<linearGradient id="paint0_linear_835_2170" x1="59.9509" y1="62.6665" x2="76.0365" y2="82.6062" gradientUnits="userSpaceOnUse">
<stop stop-color="white" stop-opacity="0.52"/>
<stop offset="1" stop-color="white" stop-opacity="0"/>
</linearGradient>
<linearGradient id="paint1_linear_835_2170" x1="63.6705" y1="20.0311" x2="80.0736" y2="39.3719" gradientUnits="userSpaceOnUse">
<stop stop-color="white" stop-opacity="0.52"/>
<stop offset="1" stop-color="white" stop-opacity="0"/>
</linearGradient>
<linearGradient id="paint2_linear_835_2170" x1="55.5784" y1="106.734" x2="70.7315" y2="126.115" gradientUnits="userSpaceOnUse">
<stop stop-color="white" stop-opacity="0.52"/>
<stop offset="1" stop-color="white" stop-opacity="0"/>
</linearGradient>
<linearGradient id="paint3_linear_835_2170" x1="98.736" y1="43.6254" x2="114.574" y2="63.5055" gradientUnits="userSpaceOnUse">
<stop stop-color="white" stop-opacity="0.52"/>
<stop offset="1" stop-color="white" stop-opacity="0"/>
</linearGradient>
<linearGradient id="paint4_linear_835_2170" x1="20.9098" y1="81.7309" x2="36.7481" y2="101.611" gradientUnits="userSpaceOnUse">
<stop stop-color="white" stop-opacity="0.52"/>
<stop offset="1" stop-color="white" stop-opacity="0"/>
</linearGradient>
<linearGradient id="paint5_linear_835_2170" x1="95.6196" y1="88.9229" x2="111.791" y2="108.437" gradientUnits="userSpaceOnUse">
<stop stop-color="white" stop-opacity="0.52"/>
<stop offset="1" stop-color="white" stop-opacity="0"/>
</linearGradient>
<linearGradient id="paint6_linear_835_2170" x1="25.5031" y1="35.9075" x2="41.4386" y2="55.8378" gradientUnits="userSpaceOnUse">
<stop stop-color="white" stop-opacity="0.52"/>
<stop offset="1" stop-color="white" stop-opacity="0"/>
</linearGradient>
<clipPath id="clip0_835_2170">
<rect width="114.081" height="106.861" fill="white" transform="translate(0 34.9307) rotate(-17.8298)"/>
</clipPath>
</defs>
</svg>
