<svg xmlns="http://www.w3.org/2000/svg" width="527" height="616" viewBox="0 0 527 616" fill="none">
<path d="M0.000488281 -1.30101e-05L526.998 -0.00012207L526.997 559.417C526.997 561.672 525.169 563.5 522.914 563.5C511.638 563.5 502.497 572.641 502.497 583.917L502.497 585.702C502.497 596.978 511.638 606.119 522.914 606.119C525.169 606.119 526.997 607.947 526.997 610.202L526.997 616L-0.00130866 616L-0.00130841 610.119C-0.00130831 607.91 1.78952 606.119 3.99857 606.119C15.0439 606.119 23.998 597.165 23.998 586.12L23.998 583.499C23.998 572.454 15.0439 563.5 3.99857 563.5C1.78953 563.5 -0.00130629 561.709 -0.00130619 559.5L0.000488281 -1.30101e-05Z" fill="white"/>
</svg>